<svg id="Capa_1" enable-background="new 0 0 512 512" height="512" viewBox="0 0 512 512" width="512" xmlns="http://www.w3.org/2000/svg"><g><circle cx="256" cy="256" fill="#fd9468" r="256"/><path d="m383.021 33.691c26.498 40.318 41.929 88.558 41.929 140.41 0 141.385-114.615 256-256 256-46.226 0-89.588-12.257-127.021-33.691 45.755 69.617 124.538 115.59 214.071 115.59 141.385 0 256-114.615 256-256 0-95.159-51.923-178.186-128.979-222.309z" fill="#fe7d43"/><circle cx="256" cy="256" fill="#ffdcce" r="222.915"/><g fill="#fd9468"><path d="m258.912 187.586 44.746 44.754c1.609 1.61 4.219 1.61 5.828 0l23.585-23.59c1.609-1.609 1.609-4.218 0-5.827l-74.16-74.177c-1.609-1.61-4.219-1.61-5.828 0l-74.133 74.15c-1.609 1.609-1.609 4.218 0 5.827l23.585 23.59c1.609 1.61 4.219 1.61 5.828 0l44.72-44.727c1.611-1.61 4.22-1.61 5.829 0z"/><path d="m152.354 229.492-23.586 23.591c-1.609 1.609-1.609 4.218 0 5.827l23.584 23.59c1.609 1.61 4.219 1.61 5.828 0l23.586-23.591c1.609-1.609 1.609-4.218 0-5.827l-23.585-23.589c-1.608-1.61-4.217-1.61-5.827-.001z"/><path d="m258.912 383.255 74.173-74.19c1.609-1.61 1.609-4.22-.002-5.829l-23.598-23.577c-1.61-1.608-4.218-1.607-5.827.002l-44.746 44.753c-1.609 1.61-4.219 1.61-5.828 0l-44.724-44.731c-1.608-1.608-4.214-1.61-5.824-.004l-23.62 23.559c-1.613 1.609-1.615 4.22-.004 5.831l74.172 74.185c1.61 1.61 4.219 1.61 5.828.001z"/><path d="m353.819 229.506-23.586 23.591c-1.609 1.609-1.609 4.218 0 5.827l23.585 23.59c1.609 1.61 4.219 1.61 5.828 0l23.586-23.591c1.609-1.609 1.609-4.218 0-5.827l-23.585-23.59c-1.61-1.609-4.219-1.609-5.828 0z"/><path d="m282.946 253.086-24.033-24.038c-1.609-1.61-4.219-1.61-5.828 0l-24.033 24.038c-1.609 1.609-1.609 4.218 0 5.827l24.033 24.04c1.609 1.61 4.219 1.61 5.828 0l24.033-24.04c1.609-1.61 1.609-4.218 0-5.827z"/></g><path d="m413.533 98.286c7.418 23.958 11.417 49.419 11.417 75.815 0 141.385-114.615 256-256 256-20.948 0-41.302-2.535-60.789-7.281 39.346 34.895 91.113 56.096 147.84 56.096 123.113 0 222.915-99.803 222.915-222.915-.001-61.603-24.99-117.369-65.383-157.715z" fill="#ffd1be"/></g></svg>