<svg id="Capa_1" enable-background="new 0 0 512 512" height="512" viewBox="0 0 512 512" width="512" xmlns="http://www.w3.org/2000/svg"><g><circle cx="256" cy="256" fill="#fd9468" r="256"/><path d="m404.506 47.457c15.745 33.248 24.565 70.414 24.565 109.645 0 141.669-114.846 256.515-256.515 256.515-54.782 0-105.545-17.184-147.216-46.44 41.382 85.7 129.115 144.823 230.66 144.823 141.385 0 256-114.615 256-256 0-86.019-42.427-162.125-107.494-208.543z" fill="#fe7d43"/><circle cx="256" cy="256" fill="#ffdcce" r="222.915"/><path d="m346.283 260.646c9.57-7.298 16.922-17.809 20.26-30.504 7.858-29.882-9.396-60.651-38.461-68.589l-5.581-1.524 4.659-17.715c2.111-8.026-2.425-16.239-10.132-18.344-7.706-2.105-15.664 2.696-17.775 10.722l-4.659 17.715-30.782-8.407 4.659-17.715c2.111-8.026-2.425-16.239-10.132-18.343-7.706-2.105-15.664 2.696-17.775 10.722l-4.659 17.715-39.604-10.817c-7.706-2.105-15.664 2.696-17.775 10.722s2.425 16.239 10.132 18.343l22.692 6.198-35.971 136.786-22.692-6.198c-7.706-2.105-15.664 2.696-17.775 10.722s2.425 16.239 10.132 18.344l39.604 10.817-3.957 15.046c-2.111 8.026 2.425 16.239 10.132 18.344 7.706 2.105 15.664-2.696 17.775-10.722l3.957-15.046 30.782 8.407-3.957 15.046c-2.111 8.026 2.425 16.239 10.132 18.343 7.706 2.105 15.664-2.696 17.775-10.722l3.957-15.046 17.561 4.796c31.009 8.469 63.054-10.569 71.435-42.439 5.479-20.84-.498-42.08-13.957-56.657zm-25.845-70.029c13.678 3.736 21.842 18.047 18.198 31.902s-17.736 22.088-31.414 18.353l-48.624-13.28-32.557-8.892 13.216-50.255zm-23.99 140.058-93.162-25.444 15.112-57.466 32.557 8.892 48.624 13.28 11.98 3.272c15.621 4.266 24.94 20.627 20.773 36.47-4.166 15.844-20.264 25.262-35.884 20.996z" fill="#fd9468"/><path d="m424.822 110.432c2.782 15.135 4.249 30.731 4.249 46.67 0 141.669-114.846 256.515-256.515 256.515-31.074 0-60.857-5.528-88.421-15.65 40.886 49.443 102.696 80.948 171.865 80.948 123.113 0 222.915-99.803 222.915-222.915 0-55.638-20.387-106.512-54.093-145.568z" fill="#ffd1be"/></g></svg>