<svg xmlns="http://www.w3.org/2000/svg" xmlns:xlink="http://www.w3.org/1999/xlink" viewBox="0 0 500 500"><defs><clipPath id="freepik--clip-path--inject-37"><polygon points="370.54 387.21 370.54 425.95 394.33 442.46 437.4 430.7 443.47 396.72 443.6 396.05 415.98 377.86 370.54 387.21" style="fill:#fff;stroke:#263238;stroke-linecap:round;stroke-linejoin:round"></polygon></clipPath><clipPath id="freepik--clip-path-2--inject-37"><path d="M435.05,397.07c-8-2.94-21.37-5.32-21.37-5.32s18.16-.8,19.23-5.29-3.42-6.63-8.76-6.84-16.46,9.77-16.46,9.77-15.49-8.59-19.23-6.88-5.35,6.3-2.57,10.76,21.88,0,21.88,0a33,33,0,0,1-2.43,13.62l6-1.13c0-6.2-.21-13-.21-13,10.47,2.37,21.69,9.15,21.69,9.15Zm-43.82-4.95c-4.16-1.71-1.6-7.05.66-6.41s14.46,5.84,14.46,5.84S395.4,393.83,391.23,392.12Zm33.91-8.22c3.71.1,6.06,4.48-14,6.19C411.11,390.09,421.44,383.79,425.14,383.9Z" style="fill:#fff;stroke:#263238;stroke-linecap:round;stroke-linejoin:round"></path></clipPath><clipPath id="freepik--clip-path-3--inject-37"><polygon points="345.43 370.19 345.43 414.37 318.3 433.19 269.19 419.79 262.26 381.04 262.13 380.27 293.62 359.54 345.43 370.19" style="fill:#fff;stroke:#263238;stroke-linecap:round;stroke-linejoin:round"></polygon></clipPath><clipPath id="freepik--clip-path-4--inject-37"><path d="M274.43,387s12.79-7.72,24.74-10.43c0,0-.25,7.81-.25,14.88l6.83,1.28A37.58,37.58,0,0,1,303,377.15s21.78,5.05,24.94,0,1.34-10.33-2.92-12.28-21.93,7.85-21.93,7.85-12.68-11.38-18.77-11.14-11.21,2.68-10,7.8,21.93,6,21.93,6-15.3,2.71-24.37,6.06Zm30.17-11.81s13.9-5.93,16.48-6.66,5.5,5.37.75,7.32S304.6,375.14,304.6,375.14Zm-5.43-1.66c-22.91-2-20.23-6.94-16-7.06S299.17,373.48,299.17,373.48Z" style="fill:#fff;stroke:#263238;stroke-linecap:round;stroke-linejoin:round"></path></clipPath><clipPath id="freepik--clip-path-5--inject-37"><polygon points="161.61 391.77 161.61 439.14 190.7 459.32 243.35 444.95 250.78 403.4 250.93 402.58 217.16 380.35 161.61 391.77" style="fill:#fff;stroke:#263238;stroke-linecap:round;stroke-linejoin:round"></polygon></clipPath><clipPath id="freepik--clip-path-6--inject-37"><path d="M240.48,403.83c-9.73-3.6-26.13-6.5-26.13-6.5s22.21-1,23.51-6.47-4.18-8.1-10.71-8.36S207,394.45,207,394.45s-18.94-10.51-23.51-8.42-6.54,7.71-3.14,13.16,26.74,0,26.74,0a40.53,40.53,0,0,1-3,16.66l7.31-1.38c0-7.58-.26-15.95-.26-15.95,12.81,2.9,26.52,11.18,26.52,11.18Zm-53.57-6c-5.09-2.09-2-8.63.81-7.85s17.67,7.14,17.67,7.14S192,399.88,186.91,397.79Zm41.46-10.06c4.53.13,7.4,5.48-17.16,7.57C211.21,395.3,223.84,387.6,228.37,387.73Z" style="fill:#fff;stroke:#263238;stroke-linecap:round;stroke-linejoin:round"></path></clipPath><clipPath id="freepik--clip-path-7--inject-37"><polygon points="245.17 455.21 242.68 423.2 295.81 413.16 344.73 415.26 345.57 452.16 299.21 464.14 245.17 455.21" style="fill:#fff;stroke:#263238;stroke-linecap:round;stroke-linejoin:round"></polygon></clipPath><clipPath id="freepik--clip-path-8--inject-37"><path d="M296.24,423.33c9.26-1.1,12.42-4.23,12.42-4.23l-3.07-1.78L309,414l-6.72.52,1.53-5.88-5.48,2.53-3.18-6.37-2.88,5.73-5.5-4.18-.69,6.49-5.43-.3,2.9,3.44-3.78,1.73,4,1.54-3.84,1S288.89,424.2,296.24,423.33Z" style="fill:#fff;stroke:#263238;stroke-linecap:round;stroke-linejoin:round"></path></clipPath><clipPath id="freepik--clip-path-9--inject-37"><polygon points="49.61 403.97 56.98 378.39 101.16 386.02 138.55 401.87 128.48 430.78 88.99 426.62 49.61 403.97" style="fill:#fff;stroke:#263238;stroke-linecap:round;stroke-linejoin:round"></polygon></clipPath><clipPath id="freepik--clip-path-10--inject-37"><path d="M98.55,394.05c7.5,1.83,10.87.33,10.87.33l-1.87-2.28,3.63-1.63-5.38-1.54,2.91-4.13-5,.37-.61-5.87-3.91,3.61-3.06-4.84-2.41,4.84-4.14-1.8,1.26,3.51-3.44.24,2.69,2.37-3.29-.31S92.58,392.59,98.55,394.05Z" style="fill:#fff;stroke:#263238;stroke-linecap:round;stroke-linejoin:round"></path></clipPath><clipPath id="freepik--clip-path-11--inject-37"><path d="M104.31,454.65s-6.63-15.57-3.61-41.07c.3-2.52.56-5.06.79-7.59A459.64,459.64,0,0,0,103,359.87L157,356.18s.8,23,5.13,43.67a265.29,265.29,0,0,1,4.53,31.81c.37,4.43,0,25.56,0,25.56" style="fill:#fff;stroke:#263238;stroke-linecap:round;stroke-linejoin:round"></path></clipPath><clipPath id="freepik--clip-path-12--inject-37"><path d="M404.06,454.65s6.64-15.57,3.61-41.07c-.29-2.52-.55-5.06-.78-7.59a456.2,456.2,0,0,1-1.54-46.12l-53.93-3.69s-.81,23-5.13,43.67a265.69,265.69,0,0,0-4.54,31.81c-.37,4.43,0,25.56,0,25.56" style="fill:#fff;stroke:#263238;stroke-linecap:round;stroke-linejoin:round"></path></clipPath><clipPath id="freepik--clip-path-13--inject-37"><polygon points="376.51 286.1 324.3 309.4 184.08 309.4 131.86 286.1 152.57 147.03 355.81 147.03 376.51 286.1" style="fill:#BA68C8;stroke:#263238;stroke-linecap:round;stroke-linejoin:round"></polygon></clipPath><clipPath id="freepik--clip-path-14--inject-37"><path d="M215.06,102.2c-20.1-5.41-33.3,9.92-33.47,15.42,0,1.58,2.56,3.58,6.9,5.65,10.78,5.14,32.28,10.76,50.29,11.55l15.41-1.63,1.44-.15S235.16,107.59,215.06,102.2Zm-11.7,12.6-.09-.11c-4.2-4.86,1.86-13.45,14-9.57C228.35,108.66,241,119.42,249,129c.81,1,1.57,1.92,2.27,2.86C251.25,131.89,207.74,119.65,203.36,114.8Z" style="fill:#fff;stroke:#263238;stroke-linecap:round;stroke-linejoin:round"></path></clipPath><clipPath id="freepik--clip-path-15--inject-37"><path d="M293.31,102.2c-20.1,5.39-40.56,30.84-40.56,30.84l1.44.15h0l15.39,1.62c21.92-1,49-9.06,55.65-14.78a3.49,3.49,0,0,0,1.54-2.42C326.62,112.12,313.42,96.79,293.31,102.2Zm-34.5,29.21-1.68.48c7.68-10.23,21.78-22.86,34-26.77S309.4,110,305,114.8a4,4,0,0,1-.7.6C298.11,120,266.48,129.21,258.81,131.41Z" style="fill:#fff;stroke:#263238;stroke-linecap:round;stroke-linejoin:round"></path></clipPath><clipPath id="freepik--clip-path-16--inject-37"><polygon points="362.43 164.89 145.94 164.89 151.03 130.8 357.35 130.8 362.43 164.89" style="fill:#BA68C8;stroke:#263238;stroke-linecap:round;stroke-linejoin:round"></polygon></clipPath></defs><g id="freepik--Boxes--inject-37"><polygon points="370.54 387.21 370.54 425.95 394.33 442.46 437.4 430.7 443.47 396.72 443.6 396.05 415.98 377.86 370.54 387.21" style="fill:#fff"></polygon><g style="clip-path:url(#freepik--clip-path--inject-37)"><polygon points="370.54 387.24 370.54 425.95 394.33 442.46 437.4 430.7 443.47 396.72 397.95 406.93 370.54 387.24" style="fill:#BA68C8;opacity:0.4"></polygon><polygon points="397.95 406.93 394.33 442.46 370.54 425.95 370.54 387.24 397.95 406.93" style="fill:#BA68C8;opacity:0.4"></polygon><polygon points="382.82 396.05 403.45 390.76 392.03 382.79 397.95 381.41 409.29 389.19 426.43 384.74 431.56 388.13 414.02 392.38 426.43 400.75 420.82 435.23 415 436.82 418.72 402.42 407.48 394.71 387.54 399.44 383.85 435.19 379.42 432.11 382.82 396.05" style="fill-opacity:0.7000000000000001;opacity:0.4"></polygon></g><polygon points="370.54 387.21 370.54 425.95 394.33 442.46 437.4 430.7 443.47 396.72 443.6 396.05 415.98 377.86 370.54 387.21" style="fill:none;stroke:#263238;stroke-linecap:round;stroke-linejoin:round"></polygon><polyline points="370.54 387.2 397.95 406.93 439.12 398" style="fill:none;stroke:#263238;stroke-linecap:round;stroke-linejoin:round"></polyline><line x1="397.95" y1="406.93" x2="395.72" y2="434.6" style="fill:none;stroke:#263238;stroke-linecap:round;stroke-linejoin:round"></line><polyline points="415 436.82 418.72 402.42 407.48 394.71 387.54 399.44 383.86 431.88" style="fill:none;stroke:#263238;stroke-linecap:round;stroke-linejoin:round"></polyline><polyline points="391 383 403.45 390.76 382.82 396.05 380.33 423.97" style="fill:none;stroke:#263238;stroke-linecap:round;stroke-linejoin:round"></polyline><polyline points="397.95 381.41 408.54 389.39 426.43 384.74" style="fill:none;stroke:#263238;stroke-linecap:round;stroke-linejoin:round"></polyline><polyline points="430.89 387.68 413.68 393.08 426.43 400.75 421.37 431.88" style="fill:none;stroke:#263238;stroke-linecap:round;stroke-linejoin:round"></polyline><path d="M435.05,397.07c-8-2.94-21.37-5.32-21.37-5.32s18.16-.8,19.23-5.29-3.42-6.63-8.76-6.84-16.46,9.77-16.46,9.77-15.49-8.59-19.23-6.88-5.35,6.3-2.57,10.76,21.88,0,21.88,0a33,33,0,0,1-2.43,13.62l6-1.13c0-6.2-.21-13-.21-13,10.47,2.37,21.69,9.15,21.69,9.15Zm-43.82-4.95c-4.16-1.71-1.6-7.05.66-6.41s14.46,5.84,14.46,5.84S395.4,393.83,391.23,392.12Zm33.91-8.22c3.71.1,6.06,4.48-14,6.19C411.11,390.09,421.44,383.79,425.14,383.9Z" style="fill:#fff"></path><g style="clip-path:url(#freepik--clip-path-2--inject-37)"><path d="M435.05,397.07c-8-2.94-21.37-5.32-21.37-5.32s18.16-.8,19.23-5.29-3.42-6.63-8.76-6.84-16.46,9.77-16.46,9.77-15.49-8.59-19.23-6.88-5.35,6.3-2.57,10.76,21.88,0,21.88,0a33,33,0,0,1-2.43,13.62l6-1.13c0-6.2-.21-13-.21-13,10.47,2.37,21.69,9.15,21.69,9.15Zm-43.82-4.95c-4.16-1.71-1.6-7.05.66-6.41s14.46,5.84,14.46,5.84S395.4,393.83,391.23,392.12Zm33.91-8.22c3.71.1,6.06,4.48-14,6.19C411.11,390.09,421.44,383.79,425.14,383.9Z" style="fill-opacity:0.7000000000000001;opacity:0.30000000000000004"></path></g><path d="M435.05,397.07c-8-2.94-21.37-5.32-21.37-5.32s18.16-.8,19.23-5.29-3.42-6.63-8.76-6.84-16.46,9.77-16.46,9.77-15.49-8.59-19.23-6.88-5.35,6.3-2.57,10.76,21.88,0,21.88,0a33,33,0,0,1-2.43,13.62l6-1.13c0-6.2-.21-13-.21-13,10.47,2.37,21.69,9.15,21.69,9.15Zm-43.82-4.95c-4.16-1.71-1.6-7.05.66-6.41s14.46,5.84,14.46,5.84S395.4,393.83,391.23,392.12Zm33.91-8.22c3.71.1,6.06,4.48-14,6.19C411.11,390.09,421.44,383.79,425.14,383.9Z" style="fill:none;stroke:#263238;stroke-linecap:round;stroke-linejoin:round"></path><polygon points="345.43 370.19 345.43 414.37 318.3 433.19 269.19 419.79 262.26 381.04 262.13 380.27 293.62 359.54 345.43 370.19" style="fill:#fff"></polygon><g style="clip-path:url(#freepik--clip-path-3--inject-37)"><polygon points="345.43 370.23 345.43 414.37 318.3 433.19 269.19 419.79 262.26 381.04 314.17 392.68 345.43 370.23" style="fill:#BA68C8;opacity:0.4"></polygon><polygon points="314.17 392.68 318.3 433.19 345.43 414.37 345.43 370.23 314.17 392.68" style="fill:#BA68C8;opacity:0.4"></polygon><polygon points="331.42 380.27 307.9 374.24 320.92 365.15 314.17 363.58 301.24 372.45 281.69 367.38 275.84 371.24 295.85 376.09 281.69 385.63 288.1 424.95 294.73 426.76 290.49 387.54 303.3 378.75 326.04 384.14 330.25 424.9 335.31 421.39 331.42 380.27" style="fill-opacity:0.7000000000000001;opacity:0.4"></polygon></g><polygon points="345.43 370.19 345.43 414.37 318.3 433.19 269.19 419.79 262.26 381.04 262.13 380.27 293.62 359.54 345.43 370.19" style="fill:none;stroke:#263238;stroke-linecap:round;stroke-linejoin:round"></polygon><polyline points="345.43 370.19 314.17 392.68 267.23 382.49" style="fill:none;stroke:#263238;stroke-linecap:round;stroke-linejoin:round"></polyline><line x1="314.17" y1="392.68" x2="316.71" y2="424.24" style="fill:none;stroke:#263238;stroke-linecap:round;stroke-linejoin:round"></line><polyline points="294.73 426.76 290.49 387.54 303.3 378.75 326.04 384.14 330.24 421.13" style="fill:none;stroke:#263238;stroke-linecap:round;stroke-linejoin:round"></polyline><polyline points="322.1 365.39 307.9 374.24 331.42 380.27 334.26 412.11" style="fill:none;stroke:#263238;stroke-linecap:round;stroke-linejoin:round"></polyline><polyline points="314.17 363.58 302.1 372.68 281.69 367.38" style="fill:none;stroke:#263238;stroke-linecap:round;stroke-linejoin:round"></polyline><polyline points="276.62 370.73 296.24 376.88 281.69 385.63 287.47 421.13" style="fill:none;stroke:#263238;stroke-linecap:round;stroke-linejoin:round"></polyline><path d="M274.43,387s12.79-7.72,24.74-10.43c0,0-.25,7.81-.25,14.88l6.83,1.28A37.58,37.58,0,0,1,303,377.15s21.78,5.05,24.94,0,1.34-10.33-2.92-12.28-21.93,7.85-21.93,7.85-12.68-11.38-18.77-11.14-11.21,2.68-10,7.8,21.93,6,21.93,6-15.3,2.71-24.37,6.06Zm30.17-11.81s13.9-5.93,16.48-6.66,5.5,5.37.75,7.32S304.6,375.14,304.6,375.14Zm-5.43-1.66c-22.91-2-20.23-6.94-16-7.06S299.17,373.48,299.17,373.48Z" style="fill:#fff"></path><g style="clip-path:url(#freepik--clip-path-4--inject-37)"><path d="M274.43,387s12.79-7.72,24.74-10.43c0,0-.25,7.81-.25,14.88l6.83,1.28A37.58,37.58,0,0,1,303,377.15s21.78,5.05,24.94,0,1.34-10.33-2.92-12.28-21.93,7.85-21.93,7.85-12.68-11.38-18.77-11.14-11.21,2.68-10,7.8,21.93,6,21.93,6-15.3,2.71-24.37,6.06Zm30.17-11.81s13.9-5.93,16.48-6.66,5.5,5.37.75,7.32S304.6,375.14,304.6,375.14Zm-5.43-1.66c-22.91-2-20.23-6.94-16-7.06S299.17,373.48,299.17,373.48Z" style="fill-opacity:0.7000000000000001;opacity:0.30000000000000004"></path></g><path d="M274.43,387s12.79-7.72,24.74-10.43c0,0-.25,7.81-.25,14.88l6.83,1.28A37.58,37.58,0,0,1,303,377.15s21.78,5.05,24.94,0,1.34-10.33-2.92-12.28-21.93,7.85-21.93,7.85-12.68-11.38-18.77-11.14-11.21,2.68-10,7.8,21.93,6,21.93,6-15.3,2.71-24.37,6.06Zm30.17-11.81s13.9-5.93,16.48-6.66,5.5,5.37.75,7.32S304.6,375.14,304.6,375.14Zm-5.43-1.66c-22.91-2-20.23-6.94-16-7.06S299.17,373.48,299.17,373.48Z" style="fill:none;stroke:#263238;stroke-linecap:round;stroke-linejoin:round"></path><polygon points="161.61 391.77 161.61 439.14 190.7 459.32 243.35 444.95 250.78 403.4 250.93 402.58 217.16 380.35 161.61 391.77" style="fill:#fff"></polygon><g style="clip-path:url(#freepik--clip-path-5--inject-37)"><polygon points="161.61 391.81 161.61 439.14 190.7 459.32 243.35 444.95 250.78 403.4 195.13 415.89 161.61 391.81" style="fill:#BA68C8;opacity:0.4"></polygon><polygon points="195.13 415.89 190.7 459.32 161.61 439.14 161.61 391.81 195.13 415.89" style="fill:#BA68C8;opacity:0.4"></polygon><polygon points="176.63 402.58 201.85 396.11 187.88 386.37 195.13 384.69 208.99 394.2 229.94 388.76 236.22 392.9 214.77 398.1 229.94 408.33 223.08 450.48 215.97 452.42 220.52 410.38 206.78 400.95 182.4 406.73 177.89 450.43 172.47 446.67 176.63 402.58" style="fill-opacity:0.7000000000000001;opacity:0.4"></polygon></g><polygon points="161.61 391.77 161.61 439.14 190.7 459.32 243.35 444.95 250.78 403.4 250.93 402.58 217.16 380.35 161.61 391.77" style="fill:none;stroke:#263238;stroke-linecap:round;stroke-linejoin:round"></polygon><polyline points="161.61 391.77 195.13 415.89 245.45 404.96" style="fill:none;stroke:#263238;stroke-linecap:round;stroke-linejoin:round"></polyline><line x1="195.13" y1="415.89" x2="192.4" y2="449.72" style="fill:none;stroke:#263238;stroke-linecap:round;stroke-linejoin:round"></line><polyline points="215.97 452.42 220.52 410.38 206.78 400.95 182.4 406.73 177.9 446.39" style="fill:none;stroke:#263238;stroke-linecap:round;stroke-linejoin:round"></polyline><polyline points="186.62 386.63 201.85 396.11 176.63 402.58 173.59 436.72" style="fill:none;stroke:#263238;stroke-linecap:round;stroke-linejoin:round"></polyline><polyline points="195.13 384.69 208.06 394.45 229.94 388.76" style="fill:none;stroke:#263238;stroke-linecap:round;stroke-linejoin:round"></polyline><polyline points="235.39 392.35 214.35 398.95 229.94 408.33 223.75 446.39" style="fill:none;stroke:#263238;stroke-linecap:round;stroke-linejoin:round"></polyline><path d="M240.48,403.83c-9.73-3.6-26.13-6.5-26.13-6.5s22.21-1,23.51-6.47-4.18-8.1-10.71-8.36S207,394.45,207,394.45s-18.94-10.51-23.51-8.42-6.54,7.71-3.14,13.16,26.74,0,26.74,0a40.53,40.53,0,0,1-3,16.66l7.31-1.38c0-7.58-.26-15.95-.26-15.95,12.81,2.9,26.52,11.18,26.52,11.18Zm-53.57-6c-5.09-2.09-2-8.63.81-7.85s17.67,7.14,17.67,7.14S192,399.88,186.91,397.79Zm41.46-10.06c4.53.13,7.4,5.48-17.16,7.57C211.21,395.3,223.84,387.6,228.37,387.73Z" style="fill:#fff"></path><g style="clip-path:url(#freepik--clip-path-6--inject-37)"><path d="M240.48,403.83c-9.73-3.6-26.13-6.5-26.13-6.5s22.21-1,23.51-6.47-4.18-8.1-10.71-8.36S207,394.45,207,394.45s-18.94-10.51-23.51-8.42-6.54,7.71-3.14,13.16,26.74,0,26.74,0a40.53,40.53,0,0,1-3,16.66l7.31-1.38c0-7.58-.26-15.95-.26-15.95,12.81,2.9,26.52,11.18,26.52,11.18Zm-53.57-6c-5.09-2.09-2-8.63.81-7.85s17.67,7.14,17.67,7.14S192,399.88,186.91,397.79Zm41.46-10.06c4.53.13,7.4,5.48-17.16,7.57C211.21,395.3,223.84,387.6,228.37,387.73Z" style="fill-opacity:0.7000000000000001;opacity:0.30000000000000004"></path></g><path d="M240.48,403.83c-9.73-3.6-26.13-6.5-26.13-6.5s22.21-1,23.51-6.47-4.18-8.1-10.71-8.36S207,394.45,207,394.45s-18.94-10.51-23.51-8.42-6.54,7.71-3.14,13.16,26.74,0,26.74,0a40.53,40.53,0,0,1-3,16.66l7.31-1.38c0-7.58-.26-15.95-.26-15.95,12.81,2.9,26.52,11.18,26.52,11.18Zm-53.57-6c-5.09-2.09-2-8.63.81-7.85s17.67,7.14,17.67,7.14S192,399.88,186.91,397.79Zm41.46-10.06c4.53.13,7.4,5.48-17.16,7.57C211.21,395.3,223.84,387.6,228.37,387.73Z" style="fill:none;stroke:#263238;stroke-linecap:round;stroke-linejoin:round"></path><polygon points="245.17 455.21 242.68 423.2 295.81 413.16 344.73 415.26 345.57 452.16 299.21 464.14 245.17 455.21" style="fill:#fff"></polygon><g style="clip-path:url(#freepik--clip-path-7--inject-37)"><polygon points="242.68 423.2 297.93 432.33 344.73 415.26 345.57 452.16 299.21 464.14 245.17 455.21 242.68 423.2" style="fill-opacity:0.7000000000000001;opacity:0.2"></polygon><polygon points="297.93 432.33 299.21 464.14 345.57 452.16 344.73 415.26 297.93 432.33" style="fill-opacity:0.7000000000000001;opacity:0.2"></polygon><path d="M327.17,421.67l-22.23-1,22.13-6.6L314.33,414l-20,5.35c-5.35-1-15.56-2.93-15.56-2.93l-7.8,1.48,14.44,3.69L261.51,427s3.29,31,3.16,31.4l10.79,1.78-2.09-31.43,22.87-5.45,24.21.91,1.71,34,6.49-1.67Z" style="fill:#BA68C8;opacity:0.6000000000000001"></path></g><polygon points="245.17 455.21 242.68 423.2 295.81 413.16 344.73 415.26 345.57 452.16 299.21 464.14 245.17 455.21" style="fill:none;stroke:#263238;stroke-linecap:round;stroke-linejoin:round"></polygon><polyline points="246.33 424.5 297.93 432.33 340.08 417.18" style="fill:none;stroke:#263238;stroke-linecap:round;stroke-linejoin:round"></polyline><line x1="297.93" y1="432.33" x2="299.25" y2="457.49" style="fill:none;stroke:#263238;stroke-linecap:round;stroke-linejoin:round"></line><polyline points="322.16 458.21 320.45 424.24 294.97 423.32 273.37 428.79 275.46 460.21" style="fill:none;stroke:#263238;stroke-linecap:round;stroke-linejoin:round"></polyline><polyline points="328.65 456.54 327.17 421.67 304.94 420.7 326.38 414.47" style="fill:none;stroke:#263238;stroke-linecap:round;stroke-linejoin:round"></polyline><path d="M314.33,414c-1.27-.05-18.68,4.7-18.68,4.7l-16.86-2.28" style="fill:none;stroke:#263238;stroke-linecap:round;stroke-linejoin:round"></path><polyline points="270.99 417.85 286.75 421.43 261.51 427.03 264.47 456.66" style="fill:none;stroke:#263238;stroke-linecap:round;stroke-linejoin:round"></polyline><path d="M296.24,423.33c9.26-1.1,12.42-4.23,12.42-4.23l-3.07-1.78L309,414l-6.72.52,1.53-5.88-5.48,2.53-3.18-6.37-2.88,5.73-5.5-4.18-.69,6.49-5.43-.3,2.9,3.44-3.78,1.73,4,1.54-3.84,1S288.89,424.2,296.24,423.33Z" style="fill:#fff"></path><g style="clip-path:url(#freepik--clip-path-8--inject-37)"><path d="M296.24,423.33c9.26-1.1,12.42-4.23,12.42-4.23l-3.07-1.78L309,414l-6.72.52,1.53-5.88-5.48,2.53-3.18-6.37-2.88,5.73-5.5-4.18-.69,6.49-5.43-.3,2.9,3.44-3.78,1.73,4,1.54-3.84,1S288.89,424.2,296.24,423.33Z" style="fill:#BA68C8;opacity:0.6000000000000001"></path><path d="M286.75,421.43l-1.32-2.78,2.93-.8,2.13-3.69,2.72,2.14,3.35-3.33a32.56,32.56,0,0,0,2,3.33c.55.6,3.84,0,3.84,0v4.36" style="fill:none;stroke:#263238;stroke-linecap:round;stroke-linejoin:round"></path></g><path d="M296.24,423.33c9.26-1.1,12.42-4.23,12.42-4.23l-3.07-1.78L309,414l-6.72.52,1.53-5.88-5.48,2.53-3.18-6.37-2.88,5.73-5.5-4.18-.69,6.49-5.43-.3,2.9,3.44-3.78,1.73,4,1.54-3.84,1S288.89,424.2,296.24,423.33Z" style="fill:none;stroke:#263238;stroke-linecap:round;stroke-linejoin:round"></path><polygon points="49.61 403.97 56.98 378.39 101.16 386.02 138.55 401.87 128.48 430.78 88.99 426.62 49.61 403.97" style="fill:#fff"></polygon><g style="clip-path:url(#freepik--clip-path-9--inject-37)"><polygon points="56.98 378.39 97.24 401.53 138.55 401.87 128.48 430.78 88.99 426.62 49.61 403.97 56.98 378.39" style="fill-opacity:0.7000000000000001;opacity:0.2"></polygon><polygon points="97.24 401.53 88.99 426.62 128.48 430.78 138.55 401.87 97.24 401.53" style="fill-opacity:0.7000000000000001;opacity:0.2"></polygon><path d="M123.05,401.75l-17-7.22,19.11,1.31L115.31,392l-17.06-1.65C94.38,388.05,87,383.58,87,383.58l-6.49-1.12,10.14,7.06-20.17-2.69S64,411.89,63.83,412.15l7.85,4.51,7.51-25,19.36,2.41,18.53,7.74-8.54,26.89,5.53.58Z" style="fill:#BA68C8;opacity:0.6000000000000001"></path></g><polygon points="49.61 403.97 56.98 378.39 101.16 386.02 138.55 401.87 128.48 430.78 88.99 426.62 49.61 403.97" style="fill:none;stroke:#263238;stroke-linecap:round;stroke-linejoin:round"></polygon><polyline points="59.44 380.46 97.24 401.53 134.38 402.01" style="fill:none;stroke:#263238;stroke-linecap:round;stroke-linejoin:round"></polyline><line x1="97.24" y1="401.53" x2="90.96" y2="421.46" style="fill:none;stroke:#263238;stroke-linecap:round;stroke-linejoin:round"></line><polyline points="108.54 428.68 117.08 401.79 97.56 393.68 79.19 391.64 71.69 416.66" style="fill:none;stroke:#263238;stroke-linecap:round;stroke-linejoin:round"></polyline><polyline points="114.07 429.26 123.05 401.75 106.06 394.53 124.53 395.93" style="fill:none;stroke:#263238;stroke-linecap:round;stroke-linejoin:round"></polyline><path d="M115.31,392c-1-.41-15.86-1.78-15.86-1.78L87,383.58" style="fill:none;stroke:#263238;stroke-linecap:round;stroke-linejoin:round"></path><polyline points="80.52 382.46 91.73 389.82 70.49 386.83 64.18 410.71" style="fill:none;stroke:#263238;stroke-linecap:round;stroke-linejoin:round"></polyline><path d="M98.55,394.05c7.5,1.83,10.87.33,10.87.33l-1.87-2.28,3.63-1.63-5.38-1.54,2.91-4.13-5,.37-.61-5.87-3.91,3.61-3.06-4.84-2.41,4.84-4.14-1.8,1.26,3.51-3.44.24,2.69,2.37-3.29-.31S92.58,392.59,98.55,394.05Z" style="fill:#fff"></path><g style="clip-path:url(#freepik--clip-path-10--inject-37)"><path d="M98.55,394.05c7.5,1.83,10.87.33,10.87.33l-1.87-2.28,3.63-1.63-5.38-1.54,2.91-4.13-5,.37-.61-5.87-3.91,3.61-3.06-4.84-2.41,4.84-4.14-1.8,1.26,3.51-3.44.24,2.69,2.37-3.29-.31S92.58,392.59,98.55,394.05Z" style="fill:#BA68C8;opacity:0.6000000000000001"></path><path d="M91.73,389.82l-.22-2.55,2.5.23,2.73-2.24,1.49,2.45,3.57-1.62a26.92,26.92,0,0,0,.61,3.18c.25.63,3,1.12,3,1.12l-1.26,3.39" style="fill:none;stroke:#263238;stroke-linecap:round;stroke-linejoin:round"></path></g><path d="M98.55,394.05c7.5,1.83,10.87.33,10.87.33l-1.87-2.28,3.63-1.63-5.38-1.54,2.91-4.13-5,.37-.61-5.87-3.91,3.61-3.06-4.84-2.41,4.84-4.14-1.8,1.26,3.51-3.44.24,2.69,2.37-3.29-.31S92.58,392.59,98.55,394.05Z" style="fill:none;stroke:#263238;stroke-linecap:round;stroke-linejoin:round"></path><line x1="223.1" y1="370.64" x2="221.31" y2="376.81" style="fill:none;stroke:#263238;stroke-linecap:round;stroke-linejoin:round"></line><polyline points="161.61 352.78 209.57 359.58 220.71 368.68" style="fill:none;stroke:#263238;stroke-linecap:round;stroke-linejoin:round"></polyline><line x1="158.26" y1="368.68" x2="160.89" y2="356.18" style="fill:none;stroke:#263238;stroke-linecap:round;stroke-linejoin:round"></line><line x1="156.55" y1="376.81" x2="157.33" y2="373.11" style="fill:none;stroke:#263238;stroke-linecap:round;stroke-linejoin:round"></line><line x1="209.57" y1="359.58" x2="207.2" y2="369.93" style="fill:none;stroke:#263238;stroke-linecap:round;stroke-linejoin:round"></line><line x1="206.27" y1="373.11" x2="205.39" y2="376.46" style="fill:none;stroke:#263238;stroke-linecap:round;stroke-linejoin:round"></line><path d="M184.47,372.64c-.46,2.31-.93,4.63-1.39,6.94" style="fill:none;stroke:#263238;stroke-linecap:round;stroke-linejoin:round"></path><path d="M187.72,356.48q-1.2,5.94-2.39,11.87" style="fill:none;stroke:#263238;stroke-linecap:round;stroke-linejoin:round"></path><path d="M174.51,374.67c-.56,2.62-1.11,5.23-1.67,7.84" style="fill:none;stroke:#263238;stroke-linecap:round;stroke-linejoin:round"></path><path d="M178.66,355.2,175,372.29" style="fill:none;stroke:#263238;stroke-linecap:round;stroke-linejoin:round"></path><polyline points="181.72 353.73 181.72 350.33 184.2 351.84 187.72 348.1 189.83 351.84 195.13 349.48 195.13 353.73 201.85 353.73 199.21 356.47 203.53 356.49" style="fill:none;stroke:#263238;stroke-linecap:round;stroke-linejoin:round"></polyline><polyline points="243.94 387.83 243.94 353.73 274.13 344.54 309 351.84 309 356.49" style="fill:none;stroke:#263238;stroke-linecap:round;stroke-linejoin:round"></polyline><line x1="274.13" y1="344.54" x2="274.13" y2="358.8" style="fill:none;stroke:#263238;stroke-linecap:round;stroke-linejoin:round"></line><path d="M254.19,408.36v3" style="fill:none;stroke:#263238;stroke-linecap:round;stroke-linejoin:round"></path><path d="M254.19,384.28v21.85" style="fill:none;stroke:#263238;stroke-linecap:round;stroke-linejoin:round"></path><path d="M254.19,350.61v31.15" style="fill:none;stroke:#263238;stroke-linecap:round;stroke-linejoin:round"></path><line x1="260.39" y1="391.93" x2="260.39" y2="406.7" style="fill:none;stroke:#263238;stroke-linecap:round;stroke-linejoin:round"></line><line x1="260.39" y1="348.73" x2="260.39" y2="387.83" style="fill:none;stroke:#263238;stroke-linecap:round;stroke-linejoin:round"></line><path d="M258.2,346.92c-3.11-2.74-4-10.24,2.19-10.6s13.74,5.85,13.74,5.85,10.42-11.39,15.61-7.52,1.72,9-1.57,9.89" style="fill:none;stroke:#263238;stroke-linecap:round;stroke-linejoin:round"></path><path d="M283.24,344.54s4.84-2.17,3.51-5.74-8,2.87-8,2.87" style="fill:none;stroke:#263238;stroke-linecap:round;stroke-linejoin:round"></path><path d="M268.49,343.26s-4.45-4.26-6.36-2.13,1.55,3.41,1.55,3.41" style="fill:none;stroke:#263238;stroke-linecap:round;stroke-linejoin:round"></path><polyline points="77.95 372.64 77.06 360.94 95.09 355.58" style="fill:none;stroke:#263238;stroke-linecap:round;stroke-linejoin:round"></polyline><polyline points="414.34 356.18 430.89 356.49 426.43 369.48" style="fill:none;stroke:#263238;stroke-linecap:round;stroke-linejoin:round"></polyline><line x1="430.89" y1="356.48" x2="435.05" y2="373.72" style="fill:none;stroke:#263238;stroke-linecap:round;stroke-linejoin:round"></line><line x1="80.78" y1="364.42" x2="89.3" y2="368.95" style="fill:none;stroke:#263238;stroke-linecap:round;stroke-linejoin:round"></line></g></svg>