<svg xmlns="http://www.w3.org/2000/svg" viewBox="0 0 500 500"><g id="freepik--Coins--inject-8"><ellipse cx="387.61" cy="212.6" rx="35.66" ry="29.72" transform="translate(59.68 509.08) rotate(-70.86)" style="fill:#BA68C8"></ellipse><g style="opacity:0.2"><ellipse cx="387.61" cy="212.6" rx="35.66" ry="29.72" transform="translate(59.68 509.08) rotate(-70.86)"></ellipse></g><ellipse cx="382.17" cy="210.71" rx="35.66" ry="29.72" transform="translate(57.81 502.68) rotate(-70.86)" style="fill:#BA68C8"></ellipse><g style="opacity:0.1"><path d="M404.71,184.39A25.43,25.43,0,0,0,393.86,177c-15.51-5.39-33.31,5.33-39.77,23.94a40.39,40.39,0,0,0-1.38,22.22,61.81,61.81,0,0,0,25.58-4.13c8.06-3.17,14.78-8.27,18.83-16.06C399.92,197.62,403.93,190.92,404.71,184.39Z" style="fill:#fff"></path></g><path d="M403.09,217.27c-5,14.3-18.47,22.6-30.17,18.54s-17.17-18.94-12.2-33.24S379.19,180,390.89,184,408.05,203,403.09,217.27Z" style="fill:#BA68C8"></path><g style="opacity:0.2"><path d="M403.09,217.27c-5,14.3-18.47,22.6-30.17,18.54s-17.17-18.94-12.2-33.24S379.19,180,390.89,184,408.05,203,403.09,217.27Z"></path></g><path d="M403.9,218.26c-4.84,14-17.95,22.07-29.29,18.14S358,218,362.86,204s17.95-22.08,29.29-18.14S408.74,204.3,403.9,218.26Z" style="fill:#BA68C8"></path><g style="opacity:0.2"><path d="M403.9,218.26c-4.84,14-17.95,22.07-29.29,18.14S358,218,362.86,204s17.95-22.08,29.29-18.14S408.74,204.3,403.9,218.26Z" style="fill:#fff"></path></g><path d="M385.49,208.52l2.32-6.7h0a7.09,7.09,0,0,1,3.47,3.43l.14-.19,1.66-2.12.38-.49-.51-1.59-.55.1a9.12,9.12,0,0,0-3.37-2.74l1.28-3.68-.59-1.24-.32.92-1.26-.43-1.3,3.75a6.89,6.89,0,0,0-8.44,4.73c-1.6,4.62,1.12,6.9,3.74,8.82l-2.3,6.64a9.6,9.6,0,0,1-4.41-4.36l-2.35,2.94a10.81,10.81,0,0,0,5.51,5l-1,2.78-1-.33.72,1.24,2.17.75L380.8,222a6.93,6.93,0,0,0,8.49-4.72C390.89,212.7,388.11,210.43,385.49,208.52Zm-1.92-1.45c-1.34-1.1-2.22-2.22-1.67-3.82a3.1,3.1,0,0,1,3.72-2.09Zm4.24-5.26Zm-5.76,16.6,2-5.88c1.39,1.12,2.29,2.28,1.72,3.91C385.32,217.87,384.11,218.71,382.05,218.41Z" style="fill:#BA68C8"></path><g style="opacity:0.30000000000000004"><path d="M385.49,208.52l2.32-6.7h0a7.09,7.09,0,0,1,3.47,3.43l.14-.19,1.66-2.12.38-.49-.51-1.59-.55.1a9.12,9.12,0,0,0-3.37-2.74l1.28-3.68-.59-1.24-.32.92-1.26-.43-1.3,3.75a6.89,6.89,0,0,0-8.44,4.73c-1.6,4.62,1.12,6.9,3.74,8.82l-2.3,6.64a9.6,9.6,0,0,1-4.41-4.36l-2.35,2.94a10.81,10.81,0,0,0,5.51,5l-1,2.78-1-.33.72,1.24,2.17.75L380.8,222a6.93,6.93,0,0,0,8.49-4.72C390.89,212.7,388.11,210.43,385.49,208.52Zm-1.92-1.45c-1.34-1.1-2.22-2.22-1.67-3.82a3.1,3.1,0,0,1,3.72-2.09Zm4.24-5.26Zm-5.76,16.6,2-5.88c1.39,1.12,2.29,2.28,1.72,3.91C385.32,217.87,384.11,218.71,382.05,218.41Z"></path></g><path d="M380.22,220.81l-1.29,3.72-2.17-.75,1.28-3.69a10.81,10.81,0,0,1-5.51-5l2.35-2.94a9.54,9.54,0,0,0,4.41,4.35l2.3-6.63c-2.62-1.92-5.34-4.2-3.74-8.82a6.89,6.89,0,0,1,8.44-4.73l1.3-3.75,2.17.75L388.48,197a10.31,10.31,0,0,1,4.65,3.89l-2.24,3a9.93,9.93,0,0,0-3.65-3.28l-2.33,6.71c2.62,1.91,5.41,4.18,3.81,8.79A7,7,0,0,1,380.22,220.81Zm2.76-15,2.06-5.91a3.1,3.1,0,0,0-3.72,2.09C380.77,203.63,381.65,204.75,383,205.85Zm2.25,9.37c.57-1.63-.33-2.79-1.72-3.91l-2,5.88C383.53,217.49,384.74,216.65,385.23,215.22Z" style="fill:#BA68C8"></path><path d="M401.44,192.63a3.05,3.05,0,0,1,.37.54,18.52,18.52,0,0,1,.92,1.62,27,27,0,0,1,2.31,6.43,31.32,31.32,0,0,1,.61,10.13,33.31,33.31,0,0,1-1.18,5.9,31.45,31.45,0,0,1-2.53,5.94,33.67,33.67,0,0,1-7.79,9.66,19,19,0,0,1-16,4.33c-.8-.16-1.4-.34-1.81-.44a4.37,4.37,0,0,1-.62-.19,2.54,2.54,0,0,1,.64.09c.42.07,1,.21,1.82.34a20.89,20.89,0,0,0,6.74-.13,19.62,19.62,0,0,0,8.88-4.37,33.85,33.85,0,0,0,7.65-9.54A32.43,32.43,0,0,0,404,217.1a33.23,33.23,0,0,0,1.19-5.8,32,32,0,0,0-.48-10,28.55,28.55,0,0,0-2.15-6.42C401.86,193.43,401.4,192.66,401.44,192.63Z" style="fill:#263238"></path><path d="M409.52,222.12a8.72,8.72,0,0,1-.5,1.59,14.19,14.19,0,0,1-.74,1.81,23.33,23.33,0,0,1-1.14,2.32c-.24.42-.49.86-.74,1.32s-.59.89-.9,1.37a35.87,35.87,0,0,1-2.15,2.89,36.83,36.83,0,0,1-13.05,10,34.66,34.66,0,0,1-3.36,1.32c-.54.17-1.05.37-1.56.5l-1.46.37a21.72,21.72,0,0,1-2.54.5,15.16,15.16,0,0,1-1.94.23,9.54,9.54,0,0,1-1.67.07c0-.12,2.37-.2,6.06-1.15l1.44-.4c.5-.14,1-.35,1.53-.53,1.06-.34,2.14-.84,3.3-1.34A38,38,0,0,0,403,233.11a35.55,35.55,0,0,0,2.16-2.83c.32-.46.65-.89.91-1.34l.77-1.28C408.7,224.36,409.41,222.08,409.52,222.12Z" style="fill:#263238"></path><path d="M353.32,205a3.71,3.71,0,0,1,.16-1.05c.14-.68.4-1.64.77-2.81a37.84,37.84,0,0,1,10.27-16,26.48,26.48,0,0,1,2.23-1.87,4,4,0,0,1,.89-.59c.05.07-1.13,1-2.86,2.72a42.75,42.75,0,0,0-10.18,15.86C353.77,203.51,353.4,205,353.32,205Z" style="fill:#fff"></path><path d="M352.85,216.33a9,9,0,0,1-.35-3.05,9.09,9.09,0,0,1,.18-3.06,9.15,9.15,0,0,1,.34,3.05A9.26,9.26,0,0,1,352.85,216.33Z" style="fill:#fff"></path><path d="M396.7,189.59c-.06.09-1.16-.67-3.11-1.48A21.16,21.16,0,0,0,390,187a21,21,0,0,0-9,0,20.64,20.64,0,0,0-3.54,1.11c-2,.82-3.05,1.58-3.1,1.49a3.36,3.36,0,0,1,.73-.58,7.68,7.68,0,0,1,.93-.58c.38-.2.79-.46,1.29-.67a18.82,18.82,0,0,1,3.58-1.24,20,20,0,0,1,9.23,0,19.21,19.21,0,0,1,3.59,1.22,12.94,12.94,0,0,1,1.3.67,9.3,9.3,0,0,1,.93.57A3.64,3.64,0,0,1,396.7,189.59Z" style="fill:#fff"></path><path d="M379.38,201.36c-.06,0-.17-.28-.14-.76a3.31,3.31,0,0,1,.7-1.74,3.22,3.22,0,0,1,1.52-1.09c.46-.15.76-.11.77-.05s-1.08.41-1.88,1.46A7.7,7.7,0,0,0,379.38,201.36Z" style="fill:#fff"></path><path d="M374.27,215.59s-.16,0-.29-.06a.79.79,0,0,1,.1-1.17c.15-.09.27-.07.3,0s-.08.34-.1.62S374.35,215.46,374.27,215.59Z" style="fill:#fff"></path><ellipse cx="255.83" cy="135.99" rx="22.88" ry="27.46" transform="translate(-33.64 148.26) rotate(-30.42)" style="fill:#BA68C8"></ellipse><g style="opacity:0.2"><ellipse cx="255.83" cy="135.99" rx="22.88" ry="27.46" transform="translate(-33.64 148.26) rotate(-30.42)"></ellipse></g><ellipse cx="252.01" cy="138.23" rx="22.88" ry="27.46" transform="translate(-35.3 146.63) rotate(-30.42)" style="fill:#BA68C8"></ellipse><g style="opacity:0.1"><path d="M247.85,111.87a19.64,19.64,0,0,0-9.74,2.68c-10.9,6.4-13.51,22.19-5.83,35.27a31.13,31.13,0,0,0,12.32,11.91A47.26,47.26,0,0,0,255,144.67c2.18-6.3,2.54-12.79,0-19.06C253.21,121.29,251.28,115.59,247.85,111.87Z" style="fill:#fff"></path></g><path d="M266.31,129.24c5.9,10.06,4,22.12-4.21,26.95s-19.68.6-25.58-9.45-4-22.12,4.21-26.95S260.41,119.19,266.31,129.24Z" style="fill:#BA68C8"></path><g style="opacity:0.2"><path d="M266.31,129.24c5.9,10.06,4,22.12-4.21,26.95s-19.68.6-25.58-9.45-4-22.12,4.21-26.95S260.41,119.19,266.31,129.24Z"></path></g><path d="M267.29,129.26c5.76,9.81,4,21.55-4,26.23s-19.09.52-24.85-9.29-4-21.55,4-26.23S261.53,119.45,267.29,129.26Z" style="fill:#BA68C8"></path><g style="opacity:0.2"><path d="M267.29,129.26c5.76,9.81,4,21.55-4,26.23s-19.09.52-24.85-9.29-4-21.55,4-26.23S261.53,119.45,267.29,129.26Z" style="fill:#fff"></path></g><path d="M252.38,135.19l-2.76-4.71h0A7.41,7.41,0,0,1,252,130a7.76,7.76,0,0,1,1.36.19l0-.17-.42-2-.1-.46-1.18-.49-.22.37a6.85,6.85,0,0,0-3.29.6l-1.52-2.59-1-.27.38.65-.88.52,1.55,2.63a5.31,5.31,0,0,0-1.44,7.32c1.9,3.24,4.6,2.78,7,2.2l2.74,4.67a7.33,7.33,0,0,1-4.75.41l.55,2.84a8.22,8.22,0,0,0,5.68-.73l1.15,2-.71.44,1.08.19,1.52-.89L258,144.69a5.35,5.35,0,0,0,1.48-7.34C257.53,134.11,254.81,134.61,252.38,135.19Zm-1.81.4c-1.31.24-2.4.19-3.06-.93a2.38,2.38,0,0,1,.62-3.22Zm-1-5.12Zm6.86,11.67L254,138c1.35-.25,2.48-.2,3.15,1A2.35,2.35,0,0,1,256.47,142.14Z" style="fill:#BA68C8"></path><g style="opacity:0.30000000000000004"><path d="M252.38,135.19l-2.76-4.71h0A7.41,7.41,0,0,1,252,130a7.76,7.76,0,0,1,1.36.19l0-.17-.42-2-.1-.46-1.18-.49-.22.37a6.85,6.85,0,0,0-3.29.6l-1.52-2.59-1-.27.38.65-.88.52,1.55,2.63a5.31,5.31,0,0,0-1.44,7.32c1.9,3.24,4.6,2.78,7,2.2l2.74,4.67a7.33,7.33,0,0,1-4.75.41l.55,2.84a8.22,8.22,0,0,0,5.68-.73l1.15,2-.71.44,1.08.19,1.52-.89L258,144.69a5.35,5.35,0,0,0,1.48-7.34C257.53,134.11,254.81,134.61,252.38,135.19Zm-1.81.4c-1.31.24-2.4.19-3.06-.93a2.38,2.38,0,0,1,.62-3.22Zm-1-5.12Zm6.86,11.67L254,138c1.35-.25,2.48-.2,3.15,1A2.35,2.35,0,0,1,256.47,142.14Z"></path></g><path d="M257,144.42l1.54,2.61-1.52.89-1.52-2.59a8.24,8.24,0,0,1-5.69.73l-.55-2.84a7.36,7.36,0,0,0,4.76-.41l-2.74-4.67c-2.44.58-5.14,1-7-2.21a5.3,5.3,0,0,1,1.44-7.31L244.08,126l1.53-.89,1.52,2.59a7.93,7.93,0,0,1,4.6-.79l.62,2.81a7.62,7.62,0,0,0-3.74.5l2.77,4.72c2.43-.58,5.15-1.08,7.06,2.16A5.35,5.35,0,0,1,257,144.42Zm-7.38-9.1-2.44-4.16a2.39,2.39,0,0,0-.63,3.23C247.16,135.51,248.26,135.55,249.57,135.32Zm6.61,3.36c-.67-1.14-1.8-1.2-3.15-.94l2.43,4.13A2.36,2.36,0,0,0,256.18,138.68Z" style="fill:#BA68C8"></path><path d="M251,117.9a1.7,1.7,0,0,1,.5,0,13.47,13.47,0,0,1,1.41.25A21.05,21.05,0,0,1,257.9,120a24.22,24.22,0,0,1,6.25,4.71,23.77,23.77,0,0,1,5.11,8.1,26,26,0,0,1,1.77,9.42,14.55,14.55,0,0,1-5.48,11.53c-.49.39-.9.65-1.17.84s-.42.27-.43.25a18.26,18.26,0,0,1,1.47-1.24,16.31,16.31,0,0,0,3.27-4,15.16,15.16,0,0,0,1.86-7.37,26.26,26.26,0,0,0-1.78-9.23,24,24,0,0,0-5-8,24.87,24.87,0,0,0-6.09-4.71A27.63,27.63,0,0,0,251,117.9Z" style="fill:#263238"></path><path d="M272.36,127.9a5.72,5.72,0,0,1,.7,1.07,11.44,11.44,0,0,1,.71,1.34,17.26,17.26,0,0,1,.79,1.83,20,20,0,0,1,.77,2.3,26.49,26.49,0,0,1,.62,2.71,28,28,0,0,1-.67,12.65c-.3.94-.56,1.84-.91,2.64a21.73,21.73,0,0,1-1,2.2,17.68,17.68,0,0,1-1,1.74,11.18,11.18,0,0,1-.84,1.25,5.19,5.19,0,0,1-.81,1c-.09-.06,1-1.5,2.31-4.14a22.08,22.08,0,0,0,.93-2.2c.33-.79.58-1.68.86-2.6a33.51,33.51,0,0,0,1-6.19,32.24,32.24,0,0,0-.34-6.26,26.78,26.78,0,0,0-.57-2.68,20.7,20.7,0,0,0-.69-2.28C273.24,129.51,272.26,128,272.36,127.9Z" style="fill:#263238"></path><path d="M234.23,152.27s-.23-.2-.56-.61a19.09,19.09,0,0,1-1.27-1.85,28.74,28.74,0,0,1-4.26-14,18.77,18.77,0,0,1,0-2.24,2.33,2.33,0,0,1,.12-.82c.09,0,.06,1.17.21,3a33.73,33.73,0,0,0,4.21,13.87C233.63,151.26,234.3,152.22,234.23,152.27Z" style="fill:#fff"></path><path d="M240.66,158.22c-.09.12-1-.46-2-1.27s-1.76-1.57-1.67-1.68,1,.46,2,1.27S240.75,158.11,240.66,158.22Z" style="fill:#fff"></path><path d="M246.89,119.16c0,.1-1,.37-2.4,1.13a16.56,16.56,0,0,0-8,9.43c-.5,1.54-.62,2.56-.71,2.55s0-.26,0-.72a11.09,11.09,0,0,1,.36-1.94,15.17,15.17,0,0,1,8.19-9.65,9.59,9.59,0,0,1,1.86-.67A2,2,0,0,1,246.89,119.16Z" style="fill:#fff"></path><path d="M245.14,135.19c0,.06-.27,0-.55-.27a2.51,2.51,0,0,1-.56-2.75c.16-.35.34-.5.4-.47s-.24.85,0,1.83S245.23,135.08,245.14,135.19Z" style="fill:#fff"></path><path d="M250.92,145.29c0,.07,0,.16-.18.19a.59.59,0,0,1-.5-.18.55.55,0,0,1-.17-.5c0-.15.12-.21.19-.19s.21.2.35.32S250.87,145.15,250.92,145.29Z" style="fill:#fff"></path><ellipse cx="162.49" cy="256.64" rx="32.52" ry="39.02" transform="translate(-141.06 245.43) rotate(-55.55)" style="fill:#BA68C8"></ellipse><g style="opacity:0.2"><ellipse cx="162.49" cy="256.64" rx="32.52" ry="39.02" transform="translate(-141.06 245.43) rotate(-55.55)"></ellipse></g><ellipse cx="166.06" cy="251.44" rx="32.52" ry="39.02" transform="matrix(0.57, -0.82, 0.82, 0.57, -135.22, 246.12)" style="fill:#BA68C8"></ellipse><g style="opacity:0.1"><path d="M129.11,242.91a27.88,27.88,0,0,1,4.77-13.54c10.16-14.81,32.8-16.93,50.57-4.74a44.15,44.15,0,0,1,15.65,18.66,67.48,67.48,0,0,1-25.21,13c-9.16,2.45-18.39,2.32-27-1.91C141.92,251.45,134,248.15,129.11,242.91Z" style="fill:#fff"></path></g><path d="M151.89,270.81c13.66,9.37,30.94,7.91,38.61-3.27s2.81-27.83-10.84-37.2-30.95-7.91-38.62,3.27S138.23,261.44,151.89,270.81Z" style="fill:#BA68C8"></path><g style="opacity:0.2"><path d="M151.89,270.81c13.66,9.37,30.94,7.91,38.61-3.27s2.81-27.83-10.84-37.2-30.95-7.91-38.62,3.27S138.23,261.44,151.89,270.81Z"></path></g><path d="M151.81,272.2c13.33,9.15,30.16,7.78,37.58-3s2.65-27-10.68-36.16-30.15-7.78-37.58,3S138.49,263.06,151.81,272.2Z" style="fill:#BA68C8"></path><g style="opacity:0.2"><path d="M151.81,272.2c13.33,9.15,30.16,7.78,37.58-3s2.65-27-10.68-36.16-30.15-7.78-37.58,3S138.49,263.06,151.81,272.2Z" style="fill:#fff"></path></g><path d="M164.07,261.89a7.59,7.59,0,0,0,10.54-1.37l3.55,2.44,1.42-2.07-.17-1.56-.69,1-2.66-1.82a11.8,11.8,0,0,0,1.6-8l-4-1.06a10.44,10.44,0,0,1-1,6.7l-6.35-4.36c1.07-3.38,2-7.16-2.42-10.19a7.53,7.53,0,0,0-10.51,1.32l-3.59-2.46-.82,1.2-.88-.61.29,1.48,3.52,2.41a9.78,9.78,0,0,0-1.19,4.6l-.55.27.58,1.73.65.18,2.84.8.25.07a9.94,9.94,0,0,1-.14-2,10.57,10.57,0,0,1,1-3.31l0,0,6.4,4.4C160.64,255.05,159.66,258.86,164.07,261.89Zm-7.26-16.62a3.4,3.4,0,0,1,4.63-.57c1.53,1.05,1.48,2.61,1,4.44Zm-1.51,2Zm11.27,11.59c-1.56-1.07-1.53-2.68-1-4.56l5.61,3.85C169.54,259.75,167.93,259.79,166.57,258.86Z" style="fill:#BA68C8"></path><g style="opacity:0.30000000000000004"><path d="M164.07,261.89a7.59,7.59,0,0,0,10.54-1.37l3.55,2.44,1.42-2.07-.17-1.56-.69,1-2.66-1.82a11.8,11.8,0,0,0,1.6-8l-4-1.06a10.44,10.44,0,0,1-1,6.7l-6.35-4.36c1.07-3.38,2-7.16-2.42-10.19a7.53,7.53,0,0,0-10.51,1.32l-3.59-2.46-.82,1.2-.88-.61.29,1.48,3.52,2.41a9.78,9.78,0,0,0-1.19,4.6l-.55.27.58,1.73.65.18,2.84.8.25.07a9.94,9.94,0,0,1-.14-2,10.57,10.57,0,0,1,1-3.31l0,0,6.4,4.4C160.64,255.05,159.66,258.86,164.07,261.89Zm-7.26-16.62a3.4,3.4,0,0,1,4.63-.57c1.53,1.05,1.48,2.61,1,4.44Zm-1.51,2Zm11.27,11.59c-1.56-1.07-1.53-2.68-1-4.56l5.61,3.85C169.54,259.75,167.93,259.79,166.57,258.86Z"></path></g><path d="M163.79,260.43c-4.41-3-3.43-6.83-2.37-10.22l-6.4-4.39a10.91,10.91,0,0,0-1.09,5.26L150,249.91a11.24,11.24,0,0,1,1.57-6.44l-3.51-2.41,1.41-2.07,3.59,2.46a7.52,7.52,0,0,1,10.5-1.32c4.41,3,3.5,6.81,2.43,10.19l6.34,4.35A10.47,10.47,0,0,0,173.4,248l4,1.06a11.76,11.76,0,0,1-1.6,8l3.52,2.42-1.42,2.07-3.55-2.44A7.58,7.58,0,0,1,163.79,260.43Zm-2.63-17.18a3.4,3.4,0,0,0-4.63.57l5.65,3.87C162.64,245.86,162.69,244.3,161.16,243.25Zm9.71,13.45-5.61-3.85c-.5,1.88-.53,3.49,1,4.55C167.65,258.34,169.26,258.3,170.87,256.7Z" style="fill:#BA68C8"></path><path d="M137.34,248s.14,1,.48,2.69a31.36,31.36,0,0,0,2.28,7.06,35.1,35.1,0,0,0,6.06,9.13,35.6,35.6,0,0,0,4.82,4.33,35,35,0,0,0,6,3.53,37.08,37.08,0,0,0,12.94,3.44,21.53,21.53,0,0,0,10.67-1.93,22.58,22.58,0,0,0,6-4.27c.61-.63,1.05-1.15,1.37-1.48a3.79,3.79,0,0,1,.51-.51,3.53,3.53,0,0,1-.43.57c-.29.36-.71.91-1.31,1.56a20.79,20.79,0,0,1-16.85,6.54,37.06,37.06,0,0,1-13.14-3.44,35,35,0,0,1-6.08-3.6,36.49,36.49,0,0,1-4.86-4.42,34.36,34.36,0,0,1-6.05-9.3,29.33,29.33,0,0,1-2.14-7.17,17.15,17.15,0,0,1-.25-2A3.18,3.18,0,0,1,137.34,248Z" style="fill:#263238"></path><path d="M149.37,279.26s.16.05.43.21l1.16.68a19.35,19.35,0,0,0,1.86,1c.74.36,1.56.84,2.53,1.21l1.5.64c.53.22,1.1.38,1.67.59,1.15.43,2.42.73,3.75,1.09A41.51,41.51,0,0,0,180,285a38.54,38.54,0,0,0,3.78-1c.58-.18,1.16-.33,1.69-.53l1.52-.59c1-.34,1.82-.78,2.58-1.12s1.38-.68,1.89-1l1.18-.64a1.64,1.64,0,0,1,.43-.2s-.12.11-.37.29l-1.14.72a16.15,16.15,0,0,1-1.86,1.06,26.34,26.34,0,0,1-2.57,1.2l-1.52.63c-.54.21-1.11.37-1.7.56a35.78,35.78,0,0,1-3.82,1,43.63,43.63,0,0,1-9,.86,44.5,44.5,0,0,1-9-1.16c-1.34-.38-2.63-.7-3.78-1.15-.58-.22-1.15-.4-1.68-.63l-1.5-.67a23.32,23.32,0,0,1-2.52-1.3,15.08,15.08,0,0,1-1.83-1.11l-1.11-.77A2.1,2.1,0,0,1,149.37,279.26Z" style="fill:#263238"></path><path d="M187.73,227.64c-.06.07-1.33-1-3.55-2.47a46.55,46.55,0,0,0-19.27-7.36c-2.64-.38-4.29-.43-4.29-.53a5.25,5.25,0,0,1,1.16,0,29.32,29.32,0,0,1,3.18.2,42,42,0,0,1,10.19,2.48,41.55,41.55,0,0,1,9.24,5,31,31,0,0,1,2.5,2A5.47,5.47,0,0,1,187.73,227.64Z" style="fill:#fff"></path><path d="M195.53,237.35a11,11,0,0,1-2.13-2.6,11.41,11.41,0,0,1-1.7-2.9,11.2,11.2,0,0,1,2.13,2.61A10.76,10.76,0,0,1,195.53,237.35Z" style="fill:#fff"></path><path d="M139.54,242.28a4,4,0,0,1,.29-1,7.46,7.46,0,0,1,.45-1.12,13.39,13.39,0,0,1,.71-1.42,21.08,21.08,0,0,1,2.36-3.4,24,24,0,0,1,3.72-3.46,24.35,24.35,0,0,1,4.42-2.51,20.46,20.46,0,0,1,3.95-1.24,14,14,0,0,1,1.57-.25,10,10,0,0,1,1.2-.1,3.37,3.37,0,0,1,1,0c0,.1-1.45.13-3.71.68a22.54,22.54,0,0,0-3.84,1.32,23.16,23.16,0,0,0-8,5.84,22.46,22.46,0,0,0-2.4,3.28C140.11,240.94,139.64,242.32,139.54,242.28Z" style="fill:#fff"></path><path d="M162.44,241.4a7.73,7.73,0,0,0-2.26-1.32,7.42,7.42,0,0,0-2.62,0c0-.06.22-.28.72-.45a3.66,3.66,0,0,1,3.77,1.05C162.39,241.05,162.49,241.37,162.44,241.4Z" style="fill:#fff"></path><path d="M176.17,250.61c-.13-.06-.17-.33-.39-.56s-.46-.32-.5-.46.07-.15.26-.17a.83.83,0,0,1,.63.29.87.87,0,0,1,.21.66C176.34,250.55,176.24,250.63,176.17,250.61Z" style="fill:#fff"></path><g style="opacity:0.2"><path d="M177.45,220.66s-14.54,38.81,2.13,69.23l7.45-3.71-3.42-62.28Z"></path></g><ellipse cx="295.11" cy="199.9" rx="39.35" ry="32.79" transform="translate(21.39 428.22) rotate(-73.95)" style="fill:#BA68C8"></ellipse><g style="opacity:0.2"><ellipse cx="295.11" cy="199.9" rx="39.35" ry="32.79" transform="translate(21.39 428.22) rotate(-73.95)"></ellipse></g><ellipse cx="301.21" cy="201.66" rx="39.35" ry="32.79" transform="translate(24.11 435.36) rotate(-73.95)" style="fill:#BA68C8"></ellipse><g style="opacity:0.1"><path d="M297.62,163.59a28.12,28.12,0,0,1,14.48.26c17.4,5,26.63,26,20.62,46.88a44.53,44.53,0,0,1-12.87,20.92,67.91,67.91,0,0,1-20.44-20c-5.26-8-8.08-16.86-6.78-26.46C293.53,178.57,294.18,170,297.62,163.59Z" style="fill:#fff"></path></g><path d="M278.17,194.27c-4.62,16,2.28,32.13,15.42,35.91S321.12,224,325.74,208s-2.29-32.13-15.42-35.91S282.79,178.22,278.17,194.27Z" style="fill:#BA68C8"></path><g style="opacity:0.2"><path d="M278.17,194.27c-4.62,16,2.28,32.13,15.42,35.91S321.12,224,325.74,208s-2.29-32.13-15.42-35.91S282.79,178.22,278.17,194.27Z"></path></g><path d="M276.82,194.64c-4.51,15.66,2.15,31.33,14.87,35s26.69-6.07,31.2-21.73-2.15-31.33-14.88-35S281.32,179,276.82,194.64Z" style="fill:#BA68C8"></path><g style="opacity:0.2"><path d="M276.82,194.64c-4.51,15.66,2.15,31.33,14.87,35s26.69-6.07,31.2-21.73-2.15-31.33-14.88-35S281.32,179,276.82,194.64Z" style="fill:#fff"></path></g><path d="M290.59,203.08c-1.1,3.8.18,7.72,4.66,9.66l-1.2,4.17,2.43.7,1.44-.66-1.15-.35.9-3.13a11.84,11.84,0,0,0,8.15-1l-.25-4.15a10.57,10.57,0,0,1-6.74,1.13L301,202c3.58-.06,7.49-.39,9-5.57a7.6,7.6,0,0,0-4.6-9.64l1.21-4.21-1.41-.4.3-1-1.32.74L302.94,186a10,10,0,0,0-4.78.32l-.43-.43-1.47,1.1,0,.68.14,3,0,.26a10.28,10.28,0,0,1,1.82-.75,10.57,10.57,0,0,1,3.48-.13h0l-2.16,7.52C296,197.63,292.08,197.9,290.59,203.08Zm13.59-12.23a3.42,3.42,0,0,1,2,4.25c-.51,1.79-2,2.25-3.92,2.39Zm-2.4-.81Zm-7.5,14.47c.53-1.83,2.08-2.31,4-2.43l-1.9,6.6C294.38,207.64,293.82,206.11,294.28,204.51Z" style="fill:#BA68C8"></path><g style="opacity:0.30000000000000004"><path d="M290.59,203.08c-1.1,3.8.18,7.72,4.66,9.66l-1.2,4.17,2.43.7,1.44-.66-1.15-.35.9-3.13a11.84,11.84,0,0,0,8.15-1l-.25-4.15a10.57,10.57,0,0,1-6.74,1.13L301,202c3.58-.06,7.49-.39,9-5.57a7.6,7.6,0,0,0-4.6-9.64l1.21-4.21-1.41-.4.3-1-1.32.74L302.94,186a10,10,0,0,0-4.78.32l-.43-.43-1.47,1.1,0,.68.14,3,0,.26a10.28,10.28,0,0,1,1.82-.75,10.57,10.57,0,0,1,3.48-.13h0l-2.16,7.52C296,197.63,292.08,197.9,290.59,203.08Zm13.59-12.23a3.42,3.42,0,0,1,2,4.25c-.51,1.79-2,2.25-3.92,2.39Zm-2.4-.81Zm-7.5,14.47c.53-1.83,2.08-2.31,4-2.43l-1.9,6.6C294.38,207.64,293.82,206.11,294.28,204.51Z"></path></g><path d="M291.89,202.35c1.49-5.18,5.45-5.46,9-5.52l2.17-7.53a11.23,11.23,0,0,0-5.38.63l-.13-4.11a11.42,11.42,0,0,1,6.67-.54l1.19-4.14,2.43.7-1.21,4.21a7.6,7.6,0,0,1,4.6,9.64c-1.49,5.18-5.4,5.51-9,5.57l-2.14,7.45a10.54,10.54,0,0,0,6.73-1.12l.25,4.14a11.8,11.8,0,0,1-8.14,1l-1.19,4.14-2.43-.7,1.2-4.18C292.07,210.07,290.79,206.15,291.89,202.35Zm5.83,5.59,1.9-6.6c-2,.13-3.51.61-4,2.43C295.12,205.38,295.67,206.91,297.72,207.94Zm9.77-13.57a3.42,3.42,0,0,0-2-4.26l-1.91,6.64C305.47,196.61,307,196.16,307.49,194.37Z" style="fill:#BA68C8"></path><path d="M289.38,181.64s-.65.59-1.79,1.7a28.2,28.2,0,0,0-4.19,5.21,31,31,0,0,0-3.89,9.09,30,30,0,0,0-.6,12,33.41,33.41,0,0,0,3.79,11.47,19.43,19.43,0,0,0,6.72,7.1,20.53,20.53,0,0,0,6.19,2.44c.78.16,1.39.23,1.8.31a3.53,3.53,0,0,1,.63.14,2.58,2.58,0,0,1-.64,0c-.42-.05-1-.09-1.83-.22a18.74,18.74,0,0,1-13.29-9.5,33.39,33.39,0,0,1-3.89-11.63,32.06,32.06,0,0,1-.29-6.38,32.61,32.61,0,0,1,.94-5.86,31.09,31.09,0,0,1,4-9.17,26.06,26.06,0,0,1,4.36-5.16,17.77,17.77,0,0,1,1.41-1.18A2.41,2.41,0,0,1,289.38,181.64Z" style="fill:#263238"></path><path d="M271.75,206.16c.12,0,0,2.35.6,6.06.08.46.17.95.26,1.45s.25,1,.38,1.55c.24,1.08.64,2.19,1,3.36a37.63,37.63,0,0,0,8.54,13.56c.89.85,1.72,1.7,2.59,2.38.43.35.82.71,1.23,1l1.2.86c3.08,2.16,5.26,3.05,5.21,3.16a8.35,8.35,0,0,1-1.52-.63,13,13,0,0,1-1.72-.89,23.78,23.78,0,0,1-2.18-1.33l-1.23-.85c-.42-.3-.83-.65-1.26-1a33.31,33.31,0,0,1-2.66-2.38,39.52,39.52,0,0,1-5.1-6.37,40,40,0,0,1-3.55-7.35c-.38-1.2-.77-2.33-1-3.43-.12-.54-.27-1.06-.35-1.57s-.16-1-.24-1.48c-.17-.93-.19-1.79-.26-2.54a14.65,14.65,0,0,1-.05-1.93A8.47,8.47,0,0,1,271.75,206.16Z" style="fill:#263238"></path><path d="M330.89,214.82c-.09,0,.53-1.58,1.24-4.18a47,47,0,0,0,.91-20.78c-.48-2.65-1-4.25-.87-4.27a5.24,5.24,0,0,1,.41,1.1,28,28,0,0,1,.82,3.1,42,42,0,0,1-.92,21,30.82,30.82,0,0,1-1.08,3A5.12,5.12,0,0,1,330.89,214.82Z" style="fill:#fff"></path><path d="M326.21,220.32a9.22,9.22,0,0,1,.89-2.9,9,9,0,0,1,1.38-2.71,17.56,17.56,0,0,1-2.27,5.61Z" style="fill:#fff"></path><path d="M301.54,173.37a4.93,4.93,0,0,1,1,0,9.5,9.5,0,0,1,1.21.08,13.53,13.53,0,0,1,1.59.23,20.76,20.76,0,0,1,4,1.18,24.78,24.78,0,0,1,4.49,2.46,24.15,24.15,0,0,1,3.81,3.42,20.9,20.9,0,0,1,2.44,3.39,14.15,14.15,0,0,1,.74,1.43,7.91,7.91,0,0,1,.48,1.11,4.47,4.47,0,0,1,.3,1c-.1,0-.59-1.34-1.83-3.33a23.63,23.63,0,0,0-2.49-3.26,26.25,26.25,0,0,0-3.75-3.31,24.85,24.85,0,0,0-4.38-2.45,22.34,22.34,0,0,0-3.9-1.26C303,173.49,301.54,173.48,301.54,173.37Z" style="fill:#fff"></path><path d="M309.67,195a7.48,7.48,0,0,0,.54-2.58,7.83,7.83,0,0,0-.79-2.51s.33.12.65.54a3.63,3.63,0,0,1,.66,2,3.66,3.66,0,0,1-.46,2C310,194.85,309.72,195,309.67,195Z" style="fill:#fff"></path><path d="M306.63,212.25c0-.15.14-.32.2-.58s0-.49.13-.6.16,0,.27.11a.75.75,0,0,1,.11.63.77.77,0,0,1-.41.49C306.76,212.36,306.65,212.31,306.63,212.25Z" style="fill:#fff"></path><g style="opacity:0.30000000000000004"><path d="M266.33,183.61s30.37,7.59,39.18,22.78,11.59,27.5,11.59,27.5l-6.62,3L263.55,190Z"></path></g><ellipse cx="321.62" cy="383.13" rx="26.18" ry="21.82" transform="matrix(0.1, -0.99, 0.99, 0.1, -91.87, 664.65)" style="fill:#BA68C8"></ellipse><g style="opacity:0.2"><ellipse cx="321.62" cy="383.13" rx="26.18" ry="21.82" transform="matrix(0.1, -0.99, 0.99, 0.1, -91.87, 664.65)"></ellipse></g><ellipse cx="317.41" cy="382.71" rx="26.18" ry="21.82" transform="translate(-95.23 660.09) rotate(-84.24)" style="fill:#BA68C8"></ellipse><g style="opacity:0.1"><path d="M329,360.08a18.83,18.83,0,0,0-9-3.42c-12-1.21-22.88,9.47-24.34,23.86a29.63,29.63,0,0,0,2.79,16.1,45.39,45.39,0,0,0,17.57-7.29c5.22-3.63,9.15-8.42,10.72-14.67C327.87,370.34,329.59,364.88,329,360.08Z" style="fill:#fff"></path></g><path d="M333.47,383.84c-1.12,11.06-9.35,19.28-18.4,18.36s-15.48-10.61-14.36-21.67,9.35-19.27,18.4-18.36S334.59,372.78,333.47,383.84Z" style="fill:#BA68C8"></path><g style="opacity:0.2"><path d="M333.47,383.84c-1.12,11.06-9.35,19.28-18.4,18.36s-15.48-10.61-14.36-21.67,9.35-19.27,18.4-18.36S334.59,372.78,333.47,383.84Z"></path></g><path d="M334.21,384.4c-1.09,10.79-9.07,18.82-17.84,17.94s-15-10.35-13.89-21.14,9.08-18.82,17.84-17.93S335.3,373.61,334.21,384.4Z" style="fill:#BA68C8"></path><g style="opacity:0.2"><path d="M334.21,384.4c-1.09,10.79-9.07,18.82-17.84,17.94s-15-10.35-13.89-21.14,9.08-18.82,17.84-17.93S335.3,373.61,334.21,384.4Z" style="fill:#fff"></path></g><path d="M319.41,380.57l.52-5.18h0a7.15,7.15,0,0,1,2.12.93,7.58,7.58,0,0,1,.94.92l.07-.15.82-1.8.19-.42-.63-1-.38.16a6.55,6.55,0,0,0-2.87-1.38l.29-2.85-.63-.79-.08.72-1-.1-.3,2.9a5,5,0,0,0-5.22,4.81c-.36,3.57,2,4.74,4.17,5.66l-.52,5.14a7.08,7.08,0,0,1-3.89-2.37l-1.18,2.5a7.89,7.89,0,0,0,4.79,2.64l-.22,2.15-.8-.06.73.76,1.67.17.29-2.88a5.09,5.09,0,0,0,5.27-4.81C324,382.64,321.6,381.5,319.41,380.57Zm-1.62-.7c-1.14-.56-2-1.21-1.84-2.44a2.28,2.28,0,0,1,2.3-2.13Zm2.14-4.48Zm-1.29,12.83.45-4.54c1.18.56,2,1.24,1.9,2.5A2.26,2.26,0,0,1,318.64,388.22Z" style="fill:#BA68C8"></path><g style="opacity:0.30000000000000004"><path d="M319.41,380.57l.52-5.18h0a7.15,7.15,0,0,1,2.12.93,7.58,7.58,0,0,1,.94.92l.07-.15.82-1.8.19-.42-.63-1-.38.16a6.55,6.55,0,0,0-2.87-1.38l.29-2.85-.63-.79-.08.72-1-.1-.3,2.9a5,5,0,0,0-5.22,4.81c-.36,3.57,2,4.74,4.17,5.66l-.52,5.14a7.08,7.08,0,0,1-3.89-2.37l-1.18,2.5a7.89,7.89,0,0,0,4.79,2.64l-.22,2.15-.8-.06.73.76,1.67.17.29-2.88a5.09,5.09,0,0,0,5.27-4.81C324,382.64,321.6,381.5,319.41,380.57Zm-1.62-.7c-1.14-.56-2-1.21-1.84-2.44a2.28,2.28,0,0,1,2.3-2.13Zm2.14-4.48Zm-1.29,12.83.45-4.54c1.18.56,2,1.24,1.9,2.5A2.26,2.26,0,0,1,318.64,388.22Z"></path></g><path d="M317.73,390.25l-.29,2.87-1.67-.16.29-2.85a7.94,7.94,0,0,1-4.79-2.64l1.18-2.5a7,7,0,0,0,3.89,2.36l.51-5.13c-2.19-.92-4.53-2.09-4.16-5.66a5.06,5.06,0,0,1,5.22-4.82l.29-2.9,1.68.17-.29,2.85a7.58,7.58,0,0,1,4,2l-1.09,2.5a7.54,7.54,0,0,0-3.17-1.72l-.52,5.19c2.19.92,4.57,2.07,4.21,5.64A5.09,5.09,0,0,1,317.73,390.25Zm-.56-11.16.46-4.57a2.29,2.29,0,0,0-2.3,2.13C315.21,377.88,316,378.54,317.17,379.09Zm3.19,6.32c.13-1.26-.71-1.94-1.89-2.5l-.46,4.54A2.24,2.24,0,0,0,320.36,385.41Z" style="fill:#BA68C8"></path><path d="M328.11,366.52a2.48,2.48,0,0,1,.36.31c.21.23.57.53.94,1a19.67,19.67,0,0,1,2.77,4.2,23,23,0,0,1,1.54,16.26,25,25,0,0,1-3.94,8.25,14.48,14.48,0,0,1-5.81,4.66,14.33,14.33,0,0,1-4.91,1.12c-.59,0-1.05,0-1.37,0a2.15,2.15,0,0,1-.47,0,14.62,14.62,0,0,1,1.83-.14,15.44,15.44,0,0,0,4.77-1.25,14.46,14.46,0,0,0,5.57-4.62,24.91,24.91,0,0,0,3.83-8.1,22.9,22.9,0,0,0,.66-8.91,23.44,23.44,0,0,0-2-7.05A27.55,27.55,0,0,0,328.11,366.52Z" style="fill:#263238"></path><path d="M338.88,386.21a4.71,4.71,0,0,1-.06,1.22,9.8,9.8,0,0,1-.2,1.42c-.12.55-.21,1.19-.42,1.86a18.65,18.65,0,0,1-.71,2.21,24.41,24.41,0,0,1-1,2.44,27.08,27.08,0,0,1-7.64,9.36c-.76.55-1.47,1.09-2.19,1.51a18.26,18.26,0,0,1-2,1.13,17.54,17.54,0,0,1-1.73.78,9.06,9.06,0,0,1-1.36.48,6,6,0,0,1-1.18.31c0-.1,1.65-.58,4.11-1.9a20.49,20.49,0,0,0,1.95-1.17c.7-.42,1.38-1,2.12-1.52a31.05,31.05,0,0,0,4.25-4.2,30.4,30.4,0,0,0,3.26-5c.4-.83.79-1.61,1.07-2.38a22.48,22.48,0,0,0,.76-2.15C338.64,387.94,338.77,386.2,338.88,386.21Z" style="fill:#263238"></path><path d="M295.83,383.5a2.09,2.09,0,0,1-.09-.78,18.55,18.55,0,0,1,.05-2.14,27.17,27.17,0,0,1,4.63-13.2,18.14,18.14,0,0,1,1.29-1.7c.33-.38.53-.58.55-.56a27.28,27.28,0,0,1-1.54,2.46,34.28,34.28,0,0,0-3,6.27,33.18,33.18,0,0,0-1.57,6.77C295.94,382.39,295.91,383.5,295.83,383.5Z" style="fill:#fff"></path><path d="M297.42,391.7c-.14,0-.51-.9-.83-2.1a5.08,5.08,0,0,1-.33-2.24,5.08,5.08,0,0,1,.83,2.1A4.91,4.91,0,0,1,297.42,391.7Z" style="fill:#fff"></path><path d="M324.2,365.15c0,.09-.95-.24-2.48-.48a15.78,15.78,0,0,0-11.46,2.76c-1.26.9-1.93,1.61-2,1.55s.11-.22.4-.56a9.94,9.94,0,0,1,1.37-1.29,14.4,14.4,0,0,1,11.74-2.82,9.85,9.85,0,0,1,1.8.53C324,365,324.21,365.12,324.2,365.15Z" style="fill:#fff"></path><path d="M313.83,376.5c-.06,0-.2-.16-.28-.52a2.41,2.41,0,0,1,.19-1.39,2.35,2.35,0,0,1,.93-1c.32-.18.56-.19.58-.13s-.66.53-1,1.39S314,376.46,313.83,376.5Z" style="fill:#fff"></path><path d="M312.6,387.53c0,.06-.12.1-.25,0a.57.57,0,0,1-.14-.91c.11-.09.21-.08.26,0a1.23,1.23,0,0,1,.1.44A1.48,1.48,0,0,1,312.6,387.53Z" style="fill:#fff"></path><ellipse cx="146.32" cy="346.13" rx="26.98" ry="32.37" transform="translate(-224.68 405.95) rotate(-76.24)" style="fill:#BA68C8"></ellipse><g style="opacity:0.2"><ellipse cx="146.32" cy="346.13" rx="26.98" ry="32.37" transform="translate(-224.68 405.95) rotate(-76.24)"></ellipse></g><ellipse cx="145.08" cy="351.21" rx="26.98" ry="32.37" transform="translate(-230.56 408.62) rotate(-76.24)" style="fill:#BA68C8"></ellipse><g style="opacity:0.1"><path d="M119.37,333.07a23.17,23.17,0,0,0-5.73,10.44c-3.55,14.48,7.66,29.66,25,33.91a36.65,36.65,0,0,0,20.19-.64A55.82,55.82,0,0,0,153,354c-3.54-7-8.73-12.66-16.12-15.66C131.74,336.28,125.34,333.23,119.37,333.07Z" style="fill:#fff"></path></g><path d="M149.23,331.74c13.35,3.27,22,14.77,19.33,25.69s-15.67,17.13-29,13.87-22-14.78-19.33-25.7S135.88,328.47,149.23,331.74Z" style="fill:#BA68C8"></path><g style="opacity:0.2"><path d="M149.23,331.74c13.35,3.27,22,14.77,19.33,25.69s-15.67,17.13-29,13.87-22-14.78-19.33-25.7S135.88,328.47,149.23,331.74Z"></path></g><path d="M150.05,330.93c13,3.18,21.48,14.34,18.89,24.92s-15.25,16.57-28.27,13.39-21.49-14.35-18.9-24.93S137,327.74,150.05,330.93Z" style="fill:#BA68C8"></path><g style="opacity:0.2"><path d="M150.05,330.93c13,3.18,21.48,14.34,18.89,24.92s-15.25,16.57-28.27,13.39-21.49-14.35-18.9-24.93S137,327.74,150.05,330.93Z" style="fill:#fff"></path></g><path d="M142.81,348.4l-6.25-1.53v0a9,9,0,0,1,1.52-2.43,8.34,8.34,0,0,1,1.28-1l-.17-.12L137.12,342l-.47-.3-1.39.6.14.49a8.08,8.08,0,0,0-2.19,3.28l-3.44-.85-1.07.64.86.22-.29,1.16,3.5.86a6.26,6.26,0,0,0,5,7.23c4.31,1.05,6.14-1.6,7.65-4.13l6.2,1.51a8.69,8.69,0,0,1-3.57,4.35l2.86,1.88a9.72,9.72,0,0,0,4.05-5.41l2.6.64-.21,1,1.05-.76.5-2-3.47-.85a6.3,6.3,0,0,0-5-7.28C146.13,343.15,144.32,345.87,142.81,348.4Zm-1.14,1.86c-.88,1.3-1.82,2.19-3.31,1.83a2.82,2.82,0,0,1-2.21-3.18Zm-5.12-3.39Zm15.5,3.79-5.49-1.34c.89-1.35,1.87-2.26,3.39-1.89C151.28,347.76,152.15,348.78,152.05,350.66Z" style="fill:#BA68C8"></path><g style="opacity:0.30000000000000004"><path d="M142.81,348.4l-6.25-1.53v0a9,9,0,0,1,1.52-2.43,8.34,8.34,0,0,1,1.28-1l-.17-.12L137.12,342l-.47-.3-1.39.6.14.49a8.08,8.08,0,0,0-2.19,3.28l-3.44-.85-1.07.64.86.22-.29,1.16,3.5.86a6.26,6.26,0,0,0,5,7.23c4.31,1.05,6.14-1.6,7.65-4.13l6.2,1.51a8.69,8.69,0,0,1-3.57,4.35l2.86,1.88a9.72,9.72,0,0,0,4.05-5.41l2.6.64-.21,1,1.05-.76.5-2-3.47-.85a6.3,6.3,0,0,0-5-7.28C146.13,343.15,144.32,345.87,142.81,348.4Zm-1.14,1.86c-.88,1.3-1.82,2.19-3.31,1.83a2.82,2.82,0,0,1-2.21-3.18Zm-5.12-3.39Zm15.5,3.79-5.49-1.34c.89-1.35,1.87-2.26,3.39-1.89C151.28,347.76,152.15,348.78,152.05,350.66Z"></path></g><path d="M154.37,352.12l3.47.85-.49,2-3.44-.84a9.77,9.77,0,0,1-4,5.41L147,357.67a8.72,8.72,0,0,0,3.56-4.35l-6.2-1.51c-1.5,2.53-3.34,5.18-7.65,4.13a6.24,6.24,0,0,1-5-7.23l-3.5-.86.49-2,3.44.85a9.24,9.24,0,0,1,3.12-4.54l2.88,1.77a9,9,0,0,0-2.65,3.59l6.26,1.53c1.5-2.53,3.32-5.25,7.63-4.19A6.29,6.29,0,0,1,154.37,352.12Zm-13.76-1.23-5.51-1.35a2.81,2.81,0,0,0,2.21,3.18C138.79,353.08,139.73,352.19,140.61,350.89Zm8.28-2.83c-1.52-.37-2.49.54-3.38,1.89l5.48,1.34C151.09,349.41,150.22,348.39,148.89,348.06Z" style="fill:#BA68C8"></path><path d="M127.1,335.33s.14-.15.45-.38a16.69,16.69,0,0,1,1.38-1,24.2,24.2,0,0,1,5.62-2.65,28.56,28.56,0,0,1,9.11-1.42,29.66,29.66,0,0,1,5.43.57,28.57,28.57,0,0,1,5.6,1.77,30.82,30.82,0,0,1,9.4,6.23,17.2,17.2,0,0,1,5.26,14.08c-.07.73-.19,1.29-.25,1.67a2.07,2.07,0,0,1-.12.57,2.39,2.39,0,0,1,0-.59c0-.38.1-.94.15-1.67a19.06,19.06,0,0,0-.7-6.07,17.83,17.83,0,0,0-4.7-7.65,30.9,30.9,0,0,0-9.27-6.09A28.4,28.4,0,0,0,149,331a29.57,29.57,0,0,0-5.34-.59,28.79,28.79,0,0,0-9,1.29,25.94,25.94,0,0,0-5.62,2.47C127.78,334.89,127.13,335.37,127.1,335.33Z" style="fill:#263238"></path><path d="M153.06,325.52a7.06,7.06,0,0,1,1.48.31,11.68,11.68,0,0,1,1.7.5,21,21,0,0,1,2.2.84,21.45,21.45,0,0,1,2.57,1.25,31.42,31.42,0,0,1,2.81,1.7,36.38,36.38,0,0,1,5.68,4.9,36.82,36.82,0,0,1,4.45,6.05,30.85,30.85,0,0,1,1.47,2.93,28,28,0,0,1,1.71,4.91,13.46,13.46,0,0,1,.37,1.74,9.39,9.39,0,0,1,.2,1.5c-.12,0-.4-2.13-1.58-5.37a26.56,26.56,0,0,0-1.09-2.6c-.4-.94-.95-1.87-1.5-2.87a34.38,34.38,0,0,0-10-10.8c-.95-.62-1.84-1.25-2.74-1.72a24.9,24.9,0,0,0-2.51-1.28C155.15,326.08,153,325.63,153.06,325.52Z" style="fill:#263238"></path><path d="M142.34,377.78a3.12,3.12,0,0,1-1,0,23.42,23.42,0,0,1-2.6-.45,33.81,33.81,0,0,1-8.18-3,34.35,34.35,0,0,1-7.17-4.94,21.58,21.58,0,0,1-1.87-1.87,3.78,3.78,0,0,1-.61-.75c.07-.07,1,.92,2.72,2.34a39.22,39.22,0,0,0,15.2,7.84C141,377.48,142.35,377.69,142.34,377.78Z" style="fill:#fff"></path><path d="M152.66,377.23a7.47,7.47,0,0,1-2.73.6,7.64,7.64,0,0,1-2.79.08,14.9,14.9,0,0,1,5.52-.68Z" style="fill:#fff"></path><path d="M124.75,339.88c.09,0-.49,1.1-1,2.94a19.2,19.2,0,0,0-.69,3.3,19.36,19.36,0,0,0,.79,8.14,19.31,19.31,0,0,0,1.3,3.1c.9,1.7,1.68,2.63,1.6,2.69s-.24-.2-.6-.61a13.44,13.44,0,0,1-1.32-1.9,17.06,17.06,0,0,1-1.44-3.13,20.74,20.74,0,0,1-.89-4.13,20.2,20.2,0,0,1,.09-4.22,17,17,0,0,1,.81-3.35,12.89,12.89,0,0,1,.94-2.12C124.56,340.11,124.72,339.86,124.75,339.88Z" style="fill:#fff"></path><path d="M136.87,354.53c0,.06-.24.19-.68.2a2.82,2.82,0,0,1-1.64-.47,2.92,2.92,0,0,1-1.12-1.29c-.17-.42-.16-.7-.1-.71s.48.93,1.5,1.56S136.85,354.38,136.87,354.53Z" style="fill:#fff"></path><path d="M150.16,357.93c.06,0,.08.15,0,.29a.68.68,0,0,1-.54.25.65.65,0,0,1-.54-.25c-.1-.13-.08-.25,0-.28s.33,0,.57,0S150,357.87,150.16,357.93Z" style="fill:#fff"></path><ellipse cx="311.98" cy="300.8" rx="25.22" ry="35.11" transform="translate(-95.98 447.02) rotate(-63.67)" style="fill:#BA68C8"></ellipse><g style="opacity:0.2"><ellipse cx="311.98" cy="300.8" rx="25.22" ry="35.11" transform="translate(-95.98 447.02) rotate(-63.67)"></ellipse></g><ellipse cx="314.66" cy="295.38" rx="25.22" ry="35.11" transform="translate(-89.63 446.41) rotate(-63.67)" style="fill:#BA68C8"></ellipse><g style="opacity:0.1"><path d="M335.31,282.05a9.38,9.38,0,0,0-2.45,4.14c-1.11,4.7.12,9.75,2.87,14.13a35.61,35.61,0,0,0,10.48,10.48c4.47-9.26.62-21-8.74-29.94A8,8,0,0,0,335.31,282.05Z" style="fill:#fff"></path></g><path d="M307,312.35c-13.35-6.61-20.4-19.61-15.74-29s19.27-11.71,32.63-5.1,20.41,19.61,15.74,29S320.35,319,307,312.35Z" style="fill:#BA68C8"></path><g style="opacity:0.2"><path d="M307,312.35c-13.35-6.61-20.4-19.61-15.74-29s19.27-11.71,32.63-5.1,20.41,19.61,15.74,29S320.35,319,307,312.35Z"></path></g><path d="M306,312.88c-13-6.45-19.94-19.07-15.42-28.2s18.74-11.3,31.78-4.85S342.3,298.91,337.78,308,319,319.34,306,312.88Z" style="fill:#BA68C8"></path><g style="opacity:0.2"><path d="M306,313c-13-6.45-19.94-19.08-15.43-28.2s18.75-11.3,31.78-4.85,19.95,19.08,15.43,28.21S319,319.44,306,313Z" style="fill:#fff"></path></g><path d="M315.31,299.05l6.26,3.1v0a7.76,7.76,0,0,1-2,1.88,9.22,9.22,0,0,1-1.52.59l.16.16,1.92,1.78.45.41,1.55-.19-.06-.49a7.22,7.22,0,0,0,2.87-2.5l3.44,1.7,1.24-.32-.87-.43.51-1L325.73,302c1.2-3.59-.77-6.55-3.94-8.12-4.31-2.13-6.69-.12-8.71,1.86l-6.2-3.07a7.82,7.82,0,0,1,4.48-3.14L308.71,287a8.71,8.71,0,0,0-5.18,4l-2.6-1.29.39-.85-1.24.44-.87,1.76,3.47,1.72c-1.17,3.63.76,6.59,3.92,8.16C310.91,303.09,313.29,301,315.31,299.05Zm1.52-1.45c1.15-1,2.29-1.57,3.78-.84a3,3,0,0,1,1.74,3.58Zm4.74,4.55Zm-15.51-7.68,5.49,2.72c-1.16,1-2.35,1.63-3.87.87A2.9,2.9,0,0,1,306.06,294.47Z" style="fill:#BA68C8"></path><g style="opacity:0.30000000000000004"><path d="M315.31,299.05l6.26,3.1v0a7.76,7.76,0,0,1-2,1.88,9.22,9.22,0,0,1-1.52.59l.16.16,1.92,1.78.45.41,1.55-.19-.06-.49a7.22,7.22,0,0,0,2.87-2.5l3.44,1.7,1.24-.32-.87-.43.51-1L325.73,302c1.2-3.59-.77-6.55-3.94-8.12-4.31-2.13-6.69-.12-8.71,1.86l-6.2-3.07a7.82,7.82,0,0,1,4.48-3.14L308.71,287a8.71,8.71,0,0,0-5.18,4l-2.6-1.29.39-.85-1.24.44-.87,1.76,3.47,1.72c-1.17,3.63.76,6.59,3.92,8.16C310.91,303.09,313.29,301,315.31,299.05Zm1.52-1.45c1.15-1,2.29-1.57,3.78-.84a3,3,0,0,1,1.74,3.58Zm4.74,4.55Zm-15.51-7.68,5.49,2.72c-1.16,1-2.35,1.63-3.87.87A2.9,2.9,0,0,1,306.06,294.47Z"></path></g><path d="M303.9,292.49l-3.48-1.72.88-1.76,3.44,1.7a8.74,8.74,0,0,1,5.18-4l2.66,2.52a7.84,7.84,0,0,0-4.49,3.14l6.2,3.07c2-2,4.41-4,8.72-1.86,3.16,1.57,5.14,4.53,3.94,8.12l3.5,1.73-.87,1.77-3.45-1.7a8.18,8.18,0,0,1-4.05,3.43l-2.7-2.43a8.08,8.08,0,0,0,3.4-2.66l-6.26-3.1c-2,2-4.4,4-8.71,1.91C304.65,299.09,302.72,296.12,303.9,292.49Zm5,5.27c1.52.75,2.7.15,3.87-.88l-5.49-2.71A2.89,2.89,0,0,0,308.9,297.76Zm9.15-.46,5.52,2.73a3,3,0,0,0-1.75-3.58C320.33,295.72,319.19,296.31,318.05,297.3Z" style="fill:#BA68C8"></path><path d="M320.74,271.2a6.39,6.39,0,0,1,1.15.38c.74.27,1.77.73,3,1.34a46.72,46.72,0,0,1,16.65,13.88,33,33,0,0,1,1.86,2.74,5.39,5.39,0,0,1,.58,1.06c-.08,0-1-1.4-2.74-3.58a52.58,52.58,0,0,0-16.52-13.77C322.3,271.94,320.7,271.29,320.74,271.2Z" style="fill:#fff"></path><path d="M307.93,268.92a13.58,13.58,0,0,1,3.79.1,14.28,14.28,0,0,1,3.73.63,13.75,13.75,0,0,1-3.78-.11A14.18,14.18,0,0,1,307.93,268.92Z" style="fill:#fff"></path><path d="M319.63,293.58a5,5,0,0,1,5.31,2.84,18.89,18.89,0,0,0-2.42-1.86A19.09,19.09,0,0,0,319.63,293.58Z" style="fill:#fff"></path><path d="M291.8,302.64c.08-.06.87,1,2.34,2.64a37.46,37.46,0,0,0,6.37,5.56,38.06,38.06,0,0,0,7.47,4c2,.79,3.33,1.15,3.3,1.23a3,3,0,0,1-.94-.16,20.67,20.67,0,0,1-2.49-.73,32.18,32.18,0,0,1-14-9.62,23.27,23.27,0,0,1-1.57-2.06A3.56,3.56,0,0,1,291.8,302.64Z" style="fill:#fff"></path><g style="opacity:0.2"><path d="M285.47,311.3l2.44,2.77A62,62,0,0,0,299.29,305c4.84-5.17,18.49-18.62,17.18-35.68h0l-6.1-1L284.93,310.6l.54.7"></path></g><ellipse cx="43.76" cy="204.81" rx="12.86" ry="17.9" transform="translate(-38.93 12.39) rotate(-11.19)" style="fill:#BA68C8"></ellipse><g style="opacity:0.2"><ellipse cx="43.76" cy="204.81" rx="12.86" ry="17.9" transform="translate(-38.93 12.39) rotate(-11.19)"></ellipse></g><ellipse cx="46.78" cy="204.21" rx="12.86" ry="17.9" transform="translate(-38.75 12.97) rotate(-11.19)" style="fill:#BA68C8"></ellipse><g style="opacity:0.1"><path d="M58.58,208.42a4.8,4.8,0,0,0-2.43.3,9.49,9.49,0,0,0-4.82,5.54,18.14,18.14,0,0,0-1,7.49c5.13-1.06,8.69-6.27,9.39-12.83A4.09,4.09,0,0,0,58.58,208.42Z" style="fill:#fff"></path></g><path d="M37.54,206.38C36.07,198.93,39.13,192,44.39,191s10.72,4.16,12.19,11.61S55,217,49.73,218,39,213.83,37.54,206.38Z" style="fill:#BA68C8"></path><g style="opacity:0.2"><path d="M37.54,206.38C36.07,198.93,39.13,192,44.39,191s10.72,4.16,12.19,11.61S55,217,49.73,218,39,213.83,37.54,206.38Z"></path></g><path d="M37,206.15c-1.44-7.28,1.52-14,6.61-15S54,195.22,55.46,202.5s-1.52,14-6.62,15S38.46,213.42,37,206.15Z" style="fill:#BA68C8"></path><g style="opacity:0.2"><path d="M37,206.16c-1.44-7.27,1.52-14,6.61-15S54,195.24,55.4,202.51s-1.52,14-6.62,15S38.4,213.43,37,206.16Z" style="fill:#fff"></path></g><path d="M45.5,205.61l.69,3.49h0a4.07,4.07,0,0,1-1.38-.23,4.46,4.46,0,0,1-.72-.43v.11L44,209.9l0,.3.56.57.18-.18a3.68,3.68,0,0,0,1.9.39l.38,1.92.51.4-.09-.48.57-.12-.39-1.95a3.34,3.34,0,0,0,2.06-4.11c-.48-2.41-2-2.75-3.46-2.95l-.68-3.46a4,4,0,0,1,2.66.84l.2-1.86a4.47,4.47,0,0,0-3.23-.85l-.29-1.45.47-.11-.56-.36-1,.19.39,1.94A3.37,3.37,0,0,0,42,202.69C42.5,205.09,44.07,205.41,45.5,205.61Zm1.06.17c.75.16,1.34.44,1.51,1.27a1.51,1.51,0,0,1-.9,1.81Zm-.37,3.33Zm-1.71-8.65.61,3.06c-.78-.15-1.39-.45-1.56-1.29A1.47,1.47,0,0,1,44.48,200.46Z" style="fill:#BA68C8"></path><g style="opacity:0.30000000000000004"><path d="M45.5,205.61l.69,3.49h0a4.07,4.07,0,0,1-1.38-.23,4.46,4.46,0,0,1-.72-.43v.11L44,209.9l0,.3.56.57.18-.18a3.68,3.68,0,0,0,1.9.39l.38,1.92.51.4-.09-.48.57-.12-.39-1.95a3.34,3.34,0,0,0,2.06-4.11c-.48-2.41-2-2.75-3.46-2.95l-.68-3.46a4,4,0,0,1,2.66.84l.2-1.86a4.47,4.47,0,0,0-3.23-.85l-.29-1.45.47-.11-.56-.36-1,.19.39,1.94A3.37,3.37,0,0,0,42,202.69C42.5,205.09,44.07,205.41,45.5,205.61Zm1.06.17c.75.16,1.34.44,1.51,1.27a1.51,1.51,0,0,1-.9,1.81Zm-.37,3.33Zm-1.71-8.65.61,3.06c-.78-.15-1.39-.45-1.56-1.29A1.47,1.47,0,0,1,44.48,200.46Z"></path></g><path d="M44.61,199,44.22,197l1-.2.38,1.92a4.47,4.47,0,0,1,3.23.85l-.2,1.86a4,4,0,0,0-2.66-.84l.68,3.46c1.43.2,3,.54,3.46,2.95A3.34,3.34,0,0,1,48,211.14l.39,2-1,.2-.38-1.92a4.23,4.23,0,0,1-2.65-.57l.15-1.85a4.13,4.13,0,0,0,2.13.55L46,206c-1.43-.21-3-.53-3.48-2.93A3.35,3.35,0,0,1,44.61,199ZM44,202.62c.17.85.78,1.14,1.56,1.29L45,200.85A1.47,1.47,0,0,0,44,202.62Zm3,3.55.61,3.08a1.51,1.51,0,0,0,.9-1.81C48.4,206.61,47.81,206.33,47.06,206.17Z" style="fill:#BA68C8"></path><path d="M58.44,199.16a7.6,7.6,0,0,1,.7,2.21,22.8,22.8,0,0,1,.46,5.57,22.49,22.49,0,0,1-.91,5.51,7.81,7.81,0,0,1-.86,2.14,45.16,45.16,0,0,0,1.25-7.67A43.14,43.14,0,0,0,58.44,199.16Z" style="fill:#fff"></path><path d="M55.39,193.28c.13-.08.68.59,1.24,1.49s.92,1.7.8,1.78-.68-.6-1.24-1.5S55.27,193.35,55.39,193.28Z" style="fill:#fff"></path><path d="M49.05,205.66c.09-.1.73.44.89,1.41s-.26,1.69-.38,1.62,0-.73-.13-1.53S48.94,205.76,49.05,205.66Z" style="fill:#fff"></path><path d="M36.75,197.22a34.08,34.08,0,0,0-.48,6.06,34.41,34.41,0,0,0,1.11,6,14.46,14.46,0,0,1-.63-12Z" style="fill:#fff"></path><ellipse cx="123.84" cy="182.12" rx="28.04" ry="20.14" transform="translate(-74.59 86.57) rotate(-30.07)" style="fill:#BA68C8"></ellipse><g style="opacity:0.2"><ellipse cx="123.84" cy="182.12" rx="28.04" ry="20.14" transform="translate(-74.59 86.57) rotate(-30.07)"></ellipse></g><ellipse cx="121.41" cy="177.94" rx="28.04" ry="20.14" transform="translate(-72.82 84.79) rotate(-30.07)" style="fill:#BA68C8"></ellipse><g style="opacity:0.1"><path d="M104.27,168.4a7.53,7.53,0,0,1,2.16,3.16A14.92,14.92,0,0,1,104.88,183a28.3,28.3,0,0,1-7.8,8.9c-4-7.14-1.59-16.7,5.4-24.31A6.22,6.22,0,0,1,104.27,168.4Z" style="fill:#fff"></path></g><path d="M128.41,191.06c10.3-6,15.24-16.69,11-23.95s-16-8.33-26.27-2.36-15.24,16.69-11,23.95S118.11,197,128.41,191.06Z" style="fill:#BA68C8"></path><g style="opacity:0.2"><path d="M128.41,191.06c10.3-6,15.24-16.69,11-23.95s-16-8.33-26.27-2.36-15.24,16.69-11,23.95S118.11,197,128.41,191.06Z"></path></g><path d="M129.23,191.44c10.05-5.82,14.9-16.25,10.82-23.28s-15.53-8-25.58-2.21-14.9,16.25-10.82,23.28S119.18,197.26,129.23,191.44Z" style="fill:#BA68C8"></path><g style="opacity:0.2"><path d="M129.28,191.52c10.05-5.82,14.89-16.24,10.82-23.28s-15.53-8-25.58-2.2-14.9,16.24-10.82,23.28S119.22,197.34,129.28,191.52Z" style="fill:#fff"></path></g><path d="M128.13,182c2.44-1.42,3.82-3.88,2.7-6.71l2.67-1.55-.78-1.36-1-.28.36.65-2,1.16a6.94,6.94,0,0,0-4.34-2.91l-2,2.14a6.3,6.3,0,0,1,3.74,2.27l-4.78,2.77c-1.72-1.47-3.72-3-7-1-2.44,1.41-3.85,3.87-2.71,6.67l-2.7,1.56.45.79-.66.39,1,.19,2.66-1.54a5.63,5.63,0,0,0,2.41,1.84l0,.4,1.25.07.33-.35,1.44-1.52.13-.13a7.32,7.32,0,0,1-1.25-.4,6.25,6.25,0,0,1-1.7-1.39v0l4.82-2.79C122.81,182.37,124.81,183.89,128.13,182Zm-12.59.32a2.38,2.38,0,0,1,1.21-2.94c1.15-.66,2.09-.25,3,.48Zm.72,1.4Zm10.85-4c-1.17.67-2.14.26-3.12-.5l4.23-2.45A2.32,2.32,0,0,1,127.11,179.72Z" style="fill:#BA68C8"></path><g style="opacity:0.30000000000000004"><path d="M128.13,182c2.44-1.42,3.82-3.88,2.7-6.71l2.67-1.55-.78-1.36-1-.28.36.65-2,1.16a6.94,6.94,0,0,0-4.34-2.91l-2,2.14a6.3,6.3,0,0,1,3.74,2.27l-4.78,2.77c-1.72-1.47-3.72-3-7-1-2.44,1.41-3.85,3.87-2.71,6.67l-2.7,1.56.45.79-.66.39,1,.19,2.66-1.54a5.63,5.63,0,0,0,2.41,1.84l0,.4,1.25.07.33-.35,1.44-1.52.13-.13a7.32,7.32,0,0,1-1.25-.4,6.25,6.25,0,0,1-1.7-1.39v0l4.82-2.79C122.81,182.37,124.81,183.89,128.13,182Zm-12.59.32a2.38,2.38,0,0,1,1.21-2.94c1.15-.66,2.09-.25,3,.48Zm.72,1.4Zm10.85-4c-1.17.67-2.14.26-3.12-.5l4.23-2.45A2.32,2.32,0,0,1,127.11,179.72Z"></path></g><path d="M127.15,181.78c-3.32,1.93-5.33.4-7-1.07l-4.83,2.8a6.41,6.41,0,0,0,2.85,1.94l-2,2.08A6.56,6.56,0,0,1,112.7,185L110,186.54l-.78-1.36,2.7-1.56c-1.14-2.8.27-5.26,2.71-6.68,3.33-1.92,5.33-.44,7,1l4.79-2.77a6.29,6.29,0,0,0-3.74-2.27l2-2.15a7,7,0,0,1,4.34,2.92l2.65-1.53.79,1.36-2.68,1.55C131,177.91,129.59,180.37,127.15,181.78Zm-11.38-2.61a2.36,2.36,0,0,0-1.21,2.94l4.26-2.47C117.86,178.91,116.92,178.5,115.77,179.17Zm11.47-2.58L123,179c1,.76,1.95,1.17,3.12.49A2.3,2.3,0,0,0,127.24,176.59Z" style="fill:#BA68C8"></path><path d="M115.31,159c0,.08-1.19.7-3.07,1.87A42.6,42.6,0,0,0,99.8,172.69c-1.27,1.82-1.94,3-2,3a3.83,3.83,0,0,1,.39-.89c.28-.56.73-1.34,1.33-2.28a36.28,36.28,0,0,1,5.56-6.72,36.7,36.7,0,0,1,7-5.22,22.52,22.52,0,0,1,2.35-1.21A3.51,3.51,0,0,1,115.31,159Z" style="fill:#fff"></path><path d="M125.4,156.5a9,9,0,0,1-2.94.75,9,9,0,0,1-3,.23,9,9,0,0,1,2.94-.75A9,9,0,0,1,125.4,156.5Z" style="fill:#fff"></path><path d="M117.36,176.77c0,.15-1.1.26-2.22,1s-1.73,1.64-1.86,1.56.31-1.22,1.58-2A2.94,2.94,0,0,1,117.36,176.77Z" style="fill:#fff"></path><path d="M140,182.53a10.1,10.1,0,0,1-1.46,2.43,25.45,25.45,0,0,1-10.66,8.41,9.9,9.9,0,0,1-2.71.85c0-.08,1-.44,2.56-1.19a31.15,31.15,0,0,0,5.73-3.55,31.56,31.56,0,0,0,4.79-4.74C139.35,183.39,139.94,182.48,140,182.53Z" style="fill:#fff"></path><ellipse cx="169.15" cy="434.16" rx="22" ry="15.81" transform="translate(-194.79 143.2) rotate(-30.07)" style="fill:#BA68C8"></ellipse><g style="opacity:0.2"><ellipse cx="169.15" cy="434.16" rx="22" ry="15.81" transform="translate(-194.79 143.2) rotate(-30.07)"></ellipse></g><ellipse cx="167.25" cy="430.88" rx="22" ry="15.81" transform="translate(-193.4 141.81) rotate(-30.07)" style="fill:#BA68C8"></ellipse><g style="opacity:0.1"><path d="M153.79,423.39a5.92,5.92,0,0,1,1.7,2.49,11.67,11.67,0,0,1-1.22,8.95,22.12,22.12,0,0,1-6.12,7c-3.17-5.61-1.25-13.11,4.24-19.08A5.12,5.12,0,0,1,153.79,423.39Z" style="fill:#fff"></path></g><path d="M172.74,441.17c8.08-4.68,11.95-13.09,8.65-18.79s-12.53-6.53-20.61-1.85-12,13.09-8.66,18.8S164.65,445.85,172.74,441.17Z" style="fill:#BA68C8"></path><g style="opacity:0.2"><path d="M172.74,441.17c8.08-4.68,11.95-13.09,8.65-18.79s-12.53-6.53-20.61-1.85-12,13.09-8.66,18.8S164.65,445.85,172.74,441.17Z"></path></g><path d="M173.38,441.47c7.89-4.57,11.69-12.75,8.49-18.27s-12.18-6.29-20.07-1.73-11.69,12.75-8.49,18.27S165.49,446,173.38,441.47Z" style="fill:#BA68C8"></path><g style="opacity:0.2"><path d="M173.42,441.53c7.88-4.56,11.68-12.74,8.49-18.26s-12.19-6.3-20.07-1.73-11.69,12.74-8.5,18.27S165.53,446.1,173.42,441.53Z" style="fill:#fff"></path></g><path d="M172.52,434c1.91-1.11,3-3,2.11-5.26l2.1-1.22-.62-1.07-.79-.22.28.52-1.57.91a5.4,5.4,0,0,0-3.41-2.29l-1.55,1.68a4.9,4.9,0,0,1,2.93,1.78L168.25,431c-1.34-1.15-2.92-2.31-5.52-.8-1.92,1.11-3,3-2.14,5.24l-2.12,1.22.36.62-.52.3.78.15,2.09-1.2a4.41,4.41,0,0,0,1.89,1.44v.31l1,.06.26-.27,1.12-1.2.1-.1a5.32,5.32,0,0,1-1-.31,4.62,4.62,0,0,1-1.34-1.1h0L167,433.2C168.34,434.35,169.91,435.55,172.52,434Zm-9.88.25a1.85,1.85,0,0,1,1-2.3,2,2,0,0,1,2.39.37Zm.56,1.1Zm8.52-3.12a2,2,0,0,1-2.46-.39l3.33-1.92A1.82,1.82,0,0,1,171.72,432.27Z" style="fill:#BA68C8"></path><g style="opacity:0.30000000000000004"><path d="M172.52,434c1.91-1.11,3-3,2.11-5.26l2.1-1.22-.62-1.07-.79-.22.28.52-1.57.91a5.4,5.4,0,0,0-3.41-2.29l-1.55,1.68a4.9,4.9,0,0,1,2.93,1.78L168.25,431c-1.34-1.15-2.92-2.31-5.52-.8-1.92,1.11-3,3-2.14,5.24l-2.12,1.22.36.62-.52.3.78.15,2.09-1.2a4.41,4.41,0,0,0,1.89,1.44v.31l1,.06.26-.27,1.12-1.2.1-.1a5.32,5.32,0,0,1-1-.31,4.62,4.62,0,0,1-1.34-1.1h0L167,433.2C168.34,434.35,169.91,435.55,172.52,434Zm-9.88.25a1.85,1.85,0,0,1,1-2.3,2,2,0,0,1,2.39.37Zm.56,1.1Zm8.52-3.12a2,2,0,0,1-2.46-.39l3.33-1.92A1.82,1.82,0,0,1,171.72,432.27Z"></path></g><path d="M171.75,433.89c-2.61,1.51-4.18.32-5.53-.83l-3.79,2.19a5.06,5.06,0,0,0,2.24,1.52l-1.59,1.63a5.13,5.13,0,0,1-2.67-2l-2.09,1.21-.61-1.07,2.12-1.23c-.9-2.19.21-4.13,2.13-5.23,2.6-1.51,4.18-.35,5.52.8l3.75-2.17A4.86,4.86,0,0,0,168.3,427l1.55-1.69a5.47,5.47,0,0,1,3.41,2.29l2.08-1.2.62,1.07-2.1,1.21C174.75,430.85,173.66,432.79,171.75,433.89Zm-8.93-2.05a1.85,1.85,0,0,0-.95,2.31l3.34-1.94A2,2,0,0,0,162.82,431.84Zm9-2-3.33,1.92a2,2,0,0,0,2.46.39A1.82,1.82,0,0,0,171.82,429.82Z" style="fill:#BA68C8"></path><path d="M162.46,416c0,.08-.93.57-2.39,1.5a34,34,0,0,0-9.75,9.27,27.24,27.24,0,0,1-1.62,2.31,10.69,10.69,0,0,1,1.31-2.51,28.73,28.73,0,0,1,4.37-5.3,28.08,28.08,0,0,1,5.5-4.08A10.76,10.76,0,0,1,162.46,416Z" style="fill:#fff"></path><path d="M170.37,414.06a5.79,5.79,0,0,1-2.29.64,5.62,5.62,0,0,1-2.38.12,5.6,5.6,0,0,1,2.29-.64A5.43,5.43,0,0,1,170.37,414.06Z" style="fill:#fff"></path><path d="M164.07,430c0,.15-.86.26-1.72.81S161,432,160.86,432s.2-1,1.22-1.62S164.09,429.82,164.07,430Z" style="fill:#fff"></path><path d="M181.84,434.48a7,7,0,0,1-1.12,1.93,19.51,19.51,0,0,1-8.38,6.61,6.57,6.57,0,0,1-2.14.63,34.91,34.91,0,0,0,6.47-3.76A36.66,36.66,0,0,0,181.84,434.48Z" style="fill:#fff"></path><ellipse cx="239.6" cy="66.75" rx="17.96" ry="12.9" transform="translate(-1.2 129.05) rotate(-30.07)" style="fill:#BA68C8"></ellipse><g style="opacity:0.2"><ellipse cx="239.6" cy="66.75" rx="17.96" ry="12.9" transform="translate(-1.2 129.05) rotate(-30.07)"></ellipse></g><path d="M244.51,75.24c8.59-5,12.65-14,9.08-20.16s-13.42-7.14-22-2.17-12.65,14-9.08,20.16S235.93,80.21,244.51,75.24Z" style="fill:#BA68C8"></path><g style="opacity:0.1"><path d="M227.07,58a4.91,4.91,0,0,1,1.39,2,9.59,9.59,0,0,1-1,7.31,18.13,18.13,0,0,1-5,5.69c-2.59-4.57-1-10.69,3.46-15.57A4.57,4.57,0,0,1,227.07,58Z" style="fill:#fff"></path></g><path d="M242.53,72.48c6.6-3.82,9.76-10.69,7.06-15.34s-10.22-5.33-16.82-1.51S223,66.31,225.71,71,235.93,76.3,242.53,72.48Z" style="fill:#BA68C8"></path><g style="opacity:0.2"><path d="M242.53,72.48c6.6-3.82,9.76-10.69,7.06-15.34s-10.22-5.33-16.82-1.51S223,66.31,225.71,71,235.93,76.3,242.53,72.48Z"></path></g><path d="M243.05,72.72c6.44-3.73,9.54-10.4,6.93-14.91S240,52.67,233.6,56.4s-9.54,10.4-6.93,14.91S236.62,76.44,243.05,72.72Z" style="fill:#BA68C8"></path><g style="opacity:0.2"><path d="M243.08,72.77c6.44-3.73,9.54-10.4,6.93-14.91s-9.94-5.14-16.38-1.41-9.54,10.4-6.93,14.91S236.65,76.5,243.08,72.77Z" style="fill:#fff"></path></g><path d="M242.35,66.65a3.37,3.37,0,0,0,1.73-4.29l1.71-1-.5-.87-.65-.18.23.42-1.28.75a4.46,4.46,0,0,0-2.78-1.87L239.54,61a4,4,0,0,1,2.39,1.45l-3.06,1.78c-1.1-.94-2.38-1.89-4.51-.66-1.56.91-2.47,2.48-1.74,4.28l-1.73,1,.29.5-.42.25.64.12,1.7-1a3.73,3.73,0,0,0,1.54,1.18v.25l.8,0,.21-.23.92-1,.08-.09a4.25,4.25,0,0,1-.79-.25,3.92,3.92,0,0,1-1.09-.89h0L237.84,66C238.94,66.91,240.22,67.88,242.35,66.65Zm-8.06.21a1.51,1.51,0,0,1,.77-1.88,1.61,1.61,0,0,1,2,.3Zm.46.9Zm6.95-2.55a1.65,1.65,0,0,1-2-.32l2.71-1.57A1.48,1.48,0,0,1,241.7,65.21Z" style="fill:#BA68C8"></path><g style="opacity:0.30000000000000004"><path d="M242.35,66.65a3.37,3.37,0,0,0,1.73-4.29l1.71-1-.5-.87-.65-.18.23.42-1.28.75a4.46,4.46,0,0,0-2.78-1.87L239.54,61a4,4,0,0,1,2.39,1.45l-3.06,1.78c-1.1-.94-2.38-1.89-4.51-.66-1.56.91-2.47,2.48-1.74,4.28l-1.73,1,.29.5-.42.25.64.12,1.7-1a3.73,3.73,0,0,0,1.54,1.18v.25l.8,0,.21-.23.92-1,.08-.09a4.25,4.25,0,0,1-.79-.25,3.92,3.92,0,0,1-1.09-.89h0L237.84,66C238.94,66.91,240.22,67.88,242.35,66.65Zm-8.06.21a1.51,1.51,0,0,1,.77-1.88,1.61,1.61,0,0,1,2,.3Zm.46.9Zm6.95-2.55a1.65,1.65,0,0,1-2-.32l2.71-1.57A1.48,1.48,0,0,1,241.7,65.21Z"></path></g><path d="M241.72,66.53c-2.13,1.24-3.41.26-4.51-.68l-3.09,1.79a4.06,4.06,0,0,0,1.82,1.24l-1.29,1.34a4.28,4.28,0,0,1-2.19-1.62l-1.7,1-.5-.87,1.73-1a3.35,3.35,0,0,1,1.74-4.27c2.13-1.24,3.41-.29,4.51.65l3.06-1.77a4,4,0,0,0-2.39-1.46l1.27-1.37A4.46,4.46,0,0,1,243,61.36l1.7-1,.5.88-1.71,1A3.37,3.37,0,0,1,241.72,66.53Zm-7.29-1.67a1.51,1.51,0,0,0-.77,1.88l2.73-1.58A1.64,1.64,0,0,0,234.43,64.86Zm7.35-1.65-2.71,1.57a1.64,1.64,0,0,0,2,.31A1.47,1.47,0,0,0,241.78,63.21Z" style="fill:#BA68C8"></path><path d="M234.14,51.94a44.22,44.22,0,0,0-6.27,4.65,44.69,44.69,0,0,0-5,6A7.7,7.7,0,0,1,224,60.54,22.64,22.64,0,0,1,232,52.88,7.36,7.36,0,0,1,234.14,51.94Z" style="fill:#fff"></path><path d="M240.6,50.34c0,.15-.81.4-1.87.57s-1.92.2-1.94.06.81-.4,1.86-.57S240.58,50.2,240.6,50.34Z" style="fill:#fff"></path><path d="M235.46,63.32c0,.15-.69.27-1.38.71s-1.11,1-1.24.92.13-.85,1-1.37S235.47,63.18,235.46,63.32Z" style="fill:#fff"></path><path d="M250,67A12.23,12.23,0,0,1,246,71.8a12.17,12.17,0,0,1-5.57,2.7,34.39,34.39,0,0,0,5.25-3.11A34.91,34.91,0,0,0,250,67Z" style="fill:#fff"></path><ellipse cx="284.84" cy="459.17" rx="17.96" ry="12.9" transform="translate(-191.75 204.54) rotate(-30.07)" style="fill:#BA68C8"></ellipse><g style="opacity:0.2"><ellipse cx="284.84" cy="459.17" rx="17.96" ry="12.9" transform="translate(-191.75 204.54) rotate(-30.07)"></ellipse></g><path d="M289.76,467.66c8.58-5,12.64-14,9.07-20.16s-13.42-7.14-22-2.17-12.65,14-9.08,20.16S281.17,472.63,289.76,467.66Z" style="fill:#BA68C8"></path><g style="opacity:0.1"><path d="M272.31,450.38a4.91,4.91,0,0,1,1.39,2,9.63,9.63,0,0,1-1,7.31,18.29,18.29,0,0,1-5,5.69c-2.59-4.57-1-10.69,3.46-15.57A4.57,4.57,0,0,1,272.31,450.38Z" style="fill:#fff"></path></g><path d="M287.77,464.9c6.6-3.82,9.76-10.69,7.07-15.35s-10.23-5.32-16.82-1.5-9.76,10.68-7.07,15.34S281.18,468.71,287.77,464.9Z" style="fill:#BA68C8"></path><g style="opacity:0.2"><path d="M287.77,464.9c6.6-3.82,9.76-10.69,7.07-15.35s-10.23-5.32-16.82-1.5-9.76,10.68-7.07,15.34S281.18,468.71,287.77,464.9Z"></path></g><path d="M288.3,465.14c6.43-3.73,9.54-10.41,6.93-14.91s-10-5.14-16.38-1.41-9.54,10.4-6.93,14.9S281.86,468.86,288.3,465.14Z" style="fill:#BA68C8"></path><g style="opacity:0.2"><path d="M288.33,465.19c6.43-3.73,9.54-10.4,6.93-14.91s-9.95-5.14-16.38-1.41-9.54,10.4-6.93,14.91S281.89,468.92,288.33,465.19Z" style="fill:#fff"></path></g><path d="M287.59,459.07a3.37,3.37,0,0,0,1.73-4.29l1.71-1-.5-.87-.65-.18.23.42-1.28.75a4.46,4.46,0,0,0-2.78-1.87l-1.27,1.37a4.1,4.1,0,0,1,2.4,1.45l-3.07,1.78c-1.09-.94-2.38-1.89-4.51-.66-1.56.91-2.47,2.48-1.74,4.27l-1.73,1,.3.5L276,462l.64.12,1.7-1a3.73,3.73,0,0,0,1.54,1.19v.25l.8.05.21-.23.93-1,.07-.09a4.25,4.25,0,0,1-.79-.25,4.07,4.07,0,0,1-1.09-.89h0l3.1-1.79C284.18,459.33,285.46,460.3,287.59,459.07Zm-8.06.21a1.51,1.51,0,0,1,.77-1.88,1.61,1.61,0,0,1,2,.3Zm.46.9Zm6.95-2.55a1.65,1.65,0,0,1-2-.32l2.71-1.57A1.48,1.48,0,0,1,286.94,457.63Z" style="fill:#BA68C8"></path><g style="opacity:0.30000000000000004"><path d="M287.59,459.07a3.37,3.37,0,0,0,1.73-4.29l1.71-1-.5-.87-.65-.18.23.42-1.28.75a4.46,4.46,0,0,0-2.78-1.87l-1.27,1.37a4.1,4.1,0,0,1,2.4,1.45l-3.07,1.78c-1.09-.94-2.38-1.89-4.51-.66-1.56.91-2.47,2.48-1.74,4.27l-1.73,1,.3.5L276,462l.64.12,1.7-1a3.73,3.73,0,0,0,1.54,1.19v.25l.8.05.21-.23.93-1,.07-.09a4.25,4.25,0,0,1-.79-.25,4.07,4.07,0,0,1-1.09-.89h0l3.1-1.79C284.18,459.33,285.46,460.3,287.59,459.07Zm-8.06.21a1.51,1.51,0,0,1,.77-1.88,1.61,1.61,0,0,1,2,.3Zm.46.9Zm6.95-2.55a1.65,1.65,0,0,1-2-.32l2.71-1.57A1.48,1.48,0,0,1,286.94,457.63Z"></path></g><path d="M287,459c-2.13,1.23-3.41.26-4.51-.68l-3.09,1.79a4.14,4.14,0,0,0,1.82,1.24l-1.29,1.34a4.21,4.21,0,0,1-2.18-1.62l-1.7,1-.51-.87,1.73-1a3.35,3.35,0,0,1,1.74-4.27c2.13-1.24,3.41-.29,4.51.65l3.06-1.77a4,4,0,0,0-2.39-1.46l1.27-1.37a4.46,4.46,0,0,1,2.78,1.87l1.7-1,.5.87-1.71,1A3.37,3.37,0,0,1,287,459Zm-7.29-1.67a1.51,1.51,0,0,0-.77,1.88l2.73-1.58A1.63,1.63,0,0,0,279.67,457.28Zm7.35-1.65-2.71,1.56a1.63,1.63,0,0,0,2,.32A1.47,1.47,0,0,0,287,455.63Z" style="fill:#BA68C8"></path><path d="M279.38,444.36a44.88,44.88,0,0,0-6.27,4.65,44.19,44.19,0,0,0-4.95,6,7.27,7.27,0,0,1,1-2.07,22.87,22.87,0,0,1,8.06-7.66A7.36,7.36,0,0,1,279.38,444.36Z" style="fill:#fff"></path><path d="M285.84,442.76c0,.15-.81.4-1.86.57s-1.93.2-2,.06.81-.4,1.86-.57S285.82,442.62,285.84,442.76Z" style="fill:#fff"></path><path d="M280.7,455.74c0,.15-.69.26-1.38.7s-1.11,1-1.24.92.13-.84,1-1.36S280.72,455.6,280.7,455.74Z" style="fill:#fff"></path><path d="M295.2,459.43a14.45,14.45,0,0,1-9.49,7.49,35.15,35.15,0,0,0,5.24-3.11A34.06,34.06,0,0,0,295.2,459.43Z" style="fill:#fff"></path><ellipse cx="377.62" cy="109.66" rx="19.25" ry="13.83" transform="translate(258.05 484.26) rotate(-88.49)" style="fill:#BA68C8"></ellipse><g style="opacity:0.2"><ellipse cx="377.62" cy="109.66" rx="19.25" ry="13.83" transform="translate(258.05 484.26) rotate(-88.49)"></ellipse></g><ellipse cx="374.31" cy="109.57" rx="19.25" ry="13.83" transform="translate(254.91 480.86) rotate(-88.49)" style="fill:#BA68C8"></ellipse><g style="opacity:0.1"><path d="M362.56,116.17a5.17,5.17,0,0,1,2.63-.13,10.29,10.29,0,0,1,6.12,5,19.47,19.47,0,0,1,2.39,7.76c-5.63-.2-10.33-5.08-12.27-11.9A4.5,4.5,0,0,1,362.56,116.17Z" style="fill:#fff"></path></g><path d="M384.49,110.2c.22-8.17-4.28-14.91-10-15.06s-10.6,6.34-10.82,14.51,4.28,14.91,10,15.06S384.28,118.37,384.49,110.2Z" style="fill:#BA68C8"></path><g style="opacity:0.2"><path d="M384.49,110.2c.22-8.17-4.28-14.91-10-15.06s-10.6,6.34-10.82,14.51,4.28,14.91,10,15.06S384.28,118.37,384.49,110.2Z"></path></g><path d="M385,109.85c.21-8-4.14-14.55-9.73-14.69S365,101.35,364.8,109.32s4.14,14.55,9.72,14.7S384.8,117.82,385,109.85Z" style="fill:#BA68C8"></path><g style="opacity:0.2"><path d="M385.07,109.86c.21-8-4.14-14.55-9.72-14.7s-10.27,6.19-10.48,14.16,4.14,14.55,9.72,14.7S384.86,117.83,385.07,109.86Z" style="fill:#fff"></path></g><path d="M379.07,107.09a3.59,3.59,0,0,0-2.95-4l.06-2.13-1.08,0-.53.49.52,0,0,1.59a4.74,4.74,0,0,0-3.26,1.49l.54,1.93a4.28,4.28,0,0,1,2.67-1.37l-.1,3.79c-1.48.47-3.06,1.11-3.13,3.75-.05,1.93.88,3.65,2.93,4l-.06,2.14h.62v.53l.47-.51.05-2.11a3.8,3.8,0,0,0,1.95-.75l.22.16.5-.71-.09-.32-.37-1.39,0-.12a5.23,5.23,0,0,1-.68.59,4.2,4.2,0,0,1-1.43.49h0l.1-3.83C377.39,110.35,379,109.73,379.07,107.09Zm-4.33,7.48a1.61,1.61,0,0,1-1.28-1.76c0-.91.6-1.31,1.37-1.62Zm1.08.08Zm1.57-7.77c0,.93-.61,1.35-1.41,1.65l.09-3.36A1.59,1.59,0,0,1,377.39,106.88Z" style="fill:#BA68C8"></path><g style="opacity:0.30000000000000004"><path d="M379.07,107.09a3.59,3.59,0,0,0-2.95-4l.06-2.13-1.08,0-.53.49.52,0,0,1.59a4.74,4.74,0,0,0-3.26,1.49l.54,1.93a4.28,4.28,0,0,1,2.67-1.37l-.1,3.79c-1.48.47-3.06,1.11-3.13,3.75-.05,1.93.88,3.65,2.93,4l-.06,2.14h.62v.53l.47-.51.05-2.11a3.8,3.8,0,0,0,1.95-.75l.22.16.5-.71-.09-.32-.37-1.39,0-.12a5.23,5.23,0,0,1-.68.59,4.2,4.2,0,0,1-1.43.49h0l.1-3.83C377.39,110.35,379,109.73,379.07,107.09Zm-4.33,7.48a1.61,1.61,0,0,1-1.28-1.76c0-.91.6-1.31,1.37-1.62Zm1.08.08Zm1.57-7.77c0,.93-.61,1.35-1.41,1.65l.09-3.36A1.59,1.59,0,0,1,377.39,106.88Z"></path></g><path d="M378.61,107.6c-.07,2.64-1.68,3.26-3.15,3.73l-.11,3.83a4.49,4.49,0,0,0,2.17-1l.48,1.93a4.45,4.45,0,0,1-2.7,1.09l-.06,2.1-1.07,0,.05-2.14c-2-.34-3-2-2.92-4,.07-2.64,1.65-3.28,3.13-3.75l.1-3.8a4.27,4.27,0,0,0-2.67,1.38l-.55-1.94a4.82,4.82,0,0,1,3.27-1.48l.06-2.11,1.07,0,0,2.12A3.61,3.61,0,0,1,378.61,107.6ZM373,113.31a1.64,1.64,0,0,0,1.29,1.77l.09-3.38C373.59,112,373,112.4,373,113.31Zm2.61-7.63-.08,3.36c.79-.31,1.39-.73,1.41-1.66A1.58,1.58,0,0,0,375.6,105.68Z" style="fill:#BA68C8"></path><path d="M361,106.33a45,45,0,0,0,.71,8.34,44.65,44.65,0,0,0,2.74,7.9,8.26,8.26,0,0,1-1.3-2.12,24.62,24.62,0,0,1-1.95-5.68,24.26,24.26,0,0,1-.52-6A8.6,8.6,0,0,1,361,106.33Z" style="fill:#fff"></path><path d="M363.2,99.54a4.41,4.41,0,0,1-.54,2c-.44,1.06-.89,1.87-1,1.82a4.35,4.35,0,0,1,.55-2C362.61,100.3,363.07,99.48,363.2,99.54Z" style="fill:#fff"></path><path d="M372.16,111.52c.13.07-.16.77-.14,1.65s.29,1.57.16,1.65-.69-.6-.69-1.65S372.06,111.43,372.16,111.52Z" style="fill:#fff"></path><path d="M383.67,100.35a5.18,5.18,0,0,1,1,1.71,17.16,17.16,0,0,1,1.19,4.56,16.61,16.61,0,0,1-.11,4.72,5.49,5.49,0,0,1-.53,1.88,33.52,33.52,0,0,0,.12-6.54A34,34,0,0,0,383.67,100.35Z" style="fill:#fff"></path><ellipse cx="410.2" cy="315.92" rx="27.86" ry="20.01" transform="translate(-100.53 400.93) rotate(-47.05)" style="fill:#BA68C8"></ellipse><g style="opacity:0.2"><ellipse cx="410.2" cy="315.92" rx="27.86" ry="20.01" transform="translate(-100.53 400.93) rotate(-47.05)"></ellipse></g><ellipse cx="406.68" cy="312.66" rx="27.86" ry="20.01" transform="translate(-99.26 397.32) rotate(-47.05)" style="fill:#BA68C8"></ellipse><g style="opacity:0.1"><path d="M387.62,308.56a7.53,7.53,0,0,1,3,2.38,14.88,14.88,0,0,1,1.84,11.29A28.21,28.21,0,0,1,387.6,333c-5.91-5.61-6.35-15.41-1.92-24.67A6.46,6.46,0,0,1,387.62,308.56Z" style="fill:#fff"></path></g><path d="M417.14,323.09c8.05-8.65,9.64-20.28,3.53-26s-17.59-3.28-25.64,5.38-9.64,20.28-3.54,26S409.08,331.75,417.14,323.09Z" style="fill:#BA68C8"></path><g style="opacity:0.2"><path d="M417.14,323.09c8.05-8.65,9.64-20.28,3.53-26s-17.59-3.28-25.64,5.38-9.64,20.28-3.54,26S409.08,331.75,417.14,323.09Z"></path></g><path d="M418,323.21c7.87-8.45,9.45-19.76,3.53-25.26s-17.08-3.12-24.94,5.33-9.44,19.75-3.53,25.26S410.16,331.66,418,323.21Z" style="fill:#BA68C8"></path><g style="opacity:0.2"><path d="M418.09,323.28c7.87-8.45,9.45-19.76,3.53-25.27s-17.08-3.12-24.94,5.33-9.44,19.76-3.53,25.26S410.23,331.72,418.09,323.28Z" style="fill:#fff"></path></g><path d="M414.23,314.53c1.91-2,2.51-4.79.62-7.15l2.09-2.25-1.14-1.07-1,0,.53.52-1.57,1.68a6.92,6.92,0,0,0-5-1.51l-1.26,2.61a6.2,6.2,0,0,1,4.21,1.07l-3.74,4c-2-.9-4.39-1.72-7,1.07-1.91,2.05-2.54,4.8-.64,7.13L398.21,323l.67.62-.52.56,1-.11,2.08-2.23a5.72,5.72,0,0,0,2.83,1l.09.38,1.21-.29.21-.43.93-1.87.08-.16a7.28,7.28,0,0,1-1.3,0,6.14,6.14,0,0,1-2-.84h0l3.77-4.05C409.29,316.45,411.63,317.32,414.23,314.53Zm-11.86,4a2.34,2.34,0,0,1,.29-3.14c.9-1,1.91-.85,3-.44Zm1.09,1.13Zm9.15-6.93c-.91,1-2,.87-3.11.43l3.31-3.55A2.3,2.3,0,0,1,412.61,312.69Z" style="fill:#BA68C8"></path><g style="opacity:0.30000000000000004"><path d="M414.23,314.53c1.91-2,2.51-4.79.62-7.15l2.09-2.25-1.14-1.07-1,0,.53.52-1.57,1.68a6.92,6.92,0,0,0-5-1.51l-1.26,2.61a6.2,6.2,0,0,1,4.21,1.07l-3.74,4c-2-.9-4.39-1.72-7,1.07-1.91,2.05-2.54,4.8-.64,7.13L398.21,323l.67.62-.52.56,1-.11,2.08-2.23a5.72,5.72,0,0,0,2.83,1l.09.38,1.21-.29.21-.43.93-1.87.08-.16a7.28,7.28,0,0,1-1.3,0,6.14,6.14,0,0,1-2-.84h0l3.77-4.05C409.29,316.45,411.63,317.32,414.23,314.53Zm-11.86,4a2.34,2.34,0,0,1,.29-3.14c.9-1,1.91-.85,3-.44Zm1.09,1.13Zm9.15-6.93c-.91,1-2,.87-3.11.43l3.31-3.55A2.3,2.3,0,0,1,412.61,312.69Z"></path></g><path d="M413.25,314.64c-2.6,2.8-4.95,1.93-7,1l-3.78,4.06a6.33,6.33,0,0,0,3.27,1l-1.32,2.56a6.45,6.45,0,0,1-4-1.41l-2.08,2.24-1.15-1.07,2.12-2.27c-1.9-2.33-1.27-5.08.64-7.13,2.6-2.8,4.94-2,7-1.07l3.75-4a6.35,6.35,0,0,0-4.22-1.07l1.26-2.61a6.94,6.94,0,0,1,5,1.51l2.07-2.23,1.15,1.07-2.1,2.25C415.76,309.85,415.16,312.59,413.25,314.64Zm-11.58.82a2.35,2.35,0,0,0-.29,3.15l3.33-3.58C403.58,314.62,402.57,314.5,401.67,315.46Zm10.15-5.78-3.31,3.56c1.16.44,2.2.55,3.12-.44A2.29,2.29,0,0,0,411.82,309.68Z" style="fill:#BA68C8"></path><path d="M395.38,296.42c.06.06-.93,1-2.37,2.67a42.4,42.4,0,0,0-8.39,14.85c-.67,2.09-1,3.43-1.06,3.41a3.77,3.77,0,0,1,.12-1c.1-.61.3-1.49.59-2.56a36.57,36.57,0,0,1,8.47-15,24.59,24.59,0,0,1,1.88-1.83A3.31,3.31,0,0,1,395.38,296.42Z" style="fill:#fff"></path><path d="M404.24,291.13a17.26,17.26,0,0,1-5.37,2.65,17.26,17.26,0,0,1,5.37-2.65Z" style="fill:#fff"></path><path d="M402.49,312.71c.06.15-1,.58-1.83,1.58a23,23,0,0,0-1.31,2,2.92,2.92,0,0,1,.92-2.37A3,3,0,0,1,402.49,312.71Z" style="fill:#fff"></path><path d="M425.68,311.62a9.69,9.69,0,0,1-.68,2.73,25.37,25.37,0,0,1-3.09,6.07,25.74,25.74,0,0,1-4.6,5A10.29,10.29,0,0,1,415,327c-.05-.07.81-.71,2.08-1.87a29.91,29.91,0,0,0,7.59-10.94C425.3,312.63,425.6,311.6,425.68,311.62Z" style="fill:#fff"></path><path d="M270.7,376.35c-.57-10-6.75-23.8-16.82-37.29s-21.57-23.33-31-26.72l-4.3-5.77-8.68,6.48c-9.39,7-4.39,29.62,11.19,50.48s35.82,32.08,45.22,25.06l8.67-6.47Z" style="fill:#BA68C8"></path><g style="opacity:0.30000000000000004"><path d="M270.7,376.35c-.57-10-6.75-23.8-16.82-37.29s-21.57-23.33-31-26.72l-4.3-5.77-8.68,6.48c-9.39,7-4.39,29.62,11.19,50.48s35.82,32.08,45.22,25.06l8.67-6.47Z"></path></g><path d="M229.17,357.51C213.6,336.65,208.58,314.05,218,307s29.62,4.22,45.2,25.08,20.59,43.46,11.21,50.47S244.75,378.37,229.17,357.51Z" style="fill:#BA68C8"></path><g style="opacity:0.1"><path d="M237.19,323.4a104.23,104.23,0,0,0,4.26,14c6.76,15.89,20.94,28.39,37.62,32-.44-10.2-6.06-24.07-15.9-37.26-9.43-12.62-20.56-21.71-30-25.37C234.37,312.34,235.72,317.89,237.19,323.4Z" style="fill:#fff"></path></g><path d="M236.58,353.07c-12-16-18.55-31.31-12.24-36,6.69-5,23.1,2.93,35.07,19s16.57,32.84,10.26,37.55c-1.54,1.16-3.23,2.41-7.94,1.81C254.29,374.42,245.61,365.17,236.58,353.07Z" style="fill:#BA68C8"></path><g style="opacity:0.30000000000000004"><path d="M236.58,353.07c-12-16-18.55-31.31-12.24-36,6.69-5,23.1,2.93,35.07,19s16.57,32.84,10.26,37.55c-1.54,1.16-3.23,2.41-7.94,1.81C254.29,374.42,245.61,365.17,236.58,353.07Z"></path></g><path d="M233.45,354.31c-11.68-15.64-16-32.14-9.74-36.85s20.89,4.16,32.58,19.8,16,32.15,9.73,36.86S245.13,370,233.45,354.31Z" style="fill:#BA68C8"></path><g style="opacity:0.2"><path d="M233.45,354.31c-11.68-15.64-16-32.14-9.74-36.85s20.89,4.16,32.58,19.8,16,32.15,9.73,36.86S245.13,370,233.45,354.31Z" style="fill:#fff"></path></g><path d="M246.08,349.33l5.3,6.9h0a7.58,7.58,0,0,1-3,.75,9.87,9.87,0,0,1-1.88-.28l.11.25,1.26,3,.29.69,1.74.72.16-.54a7.28,7.28,0,0,0,4.13-.88l2.92,3.79,1.44.41-.73-1,1-.75-3-3.86c2.83-3,2-7.22-.65-10.7-3.65-4.76-7.06-4.1-10.06-3.26l-5.25-6.84a8.38,8.38,0,0,1,6.13-.58L244.32,333a9.07,9.07,0,0,0-7.25,1.05l-2.2-2.86.79-.65-1.5-.28-1.7,1.3,2.94,3.83c-2.83,3-2.07,7.24.6,10.73C239.65,350.89,243.08,350.17,246.08,349.33Zm2.25-.59c1.65-.34,3.12-.27,4.38,1.37s1.48,3.21.3,4.72Zm3.06,7.49Zm-13.13-17.09,4.65,6.05c-1.69.37-3.21.28-4.49-1.39A3.52,3.52,0,0,1,238.26,339.14Z" style="fill:#BA68C8"></path><g style="opacity:0.30000000000000004"><path d="M246.08,349.33l5.3,6.9h0a7.58,7.58,0,0,1-3,.75,9.87,9.87,0,0,1-1.88-.28l.11.25,1.26,3,.29.69,1.74.72.16-.54a7.28,7.28,0,0,0,4.13-.88l2.92,3.79,1.44.41-.73-1,1-.75-3-3.86c2.83-3,2-7.22-.65-10.7-3.65-4.76-7.06-4.1-10.06-3.26l-5.25-6.84a8.38,8.38,0,0,1,6.13-.58L244.32,333a9.07,9.07,0,0,0-7.25,1.05l-2.2-2.86.79-.65-1.5-.28-1.7,1.3,2.94,3.83c-2.83,3-2.07,7.24.6,10.73C239.65,350.89,243.08,350.17,246.08,349.33Zm2.25-.59c1.65-.34,3.12-.27,4.38,1.37s1.48,3.21.3,4.72Zm3.06,7.49Zm-13.13-17.09,4.65,6.05c-1.69.37-3.21.28-4.49-1.39A3.52,3.52,0,0,1,238.26,339.14Z"></path></g><path d="M237.43,335.28l-2.7-4,1.78-1.2,2.67,4a9.11,9.11,0,0,1,7.3-.6l1.46,4.27a8.28,8.28,0,0,0-6.16.2l4.82,7.15c3.05-.65,6.5-1.1,9.84,3.87,2.46,3.65,3,7.91,0,10.72l2.73,4.05-1.78,1.19-2.67-4a8.45,8.45,0,0,1-5.87.78l-1.54-4.21a8.32,8.32,0,0,0,4.81-.43l-4.87-7.23c-3,.66-6.52,1.17-9.86-3.8C234.91,342.38,234.41,338.14,237.43,335.28Zm2.49,8.56c1.18,1.75,2.69,1.93,4.4,1.67l-4.27-6.33A3.52,3.52,0,0,0,239.92,343.84Zm9.59,5.55,4.29,6.37c1.27-1.43,1-3.16,0-4.73S251.18,349.15,249.51,349.39Z" style="fill:#BA68C8"></path><path d="M257.77,375.08a2,2,0,0,1-.53-.23l-1.45-.76c-.63-.33-1.4-.75-2.26-1.28s-1.87-1.1-2.92-1.81a63,63,0,0,1-14.76-13.3,85.24,85.24,0,0,1-10.42-16.94c-1.07-2.32-1.91-4.2-2.42-5.53l-.6-1.52a1.86,1.86,0,0,1-.18-.55,3.22,3.22,0,0,1,.27.51c.18.39.41.88.7,1.48.57,1.3,1.46,3.16,2.56,5.45a91.15,91.15,0,0,0,10.5,16.77,66.2,66.2,0,0,0,14.55,13.32c1,.73,2,1.34,2.87,1.87s1.59,1,2.21,1.35l1.4.85A2.55,2.55,0,0,1,257.77,375.08Z" style="fill:#263238"></path><path d="M223,348.28a1.93,1.93,0,0,1-.26-.37c-.15-.26-.38-.64-.65-1.13-.56-1-1.33-2.44-2.22-4.26a78.65,78.65,0,0,1-5.61-14.83A37.1,37.1,0,0,1,213,319a17.87,17.87,0,0,1,1.17-7,11.27,11.27,0,0,1,2.66-4,7,7,0,0,1,1-.84c.24-.18.37-.27.38-.25s-.48.41-1.24,1.23a12,12,0,0,0-2.46,4,18.28,18.28,0,0,0-1,6.92,38.62,38.62,0,0,0,1.26,8.54,87.2,87.2,0,0,0,5.43,14.8c.85,1.84,1.57,3.31,2.07,4.32A10.39,10.39,0,0,1,223,348.28Z" style="fill:#263238"></path><path d="M242.29,313.45a36.78,36.78,0,0,1-3.39-1.82,43.71,43.71,0,0,0-8.39-3.79,19.94,19.94,0,0,0-9.07-.71,26.81,26.81,0,0,0-3.66,1,3.38,3.38,0,0,1,.9-.52,12.2,12.2,0,0,1,2.69-.88,18.79,18.79,0,0,1,9.29.57,37.42,37.42,0,0,1,8.42,4c1,.62,1.83,1.14,2.38,1.51A4.26,4.26,0,0,1,242.29,313.45Z" style="fill:#fff"></path><path d="M244,334.05a21.07,21.07,0,0,1-2.63-.09,18.93,18.93,0,0,1-2.64.05,4.44,4.44,0,0,1,2.64-.57A4.3,4.3,0,0,1,244,334.05Z" style="fill:#fff"></path><path d="M207.53,321.48a7.64,7.64,0,0,1,.85-4.45,7.55,7.55,0,0,1,2.87-3.5,28.17,28.17,0,0,0-2.4,3.72A31.19,31.19,0,0,0,207.53,321.48Z" style="fill:#fff"></path><g style="opacity:0.30000000000000004"><path d="M209.92,313.05l-2.64,3s13.5,10.55,30.93,11.26,20.4-.84,20.4-.84l-5.78-7.63Z"></path></g><path d="M251.58,154c-8.93-3.35-23.39-3.3-39.06.29s-28.71,9.83-35.3,16.74l-6.7,1.54,2.31,10.07c2.5,10.92,24.17,15.27,48.41,9.72s41.86-18.9,39.36-29.81l-2.31-10.08Z" style="fill:#BA68C8"></path><g style="opacity:0.30000000000000004"><path d="M251.58,154c-8.93-3.35-23.39-3.3-39.06.29s-28.71,9.83-35.3,16.74l-6.7,1.54,2.31,10.07c2.5,10.92,24.17,15.27,48.41,9.72s41.86-18.9,39.36-29.81l-2.31-10.08Z"></path></g><path d="M219.09,183c-24.23,5.55-45.91,1.2-48.4-9.7s15.12-24.25,39.36-29.8,45.91-1.21,48.41,9.7S243.33,177.46,219.09,183Z" style="fill:#BA68C8"></path><g style="opacity:0.1"><path d="M192.39,162.83a99.52,99.52,0,0,0,13.86,1.68c16.48.23,32.88-7.33,42.48-20.5-9.08-3.56-23.36-4-38.68-.5-14.67,3.36-26.9,9.57-33.73,16.37C181.65,161,187,162,192.39,162.83Z" style="fill:#fff"></path></g><path d="M218.08,174.83c-18.63,4.26-34.51,4.1-36.19-3.22-1.78-7.78,11.48-19.05,30.11-23.32s35.09-1.78,36.76,5.55c.42,1.79.86,3.75-1.49,7.63C243.57,167.6,232.13,171.61,218.08,174.83Z" style="fill:#BA68C8"></path><g style="opacity:0.30000000000000004"><path d="M218.08,174.83c-18.63,4.26-34.51,4.1-36.19-3.22-1.78-7.78,11.48-19.05,30.11-23.32s35.09-1.78,36.76,5.55c.42,1.79.86,3.75-1.49,7.63C243.57,167.6,232.13,171.61,218.08,174.83Z"></path></g><path d="M218,178c-18.18,4.16-34.28,1.6-36-5.73s11.7-16.64,29.88-20.8,34.27-1.6,36,5.73S236.13,173.88,218,178Z" style="fill:#BA68C8"></path><g style="opacity:0.2"><path d="M218,178c-18.18,4.16-34.28,1.6-36-5.73s11.7-16.64,29.88-20.8,34.27-1.6,36,5.73S236.13,173.88,218,178Z" style="fill:#fff"></path></g><path d="M218.48,165.08l8.07-2v0a7.41,7.41,0,0,1-.49,2.87,8.85,8.85,0,0,1-1,1.52h.26l3.1.05h.71l1.3-1.24-.42-.34a6.94,6.94,0,0,0,.83-4l4.44-1.08.91-1.1-1.11.27-.28-1.15-4.52,1.1c-1.52-3.64-5.52-4.56-9.6-3.57-5.56,1.35-6.3,4.58-6.73,7.53L206,166a8,8,0,0,1,1.87-5.59l-4.31-.1a8.68,8.68,0,0,0-1.88,6.74l-3.35.81-.26-.94-.83,1.21.48,2,4.48-1.09c1.57,3.65,5.53,4.61,9.61,3.62C217.36,171.3,218.05,168,218.48,165.08Zm.35-2.19c.34-1.57,1-2.83,2.89-3.3,1.76-.42,3.38-.05,4.24,1.57Zm7.73.22Zm-20,4.87,7.08-1.73c-.33,1.62-1,2.91-2.95,3.39A3.36,3.36,0,0,1,206.56,168Z" style="fill:#BA68C8"></path><g style="opacity:0.30000000000000004"><path d="M218.48,165.08l8.07-2v0a7.41,7.41,0,0,1-.49,2.87,8.85,8.85,0,0,1-1,1.52h.26l3.1.05h.71l1.3-1.24-.42-.34a6.94,6.94,0,0,0,.83-4l4.44-1.08.91-1.1-1.11.27-.28-1.15-4.52,1.1c-1.52-3.64-5.52-4.56-9.6-3.57-5.56,1.35-6.3,4.58-6.73,7.53L206,166a8,8,0,0,1,1.87-5.59l-4.31-.1a8.68,8.68,0,0,0-1.88,6.74l-3.35.81-.26-.94-.83,1.21.48,2,4.48-1.09c1.57,3.65,5.53,4.61,9.61,3.62C217.36,171.3,218.05,168,218.48,165.08Zm.35-2.19c.34-1.57,1-2.83,2.89-3.3,1.76-.42,3.38-.05,4.24,1.57Zm7.73.22Zm-20,4.87,7.08-1.73c-.33,1.62-1,2.91-2.95,3.39A3.36,3.36,0,0,1,206.56,168Z"></path></g><path d="M202.86,167.21l-4.54.81-.36-2,4.5-.8a8.71,8.71,0,0,1,2.3-6.62l4.29.38a7.92,7.92,0,0,0-2.21,5.46L215,163c.61-2.92,1.55-6.1,7.18-7.1,4.14-.74,8.07.43,9.36,4.15l4.58-.81.36,2-4.5.8a8.08,8.08,0,0,1-1.58,5.43l-4.28-.28a7.93,7.93,0,0,0,1.48-4.37l-8.19,1.46c-.61,2.92-1.5,6.14-7.13,7.15C208.09,172.16,204.2,171,202.86,167.21Zm8.44,1.13c2-.35,2.73-1.6,3.16-3.2l-7.18,1.28A3.36,3.36,0,0,0,211.3,168.34Zm8.56-6.23,7.21-1.29c-.75-1.66-2.34-2.14-4.13-1.82C221,159.35,220.29,160.56,219.86,162.11Z" style="fill:#BA68C8"></path><path d="M245.49,164.82a2.5,2.5,0,0,1-.41.37l-1.22,1c-.53.42-1.19.93-2,1.48s-1.68,1.21-2.71,1.85a60.35,60.35,0,0,1-17.32,7.76A81.41,81.41,0,0,1,203,179.82c-2.44,0-4.41,0-5.76,0l-1.57-.06a1.88,1.88,0,0,1-.54-.06,2.24,2.24,0,0,1,.54,0l1.57,0c1.35,0,3.32-.06,5.74-.14a86.64,86.64,0,0,0,18.7-2.7A63,63,0,0,0,239,169.19c1-.62,1.95-1.24,2.75-1.78s1.48-1,2-1.41l1.28-.9A1.69,1.69,0,0,1,245.49,164.82Z" style="fill:#263238"></path><path d="M208.65,184.84a9.37,9.37,0,0,1-1.67.23c-1.08.1-2.64.22-4.58.29a74.42,74.42,0,0,1-15.12-.83,35.36,35.36,0,0,1-8-2.26,17.37,17.37,0,0,1-5.72-3.75,10.93,10.93,0,0,1-2.48-3.88,8.48,8.48,0,0,1-.35-1.21c-.06-.28-.08-.42-.06-.43s.18.58.6,1.56a11.43,11.43,0,0,0,2.55,3.7,17.82,17.82,0,0,0,5.64,3.57,36.72,36.72,0,0,0,8,2.19,84.09,84.09,0,0,0,15,1c1.93,0,3.5-.09,4.58-.14A10.77,10.77,0,0,1,208.65,184.84Z" style="fill:#263238"></path><path d="M185.67,154.54a29,29,0,0,1-2.89,2.26,42.11,42.11,0,0,0-6.55,5.87,19.13,19.13,0,0,0-4.12,7.63,29.34,29.34,0,0,0-.51,3.61,3.19,3.19,0,0,1-.11-1,11.94,11.94,0,0,1,.26-2.7,18,18,0,0,1,4.09-7.89,36.15,36.15,0,0,1,6.72-5.83c.94-.65,1.71-1.15,2.24-1.49A3.64,3.64,0,0,1,185.67,154.54Z" style="fill:#fff"></path><path d="M204.32,161a16,16,0,0,1-1.08,2.27,17.43,17.43,0,0,1-1,2.32,4,4,0,0,1,.5-2.53C203.35,161.74,204.22,160.92,204.32,161Z" style="fill:#fff"></path><path d="M179.27,188a8.63,8.63,0,0,1-5.51-6.31,29.15,29.15,0,0,0,2.33,3.53A29.94,29.94,0,0,0,179.27,188Z" style="fill:#fff"></path><path d="M57.4,335c.24-4.24,2.87-10.12,7.16-15.86s9.17-9.93,13.18-11.37l1.83-2.45L83.26,308c4,3,1.87,12.6-4.76,21.48s-15.24,13.65-19.24,10.66l-3.69-2.75Z" style="fill:#BA68C8"></path><g style="opacity:0.30000000000000004"><path d="M57.4,335c.24-4.24,2.87-10.12,7.16-15.86s9.17-9.93,13.18-11.37l1.83-2.45L83.26,308c4,3,1.87,12.6-4.76,21.48s-15.24,13.65-19.24,10.66l-3.69-2.75Z"></path></g><path d="M75.07,327c6.63-8.88,8.76-18.49,4.77-21.47s-12.61,1.79-19.24,10.67-8.76,18.49-4.76,21.47S68.44,335.83,75.07,327Z" style="fill:#BA68C8"></path><g style="opacity:0.1"><path d="M71.66,312.44a43.51,43.51,0,0,1-1.82,5.95,23.17,23.17,0,0,1-16,13.62c.18-4.34,2.58-10.24,6.76-15.85,4-5.37,8.75-9.24,12.75-10.8C72.86,307.74,72.28,310.1,71.66,312.44Z" style="fill:#fff"></path></g><path d="M71.92,325.07c5.09-6.82,7.89-13.32,5.21-15.33-2.85-2.12-9.83,1.25-14.93,8.07s-7.05,14-4.36,16a3.86,3.86,0,0,0,3.38.77C64.38,334.15,68.07,330.22,71.92,325.07Z" style="fill:#BA68C8"></path><g style="opacity:0.30000000000000004"><path d="M71.92,325.07c5.09-6.82,7.89-13.32,5.21-15.33-2.85-2.12-9.83,1.25-14.93,8.07s-7.05,14-4.36,16a3.86,3.86,0,0,0,3.38.77C64.38,334.15,68.07,330.22,71.92,325.07Z"></path></g><path d="M73.25,325.6c5-6.66,6.82-13.68,4.14-15.68s-8.89,1.77-13.86,8.42S56.71,332,59.39,334,68.28,332.26,73.25,325.6Z" style="fill:#BA68C8"></path><g style="opacity:0.2"><path d="M73.25,325.6c5-6.66,6.82-13.68,4.14-15.68s-8.89,1.77-13.86,8.42S56.71,332,59.39,334,68.28,332.26,73.25,325.6Z" style="fill:#fff"></path></g><path d="M72.16,322.12c1.14-1.48,1.46-3.27.26-4.56l1.25-1.63-.72-.56-.64.12.34.28L71.71,317a3.84,3.84,0,0,0-3.09-.45l-.73,1.77a3.54,3.54,0,0,1,2.61.25l-2.23,2.91A3.43,3.43,0,0,0,64,322.85c-1.14,1.49-1.49,3.28-.28,4.55l-1.26,1.65.42.32-.31.4.61-.17L64.41,328a3,3,0,0,0,1.76.37l.07.23.74-.3.12-.3.54-1.26,0-.11a4,4,0,0,1-.79.12,3.2,3.2,0,0,1-1.26-.32h0l2.25-2.93A3.45,3.45,0,0,0,72.16,322.12Zm-7.23,3.7a1.54,1.54,0,0,1,.13-2,1.63,1.63,0,0,1,1.86-.58Zm.69.6Zm5.52-5.3a1.68,1.68,0,0,1-1.91.6l2-2.58A1.49,1.49,0,0,1,71.14,321.12Z" style="fill:#BA68C8"></path><g style="opacity:0.30000000000000004"><path d="M72.16,322.12c1.14-1.48,1.46-3.27.26-4.56l1.25-1.63-.72-.56-.64.12.34.28L71.71,317a3.84,3.84,0,0,0-3.09-.45l-.73,1.77a3.54,3.54,0,0,1,2.61.25l-2.23,2.91A3.43,3.43,0,0,0,64,322.85c-1.14,1.49-1.49,3.28-.28,4.55l-1.26,1.65.42.32-.31.4.61-.17L64.41,328a3,3,0,0,0,1.76.37l.07.23.74-.3.12-.3.54-1.26,0-.11a4,4,0,0,1-.79.12,3.2,3.2,0,0,1-1.26-.32h0l2.25-2.93A3.45,3.45,0,0,0,72.16,322.12Zm-7.23,3.7a1.54,1.54,0,0,1,.13-2,1.63,1.63,0,0,1,1.86-.58Zm.69.6Zm5.52-5.3a1.68,1.68,0,0,1-1.91.6l2-2.58A1.49,1.49,0,0,1,71.14,321.12Z"></path></g><path d="M71.58,322.07a3.41,3.41,0,0,1-4.19,1.62l-2.07,3.07a3.54,3.54,0,0,0,2,.19l-.65,1.79a3.58,3.58,0,0,1-2.5-.33l-1.14,1.69-.75-.51,1.16-1.72c-1.29-1.2-1.06-3,0-4.56a3.43,3.43,0,0,1,4.19-1.65l2-3a3.53,3.53,0,0,0-2.62-.09l.62-1.81a3.87,3.87,0,0,1,3.11.26L72,315.29l.75.51-1.14,1.7C72.84,318.72,72.63,320.52,71.58,322.07Zm-7,2.13a1.55,1.55,0,0,0,0,2l1.83-2.71A1.66,1.66,0,0,0,64.59,324.2Zm5.85-5-1.81,2.69a1.68,1.68,0,0,0,1.87-.71A1.49,1.49,0,0,0,70.44,319.16Z" style="fill:#BA68C8"></path><path d="M62.9,334.44c0-.08,1.13-.73,2.9-2a29.25,29.25,0,0,0,6.14-5.68,41.47,41.47,0,0,0,4.49-7.08c1-1.93,1.52-3.15,1.59-3.12a2.89,2.89,0,0,1-.27.9c-.21.58-.55,1.38-1,2.38a34.69,34.69,0,0,1-4.42,7.25A26,26,0,0,1,66,332.79a22.62,22.62,0,0,1-2.24,1.27A3.52,3.52,0,0,1,62.9,334.44Z" style="fill:#263238"></path><path d="M77.7,323a20.41,20.41,0,0,1,1.09-2.56,40.11,40.11,0,0,0,2.26-6.29,11.66,11.66,0,0,0,.15-6.5,8.14,8.14,0,0,0-1.48-2.27s.24.12.63.43a3.39,3.39,0,0,1,.6.67,4.59,4.59,0,0,1,.59,1c.73,1.65.69,4.2,0,6.76a31.74,31.74,0,0,1-2.43,6.31A12.13,12.13,0,0,1,77.7,323Z" style="fill:#263238"></path><path d="M69.49,308.21c0-.06.46-.45,1.31-1a14.3,14.3,0,0,1,3.59-1.74,7.85,7.85,0,0,1,4-.21,2.81,2.81,0,0,1,1.51.71c0,.07-.61-.2-1.58-.34a8.7,8.7,0,0,0-3.79.34A21.06,21.06,0,0,0,71,307.53,6,6,0,0,1,69.49,308.21Z" style="fill:#fff"></path><path d="M68.77,317c0-.14.45-.41,1.12-.41s1.16.26,1.12.39-.53.12-1.12.13S68.81,317.12,68.77,317Z" style="fill:#fff"></path><path d="M84.28,311.63c-.15,0-.27-.83-.7-1.74s-1-1.53-.88-1.64.88.39,1.35,1.42S84.41,311.64,84.28,311.63Z" style="fill:#fff"></path><path d="M127.52,73.83c3.11,1.37,6.78,5,9.87,9.83s4.86,9.67,4.81,13.08l1.32,2.06-3.1,2c-3.37,2.16-10-2.15-14.76-9.62s-5.93-15.26-2.57-17.42l3.1-2Z" style="fill:#BA68C8"></path><g style="opacity:0.30000000000000004"><path d="M127.52,73.83c3.11,1.37,6.78,5,9.87,9.83s4.86,9.67,4.81,13.08l1.32,2.06-3.1,2c-3.37,2.16-10-2.15-14.76-9.62s-5.93-15.26-2.57-17.42l3.1-2Z"></path></g><path d="M128.55,89.32c4.78,7.47,11.38,11.78,14.75,9.63s2.2-10-2.58-17.42S129.33,69.75,126,71.91,123.76,81.86,128.55,89.32Z" style="fill:#BA68C8"></path><g style="opacity:0.1"><path d="M140.39,90.86a35.41,35.41,0,0,1-3.95-3A18.57,18.57,0,0,1,130.74,72c3.2,1.36,6.95,4.82,10,9.54,2.89,4.52,4.45,9.15,4.5,12.59C143.57,93.08,142,92,140.39,90.86Z" style="fill:#fff"></path></g><path d="M130.85,87.5c3.68,5.73,7.76,9.66,10,8.22S142.7,88,139,82.26s-8.48-9.22-10.74-7.78a3.13,3.13,0,0,0-1.53,2.32C126.16,79.29,128.08,83.16,130.85,87.5Z" style="fill:#BA68C8"></path><g style="opacity:0.30000000000000004"><path d="M130.85,87.5c3.68,5.73,7.76,9.66,10,8.22S142.7,88,139,82.26s-8.48-9.22-10.74-7.78a3.13,3.13,0,0,0-1.53,2.32C126.16,79.29,128.08,83.16,130.85,87.5Z"></path></g><path d="M130.08,88.34c3.59,5.6,8.33,9,10.58,7.53s1.18-7.16-2.41-12.76-8.33-9-10.58-7.53S126.49,82.74,130.08,88.34Z" style="fill:#BA68C8"></path><g style="opacity:0.2"><path d="M130.08,88.34c3.59,5.6,8.33,9,10.58,7.53s1.18-7.16-2.41-12.76-8.33-9-10.58-7.53S126.49,82.74,130.08,88.34Z" style="fill:#fff"></path></g><path d="M133,88.51c.79,1.27,2,2,3.35,1.48l.87,1.39.62-.38.09-.51-.3.17-.65-1a3.1,3.1,0,0,0,1.2-2.19l-1.12-1.05a2.85,2.85,0,0,1-.92,1.89l-1.55-2.5a2.74,2.74,0,0,0,.17-3.59c-.79-1.28-2-2-3.34-1.49l-.87-1.41-.36.22-.22-.35,0,.51.86,1.39a2.48,2.48,0,0,0-.78,1.21l-.19,0,0,.65.19.17.79.76.07.06a3.43,3.43,0,0,1,.14-.63,2.57,2.57,0,0,1,.59-.85h0l1.56,2.51A2.75,2.75,0,0,0,133,88.51Zm-.73-6.46a1.23,1.23,0,0,1,1.47.66,1.32,1.32,0,0,1-.09,1.56Zm-.64.34ZM134,88a1.35,1.35,0,0,1,.09-1.6l1.37,2.21A1.19,1.19,0,0,1,134,88Z" style="fill:#BA68C8"></path><g style="opacity:0.30000000000000004"><path d="M133,88.51c.79,1.27,2,2,3.35,1.48l.87,1.39.62-.38.09-.51-.3.17-.65-1a3.1,3.1,0,0,0,1.2-2.19l-1.12-1.05a2.85,2.85,0,0,1-.92,1.89l-1.55-2.5a2.74,2.74,0,0,0,.17-3.59c-.79-1.28-2-2-3.34-1.49l-.87-1.41-.36.22-.22-.35,0,.51.86,1.39a2.48,2.48,0,0,0-.78,1.21l-.19,0,0,.65.19.17.79.76.07.06a3.43,3.43,0,0,1,.14-.63,2.57,2.57,0,0,1,.59-.85h0l1.56,2.51A2.75,2.75,0,0,0,133,88.51Zm-.73-6.46a1.23,1.23,0,0,1,1.47.66,1.32,1.32,0,0,1-.09,1.56Zm-.64.34ZM134,88a1.35,1.35,0,0,1,.09-1.6l1.37,2.21A1.19,1.19,0,0,1,134,88Z"></path></g><path d="M133.19,88.09a2.74,2.74,0,0,1,0-3.61l-1.72-2.41a2.75,2.75,0,0,0-.72,1.48l-1.16-1a2.88,2.88,0,0,1,1-1.78l-1-1.32.59-.43,1,1.36c1.26-.63,2.55.05,3.42,1.27a2.76,2.76,0,0,1,0,3.61l1.71,2.39a2.8,2.8,0,0,0,.8-1.94l1.19,1A3.13,3.13,0,0,1,137.23,89l.94,1.32-.59.43-1-1.34C135.35,90,134.06,89.31,133.19,88.09Zm.37-5.84a1.22,1.22,0,0,0-1.5-.57l1.51,2.13A1.3,1.3,0,0,0,133.56,82.25Zm2.14,5.8-1.51-2.12a1.35,1.35,0,0,0,0,1.6A1.2,1.2,0,0,0,135.7,88.05Z" style="fill:#BA68C8"></path><path d="M126.37,78.1a24.87,24.87,0,0,1,.69,2.72A23.91,23.91,0,0,0,129.59,87a34.37,34.37,0,0,0,4,5.36,20.09,20.09,0,0,1,1.86,2.1,12.76,12.76,0,0,1-2.13-1.85,27.13,27.13,0,0,1-4.21-5.35,20.3,20.3,0,0,1-2.44-6.36A10.07,10.07,0,0,1,126.37,78.1Z" style="fill:#263238"></path><path d="M130.75,92.4c.14-.13,2.33,2.54,5.72,5a9.29,9.29,0,0,0,4.8,2,7.6,7.6,0,0,0,2.12-.43s-.16.16-.5.37a3.83,3.83,0,0,1-1.62.43,8.8,8.8,0,0,1-5.1-1.89,24.57,24.57,0,0,1-4-3.61A8.38,8.38,0,0,1,130.75,92.4Z" style="fill:#263238"></path><path d="M144.17,90.42a3.41,3.41,0,0,1,.42,1.26,11.61,11.61,0,0,1,.3,3.2,6.29,6.29,0,0,1-1,3.08c-.49.69-1,1-1,.91s.3-.42.67-1.11a7,7,0,0,0,.79-2.92,16.86,16.86,0,0,0-.15-3.1A3.61,3.61,0,0,1,144.17,90.42Z" style="fill:#fff"></path><path d="M137.8,87.41c.14,0,.23.46,0,1s-.55.8-.66.71,0-.46.17-.89S137.66,87.4,137.8,87.41Z" style="fill:#fff"></path><path d="M137.44,100.54c.05-.14.71,0,1.49-.08s1.42-.28,1.49-.15-.53.6-1.45.67S137.38,100.67,137.44,100.54Z" style="fill:#fff"></path><path d="M385.41,390.85c2.27-2.54,6.85-4.92,12.39-6.38s10.7-1.65,13.93-.55l2.37-.63.94,3.57c1,3.86-5.11,8.82-13.69,11.08S385,398.9,384,395l-.94-3.57Z" style="fill:#BA68C8"></path><g style="opacity:0.30000000000000004"><path d="M385.41,390.85c2.27-2.54,6.85-4.92,12.39-6.38s10.7-1.65,13.93-.55l2.37-.63.94,3.57c1,3.86-5.11,8.82-13.69,11.08S385,398.9,384,395l-.94-3.57Z"></path></g><ellipse cx="398.64" cy="387.64" rx="16.06" ry="7.23" transform="translate(-85.58 114.31) rotate(-14.75)" style="fill:#BA68C8"></ellipse><g style="opacity:0.1"><path d="M405.58,383.83a36.89,36.89,0,0,1-4.1,2.83,18.59,18.59,0,0,1-16.82.55c2.28-2.62,6.72-5.13,12.14-6.56,5.19-1.36,10.08-1.43,13.37-.41C408.67,381.48,407.13,382.68,405.58,383.83Z" style="fill:#fff"></path></g><path d="M399.45,391.88c6.59-1.74,11.58-4.42,10.9-7-.73-2.75-6.78-4.12-13.38-2.38s-11.38,5.24-10.69,7.83a3.08,3.08,0,0,0,1.73,2.17C390.2,393.81,394.47,393.19,399.45,391.88Z" style="fill:#BA68C8"></path><g style="opacity:0.30000000000000004"><path d="M399.45,391.88c6.59-1.74,11.58-4.42,10.9-7-.73-2.75-6.78-4.12-13.38-2.38s-11.38,5.24-10.69,7.83a3.08,3.08,0,0,0,1.73,2.17C390.2,393.81,394.47,393.19,399.45,391.88Z"></path></g><path d="M400,392.87c6.43-1.69,11.09-5.17,10.41-7.76s-6.45-3.32-12.89-1.63-11.09,5.17-10.41,7.76S393.58,394.56,400,392.87Z" style="fill:#BA68C8"></path><g style="opacity:0.2"><path d="M400,392.87c6.43-1.69,11.09-5.17,10.41-7.76s-6.45-3.32-12.89-1.63-11.09,5.17-10.41,7.76S393.58,394.56,400,392.87Z" style="fill:#fff"></path></g><path d="M401.07,390.15c1.45-.36,2.55-1.32,2.44-2.73l1.59-.4-.17-.71-.47-.24.08.34-1.2.3a3.05,3.05,0,0,0-1.71-1.82l-1.34.74a2.81,2.81,0,0,1,1.51,1.46l-2.85.71a2.76,2.76,0,0,0-3.37-1.27c-1.45.36-2.56,1.32-2.44,2.72l-1.61.4.1.41-.39.1.47.2,1.58-.4a2.42,2.42,0,0,0,.91,1.11l-.07.18.62.18.22-.12,1-.53.08,0a3,3,0,0,1-.56-.32,2.51,2.51,0,0,1-.63-.82h0l2.88-.72A2.75,2.75,0,0,0,401.07,390.15Zm-6.38-1.29a1.24,1.24,0,0,1,1.08-1.19,1.32,1.32,0,0,1,1.46.56Zm.14.72Zm6.09-.57a1.32,1.32,0,0,1-1.49-.58l2.52-.63A1.2,1.2,0,0,1,400.92,389Z" style="fill:#BA68C8"></path><g style="opacity:0.30000000000000004"><path d="M401.07,390.15c1.45-.36,2.55-1.32,2.44-2.73l1.59-.4-.17-.71-.47-.24.08.34-1.2.3a3.05,3.05,0,0,0-1.71-1.82l-1.34.74a2.81,2.81,0,0,1,1.51,1.46l-2.85.71a2.76,2.76,0,0,0-3.37-1.27c-1.45.36-2.56,1.32-2.44,2.72l-1.61.4.1.41-.39.1.47.2,1.58-.4a2.42,2.42,0,0,0,.91,1.11l-.07.18.62.18.22-.12,1-.53.08,0a3,3,0,0,1-.56-.32,2.51,2.51,0,0,1-.63-.82h0l2.88-.72A2.75,2.75,0,0,0,401.07,390.15Zm-6.38-1.29a1.24,1.24,0,0,1,1.08-1.19,1.32,1.32,0,0,1,1.46.56Zm.14.72Zm6.09-.57a1.32,1.32,0,0,1-1.49-.58l2.52-.63A1.2,1.2,0,0,1,400.92,389Z"></path></g><path d="M400.73,389.83a2.75,2.75,0,0,1-3.44-1.07l-2.83.89a2.92,2.92,0,0,0,1.19,1.14l-1.3.79a2.82,2.82,0,0,1-1.4-1.45l-1.56.49-.22-.69,1.59-.51c-.21-1.38.84-2.41,2.27-2.86a2.75,2.75,0,0,1,3.44,1.06l2.8-.89a2.85,2.85,0,0,0-1.6-1.36l1.3-.83a3.12,3.12,0,0,1,1.82,1.71l1.55-.49.22.7L403,387C403.19,388.35,402.16,389.38,400.73,389.83Zm-5.44-2.15a1.25,1.25,0,0,0-1,1.26l2.5-.79A1.33,1.33,0,0,0,395.29,387.68Zm6.18-.25-2.48.79a1.35,1.35,0,0,0,1.52.49A1.22,1.22,0,0,0,401.47,387.43Z" style="fill:#BA68C8"></path><path d="M389.13,393.25c0-.08,1.08.08,2.79.18a23.33,23.33,0,0,0,6.66-.51,32.68,32.68,0,0,0,6.34-2.19,20.7,20.7,0,0,1,2.57-1.12,12.36,12.36,0,0,1-2.41,1.46,27,27,0,0,1-6.38,2.36,20.58,20.58,0,0,1-6.81.37A10.3,10.3,0,0,1,389.13,393.25Z" style="fill:#263238"></path><path d="M404.08,393.48c-.08-.17,3.14-1.43,6.48-3.92a9.3,9.3,0,0,0,3.33-4,8.22,8.22,0,0,0,.25-2.15,1.61,1.61,0,0,1,.19.59,3.8,3.8,0,0,1-.09,1.67,8.83,8.83,0,0,1-3.36,4.28,25,25,0,0,1-4.69,2.74A8,8,0,0,1,404.08,393.48Z" style="fill:#263238"></path><path d="M406.33,380.1a3.18,3.18,0,0,1,1.32,0,11,11,0,0,1,3.13.69,6.1,6.1,0,0,1,2.63,1.9c.51.67.62,1.19.57,1.21s-.31-.41-.85-1a7.12,7.12,0,0,0-2.54-1.66,19.29,19.29,0,0,0-3-.81A3.69,3.69,0,0,1,406.33,380.1Z" style="fill:#fff"></path><path d="M401.51,385.23c0-.13.5-.07.93.26s.6.77.48.85-.43-.15-.8-.44S401.45,385.37,401.51,385.23Z" style="fill:#fff"></path><path d="M413.89,389.61c-.12-.09.2-.67.38-1.44s.17-1.44.31-1.47.41.69.19,1.59S414,389.71,413.89,389.61Z" style="fill:#fff"></path><path d="M460.22,201.8c2.47,2.34,4.72,7,6,12.57s1.34,10.74.16,13.93l.55,2.39-3.59.84c-3.89.91-8.67-5.36-10.69-14s-.49-16.37,3.4-17.28l3.59-.84Z" style="fill:#BA68C8"></path><g style="opacity:0.30000000000000004"><path d="M460.22,201.8c2.47,2.34,4.72,7,6,12.57s1.34,10.74.16,13.93l.55,2.39-3.59.84c-3.89.91-8.67-5.36-10.69-14s-.49-16.37,3.4-17.28l3.59-.84Z"></path></g><path d="M456,216.76c2,8.63,6.8,14.9,10.68,14s5.41-8.64,3.39-17.28-6.8-14.9-10.68-14S454,208.12,456,216.76Z" style="fill:#BA68C8"></path><g style="opacity:0.1"><path d="M466.65,222.16A35.45,35.45,0,0,1,464,218a18.56,18.56,0,0,1-.08-16.83c2.56,2.35,4.94,6.86,6.21,12.32,1.22,5.23,1.15,10.12,0,13.38C468.92,225.32,467.77,223.75,466.65,222.16Z" style="fill:#fff"></path></g><path d="M458.79,215.8c1.55,6.64,4.08,11.7,6.7,11.1s4.3-6.67,2.75-13.3-4.92-11.53-7.53-10.92a3.1,3.1,0,0,0-2.21,1.67C457.12,206.5,457.62,210.79,458.79,215.8Z" style="fill:#BA68C8"></path><g style="opacity:0.30000000000000004"><path d="M458.79,215.8c1.55,6.64,4.08,11.7,6.7,11.1s4.3-6.67,2.75-13.3-4.92-11.53-7.53-10.92a3.1,3.1,0,0,0-2.21,1.67C457.12,206.5,457.62,210.79,458.79,215.8Z"></path></g><path d="M457.78,216.34c1.51,6.48,4.85,11.24,7.46,10.63s3.5-6.36,2-12.83-4.85-11.24-7.46-10.63S456.27,209.86,457.78,216.34Z" style="fill:#BA68C8"></path><g style="opacity:0.2"><path d="M457.78,216.34c1.51,6.48,4.85,11.24,7.46,10.63s3.5-6.36,2-12.83-4.85-11.24-7.46-10.63S456.27,209.86,457.78,216.34Z" style="fill:#fff"></path></g><path d="M460.47,217.47c.32,1.46,1.25,2.58,2.66,2.51l.35,1.61.72-.15.25-.46-.34.07-.26-1.21a3.09,3.09,0,0,0,1.86-1.65l-.7-1.37a2.8,2.8,0,0,1-1.5,1.47l-.63-2.87a2.74,2.74,0,0,0,1.36-3.33c-.32-1.46-1.24-2.6-2.64-2.52l-.36-1.62-.41.09-.09-.4-.21.47.35,1.59a2.48,2.48,0,0,0-1.14.88l-.18-.08-.19.62.12.22.49,1,0,.09a3.19,3.19,0,0,1,.33-.55,2.75,2.75,0,0,1,.85-.61h0l.63,2.9A2.73,2.73,0,0,0,460.47,217.47Zm1.47-6.33a1.23,1.23,0,0,1,1.16,1.11,1.32,1.32,0,0,1-.6,1.44Zm-.72.11Zm.39,6.11a1.33,1.33,0,0,1,.62-1.48l.56,2.54A1.2,1.2,0,0,1,461.61,217.36Z" style="fill:#BA68C8"></path><g style="opacity:0.30000000000000004"><path d="M460.47,217.47c.32,1.46,1.25,2.58,2.66,2.51l.35,1.61.72-.15.25-.46-.34.07-.26-1.21a3.09,3.09,0,0,0,1.86-1.65l-.7-1.37a2.8,2.8,0,0,1-1.5,1.47l-.63-2.87a2.74,2.74,0,0,0,1.36-3.33c-.32-1.46-1.24-2.6-2.64-2.52l-.36-1.62-.41.09-.09-.4-.21.47.35,1.59a2.48,2.48,0,0,0-1.14.88l-.18-.08-.19.62.12.22.49,1,0,.09a3.19,3.19,0,0,1,.33-.55,2.75,2.75,0,0,1,.85-.61h0l.63,2.9A2.73,2.73,0,0,0,460.47,217.47Zm1.47-6.33a1.23,1.23,0,0,1,1.16,1.11,1.32,1.32,0,0,1-.6,1.44Zm-.72.11Zm.39,6.11a1.33,1.33,0,0,1,.62-1.48l.56,2.54A1.2,1.2,0,0,1,461.61,217.36Z"></path></g><path d="M460.8,217.14a2.76,2.76,0,0,1,1.17-3.41l-.81-2.85A2.82,2.82,0,0,0,460,212l-.76-1.33a2.9,2.9,0,0,1,1.49-1.36l-.45-1.56.71-.2.45,1.59c1.4-.17,2.39.91,2.8,2.35a2.76,2.76,0,0,1-1.15,3.42l.8,2.82a2.82,2.82,0,0,0,1.41-1.56l.79,1.32a3.12,3.12,0,0,1-1.76,1.77l.45,1.57-.71.2-.45-1.59C462.2,219.64,461.21,218.58,460.8,217.14Zm2.37.8-.71-2.5a1.34,1.34,0,0,0-.53,1.52A1.19,1.19,0,0,0,463.17,217.94Zm-.07-6.18a1.24,1.24,0,0,0-1.23-1l.72,2.52A1.32,1.32,0,0,0,463.1,211.76Z" style="fill:#BA68C8"></path><path d="M457.71,205.45c.08,0-.11,1.07-.26,2.79a23.55,23.55,0,0,0,.32,6.67,33.6,33.6,0,0,0,2,6.4,21.51,21.51,0,0,1,1.05,2.6,11.56,11.56,0,0,1-1.39-2.45,27.09,27.09,0,0,1-2.18-6.45,20.4,20.4,0,0,1-.18-6.81A10.32,10.32,0,0,1,457.71,205.45Z" style="fill:#263238"></path><path d="M457.06,220.39c.17-.08,1.34,3.17,3.73,6.59a9.22,9.22,0,0,0,3.87,3.43,7.51,7.51,0,0,0,2.14.31s-.2.1-.59.18a3.67,3.67,0,0,1-1.67-.14,8.79,8.79,0,0,1-4.18-3.48,24.43,24.43,0,0,1-2.6-4.76A7.5,7.5,0,0,1,457.06,220.39Z" style="fill:#263238"></path><path d="M470.36,223a3.21,3.21,0,0,1,0,1.33,11.43,11.43,0,0,1-.78,3.11,6.11,6.11,0,0,1-2,2.57c-.69.49-1.21.59-1.23.53s.42-.29,1-.82a7.17,7.17,0,0,0,1.72-2.49,18.2,18.2,0,0,0,.9-3A3.79,3.79,0,0,1,470.36,223Z" style="fill:#fff"></path><path d="M465.37,218.05c.13,0,.06.51-.29.93s-.78.57-.86.45.17-.43.46-.79S465.24,218,465.37,218.05Z" style="fill:#fff"></path><path d="M460.64,230.3c.1-.12.67.22,1.44.42s1.43.21,1.45.36-.7.39-1.59.14S460.55,230.4,460.64,230.3Z" style="fill:#fff"></path><circle cx="246.01" cy="253.5" r="69.87" transform="translate(-44.87 453.93) rotate(-80.43)" style="fill:#BA68C8"></circle><g style="opacity:0.1"><path d="M263.55,185.86A69.89,69.89,0,0,0,178.37,236s47,14.44,63.38-1.73S263.55,185.86,263.55,185.86Z" style="fill:#fff"></path></g><path d="M296.63,265.48a53.11,53.11,0,1,1-38.08-64.75A53.11,53.11,0,0,1,296.63,265.48Z" style="fill:#BA68C8"></path><g style="opacity:0.2"><path d="M296.63,265.48a53.11,53.11,0,1,1-38.08-64.75A53.11,53.11,0,0,1,296.63,265.48Z"></path></g><path d="M297.53,268A52.4,52.4,0,1,1,260,204.12,52.4,52.4,0,0,1,297.53,268Z" style="fill:#BA68C8"></path><g style="opacity:0.2"><path d="M297.53,268A52.4,52.4,0,1,1,260,204.12,52.4,52.4,0,0,1,297.53,268Z" style="fill:#fff"></path></g><path d="M250,251l3.37-13h.06a27.62,27.62,0,0,1,6.43,3.59,22.75,22.75,0,0,1,2.71,2.88l.27-.36L266,240l.74-1-1.69-3-1.24.21a25.23,25.23,0,0,0-8.7-5.15L257,223.9l-1.76-2.36-.46,1.79-3-.79-1.88,7.26c-10.29-1.63-16.53,2.86-18.23,9.42-2.31,8.93,4.74,13.23,11.42,16.82l-3.33,12.86a25.5,25.5,0,0,1-11.59-8.22l-4.58,5.74c2.59,3.76,8.17,7.4,14.37,9.42l-1.4,5.39-2.52-.6L236,283l5.27,1.37,1.87-7.2c10.36,1.58,16.65-2.82,18.35-9.38C263.85,258.83,256.65,254.56,250,251ZM245,248.26c-3.44-2.06-5.84-4.19-5-7.28.73-2.83,3.26-4.64,8-4.17ZM253.33,238ZM245,270.14,248,258.76c3.57,2.09,6,4.3,5.2,7.45C252.43,269,249.87,270.65,245,270.14Z" style="fill:#BA68C8"></path><g style="opacity:0.30000000000000004"><path d="M250,251l3.37-13h.06a27.62,27.62,0,0,1,6.43,3.59,22.75,22.75,0,0,1,2.71,2.88l.27-.36L266,240l.74-1-1.69-3-1.24.21a25.23,25.23,0,0,0-8.7-5.15L257,223.9l-1.76-2.36-.46,1.79-3-.79-1.88,7.26c-10.29-1.63-16.53,2.86-18.23,9.42-2.31,8.93,4.74,13.23,11.42,16.82l-3.33,12.86a25.5,25.5,0,0,1-11.59-8.22l-4.58,5.74c2.59,3.76,8.17,7.4,14.37,9.42l-1.4,5.39-2.52-.6L236,283l5.27,1.37,1.87-7.2c10.36,1.58,16.65-2.82,18.35-9.38C263.85,258.83,256.65,254.56,250,251ZM245,248.26c-3.44-2.06-5.84-4.19-5-7.28.73-2.83,3.26-4.64,8-4.17ZM253.33,238ZM245,270.14,248,258.76c3.57,2.09,6,4.3,5.2,7.45C252.43,269,249.87,270.65,245,270.14Z"></path></g><path d="M241.46,274.82l-1.87,7.2-5.27-1.37,1.85-7.13c-6.21-2-11.78-5.67-14.38-9.43l4.58-5.74a25.58,25.58,0,0,0,11.6,8.22l3.33-12.86c-6.69-3.59-13.74-7.89-11.42-16.83,1.7-6.56,7.94-11,18.22-9.41L250,220.2l5.27,1.37-1.85,7.14a28.41,28.41,0,0,1,12,7.31l-4.32,5.81a27.46,27.46,0,0,0-9.52-6.18l-3.37,13c6.69,3.59,13.89,7.86,11.57,16.8C258.11,272,251.82,276.41,241.46,274.82Zm1.86-28.89,3-11.45c-4.75-.48-7.28,1.34-8,4.17C237.47,241.73,239.87,243.87,243.32,245.93Zm8.11,17.95c.82-3.15-1.63-5.36-5.21-7.45l-2.95,11.38C248.15,268.32,250.71,266.65,251.43,263.88Z" style="fill:#BA68C8"></path><path d="M232.59,305.83l.43.07,1.25.23,2,.39a20,20,0,0,0,2.77.43l3.49.34a14.66,14.66,0,0,0,2,.07h2.17a22.76,22.76,0,0,0,2.32-.05l2.46-.25c.84-.1,1.72-.13,2.6-.29l2.71-.54a56.27,56.27,0,0,0,11.68-3.85l3-1.58c.5-.27,1-.52,1.52-.81l1.47-1c1-.66,2-1.27,3-2l2.88-2.31.73-.58.68-.65,1.37-1.32c.45-.45.91-.89,1.38-1.34s.85-1,1.28-1.46c.83-1,1.72-2,2.53-3l2.29-3.31a52.27,52.27,0,0,0,8.28-31.91c-.14-1.35-.27-2.69-.4-4s-.5-2.6-.73-3.88c-.15-.63-.22-1.28-.42-1.9s-.37-1.23-.56-1.84-.37-1.21-.55-1.82c-.09-.3-.17-.6-.28-.9l-.35-.86c-.48-1.15-.94-2.29-1.4-3.41s-1.11-2.15-1.64-3.2l-.82-1.55c-.3-.5-.63-1-.94-1.45L289,223.47a55.64,55.64,0,0,0-8.34-9l-2.1-1.79c-.69-.57-1.44-1-2.13-1.52l-2-1.41c-.65-.48-1.36-.79-2-1.18l-1.9-1.05a14.38,14.38,0,0,0-1.78-.92l-3.23-1.4a20.28,20.28,0,0,0-2.63-1l-1.95-.64-1.2-.4-.41-.16.42.11,1.22.35,2,.6a18.86,18.86,0,0,1,2.66.92l3.25,1.37a13.24,13.24,0,0,1,1.81.9l1.91,1c.65.38,1.37.69,2,1.16l2.05,1.41c.7.49,1.46,1,2.15,1.52l2.13,1.78a55.52,55.52,0,0,1,8.45,9.07l1.88,2.84c.31.48.65,1,.95,1.46s.55,1,.83,1.56c.54,1.06,1.16,2.11,1.66,3.22l1.43,3.44.36.87c.1.3.18.6.28.91.19.61.37,1.22.56,1.83s.38,1.24.56,1.86.28,1.27.43,1.91c.25,1.3.55,2.59.75,3.92s.27,2.68.41,4A52.71,52.71,0,0,1,291,283.31l-2.32,3.34c-.81,1.06-1.71,2-2.55,3.05a18.32,18.32,0,0,1-1.31,1.47l-1.39,1.35c-.47.44-.93.89-1.38,1.33-.23.22-.45.45-.69.65l-.74.59-2.91,2.31c-1,.73-2,1.35-3,2l-1.49,1c-.5.29-1,.54-1.54.82l-3,1.57a56,56,0,0,1-11.79,3.82l-2.72.52c-.89.16-1.78.19-2.62.28l-2.48.23a20.44,20.44,0,0,1-2.34,0h-2.18a16.34,16.34,0,0,1-2-.09l-3.51-.39a18.38,18.38,0,0,1-2.77-.48l-2-.44L233,306Z" style="fill:#263238"></path><path d="M180.18,270.3a5.05,5.05,0,0,1-.18-.61c-.1-.45-.24-1-.41-1.75s-.39-1.71-.55-2.81-.41-2.35-.51-3.76c-.07-.7-.14-1.43-.22-2.19s-.07-1.57-.11-2.39c-.1-1.65,0-3.42,0-5.28a74.51,74.51,0,0,1,1.52-12A76.24,76.24,0,0,1,183.31,228c.74-1.7,1.42-3.33,2.2-4.79.38-.74.71-1.46,1.09-2.13s.76-1.3,1.11-1.91c.68-1.23,1.42-2.27,2-3.2a28.2,28.2,0,0,1,1.66-2.33l1.11-1.42a3.25,3.25,0,0,1,.41-.48,2.48,2.48,0,0,1-.33.54l-1,1.48c-.46.63-1,1.42-1.58,2.37s-1.3,2-1.95,3.23c-.35.61-.7,1.25-1.07,1.91s-.7,1.39-1.07,2.13c-.76,1.46-1.41,3.09-2.13,4.78a78.07,78.07,0,0,0-3.53,11.48,79.83,79.83,0,0,0-1.56,11.89c0,1.85-.12,3.6,0,5.25,0,.82,0,1.61.08,2.37s.13,1.49.18,2.19c.08,1.39.3,2.64.44,3.74s.3,2.05.46,2.82.23,1.31.32,1.77A2.92,2.92,0,0,1,180.18,270.3Z" style="fill:#fff"></path><path d="M232.88,243.4a4.34,4.34,0,0,1-1.11-1.87,8.2,8.2,0,0,1,2.84-9.53,4.41,4.41,0,0,1,1.95-1c0,.08-.73.41-1.73,1.25a8.92,8.92,0,0,0-2.75,4.15,8.81,8.81,0,0,0,0,5C232.49,242.66,233,243.35,232.88,243.4Z" style="fill:#fff"></path><path d="M249.47,226.69a4.78,4.78,0,0,1,.29-2.18c.31-1.17.66-2.09.8-2a4.79,4.79,0,0,1-.29,2.18A4.94,4.94,0,0,1,249.47,226.69Z" style="fill:#fff"></path><path d="M263.54,200.62a11.51,11.51,0,0,1-1.64-.5c-.52-.18-1.15-.39-1.9-.59s-1.6-.49-2.55-.7-2-.48-3.13-.67-2.35-.39-3.63-.57a55.17,55.17,0,0,0-16.75.58c-1.26.27-2.47.5-3.58.82s-2.14.59-3.07.89-1.76.6-2.49.86-1.36.52-1.86.73a12.36,12.36,0,0,1-1.6.61,9.49,9.49,0,0,1,1.51-.79c.5-.25,1.11-.53,1.84-.82s1.54-.65,2.48-.94,2-.67,3.08-1,2.33-.59,3.6-.87a57.24,57.24,0,0,1,8.43-1,55.83,55.83,0,0,1,8.47.4c1.29.19,2.52.35,3.65.61s2.19.49,3.14.75,1.8.53,2.54.77,1.38.47,1.89.68A10,10,0,0,1,263.54,200.62Z" style="fill:#fff"></path><path d="M237.62,319.77a5.87,5.87,0,0,1-1.29,0c-.83,0-2-.11-3.51-.29a51.32,51.32,0,0,1-11.26-2.77,50.56,50.56,0,0,1-10.33-5.27c-1.23-.83-2.2-1.54-2.84-2.07a6.13,6.13,0,0,1-1-.86,6.17,6.17,0,0,1,1.09.69c.67.48,1.67,1.15,2.92,1.93a56.44,56.44,0,0,0,21.45,8c1.45.23,2.64.38,3.46.46A6.5,6.5,0,0,1,237.62,319.77Z" style="fill:#fff"></path><path d="M313.65,271s.07-.38.23-1.12.44-1.81.68-3.25a69,69,0,0,0,.65-21.9A67.14,67.14,0,0,0,313,234a70.55,70.55,0,0,0-12.18-23.62,68.78,68.78,0,0,0-10.9-11,67.81,67.81,0,0,0-14.24-8.91,70.95,70.95,0,0,0-26.51-6.54,74.84,74.84,0,0,0-9.68.23A69.81,69.81,0,0,0,202,199.55a67.26,67.26,0,0,0-7.79,7.42,64.24,64.24,0,0,0-6.65,8.67,69.63,69.63,0,0,0-11,42.55c.09,1.84.34,3.65.56,5.47s.6,3.59,1,5.35a67.6,67.6,0,0,0,3.2,10.27,69.81,69.81,0,0,0,25.24,31.64,75.3,75.3,0,0,0,8.35,4.91,70.86,70.86,0,0,0,8.71,3.61A69.53,69.53,0,0,0,241.28,323,69.43,69.43,0,0,0,273,317.76,70.56,70.56,0,0,0,295.08,303a67.42,67.42,0,0,0,7.17-8.29,69.5,69.5,0,0,0,5-7.76,71.14,71.14,0,0,0,5.1-11.7c.49-1.37.74-2.46,1-3.17s.34-1.08.34-1.08-.35,1.49-1.22,4.29a68.32,68.32,0,0,1-10,19.57,66.85,66.85,0,0,1-7.17,8.34,70.47,70.47,0,0,1-22.19,14.86,69.9,69.9,0,0,1-31.84,5.32,71.22,71.22,0,0,1-26.52-7.17,76.25,76.25,0,0,1-8.41-4.93,70.26,70.26,0,0,1-25.44-31.85,68.32,68.32,0,0,1-3.23-10.35c-.44-1.77-.73-3.58-1-5.39s-.47-3.65-.57-5.5a70,70,0,0,1,11.12-42.87,65.26,65.26,0,0,1,6.7-8.74,70.12,70.12,0,0,1,45.55-22.93,74.12,74.12,0,0,1,9.75-.23,70.88,70.88,0,0,1,9.42,1.09,69.3,69.3,0,0,1,17.24,5.53,70,70,0,0,1,25.25,20.11A70.74,70.74,0,0,1,313.24,234,70.49,70.49,0,0,1,316,254a67.59,67.59,0,0,1-1.33,12.72C314.07,269.56,313.65,271,313.65,271Z" style="fill:#263238"></path><polygon points="189.07 266.37 191.59 270.97 196.19 273.49 191.59 276 189.07 280.61 186.55 276 181.95 273.49 186.55 270.97 189.07 266.37" style="fill:#fff"></polygon><polygon points="196.19 220.39 197.47 222.73 199.82 224.01 197.47 225.29 196.19 227.63 194.91 225.29 192.57 224.01 194.91 222.73 196.19 220.39" style="fill:#f5f5f5"></polygon><polygon points="283.53 213.37 286.01 217.91 290.55 220.39 286.01 222.86 283.53 227.4 281.06 222.86 276.52 220.39 281.06 217.91 283.53 213.37" style="fill:#fff"></polygon><polygon points="281.8 305.43 283.6 308.72 286.89 310.52 283.6 312.32 281.8 315.61 280 312.32 276.71 310.52 280 308.72 281.8 305.43" style="fill:#f5f5f5"></polygon><polygon points="314.62 270.11 315.81 272.29 317.99 273.49 315.81 274.68 314.62 276.86 313.43 274.68 311.25 273.49 313.43 272.29 314.62 270.11" style="fill:#f5f5f5"></polygon><polygon points="314.62 245.67 315.03 246.42 315.78 246.83 315.03 247.24 314.62 247.99 314.21 247.24 313.46 246.83 314.21 246.42 314.62 245.67" style="fill:#f5f5f5"></polygon><polygon points="181.95 245.67 182.36 246.42 183.11 246.83 182.36 247.24 181.95 247.99 181.54 247.24 180.79 246.83 181.54 246.42 181.95 245.67" style="fill:#f5f5f5"></polygon><polygon points="135.93 236.44 137.63 239.55 140.75 241.26 137.63 242.96 135.93 246.08 134.22 242.96 131.11 241.26 134.22 239.55 135.93 236.44" style="fill:#fff"></polygon><polygon points="169.41 355.66 170.56 357.76 172.67 358.92 170.56 360.07 169.41 362.18 168.25 360.07 166.15 358.92 168.25 357.76 169.41 355.66" style="fill:#fff"></polygon><polygon points="95.75 173.53 96.91 175.63 99.02 176.79 96.91 177.94 95.75 180.05 94.6 177.94 92.49 176.79 94.6 175.63 95.75 173.53" style="fill:#fff"></polygon><polygon points="215.34 144.93 216.49 147.04 218.6 148.19 216.49 149.35 215.34 151.45 214.19 149.35 212.08 148.19 214.19 147.04 215.34 144.93" style="fill:#fff"></polygon><polygon points="317.1 190.13 318.25 192.24 320.36 193.39 318.25 194.54 317.1 196.65 315.94 194.54 313.84 193.39 315.94 192.24 317.1 190.13" style="fill:#fff"></polygon><polygon points="180.79 170.15 181.66 171.74 183.26 172.62 181.66 173.49 180.79 175.08 179.92 173.49 178.33 172.62 179.92 171.74 180.79 170.15" style="fill:#fff"></polygon><polygon points="248 114.92 248.88 116.52 250.47 117.39 248.88 118.26 248 119.86 247.13 118.26 245.54 117.39 247.13 116.52 248 114.92" style="fill:#fff"></polygon><polygon points="266.02 369.19 266.89 370.78 268.49 371.65 266.89 372.52 266.02 374.12 265.15 372.52 263.56 371.65 265.15 370.78 266.02 369.19" style="fill:#fff"></polygon></g><g id="freepik--Sparkles--inject-8"><polygon points="308.75 147.03 310.42 150.1 313.49 151.78 310.42 153.46 308.75 156.52 307.07 153.46 304 151.78 307.07 150.1 308.75 147.03" style="fill:#BA68C8"></polygon><polygon points="365.96 268.14 367.64 271.2 370.7 272.88 367.64 274.56 365.96 277.63 364.28 274.56 361.21 272.88 364.28 271.2 365.96 268.14" style="fill:#BA68C8"></polygon><polygon points="178.37 99.81 180.04 102.88 183.11 104.55 180.04 106.23 178.37 109.3 176.69 106.23 173.62 104.55 176.69 102.88 178.37 99.81" style="fill:#BA68C8"></polygon><polygon points="86.39 265.3 87.52 267.38 89.6 268.51 87.52 269.65 86.39 271.73 85.25 269.65 83.18 268.51 85.25 267.38 86.39 265.3" style="fill:#BA68C8"></polygon><polygon points="363.64 147.92 364.78 150 366.86 151.13 364.78 152.27 363.64 154.34 362.51 152.27 360.43 151.13 362.51 150 363.64 147.92" style="fill:#BA68C8"></polygon><polygon points="320.99 427.52 322.12 429.59 324.2 430.73 322.12 431.87 320.99 433.94 319.85 431.87 317.78 430.73 319.85 429.59 320.99 427.52" style="fill:#BA68C8"></polygon><polygon points="149.82 192.29 150.4 193.36 151.47 193.95 150.4 194.53 149.82 195.6 149.24 194.53 148.17 193.95 149.24 193.36 149.82 192.29" style="fill:#BA68C8"></polygon><polygon points="383.09 262.21 383.68 263.28 384.74 263.87 383.68 264.45 383.09 265.52 382.51 264.45 381.44 263.87 382.51 263.28 383.09 262.21" style="fill:#BA68C8"></polygon><polygon points="213.82 394.72 214.4 395.79 215.47 396.37 214.4 396.96 213.82 398.02 213.24 396.96 212.17 396.37 213.24 395.79 213.82 394.72" style="fill:#BA68C8"></polygon></g></svg>