<svg xmlns="http://www.w3.org/2000/svg" xmlns:xlink="http://www.w3.org/1999/xlink" viewBox="0 0 500 500"><defs><clipPath id="freepik--clip-path--inject-2"><path d="M352.14,208.12l-15.31,2.78-21.28,3.87-27.87,5.07a4.13,4.13,0,0,1-4.81-3.33l-6.12-33.65a4.15,4.15,0,0,1,3.33-4.81l16.21-3,23.58-4.28,24.67-4.49a4.13,4.13,0,0,1,4.81,3.33l6.12,33.65A4.13,4.13,0,0,1,352.14,208.12Z" style="fill:#BA68C8;stroke:#263238;stroke-linecap:round;stroke-linejoin:round"></path></clipPath></defs><g id="freepik--background-simple--inject-2"><path d="M67.93,167.09s-27.88,72,11.3,144.5S199.11,422.39,263.7,455.14s131.66,16.8,163.53-36.84-11.84-91.93-11.9-168.42,11.45-96.74-30-161.36-143.06-78.93-219.9-31S67.93,167.09,67.93,167.09Z" style="fill:#fff;opacity:0.7000000000000001"></path><path d="M235.12,35.72c124-11,124.25,58.93,180.14,124.13S483.1,254.6,462,329.76,370,463.83,282.14,430.45s-138.14-1.33-193.53-31-76-86.91-35.42-154.41S82.18,49.34,235.12,35.72Z" style="fill:#BA68C8"></path><path d="M235.12,35.72c124-11,124.25,58.93,180.14,124.13S483.1,254.6,462,329.76,370,463.83,282.14,430.45s-138.14-1.33-193.53-31-76-86.91-35.42-154.41S82.18,49.34,235.12,35.72Z" style="fill:#fff;opacity:0.7000000000000001"></path></g><g id="freepik--Document--inject-2"><rect x="137.25" y="75.67" width="196.11" height="272.62" transform="translate(-21.99 27.31) rotate(-6.35)" style="fill:#fff;stroke:#263238;stroke-linecap:round;stroke-linejoin:round"></rect><rect x="124.27" y="76.39" width="196.11" height="37.72" transform="translate(-9.17 25.16) rotate(-6.35)" style="fill:#bfbfbf;stroke:#263238;stroke-linecap:round;stroke-linejoin:round"></rect><path d="M263.54,82.92,179.4,92.28A2.88,2.88,0,1,0,180,98l84.14-9.36a2.88,2.88,0,0,0-.64-5.72Z" style="fill:#fff"></path><path d="M243.81,97l-42.06,4.68a1.42,1.42,0,0,0-1.27,1.58,1.44,1.44,0,0,0,1.58,1.28l42.07-4.68a1.44,1.44,0,0,0-.32-2.86Z" style="fill:#fff"></path><path d="M275.25,129.42,165,141.68a1.07,1.07,0,0,0,.24,2.13l110.22-12.26a1.07,1.07,0,0,0-.24-2.13Z" style="opacity:0.30000000000000004"></path><path d="M276.1,137.07l-126.76,14.1a1.07,1.07,0,1,0,.24,2.13l126.76-14.1a1.07,1.07,0,0,0,1-1.18A1.08,1.08,0,0,0,276.1,137.07Z" style="opacity:0.30000000000000004"></path><path d="M243.87,148.4l-93.68,10.42a1.07,1.07,0,1,0,.24,2.13l93.67-10.42a1.07,1.07,0,0,0,1-1.18A1.08,1.08,0,0,0,243.87,148.4Z" style="opacity:0.30000000000000004"></path><rect x="290.17" y="125.94" width="16.73" height="16.73" rx="2.74" transform="translate(-13.02 33.83) rotate(-6.35)" style="fill:none;stroke:#263238;stroke-linecap:round;stroke-linejoin:round;opacity:0.30000000000000004"></rect><polyline points="294.01 133.95 297.69 137.42 302.53 130.01" style="fill:none;stroke:#BA68C8;stroke-linecap:round;stroke-linejoin:round;stroke-width:3px"></polyline><path d="M279.28,165.66,169.06,177.92a1.07,1.07,0,0,0,.24,2.13l110.22-12.26a1.07,1.07,0,1,0-.24-2.13Z" style="opacity:0.30000000000000004"></path><path d="M280.13,173.31l-126.76,14.1a1.07,1.07,0,1,0,.24,2.13l126.76-14.1a1.07,1.07,0,1,0-.24-2.13Z" style="opacity:0.30000000000000004"></path><path d="M247.9,184.64l-93.68,10.42a1.07,1.07,0,0,0,.24,2.13l93.67-10.42a1.07,1.07,0,0,0,1-1.18A1.08,1.08,0,0,0,247.9,184.64Z" style="opacity:0.30000000000000004"></path><rect x="294.2" y="162.18" width="16.73" height="16.73" rx="2.74" transform="translate(-17 34.49) rotate(-6.35)" style="fill:none;stroke:#263238;stroke-linecap:round;stroke-linejoin:round;opacity:0.30000000000000004"></rect><polyline points="298.05 170.19 301.72 173.66 306.56 166.25" style="fill:none;stroke:#BA68C8;stroke-linecap:round;stroke-linejoin:round;stroke-width:3px"></polyline><path d="M283.31,201.9,173.09,214.16a1.07,1.07,0,0,0,.24,2.12L283.55,204a1.07,1.07,0,1,0-.24-2.13Z" style="opacity:0.30000000000000004"></path><path d="M284.17,209.55,157.4,223.65a1.05,1.05,0,0,0-.94,1.18,1.07,1.07,0,0,0,1.18.95l126.76-14.1a1.08,1.08,0,0,0,1-1.19A1.07,1.07,0,0,0,284.17,209.55Z" style="opacity:0.30000000000000004"></path><path d="M251.93,220.88,158.25,231.3a1.07,1.07,0,0,0,.24,2.13L252.16,223a1.07,1.07,0,0,0-.23-2.13Z" style="opacity:0.30000000000000004"></path><rect x="298.23" y="198.41" width="16.73" height="16.73" rx="2.74" transform="translate(-20.98 35.16) rotate(-6.35)" style="fill:none;stroke:#263238;stroke-linecap:round;stroke-linejoin:round;opacity:0.30000000000000004"></rect><polyline points="302.08 206.43 305.75 209.9 310.6 202.48" style="fill:none;stroke:#BA68C8;stroke-linecap:round;stroke-linejoin:round;stroke-width:3px"></polyline><path d="M287.34,238.14,177.12,250.4a1.07,1.07,0,0,0,.24,2.12l110.22-12.26a1.07,1.07,0,1,0-.24-2.12Z" style="opacity:0.30000000000000004"></path><path d="M288.2,245.79l-126.77,14.1a1.05,1.05,0,0,0-.94,1.18,1.07,1.07,0,0,0,1.18.95l126.76-14.1a1.08,1.08,0,0,0,.95-1.19A1.07,1.07,0,0,0,288.2,245.79Z" style="opacity:0.30000000000000004"></path><path d="M256,257.12l-93.68,10.42a1.05,1.05,0,0,0-.94,1.18,1.07,1.07,0,0,0,1.18.95l93.67-10.42a1.07,1.07,0,0,0,.95-1.18A1.06,1.06,0,0,0,256,257.12Z" style="opacity:0.30000000000000004"></path><rect x="302.26" y="234.65" width="16.73" height="16.73" rx="2.74" transform="translate(-24.96 35.83) rotate(-6.35)" style="fill:none;stroke:#263238;stroke-linecap:round;stroke-linejoin:round;opacity:0.30000000000000004"></rect><polyline points="306.11 242.66 309.78 246.13 314.63 238.72" style="fill:none;stroke:#BA68C8;stroke-linecap:round;stroke-linejoin:round;stroke-width:3px"></polyline><path d="M291.38,274.37,181.16,286.63a1.07,1.07,0,1,0,.23,2.13L291.61,276.5a1.07,1.07,0,0,0,.95-1.18A1.08,1.08,0,0,0,291.38,274.37Z" style="opacity:0.30000000000000004"></path><path d="M292.23,282l-126.77,14.1a1.07,1.07,0,1,0,.24,2.12l126.76-14.1a1.07,1.07,0,1,0-.23-2.12Z" style="opacity:0.30000000000000004"></path><path d="M260,293.36l-93.68,10.42a1.07,1.07,0,0,0,.24,2.13l93.68-10.42a1.08,1.08,0,0,0,.94-1.19A1.06,1.06,0,0,0,260,293.36Z" style="opacity:0.30000000000000004"></path><rect x="306.29" y="270.89" width="16.73" height="16.73" rx="2.74" transform="translate(-28.94 36.5) rotate(-6.35)" style="fill:none;stroke:#263238;stroke-linecap:round;stroke-linejoin:round;opacity:0.30000000000000004"></rect><polyline points="310.14 278.9 313.81 282.37 318.66 274.96" style="fill:none;stroke:#BA68C8;stroke-linecap:round;stroke-linejoin:round;stroke-width:3px"></polyline><path d="M294.45,302,184.23,314.28a1.07,1.07,0,0,0,.24,2.13l110.22-12.26a1.05,1.05,0,0,0,.94-1.18A1.07,1.07,0,0,0,294.45,302Z" style="opacity:0.30000000000000004"></path><path d="M295.3,309.68l-126.76,14.1a1.07,1.07,0,1,0,.23,2.12l126.77-14.1a1.07,1.07,0,0,0-.24-2.12Z" style="opacity:0.30000000000000004"></path><path d="M263.06,321l-93.67,10.42a1.07,1.07,0,0,0-.95,1.18,1.08,1.08,0,0,0,1.19.95l93.67-10.42a1.07,1.07,0,1,0-.24-2.13Z" style="opacity:0.30000000000000004"></path><rect x="309.37" y="298.54" width="16.73" height="16.73" rx="2.74" transform="translate(-31.98 37) rotate(-6.35)" style="fill:none;stroke:#263238;stroke-linecap:round;stroke-linejoin:round;opacity:0.30000000000000004"></rect><polyline points="313.21 306.55 316.88 310.02 321.73 302.61" style="fill:none;stroke:#BA68C8;stroke-linecap:round;stroke-linejoin:round;stroke-width:3px"></polyline></g><g id="freepik--Stamp--inject-2"><path d="M225.72,203.23c-.66-1.17-1.32-1.29-2.14-.83l-1.22.69,3.15,5.55,1.22-.69c.82-.46,1.05-1.09.39-2.26Z" style="fill:none"></path><path d="M202.81,231.27A5.25,5.25,0,0,0,202,228l-1.23-2.18-2.44,1.38,1.33,2.34c.66,1.17.39,1.89-.43,2.35s-1.58.34-2.24-.83L194.14,226l-3.06.6,3.26,5.75c1.49,2.63,3.65,3.38,6.18,2a5.74,5.74,0,0,0,1.11-.83,1.57,1.57,0,0,1,.53-1.9A2.26,2.26,0,0,1,202.81,231.27Z" style="fill:#BA68C8"></path><path d="M189.51,223.83l.58,1,3.37,0-1.47-2.6c-.66-1.17-.4-1.91.42-2.37s1.59-.32,2.25.86l1,1.75,2.43-1.38-.9-1.59c-1.49-2.62-3.65-3.38-6.18-1.94a5.2,5.2,0,0,0-1.52,1.24,5.27,5.27,0,0,0,1.78.25l-2.4.9A4.76,4.76,0,0,0,189.51,223.83Z" style="fill:#BA68C8"></path><path d="M208.2,213.17a5.86,5.86,0,0,1,1-.39c1.29-.58,1.58-2.44,1.47-3.75l-1.33-1.65-3.58,2,2.24,3.94A.81.81,0,0,1,208.2,213.17Z" style="fill:#BA68C8"></path><path d="M223.45,221l2.43-1.38-9.29-16.38-2.31,1.3c.74.18,1.27.53,1.29,1.07-.72.1-1.6,0-2.38.14l4.68,12.13,0,0-5.92-7.38a1,1,0,0,1-.36.87c-.27.19-.66.19-.87.44s-.18.55-.36.77-.46.28-.68.44-.46.57-.71.84a1,1,0,0,1-.44.27l6.58,11.6,2.24-1.28-6.57-11.58,0,0,8.44,10.52,2.44-1.38-4.93-12.73,0,0Z" style="fill:#BA68C8"></path><path d="M229.6,206.74a1.48,1.48,0,0,1,.75.88,4.93,4.93,0,0,0-.75-3.55l-1.21-2.14c-1.49-2.62-3.56-3.33-6.14-1.87l-3.79,2.15,9.3,16.39,2.41-1.37c-.78-.49-1.65-.91-2.39-1.44a2.44,2.44,0,0,1-.83-.89,1.06,1.06,0,0,1,.12-1.15,1.17,1.17,0,0,1,1.24-.17l-1.47-2.6,1.22-.69a5.26,5.26,0,0,0,1.71-1.48C229.26,208,228.37,206.28,229.6,206.74ZM226.73,208l-1.22.69-3.15-5.55,1.22-.69c.82-.46,1.48-.34,2.14.83l1.4,2.46C227.78,206.86,227.55,207.49,226.73,208Z" style="fill:#BA68C8"></path><path d="M243.39,209.73l-1.32-2.34-4.24,2.4-6.2-10.93-.28.22a1.49,1.49,0,0,1-.64.35.51.51,0,0,1-.59-.32,1.08,1.08,0,0,1,0-.47,4.39,4.39,0,0,0-.84-2.59l-2,1.16,9.29,16.38Z" style="fill:#BA68C8"></path><path d="M242.23,204c.28-.73,1.15-1,1.64-1.66a2.25,2.25,0,0,0,.12-.21l-1-1.68,2.53-1.43a1.1,1.1,0,0,0-.24-.43,4,4,0,0,0-1.15-.36.87.87,0,0,1,.67-1.25c.17,0,.37,0,.5-.08a.56.56,0,0,0,.13-.39l-.23-.4-3.54,2-2.58-4.56,4.44-2.53-1.33-2.34-7,4,6.88,12.13A2.73,2.73,0,0,1,242.23,204Z" style="fill:#BA68C8"></path><path d="M251.54,205.11l-1.33-2.34-4.45,2.52L244.43,203l-1.64,1.54-.57.55,2.3,4.05Z" style="fill:#BA68C8"></path><path d="M248.23,186.08c0,.35-.25.74-.59.77a1.81,1.81,0,0,1-.51-.08,4,4,0,0,1-.92-.09.67.67,0,0,1-.18-.11l-2.94,1.67,1.33,2.35,2.69-1.53,8,14,2.57-1.46-8-14,2.7-1.53-1.33-2.34-2.76,1.56C248.24,185.55,248.26,185.82,248.23,186.08Z" style="fill:#BA68C8"></path><path d="M259.46,196l2,3.53,2.7-1.53a3,3,0,0,1,.24-.51,6.37,6.37,0,0,1,2.33-2.06l1.24-.77-.82-1.46-4.45,2.53-2.72-4.8,3.54-2-1.33-2.34-3.54,2L256.07,184l4.45-2.52-1.33-2.34-7,4,5.05,8.91C258.46,191.4,259.07,193.74,259.46,196Z" style="fill:#BA68C8"></path><path d="M207.67,228.36c.42.07.67.49,1,.77a1.36,1.36,0,0,0,.41.26,5.53,5.53,0,0,0,.56-.26c2.52-1.43,3.05-3.71,1.57-6.34l-.15-.26-3.46-.09,1.13,2c.66,1.17.4,1.91-.42,2.37s-1.59.31-2.25-.86l-5-8.85c-.67-1.17-.4-1.9.42-2.37s1.58-.31,2.25.86l3.39,6a13.65,13.65,0,0,1,3.18-.4l-3.91-6.89c-1.48-2.62-3.71-3.33-6.24-1.9s-3.06,3.72-1.57,6.34l4.83,8.52a4.59,4.59,0,0,0,3.28,2.57,1,1,0,0,1,0-.18C206.57,229,207.05,228.24,207.67,228.36Z" style="fill:#BA68C8"></path><path d="M242.2,181.33l7.85-4.45c-2.25.62-4.23,2.5-6.55,2.24a2.52,2.52,0,0,0-1.28,0,1.24,1.24,0,0,0-.42,1.63A2.2,2.2,0,0,0,242.2,181.33Z" style="fill:#BA68C8"></path><path d="M222.51,192.5a.87.87,0,0,1,.1-.5,1.8,1.8,0,0,0,.6.1l2.71-1.53a7.49,7.49,0,0,1,1.44-1.26,7.59,7.59,0,0,1,1.62-.64l.6-.18,5-2.82a.93.93,0,0,1,.21-.27,1,1,0,0,1,.25-.12l-5.16-1.56-1.39.78-.15,1.1-5.95,3.18a5.28,5.28,0,0,1-1.93.73,3.31,3.31,0,0,1-.77,0l-8.48,4.81a5.24,5.24,0,0,0,.34,1.17,3.69,3.69,0,0,1-1.39-.57l-1.74,1c1.24.82,2.46,1.66,3.65,2.55Z" style="fill:#BA68C8"></path><path d="M258.81,171.92l-4.1-2.3-1.94,1.1A8,8,0,0,0,257,173Z" style="fill:#BA68C8"></path><path d="M280.86,196.13l-15.48-27.29a4.6,4.6,0,0,0-6.25-1.73l-1.86,1.06.71.69c.74.74,1.5,1.49,2.19,2.28l.94-.53a.57.57,0,0,1,.77.21l15.49,27.3a.57.57,0,0,1-.22.77l-21.07,12c1.82.11,3.66-.15,5.48.06a19,19,0,0,1,1.95.35l15.62-8.86A4.6,4.6,0,0,0,280.86,196.13Z" style="fill:#BA68C8"></path><path d="M186,230.86,178.72,218a.57.57,0,0,1,.21-.78l21-11.92c-.07-.16-.16-.32-.22-.48a2.87,2.87,0,0,1,.88.1l8.49-4.81c-.28-.09-.55-.2-.82-.3l-4-1.59-3.2,1.82,3.48,2.13c-1.21-.74-3.68-.84-5.81-.81L177,213.73a4.59,4.59,0,0,0-1.73,6.25l6.32,11.14c.29-.08.59-.15.88-.2a13,13,0,0,1,2.42-.12A9.08,9.08,0,0,1,186,230.86Z" style="fill:#BA68C8"></path><path d="M211.94,235.88a4.47,4.47,0,0,0,1.2.77c.45.2,1.05.68.7,1-1.62.74-3.62.19-5.21,1-.87.42-1.71,1.25-2.64,1a12.71,12.71,0,0,1,3,2.53l39.71-22.52c0-.16.05-.32.08-.49a2.07,2.07,0,0,1,2.58-2,5.21,5.21,0,0,1,1.53.16l4.95-2.81a18.63,18.63,0,0,0-2.4-3.26Z" style="fill:#BA68C8"></path><path d="M205.51,242.49a7.22,7.22,0,0,1-2.59-1.49L195,245.5a.56.56,0,0,1-.77-.21l-7-12.27a4.85,4.85,0,0,0-2.09-.24c-.81.16-1.52,1.1-1.08,1.79a2.33,2.33,0,0,1,2,1.24,6.38,6.38,0,0,1-1.41.85l6,10.61A4.6,4.6,0,0,0,197,249l10.38-5.89-.12-.07A17,17,0,0,0,205.51,242.49Z" style="fill:#BA68C8"></path><g style="opacity:0.2"><path d="M202.81,231.27A5.25,5.25,0,0,0,202,228l-1.23-2.18-2.44,1.38,1.33,2.34c.66,1.17.39,1.89-.43,2.35s-1.58.34-2.24-.83L194.14,226l-3.06.6,3.26,5.75c1.49,2.63,3.65,3.38,6.18,2a5.74,5.74,0,0,0,1.11-.83,1.57,1.57,0,0,1,.53-1.9A2.26,2.26,0,0,1,202.81,231.27Z"></path><path d="M189.51,223.83l.58,1,3.37,0-1.47-2.6c-.66-1.17-.4-1.91.42-2.37s1.59-.32,2.25.86l1,1.75,2.43-1.38-.9-1.59c-1.49-2.62-3.65-3.38-6.18-1.94a5.2,5.2,0,0,0-1.52,1.24,5.27,5.27,0,0,0,1.78.25l-2.4.9A4.76,4.76,0,0,0,189.51,223.83Z"></path><path d="M208.2,213.17a5.86,5.86,0,0,1,1-.39c1.29-.58,1.58-2.44,1.47-3.75l-1.33-1.65-3.58,2,2.24,3.94A.81.81,0,0,1,208.2,213.17Z"></path><path d="M223.45,221l2.43-1.38-9.29-16.38-2.31,1.3c.74.18,1.27.53,1.29,1.07-.72.1-1.6,0-2.38.14l4.68,12.13,0,0-5.92-7.38a1,1,0,0,1-.36.87c-.27.19-.66.19-.87.44s-.18.55-.36.77-.46.28-.68.44-.46.57-.71.84a1,1,0,0,1-.44.27l6.58,11.6,2.24-1.28-6.57-11.58,0,0,8.44,10.52,2.44-1.38-4.93-12.73,0,0Z"></path><path d="M229.6,206.74a1.48,1.48,0,0,1,.75.88,4.93,4.93,0,0,0-.75-3.55l-1.21-2.14c-1.49-2.62-3.56-3.33-6.14-1.87l-3.79,2.15,9.3,16.39,2.41-1.37c-.78-.49-1.65-.91-2.39-1.44a2.44,2.44,0,0,1-.83-.89,1.06,1.06,0,0,1,.12-1.15,1.17,1.17,0,0,1,1.24-.17l-1.47-2.6,1.22-.69a5.26,5.26,0,0,0,1.71-1.48C229.26,208,228.37,206.28,229.6,206.74ZM226.73,208l-1.22.69-3.15-5.55,1.22-.69c.82-.46,1.48-.34,2.14.83l1.4,2.46C227.78,206.86,227.55,207.49,226.73,208Z"></path><path d="M243.39,209.73l-1.32-2.34-4.24,2.4-6.2-10.93-.28.22a1.49,1.49,0,0,1-.64.35.51.51,0,0,1-.59-.32,1.08,1.08,0,0,1,0-.47,4.39,4.39,0,0,0-.84-2.59l-2,1.16,9.29,16.38Z"></path><path d="M242.23,204c.28-.73,1.15-1,1.64-1.66a2.25,2.25,0,0,0,.12-.21l-1-1.68,2.53-1.43a1.1,1.1,0,0,0-.24-.43,4,4,0,0,0-1.15-.36.87.87,0,0,1,.67-1.25c.17,0,.37,0,.5-.08a.56.56,0,0,0,.13-.39l-.23-.4-3.54,2-2.58-4.56,4.44-2.53-1.33-2.34-7,4,6.88,12.13A2.73,2.73,0,0,1,242.23,204Z"></path><path d="M251.54,205.11l-1.33-2.34-4.45,2.52L244.43,203l-1.64,1.54-.57.55,2.3,4.05Z"></path><path d="M248.23,186.08c0,.35-.25.74-.59.77a1.81,1.81,0,0,1-.51-.08,4,4,0,0,1-.92-.09.67.67,0,0,1-.18-.11l-2.94,1.67,1.33,2.35,2.69-1.53,8,14,2.57-1.46-8-14,2.7-1.53-1.33-2.34-2.76,1.56C248.24,185.55,248.26,185.82,248.23,186.08Z"></path><path d="M259.46,196l2,3.53,2.7-1.53a3,3,0,0,1,.24-.51,6.37,6.37,0,0,1,2.33-2.06l1.24-.77-.82-1.46-4.45,2.53-2.72-4.8,3.54-2-1.33-2.34-3.54,2L256.07,184l4.45-2.52-1.33-2.34-7,4,5.05,8.91C258.46,191.4,259.07,193.74,259.46,196Z"></path><path d="M207.67,228.36c.42.07.67.49,1,.77a1.36,1.36,0,0,0,.41.26,5.53,5.53,0,0,0,.56-.26c2.52-1.43,3.05-3.71,1.57-6.34l-.15-.26-3.46-.09,1.13,2c.66,1.17.4,1.91-.42,2.37s-1.59.31-2.25-.86l-5-8.85c-.67-1.17-.4-1.9.42-2.37s1.58-.31,2.25.86l3.39,6a13.65,13.65,0,0,1,3.18-.4l-3.91-6.89c-1.48-2.62-3.71-3.33-6.24-1.9s-3.06,3.72-1.57,6.34l4.83,8.52a4.59,4.59,0,0,0,3.28,2.57,1,1,0,0,1,0-.18C206.57,229,207.05,228.24,207.67,228.36Z"></path><path d="M242.2,181.33l7.85-4.45c-2.25.62-4.23,2.5-6.55,2.24a2.52,2.52,0,0,0-1.28,0,1.24,1.24,0,0,0-.42,1.63A2.2,2.2,0,0,0,242.2,181.33Z"></path><path d="M222.51,192.5a.87.87,0,0,1,.1-.5,1.8,1.8,0,0,0,.6.1l2.71-1.53a7.49,7.49,0,0,1,1.44-1.26,7.59,7.59,0,0,1,1.62-.64l.6-.18,5-2.82a.93.93,0,0,1,.21-.27,1,1,0,0,1,.25-.12l-5.16-1.56-1.39.78-.15,1.1-5.95,3.18a5.28,5.28,0,0,1-1.93.73,3.31,3.31,0,0,1-.77,0l-8.48,4.81a5.24,5.24,0,0,0,.34,1.17,3.69,3.69,0,0,1-1.39-.57l-1.74,1c1.24.82,2.46,1.66,3.65,2.55Z"></path><path d="M258.81,171.92l-4.1-2.3-1.94,1.1A8,8,0,0,0,257,173Z"></path><path d="M280.86,196.13l-15.48-27.29a4.6,4.6,0,0,0-6.25-1.73l-1.86,1.06.71.69c.74.74,1.5,1.49,2.19,2.28l.94-.53a.57.57,0,0,1,.77.21l15.49,27.3a.57.57,0,0,1-.22.77l-21.07,12c1.82.11,3.66-.15,5.48.06a19,19,0,0,1,1.95.35l15.62-8.86A4.6,4.6,0,0,0,280.86,196.13Z"></path><path d="M186,230.86,178.72,218a.57.57,0,0,1,.21-.78l21-11.92c-.07-.16-.16-.32-.22-.48a2.87,2.87,0,0,1,.88.1l8.49-4.81c-.28-.09-.55-.2-.82-.3l-4-1.59-3.2,1.82,3.48,2.13c-1.21-.74-3.68-.84-5.81-.81L177,213.73a4.59,4.59,0,0,0-1.73,6.25l6.32,11.14c.29-.08.59-.15.88-.2a13,13,0,0,1,2.42-.12A9.08,9.08,0,0,1,186,230.86Z"></path><path d="M211.94,235.88a4.47,4.47,0,0,0,1.2.77c.45.2,1.05.68.7,1-1.62.74-3.62.19-5.21,1-.87.42-1.71,1.25-2.64,1a12.71,12.71,0,0,1,3,2.53l39.71-22.52c0-.16.05-.32.08-.49a2.07,2.07,0,0,1,2.58-2,5.21,5.21,0,0,1,1.53.16l4.95-2.81a18.63,18.63,0,0,0-2.4-3.26Z"></path><path d="M205.51,242.49a7.22,7.22,0,0,1-2.59-1.49L195,245.5a.56.56,0,0,1-.77-.21l-7-12.27a4.85,4.85,0,0,0-2.09-.24c-.81.16-1.52,1.1-1.08,1.79a2.33,2.33,0,0,1,2,1.24,6.38,6.38,0,0,1-1.41.85l6,10.61A4.6,4.6,0,0,0,197,249l10.38-5.89-.12-.07A17,17,0,0,0,205.51,242.49Z"></path></g></g><g id="freepik--left-hand--inject-2"><path d="M160.48,206.78c6.1,4.48,11.2,26,11.66,45.73s10,53,11.14,58.45.72,13.31,7.8,2.37,27.79-29.93,36.42-23.62-5.9,27.52-13.77,38.94-8.67,31.53-18.1,44.12-17.95,31.6-27.19,31.31S98,449.19,98,449.19l1.2-62.14,55-90Z" style="fill-opacity:0.7000000000000001;opacity:0.30000000000000004"></path><path d="M232.52,292.76c-.31,1.95-11.08,16.22-17.41,26.9s-12.26,29.27-13.85,32-21,19.78-26.32,26.91-14.82,10.28-24.31,17c-6.1,4.32-25.11,26.61-37.92,42-7.12,8.55-12.33,15-12.33,15L18.49,431.22s6.78-5.59,15.7-13.13l.06,0,.09-.07C49,405.57,69.43,388,75.07,381.37,84.16,370.69,96.82,358,96.82,358c-.77-14.83.8-28.88-.59-34.22-.72-2.79-2-18.66-3-23.54-2.43-12.47-13-25.39-14.19-30.48S63.9,243,70.71,239a6.27,6.27,0,0,1,4.16-.91c9.2,1.27,16.78,23.49,22,29.15a67.66,67.66,0,0,1,6.06,8.52c4.12,6.53,8.16,13.87,8.16,13.87,1.58-6.33-9.89-28.88-13.06-50.24s-12.26-32.83,0-34.15a7.65,7.65,0,0,1,3,.26c8.63,2.52,12.37,20.45,17.53,37.85.48,1.6,4.41,13.09,7.47,21.95v0c2,5.8,3.6,10.47,3.6,10.47.39-10.88-3-21-3.56-30.86-.24-3.95,1-19.78-.56-35.6-1.34-13.35-.73-18.76,4.49-19.81a13,13,0,0,1,3.39-.16c9.05.57,12.26,24.62,12.26,34,0,5.45.93,16.09,1.71,24.07.57,5.77,1.06,10.15,1.06,10.15s1.58-13.25.4-41.83c-.27-6.26.14-10.74,2.6-12.55,1.35-1,3.3-1.17,6.1-.41,7.91,2.14,10.48,31.45,10.48,42.53s6.33,30.06,7.52,45,6.37,33.3,6.37,33.3,2.93,1.19,4.9.8,15.63-20.57,15.63-20.57c6.36-13.81,18.74-18,25.48-16.45C231,288.09,233,290,232.52,292.76Z" style="fill:#fff"></path><path d="M232.52,292.76c-.31,1.95-11.08,16.22-17.41,26.9s-12.26,29.27-13.85,32-21,19.78-26.32,26.91-14.82,10.28-24.31,17c-6.1,4.32-25.11,26.61-37.92,42,1.41-5.58,4.57-12.71,12.83-19.56,14.34-11.91,15.2-21.25,22.91-29.16s21.29-5.54,26.17-15,21.9-18.2,25.46-26.51-3.56-10.07,2.77-20.07,12.47-12.43,11.57-16.35-3.56-9.86,1.93-14.81c3.43-3.08,7.46-6.95,11.58-8.73C231,288.09,233,290,232.52,292.76Z" style="fill:#BA68C8;opacity:0.4"></path><path d="M129.92,339.7c-2.63-1.32-.52-3.95-2.37-6.14s-6.07,11.95-7,12-3.76-7.19-4.88-7.91-1.78,2.31-3.37,7.91S104.87,354,101.48,358,77.7,383.75,72.69,391.92,36.74,416.26,34.34,418C49,405.57,69.43,388,75.07,381.37,84.16,370.69,96.82,358,96.82,358c-.77-14.83.8-28.88-.59-34.22-.72-2.79-2-18.66-3-23.54-2.43-12.47-13-25.39-14.19-30.48S63.9,243,70.71,239a6.27,6.27,0,0,1,4.16-.91c-1.55,1.1-3.06,2.68-1.65,5,2.51,4.06,5.27,8.33,5.27,12.82s7.65,10.81,10.62,15,.2,2.71,2.18,8.45,4.35,4.54,5.53,10.34,7.78,9.5,6.73,16.73,3.16,17.29,3.16,17.29,3.43-9.75,2.18-15,.2-11.87-1-13.65c-1-1.6-3.74-12.46-5-19.21,4.12,6.53,8.16,13.87,8.16,13.87,1.58-6.33-9.89-28.88-13.06-50.24s-12.26-32.83,0-34.15a7.65,7.65,0,0,1,3,.26c5.23,9.77,1.59,17,.43,21.24-1.27,4.62,6.29,16.48,7.41,24.65,1,7.63,3.06,6.84,3.33,6.7-.23.21-2.18,2.2-1,7.86,1.23,6,10,20.25,10,24.23s-.72,10.53-.72,12.47,7,14.92,7.84,18.32-.33-6.55,1.58-10,2.92-15.49,3.17-14.84C136.32,304.59,132.56,341,129.92,339.7Z" style="fill:#BA68C8;opacity:0.4"></path><path d="M135.59,250.34c-2.24,3.39-2.18,29.85-6,29.94-1.85,0-2.75-6.65-3.5-15,2,5.8,3.6,10.47,3.6,10.47.39-10.88-3-21-3.56-30.86-.24-3.95,1-19.78-.56-35.6-1.34-13.35-.73-18.76,4.49-19.81,1.1,3.56,3.8,7.76,4.49,11.66.94,5.38-.9,9.83-2.48,10.5s-1.85,4.14.13,4.65,0,25.76.92,29S137.84,247,135.59,250.34Z" style="fill:#BA68C8;opacity:0.4"></path><path d="M156.14,220.72c-4.11,1.81-4.33,5.05-5.56,9.7s1.76,11.44,0,22.11,4.66,17.55,0,29.49-2.47-10-3.25-20a123.49,123.49,0,0,1,.06-14.62c.57,5.77,1.06,10.15,1.06,10.15s1.58-13.25.4-41.83c-.27-6.26.14-10.74,2.6-12.55C155.67,207,159.64,219.18,156.14,220.72Z" style="fill:#BA68C8;opacity:0.4"></path><path d="M100.38,452.58s40.75-50.24,50.25-57,19-9.89,24.31-17,24.74-24.14,26.32-26.91,7.52-21.36,13.85-32,17.1-25,17.41-26.9c1.38-8.71-20.77-9.1-30.07,11.08,0,0-13.65,20.17-15.63,20.57s-4.9-.8-4.9-.8-5.18-18.35-6.37-33.3-7.52-33.95-7.52-45-2.57-40.39-10.48-42.53-9.11,3.28-8.7,13c1.18,28.58-.4,41.83-.4,41.83s-2.77-24.83-2.77-34.22-3.21-33.44-12.26-34c-8.31-.53-9.47,4.14-7.88,20s.32,31.65.56,35.6c.59,9.89,4,20,3.56,30.86,0,0-10.29-29.79-11.08-32.44C112.85,224,108.88,204,98,205.2c-12.26,1.32-3.16,12.79,0,34.15s14.64,43.91,13.06,50.24c0,0-9.49-17.23-14.22-22.39-6-6.49-15.06-34.77-26.14-28.24-6.81,4,7.18,25.74,8.36,30.83s11.76,18,14.19,30.48c1,4.88,2.25,20.75,3,23.54,1.39,5.34-.18,19.39.59,34.22,0,0-12.66,12.66-21.75,23.34s-56.58,49.85-56.58,49.85" style="fill:none;stroke:#263238;stroke-linecap:round;stroke-linejoin:round"></path><path d="M181.92,323.61a18.71,18.71,0,0,1,0,14.05" style="fill:none;stroke:#263238;stroke-linecap:round;stroke-linejoin:round"></path><path d="M185.25,324.45a6.65,6.65,0,0,1,2.37,7.47" style="fill:none;stroke:#263238;stroke-linecap:round;stroke-linejoin:round"></path><path d="M148.45,257.55s3.17,22.35,1.78,26.5" style="fill:none;stroke:#263238;stroke-linecap:round;stroke-linejoin:round"></path><path d="M129.66,275.75a21,21,0,0,1,0,6.52" style="fill:none;stroke:#263238;stroke-linecap:round;stroke-linejoin:round"></path><path d="M111.07,289.59s.59,3.37,0,4.16" style="fill:none;stroke:#263238;stroke-linecap:round;stroke-linejoin:round"></path><path d="M211.35,308.58s3.58,1.94,4.75,4.75" style="fill:none;stroke:#263238;stroke-linecap:round;stroke-linejoin:round"></path><path d="M129.79,215.72a7.11,7.11,0,0,0,6.59-1.79" style="fill:none;stroke:#263238;stroke-linecap:round;stroke-linejoin:round"></path><path d="M131,247.86s7.12,2.37,9.7,0" style="fill:none;stroke:#263238;stroke-linecap:round;stroke-linejoin:round"></path><path d="M154.19,254.78s4.74-1.78,7.91-.79" style="fill:none;stroke:#263238;stroke-linecap:round;stroke-linejoin:round"></path><path d="M108.89,261.11s3.76-4.95,6.73-3.56" style="fill:none;stroke:#263238;stroke-linecap:round;stroke-linejoin:round"></path><path d="M93.46,275.75s-3.36,1.58-4.35,3.26" style="fill:none;stroke:#263238;stroke-linecap:round;stroke-linejoin:round"></path><path d="M96.82,358a18.69,18.69,0,0,0,2.18-3c.59-1.19-.2-13.85,0-22" style="fill:none;stroke:#263238;stroke-linecap:round;stroke-linejoin:round"></path><path d="M138.32,407.84c-4.66,5.22-18.95,14.68-24.68,20.41" style="fill:none;stroke:#263238;stroke-linecap:round;stroke-linejoin:round"></path><path d="M157.15,289.59c-2.37,6.73.2,15.23,0,19s-1,21-1,21" style="fill:none;stroke:#263238;stroke-linecap:round;stroke-linejoin:round"></path><path d="M135.59,289.59c-3.16,5.34-2.17,12.46-1.18,16s.11,18,.11,18" style="fill:none;stroke:#263238;stroke-linecap:round;stroke-linejoin:round"></path><path d="M101.57,306.6a19.23,19.23,0,0,0,2,10.09" style="fill:none;stroke:#263238;stroke-linecap:round;stroke-linejoin:round"></path><path d="M121.15,296.12c-1.78,6.53.6,9.49.8,10.48" style="fill:none;stroke:#263238;stroke-linecap:round;stroke-linejoin:round"></path></g><g id="freepik--right-hand--inject-2"><path d="M281.82,253l-3.37-19.56a6.54,6.54,0,0,1,5.61-7.59l7.55-1s-2.52-5.11,5.59-20,47.1-54.44,76.66,12,56.57,201.83,56.57,201.83S350.64,325.76,348.1,321s-26.83-1.91-32.44-14.68-17.39-49.21-17.39-49.21l-9.12,1.25A6.55,6.55,0,0,1,281.82,253Z" style="fill-opacity:0.7000000000000001;opacity:0.30000000000000004"></path><path d="M352.14,208.12l-15.31,2.78-21.28,3.87-27.87,5.07a4.13,4.13,0,0,1-4.81-3.33l-6.12-33.65a4.15,4.15,0,0,1,3.33-4.81l16.21-3,23.58-4.28,24.67-4.49a4.13,4.13,0,0,1,4.81,3.33l6.12,33.65A4.13,4.13,0,0,1,352.14,208.12Z" style="fill:#BA68C8"></path><g style="clip-path:url(#freepik--clip-path--inject-2)"><path d="M341.31,185.78l-4.48,25.12-21.28,3.87c-6.16-2.71-16.32-7.43-18.35-10-2.42-3-2.08-20.68-.91-29.72l23.58-4.28C328.18,176.5,341.31,185.78,341.31,185.78Z" style="fill-opacity:0.7000000000000001;opacity:0.30000000000000004"></path><path d="M291.91,219.07l-4.23.77a4.13,4.13,0,0,1-4.81-3.33l-6.12-33.65a4.15,4.15,0,0,1,3.33-4.81l4.22-.77a4.14,4.14,0,0,0-3.32,4.81l6.12,33.65A4.13,4.13,0,0,0,291.91,219.07Z" style="fill-opacity:0.7000000000000001;opacity:0.30000000000000004"></path></g><path d="M352.14,208.12l-15.31,2.78-21.28,3.87-27.87,5.07a4.13,4.13,0,0,1-4.81-3.33l-6.12-33.65a4.15,4.15,0,0,1,3.33-4.81l16.21-3,23.58-4.28,24.67-4.49a4.13,4.13,0,0,1,4.81,3.33l6.12,33.65A4.13,4.13,0,0,1,352.14,208.12Z" style="fill:none;stroke:#263238;stroke-linecap:round;stroke-linejoin:round"></path><rect x="283.44" y="171.08" width="73.79" height="42.47" rx="4.14" transform="matrix(0.98, -0.18, 0.18, 0.98, -29.23, 60.4)" style="fill:none;stroke:#263238;stroke-linecap:round;stroke-linejoin:round"></rect><rect x="286.18" y="173.72" width="65.49" height="37.7" rx="2" transform="translate(-29.3 60.15) rotate(-10.3)" style="fill:none;stroke:#263238;stroke-linecap:round;stroke-linejoin:round"></rect><path d="M356.37,207.35l-4.2.76a4.13,4.13,0,0,0,3.3-4.8l-6.12-33.65a4.13,4.13,0,0,0-4.81-3.33l4.23-.77a4.15,4.15,0,0,1,4.81,3.33l6.12,33.65A4.15,4.15,0,0,1,356.37,207.35Z" style="fill:none;stroke:#263238;stroke-linecap:round;stroke-linejoin:round"></path><path d="M478,315.14,436.59,426.22s-17.32-33-33.32-63.54c-12.78-24.42-24.72-47.32-26.33-50.69C373.33,304.4,361,288.5,361,288.5s-12.65-7.24-18.44-19.85-12.16-57.72-12.16-57.72-16.63-6.26-20.6-9-7.59-28.06-7.59-30.95,4-8.68,4-8.68-.89-4.24,4.19-8.52a23.34,23.34,0,0,1,5.47-3.35l.1,0s-.66-9.57,4.32-12.36a5.6,5.6,0,0,1,.74-.35c4.44-1.71,19-3.92,19-3.92a20.76,20.76,0,0,1,7.05-4.07c2.58-.71,16.74,2.58,24.65,4.53,3.18.78,5.35,1.34,5.35,1.34s13.38.61,15.91,2.12a25.21,25.21,0,0,1,4.8,4.09h0l.25.29s11.93,2.48,14.46,6.85,3.61,26.05,1.81,40.14,1.43,38,1.43,38,3.73,18.47,6.62,25.48S478,315.14,478,315.14Z" style="fill:#fff"></path><path d="M403.27,362.68c-12.78-24.42-24.72-47.32-26.33-50.69C373.33,304.4,361,288.5,361,288.5s-12.65-7.24-18.44-19.85-12.16-57.72-12.16-57.72-16.63-6.26-20.6-9-7.59-28.06-7.59-30.95,4-8.68,4-8.68-.89-4.24,4.19-8.52c0,1.14,0,3.06,0,6.08-.12,5.73,6.63,40.28,8.3,39.23s4.25-3.58,3.57-5.81c0,0-3.27-13.41-6.36-42.85l.1,0s-.66-9.57,4.32-12.36a23,23,0,0,0-1.63,6.49c-.11,4.66,5.43,44.59,7.6,45.6s7.67-4.31,7.67-4.31-1.88-11.33-1.21-16.16c0,0,16.73,10.2,17.23,21.78.05,1.27,3.26,19.42,3.26,19.42s-14.39,27.4.3,52.4c0,0-7.47-4.48-9.25-11.6,0,0-2.17,20.94,13.26,32,0,0,11.07-10.87,22-12.25,0,0,.2.72-7.12,6.49s-8.31,8.34-8.31,8.34,7.92-8,14.25-8.34c0,0-6.53,7.55-6.33,9.13s18.67,33.16,25.39,55.19C400.18,351.45,402.05,358.09,403.27,362.68Z" style="fill:#BA68C8;opacity:0.4"></path><path d="M351.41,153.1s5.33,4,6.91,0a22.94,22.94,0,0,0,1.71-6.72s2.05-.94,4,4,21.5,6.2,26.08,8.73,6.4,0,6.4,0a6,6,0,0,1,1.5,7.43c-2.22,4.59,4.07,5,6.51,1.62s.55,9.67-5.48,11c0,0,.17,5.7-3.71,9.61h3.29s-8.76,6.95-11.09,7.33,8.67,4.27,6.63,5.09-7.82.75-7.82.75,3.74,2.59,3.77,4.3-1.77,3-2.58,1.57-7.27-21.91-10.49-29.48S360.52,164.77,351.41,153.1Z" style="fill:#BA68C8;opacity:0.4"></path><path d="M397.78,141.74c-11.22-3.07-26.27-7.44-26.27-7.44l.21-.11c3.18.78,5.35,1.34,5.35,1.34s13.38.61,15.91,2.12A25.21,25.21,0,0,1,397.78,141.74Z" style="fill:#BA68C8;opacity:0.4"></path><path d="M382,159.39c-9.76-2-16.73,6.34-16.73,6.34s9.7,8.78,11.85,12.55,5.72,16.48,5.72,16.48c4.09.66,11.63-3.56,13.44-14.76S391.71,161.38,382,159.39Z" style="fill:#BA68C8"></path><path d="M436.59,426.22s-56-106.64-59.65-114.23S361,288.5,361,288.5s-12.65-7.24-18.44-19.85-12.16-57.72-12.16-57.72-16.63-6.26-20.6-9-7.59-28.06-7.59-30.95,4-8.68,4-8.68-1.44-6.85,9.76-11.92c0,0-.72-10.49,5.06-12.71,4.44-1.71,19-3.92,19-3.92a20.76,20.76,0,0,1,7.05-4.07c3.61-1,30,5.87,30,5.87s13.38.61,15.91,2.12A25.62,25.62,0,0,1,398,142s11.93,2.48,14.46,6.85,3.61,26.05,1.81,40.14,1.43,38,1.43,38,3.73,18.47,6.62,25.48S478,315.14,478,315.14" style="fill:none;stroke:#263238;stroke-linecap:round;stroke-linejoin:round"></path><path d="M389.18,209.46s-2.53-.54-5.78-12.47-4.11-17.51-10.85-24.58c-4.78-5-15.72-13.17-21.14-19.31S340,142,335.32,145.8c-3.74,3-6.18,10.79-2.89,22.81C336.66,184.05,350,191.4,350,191.4l3.26,19.42s-14.15,28.34,1.8,55.09" style="fill:none;stroke:#263238;stroke-linecap:round;stroke-linejoin:round"></path><path d="M365.22,165.73s7-8.33,16.73-6.34S398,168.79,396.23,180s-9.35,15.42-13.44,14.76" style="fill:none;stroke:#263238;stroke-linecap:round;stroke-linejoin:round"></path><path d="M340,133.73a65.3,65.3,0,0,0-3.36,11.35" style="fill:none;stroke:#263238;stroke-linecap:round;stroke-linejoin:round"></path><path d="M334.08,172.89s.84,12.35,2.58,16.14,4.63,6.87,5.89,11.75,1.45,12.47,1.81,13.56,2.45,1.37,2.45,1.37c3,.07,4.21-1.49,5.94-3.87" style="fill:none;stroke:#263238;stroke-linecap:round;stroke-linejoin:round"></path><path d="M316,150.36s2.71,26.38,4.88,37.59,6,12.83,12.29,16.45,9.76,11,10.31,12.11,2.61,1.23,2.61,1.23a7.3,7.3,0,0,0,5.82-3.81" style="fill:none;stroke:#263238;stroke-linecap:round;stroke-linejoin:round"></path><path d="M306.22,162.28c-.68,1.05,5.12,27.84,8.14,35.61s3.36,9,11.35,11.2,14.06,5.86,16.22,4.57" style="fill:none;stroke:#263238;stroke-linecap:round;stroke-linejoin:round"></path><path d="M361.71,147.46s4.15,9.94,1.41,16.48" style="fill:none;stroke:#263238;stroke-linecap:round;stroke-linejoin:round"></path><path d="M377.07,135.53A143,143,0,0,0,398,142" style="fill:none;stroke:#263238;stroke-linecap:round;stroke-linejoin:round"></path><path d="M404.55,169.88s-3.18,5.81-8,7.06" style="fill:none;stroke:#263238;stroke-linecap:round;stroke-linejoin:round"></path><path d="M396.54,163.55s-1.14,3-2.35,3.83" style="fill:none;stroke:#263238;stroke-linecap:round;stroke-linejoin:round"></path><path d="M400.54,187.41s-7.23,5.47-14.17,6.89" style="fill:none;stroke:#263238;stroke-linecap:round;stroke-linejoin:round"></path><path d="M383.4,197s3,3.79,10.79,4.15" style="fill:none;stroke:#263238;stroke-linecap:round;stroke-linejoin:round"></path><path d="M360,180.41s7.08-6.8,11.12-5.86" style="fill:none;stroke:#263238;stroke-linecap:round;stroke-linejoin:round"></path><path d="M373.86,181.79s-5.36,4-6.34,4" style="fill:none;stroke:#263238;stroke-linecap:round;stroke-linejoin:round"></path><path d="M318.67,203s1.78.33,3.17-1.82" style="fill:none;stroke:#263238;stroke-linecap:round;stroke-linejoin:round"></path><path d="M325,193.26s4.3-2.66,7.11-3.17" style="fill:none;stroke:#263238;stroke-linecap:round;stroke-linejoin:round"></path><path d="M362.88,283.46c.89-.79,9.2-7.51,14.34-9.89" style="fill:none;stroke:#263238;stroke-linecap:round;stroke-linejoin:round"></path><path d="M373.66,280.28c-.59-.18-5.31,4.76-7.8,6.74" style="fill:none;stroke:#263238;stroke-linecap:round;stroke-linejoin:round"></path><path d="M376,294.93s15.83,30,19.39,42" style="fill:none;stroke:#263238;stroke-linecap:round;stroke-linejoin:round"></path><path d="M422.36,252.51c1.34,7.37,5.69,12.8,8.07,15.74" style="fill:none;stroke:#263238;stroke-linecap:round;stroke-linejoin:round"></path><path d="M372.46,162.28c-2.3,1.42.12,6.06,1.4,8.43s7,6.14,8.19,9.7,8.71,3.46,11,0,2-10.37-4.24-15.63S375.73,160.28,372.46,162.28Z" style="fill:#fff;opacity:0.4"></path></g></svg>