<svg id="Capa_1" enable-background="new 0 0 512 512" height="512" viewBox="0 0 512 512" width="512" xmlns="http://www.w3.org/2000/svg"><g><circle cx="256" cy="256" fill="#fd9468" r="256"/><path d="m370.7 27.084c28.194 40.964 44.783 90.547 44.977 144.028.513 141.384-113.686 256.414-255.07 256.926-41.57.151-80.855-9.625-115.627-27.083 46.34 67.33 124.046 111.361 211.949 111.042 141.384-.512 255.583-115.542 255.07-256.926-.362-99.813-57.806-186.069-141.299-227.987z" fill="#fe7d43"/><circle cx="256" cy="256" fill="#ffdcce" r="222.915"/><path d="m372.698 252.276c-.796-24.087-9.334-47.053-24.687-66.414-19.145-24.145-49.804-38.49-82.012-38.373l-65.346.237c-8.986.033-16.245 7.344-16.212 16.33l.268 73.932c.004 1.105-.888 2.003-1.993 2.007l-26.801.097c-8.761.032-16.275 6.792-16.656 15.545-.406 9.345 7.067 17.032 16.314 16.999l27.26-.099c1.105-.004 2.003.888 2.007 1.993l.268 73.932c.033 8.986 7.344 16.245 16.33 16.212l65.298-.237c32.201-.117 62.748-14.675 81.711-38.944 16.503-21.119 25.116-47.121 24.251-73.217zm-49.892 53.18c-12.873 16.474-33.877 26.357-56.186 26.438l-47.027.17c-1.105.004-2.003-.888-2.007-1.993l-.202-55.661c-.004-1.105.888-2.003 1.993-2.007l48.577-.176c8.761-.032 16.275-6.792 16.656-15.545.406-9.345-7.067-17.032-16.314-16.999l-49.037.178c-1.105.004-2.003-.888-2.007-1.993l-.202-55.661c-.004-1.105.888-2.003 1.993-2.007l47.075-.171c22.316-.081 43.398 9.657 56.396 26.05 10.99 13.859 17.097 30.204 17.662 47.271.609 18.485-5.559 36.99-17.37 52.106z" fill="#fd9468"/><path d="m401.122 86.791c9.316 26.387 14.447 54.756 14.555 84.321.513 141.384-113.686 256.414-255.07 256.926-17.955.065-35.482-1.728-52.407-5.184 39.542 35.051 91.611 56.266 148.609 56.059 123.112-.446 222.552-100.61 222.106-223.722-.246-67.395-30.376-127.696-77.793-168.4z" fill="#ffd1be"/></g></svg>