<svg xmlns="http://www.w3.org/2000/svg" viewBox="0 0 500 500"><g id="freepik--Mail--inject-3"><polygon points="90.39 285.14 249.53 195.57 412.57 285.14 412.57 414.99 92.35 414.99 90.39 285.14" style="fill:#263238;stroke:#263238;stroke-linecap:round;stroke-linejoin:round"></polygon><rect x="132.38" y="219.73" width="238.22" height="211.86" style="fill:#fff;stroke:#263238;stroke-miterlimit:10"></rect><line x1="159.71" y1="256.83" x2="340.33" y2="256.83" style="fill:none;stroke:#263238;stroke-miterlimit:10"></line><line x1="159.71" y1="275.38" x2="340.33" y2="275.38" style="fill:none;stroke:#263238;stroke-miterlimit:10"></line><line x1="159.71" y1="293.93" x2="340.33" y2="293.93" style="fill:none;stroke:#263238;stroke-miterlimit:10"></line><line x1="159.71" y1="312.48" x2="340.33" y2="312.48" style="fill:none;stroke:#263238;stroke-miterlimit:10"></line><line x1="159.71" y1="331.03" x2="340.33" y2="331.03" style="fill:none;stroke:#263238;stroke-miterlimit:10"></line><line x1="159.71" y1="349.58" x2="340.33" y2="349.58" style="fill:none;stroke:#263238;stroke-miterlimit:10"></line><polygon points="412.57 463.81 90.39 463.81 90.39 285.14 251.49 394.49 412.57 285.14 412.57 463.81" style="fill:#BA68C8;stroke:#263238;stroke-miterlimit:10"></polygon><line x1="90.39" y1="463.81" x2="207.53" y2="364.6" style="fill:none;stroke:#263238;stroke-miterlimit:10"></line><line x1="412.06" y1="463.81" x2="295.79" y2="364.44" style="fill:none;stroke:#263238;stroke-miterlimit:10"></line></g></svg>