<svg xmlns="http://www.w3.org/2000/svg" xmlns:xlink="http://www.w3.org/1999/xlink" viewBox="0 0 500 500"><defs><clipPath id="freepik--clip-path--inject-3"><rect x="60.23" y="307.8" width="105.96" height="89.01" style="fill:#BA68C8;stroke:#696969;stroke-linecap:round;stroke-linejoin:round"></rect></clipPath><clipPath id="freepik--clip-path-2--inject-3"><rect x="130.98" y="307.8" width="35.21" height="89.01" style="fill:#BA68C8;stroke:#696969;stroke-linecap:round;stroke-linejoin:round"></rect></clipPath><clipPath id="freepik--clip-path-3--inject-3"><rect x="65.58" y="218.93" width="105.96" height="89.01" style="fill:#BA68C8;stroke:#696969;stroke-linecap:round;stroke-linejoin:round"></rect></clipPath><clipPath id="freepik--clip-path-4--inject-3"><rect x="136.33" y="218.93" width="35.21" height="89.01" style="fill:#BA68C8;stroke:#696969;stroke-linecap:round;stroke-linejoin:round"></rect></clipPath><clipPath id="freepik--clip-path-5--inject-3"><rect x="341.32" y="307.8" width="105.96" height="89.01" style="fill:#BA68C8;stroke:#919191;stroke-linecap:round;stroke-linejoin:round"></rect></clipPath><clipPath id="freepik--clip-path-6--inject-3"><rect x="412.07" y="307.8" width="35.21" height="89.01" style="fill:#BA68C8;stroke:#919191;stroke-linecap:round;stroke-linejoin:round"></rect></clipPath><clipPath id="freepik--clip-path-7--inject-3"><rect x="341.32" y="218.7" width="105.96" height="89.01" style="fill:#BA68C8;stroke:#919191;stroke-linecap:round;stroke-linejoin:round"></rect></clipPath><clipPath id="freepik--clip-path-8--inject-3"><rect x="412.07" y="218.7" width="35.21" height="89.01" style="fill:#BA68C8;stroke:#919191;stroke-linecap:round;stroke-linejoin:round"></rect></clipPath><clipPath id="freepik--clip-path-9--inject-3"><rect x="350.32" y="145" width="87.65" height="73.63" style="fill:#BA68C8;stroke:#919191;stroke-linecap:round;stroke-linejoin:round"></rect></clipPath><clipPath id="freepik--clip-path-10--inject-3"><rect x="408.85" y="145" width="29.12" height="73.63" style="fill:#BA68C8;stroke:#919191;stroke-linecap:round;stroke-linejoin:round"></rect></clipPath><clipPath id="freepik--clip-path-11--inject-3"><rect x="251.03" y="367.65" width="151.73" height="17.66" style="fill:#fff;stroke:#263238;stroke-linecap:round;stroke-linejoin:round"></rect></clipPath><clipPath id="freepik--clip-path-12--inject-3"><rect x="271.17" y="189.13" width="84.21" height="69.1" style="fill:#BA68C8;stroke:#263238;stroke-linecap:round;stroke-linejoin:round"></rect></clipPath><clipPath id="freepik--clip-path-13--inject-3"><path d="M369.25,281.49c-2.7-4.28-13.87-23.26-13.87-23.26H337.56l9.17,23.26Z" style="fill:#BA68C8;stroke:#263238;stroke-linecap:round;stroke-linejoin:round"></path></clipPath></defs><g id="freepik--background-simple--inject-3"><path d="M101.17,344.29s40.41,51.17,109.47,53.25,130.82-41,181.77-74.52,67.67-89.68,42.23-136-71.6-30.45-127-63S242.31,74.4,178,77.32,60.54,148.92,62.88,225.86,101.17,344.29,101.17,344.29Z" style="fill:#BA68C8"></path><path d="M101.17,344.29s40.41,51.17,109.47,53.25,130.82-41,181.77-74.52,67.67-89.68,42.23-136-71.6-30.45-127-63S242.31,74.4,178,77.32,60.54,148.92,62.88,225.86,101.17,344.29,101.17,344.29Z" style="fill:#fff;opacity:0.7000000000000001"></path></g><g id="freepik--Character--inject-3"><ellipse cx="189.59" cy="417.03" rx="72.24" ry="8.78" style="fill:#BA68C8"></ellipse><ellipse cx="189.59" cy="417.03" rx="72.24" ry="8.78" style="fill:#fff;opacity:0.5"></ellipse><path d="M339.08,417c0,2.42-16.13,4.38-36,4.38s-36-2-36-4.38,16.12-4.37,36-4.37S339.08,414.62,339.08,417Z" style="fill:#BA68C8"></path><path d="M339.08,417c0,2.42-16.13,4.38-36,4.38s-36-2-36-4.38,16.12-4.37,36-4.37S339.08,414.62,339.08,417Z" style="fill:#fff;opacity:0.5"></path><path d="M204,127.79s-5.59-4.39-12-2.2-11.27,12.87-13,21.55-8.38,15.26-6.78,25.44,13.17,11.77,27.14,13.27,21.55-.2,28.13-9.38,3.79-20.35-.1-30.23-10.37-19.05-15.76-20.75S204,127.79,204,127.79Z" style="fill:#263238;stroke:#263238;stroke-linecap:round;stroke-linejoin:round"></path><path d="M180.9,180a16.55,16.55,0,0,0,2.93,1" style="fill:none;stroke:#fff;stroke-linecap:round;stroke-linejoin:round"></path><path d="M202.6,134.9A68.93,68.93,0,0,1,194,149.18c-5.72,7.35-18.37,14.29-19.18,22a7.35,7.35,0,0,0,1.77,5.77" style="fill:none;stroke:#fff;stroke-linecap:round;stroke-linejoin:round"></path><path d="M225.81,171.77a12.86,12.86,0,0,1-1.58,2.72" style="fill:none;stroke:#fff;stroke-linecap:round;stroke-linejoin:round"></path><path d="M221,152.45s6.43,7.42,5.81,15.34" style="fill:none;stroke:#fff;stroke-linecap:round;stroke-linejoin:round"></path><path d="M201.38,130.81a15.77,15.77,0,0,0-13.47,5.31c-.23.26-.44.52-.64.78" style="fill:none;stroke:#fff;stroke-linecap:round;stroke-linejoin:round"></path><path d="M164.49,319.3l-1.25,19.24s-5.32,25.81-7,36.45-4.76,26.82-5.32,26.82-9.74,5.55-12.68,10.08.79,6.45,4.87,5,9.62-5.55,11.43-10.42,2.71-6.68,2.83-7.47,19.47-52.74,21.39-58.29,6-21.85,6-21.85l9.51-32.26s10.18,33.17,10.3,34.64,10.52,86.25,11,89.42.34,5.43,2.26,6.11,6.45.68,8.83.68,10.64,1.25,14.71.23,4.53-1.7,1.7-3.74-18.55-3.34-20-9.28c-.12-.45-.23-87.72-.23-87.72s-1.36-28.86-3.62-37h-52.3Z" style="fill:#fff;stroke:#263238;stroke-linecap:round;stroke-linejoin:round"></path><path d="M143.1,416.87c4.07-1.48,9.62-5.55,11.43-10.42l.38-1c-2.31,2.46-6,5.88-6,5.88a7.3,7.3,0,0,0-1.47-3.17,2.65,2.65,0,0,0-2.61-.79l4-4.4c-3,1.86-8.4,5.66-10.52,8.93C135.28,416.41,139,418.34,143.1,416.87Z" style="fill:#263238;stroke:#263238;stroke-linecap:round;stroke-linejoin:round"></path><path d="M243,413.92c-1.94-1.39-9.91-2.44-15.23-4.87a1.8,1.8,0,0,0-.5.69,20,20,0,0,0-.79,2.94l-11-2.35,0,.31c.45,3.17.34,5.43,2.26,6.11s6.45.68,8.83.68,10.64,1.25,14.71.23S245.87,416,243,413.92Z" style="fill:#263238;stroke:#263238;stroke-linecap:round;stroke-linejoin:round"></path><path d="M179.73,233s-5.19,2.39-11.47,13.67c-6.87,12.31-5.69,19.15-5.79,34s-.4,39.5-.4,39.5,19,5.09,32.63,4.29,30.92-3.89,30.92-3.89-3.69-50.28-7.18-64.74-5.59-21-5.59-21a82.83,82.83,0,0,1-20.35.3C180.93,234,179.73,233,179.73,233Z" style="fill:#263238;stroke:#263238;stroke-linecap:round;stroke-linejoin:round"></path><path d="M201.59,277.47c.52,1.71,1,3.44,1.42,5.17" style="fill:none;stroke:#fff;stroke-linecap:round;stroke-linejoin:round"></path><path d="M189.54,249.17a166.59,166.59,0,0,1,10.34,23.12" style="fill:none;stroke:#fff;stroke-linecap:round;stroke-linejoin:round"></path><path d="M307.12,223.44c-.6-.4-10.43-1.94-10.43-1.94l-1.92-.79s11.9.95,12,.45.5-1.1-.3-1.2-16.11-3.21-16.11-3.21,3.89-3.68,4.39-4.48,1.19-2.4.39-2.4-1,.5-2.09,1.2-5.39,2.4-6.59,3.39-4.78,3.59-4.78,3.59l-41.58-5.72s-14.6-18-17.77-21.84a41.47,41.47,0,0,0-7.47-6.8c-3.06-1.35-3,.91-3,.91L218.25,213s16.53,9.85,17.55,9.85,45.68,1.48,45.68,1.48,3,1.4,4.88,2.59,13.87,5,13.87,5,.8-.4-.1-1.1-6.68-3.49-6.68-3.49l12,2.6s.7-.5.4-1-11-4.59-11-4.59l12,.6S307.71,223.84,307.12,223.44Z" style="fill:#fff;stroke:#263238;stroke-linecap:round;stroke-linejoin:round"></path><path d="M237.59,209.24c-4.31-5.31-12.92-15.91-15.26-18.75a41.47,41.47,0,0,0-7.47-6.8c-3.06-1.35-3,.91-3,.91L218.25,213s7.46,4.44,12.66,7.36Z" style="fill:#fff;stroke:#263238;stroke-linecap:round;stroke-linejoin:round"></path><path d="M193.4,181.26s-8.68.4-14,6.29-4.69,18.85-2.49,26.63,5,12.07,4.39,14.77-2.79,3.59-1.6,6.08,8.08,5.19,20.25,4.79,14.47-3,14.57-5.28-.8-4.19-.5-5.59,9.08-9.18,9.08-17.76-3.79-11.57-4.69-17.76-.6-7.08-4.29-9.78S198.29,179.56,193.4,181.26Z" style="fill:#fff;stroke:#263238;stroke-linecap:round;stroke-linejoin:round"></path><path d="M189.46,211a41.42,41.42,0,0,1-9.57,6" style="fill:none;stroke:#263238;stroke-linecap:round;stroke-linejoin:round"></path><path d="M190.42,212s-2.15,6.94-7.42,10.77" style="fill:none;stroke:#263238;stroke-linecap:round;stroke-linejoin:round"></path><polygon points="211.96 187.54 212.96 197.12 208.76 192.23 211.96 187.54" style="fill:#fff;stroke:#263238;stroke-linecap:round;stroke-linejoin:round"></polygon><polygon points="206.37 197.92 211.96 187.54 206.87 182.06 206.37 197.92" style="fill:#fff;stroke:#263238;stroke-linecap:round;stroke-linejoin:round"></polygon><path d="M195.6,164.3a42.56,42.56,0,0,1,1.29,10.58,39,39,0,0,1-.7,6.88l10.18,16.16,2.89-15,1.9-10.38S199.59,171.88,195.6,164.3Z" style="fill:#fff;stroke:#263238;stroke-linecap:round;stroke-linejoin:round"></path><polygon points="205.77 189.24 206.37 197.92 203.38 193.23 205.77 189.24" style="fill:#fff;stroke:#263238;stroke-linecap:round;stroke-linejoin:round"></polygon><polygon points="192.8 181.36 202.08 198.02 205.77 189.24 195.9 175.67 192.8 181.36" style="fill:#fff;stroke:#263238;stroke-linecap:round;stroke-linejoin:round"></polygon><rect x="271.17" y="189.13" width="84.21" height="69.1" style="fill:#BA68C8"></rect><g style="clip-path:url(#freepik--clip-path-12--inject-3)"><rect x="271.17" y="189.13" width="84.21" height="69.1" style="opacity:0.2"></rect></g><rect x="271.17" y="189.13" width="84.21" height="69.1" style="fill:none;stroke:#263238;stroke-linecap:round;stroke-linejoin:round"></rect><rect x="253.34" y="189.13" width="84.21" height="69.1" style="fill:#BA68C8;stroke:#263238;stroke-linecap:round;stroke-linejoin:round"></rect><path d="M369.25,281.49c-2.7-4.28-13.87-23.26-13.87-23.26H337.56l9.17,23.26Z" style="fill:#BA68C8"></path><g style="clip-path:url(#freepik--clip-path-13--inject-3)"><path d="M369.25,281.49c-2.7-4.28-13.87-23.26-13.87-23.26H337.56l9.17,23.26Z" style="opacity:0.2"></path></g><path d="M369.25,281.49c-2.7-4.28-13.87-23.26-13.87-23.26H337.56l9.17,23.26Z" style="fill:none;stroke:#263238;stroke-linecap:round;stroke-linejoin:round"></path><path d="M239.42,281.49c2.7-4.28,13.86-23.26,13.86-23.26h17.83l-9.17,23.26Z" style="fill:#BA68C8;stroke:#263238;stroke-linecap:round;stroke-linejoin:round"></path><polygon points="253.28 258.23 245.53 281.49 333.48 281.49 337.56 258.23 253.28 258.23" style="fill:#BA68C8;stroke:#263238;stroke-linecap:round;stroke-linejoin:round"></polygon><line x1="366.22" y1="214.13" x2="366.22" y2="237.27" style="fill:none;stroke:#263238;stroke-linecap:round;stroke-linejoin:round"></line><line x1="370.6" y1="224.14" x2="370.6" y2="242.9" style="fill:none;stroke:#263238;stroke-linecap:round;stroke-linejoin:round"></line><line x1="244.29" y1="237.27" x2="244.29" y2="251.65" style="fill:none;stroke:#263238;stroke-linecap:round;stroke-linejoin:round"></line><line x1="240.54" y1="245.4" x2="240.54" y2="256.65" style="fill:none;stroke:#263238;stroke-linecap:round;stroke-linejoin:round"></line><path d="M178.93,206.1a46.15,46.15,0,0,0,10.28,8.68c6,3.59,28,16.06,29.73,16.76s54.27-7.88,54.27-7.88,3,1.4,4.89,2.59,13.87,5,13.87,5,.8-.4-.1-1.09-6.68-3.5-6.68-3.5l12,2.6s.7-.5.4-1-11-4.59-11-4.59l12,.6s.9-1.1.3-1.5S286,219.57,286,219.57s13.07-1.1,13.17-1.6.5-1.09-.3-1.19-17.16-1.7-17.16-1.7,4.29-2.69,4.79-3.49,1.2-2.4.4-2.4-1,.5-2.09,1.2-5.39,2.4-6.59,3.39-4.79,3.6-4.79,3.6l-48.08.1L195.5,193.93" style="fill:#fff;stroke:#263238;stroke-linecap:round;stroke-linejoin:round"></path><path d="M298.85,216.78c-.79-.1-17.16-1.7-17.16-1.7s4.29-2.69,4.79-3.49,1.2-2.4.4-2.4-1,.5-2.09,1.2-5.39,2.4-6.59,3.39-4.79,3.6-4.79,3.6l-48.08.1L220,213.25c-2,3.51-5.74,10.09-8.17,14.43,3.74,2.08,6.57,3.63,7.14,3.86,1.7.7,54.27-7.88,54.27-7.88s3,1.4,4.89,2.59,13.87,5,13.87,5,.8-.4-.1-1.09-6.68-3.5-6.68-3.5l12,2.6s.7-.5.4-1-11-4.59-11-4.59l12,.6s.9-1.1.3-1.5S286,219.57,286,219.57s13.07-1.1,13.17-1.6S299.65,216.88,298.85,216.78Z" style="fill:#fff;stroke:#263238;stroke-linecap:round;stroke-linejoin:round"></path><path d="M218.34,155.92a1.43,1.43,0,0,1,2.5.6,8.08,8.08,0,0,1-1.6,6.18c-1.1,1.1-2.1,1.4-2.1,0A63.83,63.83,0,0,1,218.34,155.92Z" style="fill:#fff;stroke:#263238;stroke-linecap:round;stroke-linejoin:round"></path><path d="M206.06,138.44a20.41,20.41,0,0,1-5.87,12.91,48.85,48.85,0,0,1-10.76,8s.58,3.13,1.76,4.11,3.52.79,3.52.79a25.37,25.37,0,0,0,6.46,9.78c4.69,4.3,10.17,3.91,13.3-2.54s4.7-12.92,4.31-16.64l-.39-3.72S208.21,145.48,206.06,138.44Z" style="fill:#fff;stroke:#263238;stroke-linecap:round;stroke-linejoin:round"></path><ellipse cx="205.47" cy="156.18" rx="0.9" ry="1.6" style="fill:#263238"></ellipse><ellipse cx="210.36" cy="168.95" rx="0.9" ry="1.6" style="fill:#263238"></ellipse><ellipse cx="214.15" cy="156.18" rx="0.9" ry="1.6" style="fill:#263238"></ellipse><path d="M212.35,154.48a9.4,9.4,0,0,0-.3,3.69c.3,1.7,1.7,4.59.5,5.09a3.29,3.29,0,0,1-3.39-.4" style="fill:none;stroke:#263238;stroke-linecap:round;stroke-linejoin:round"></path><path d="M202.87,153.29s.48-3.06,4.49-2.71" style="fill:none;stroke:#263238;stroke-linecap:round;stroke-linejoin:round"></path><path d="M213.61,151.52s3.74-3,4.95,2.49" style="fill:none;stroke:#263238;stroke-linecap:round;stroke-linejoin:round"></path></g></svg>