<svg id="Capa_1" enable-background="new 0 0 512 512" height="512" viewBox="0 0 512 512" width="512" xmlns="http://www.w3.org/2000/svg"><g><circle cx="256" cy="256" fill="#8ac9fe" r="256"/><path d="m366.908 25.208c30.047 41.952 47.739 93.354 47.739 148.893 0 141.385-114.615 256-256 256-39.734 0-77.353-9.053-110.908-25.208 46.444 64.846 122.414 107.107 208.261 107.107 141.385 0 256-114.615 256-256 0-101.651-59.246-189.463-145.092-230.792z" fill="#60b7ff"/><circle cx="256" cy="256" fill="#eaf6ff" r="222.915"/><path d="m398.567 84.641c10.389 27.85 16.081 57.988 16.081 89.46 0 141.385-114.615 256-256 256-16.095 0-31.837-1.501-47.108-4.342 38.909 33.142 89.344 53.156 144.46 53.156 123.113 0 222.915-99.803 222.915-222.915 0-68.887-31.254-130.469-80.348-171.359z" fill="#d8ecfe"/><g fill="#60b7ff"><path d="m253.001 122.243-71.897 115.947c-.868 1.4-.445 3.238.948 4.117l73.344 46.323c.99.625 2.253.617 3.235-.02l71.354-46.283c1.375-.892 1.78-2.723.908-4.112l-72.801-115.987c-1.18-1.879-3.921-1.871-5.091.015z"/><path d="m258.039 328.744 63.021-39.196c2.732-1.699 5.859 1.51 4.09 4.197l-63.497 96.452c-1.157 1.758-3.718 1.809-4.944.098l-68.709-95.873c-1.907-2.661 1.22-6.018 4.009-4.304l62.875 38.634c.969.596 2.19.593 3.155-.008z"/></g></g></svg>