<svg xmlns="http://www.w3.org/2000/svg" viewBox="0 0 500 500"><g id="freepik--background-simple--inject-6"><path d="M186.39,78.37s-63.23,24.53-82.8,90.5S113.05,306.51,135,365.08s75.87,90.5,130.26,79,49.62-60.43,97.34-104.7,67.9-48.92,81.08-111.7S399.09,94.29,318.77,74.86,186.39,78.37,186.39,78.37Z" style="fill:#BA68C8"></path><path d="M186.39,78.37s-63.23,24.53-82.8,90.5S113.05,306.51,135,365.08s75.87,90.5,130.26,79,49.62-60.43,97.34-104.7,67.9-48.92,81.08-111.7S399.09,94.29,318.77,74.86,186.39,78.37,186.39,78.37Z" style="fill:#fff;opacity:0.75"></path></g><g id="freepik--id-card--inject-6"><path d="M135.31,391.86a61.5,61.5,0,0,1-11.2-1c-11.76-2.19-21.4-8.41-26.46-17.07-8.29-14.22-3-32.29,5.84-43.9,11.26-14.72,28.23-23.26,43.35-29.68,29-12.3,59.72-20.2,89.46-27.84,8.5-2.18,17.29-4.44,25.91-6.77,4.3-1.16,8.69-2.3,13.13-3.45,31.47-8.17,67.14-17.43,90.73-40.68,17.08-16.83,29.75-36.4,36.61-56.58a86.37,86.37,0,0,0,4.94-26.14,134.82,134.82,0,0,0-2.06-28.6l-.65-.49c-14.44-10.91-30.53-17.56-44.14-18.25C339.09,90.33,296,98,272.91,123.37l-1,1.1a242,242,0,0,0-25.79,39.43,2,2,0,1,1-3.59-1.76,221.65,221.65,0,0,1,13.09-22.21,2,2,0,0,1,.21-2,188.28,188.28,0,0,1,12.11-15q1.51-1.91,3.09-3.82c16.69-20.17,43.52-45,76.53-49,21.17-2.54,36.62.89,47.22,10.48,7,6.34,11.76,15.28,14.39,27.35,16,12.91,22.26,29.23,18.57,48.54-5.55,29-20.79,50.6-38.67,73.81C341.52,292,289.75,337,235.23,363.78a295.85,295.85,0,0,1-79.83,26A117.11,117.11,0,0,1,135.31,391.86Zm275-277.64a151.49,151.49,0,0,1,1.31,24.63,90.5,90.5,0,0,1-5.15,27.35c-7.07,20.77-20.07,40.87-37.59,58.14-24.36,24-60.58,33.4-92.53,41.7-4.43,1.15-8.81,2.29-13.09,3.44-8.65,2.34-17.45,4.6-26,6.79-29.59,7.6-60.19,15.46-88.89,27.64-14.63,6.22-31,14.45-41.73,28.43-8.07,10.55-12.92,26.84-5.56,39.45,4.47,7.66,13.12,13.18,23.73,15.16,10,1.85,20.25.55,29.87-1.12a291.6,291.6,0,0,0,78.75-25.64C286.67,334,339.39,288.25,385.9,227.83c17.56-22.8,32.53-44,37.91-72.12C426.91,139.51,422.37,125.59,410.31,114.22ZM360.26,73.28a104.87,104.87,0,0,0-12.22.78c-22.67,2.72-42.54,15.77-58.57,31.12,24-14.1,54.27-18.62,71.5-17.74,17.55.89,33.58,10,43.13,16.7-2.56-8.89-6.53-15.66-12-20.61C384.51,76.67,374,73.28,360.26,73.28Z" style="fill:#263238"></path><path d="M185.48,208.85,212.93,402a5.16,5.16,0,0,0,5.82,4.37l116.88-16.62a5.15,5.15,0,0,0,4.37-5.82L312.54,190.79a5.14,5.14,0,0,0-5.81-4.37L189.84,203A5.13,5.13,0,0,0,185.48,208.85Zm76.45-3.34-23.75,3.37a3.89,3.89,0,1,1-1.09-7.71l23.74-3.38a3.9,3.9,0,1,1,1.1,7.72Z" style="fill:#fff"></path><path d="M218,406.91a5.65,5.65,0,0,1-5.58-4.85L185,208.92a5.66,5.66,0,0,1,4.79-6.38l116.89-16.61a5.65,5.65,0,0,1,6.38,4.79l27.45,193.13a5.62,5.62,0,0,1-4.79,6.38L218.82,406.85A5.49,5.49,0,0,1,218,406.91Zm89.43-220a4.87,4.87,0,0,0-.65,0L189.91,203.53a4.64,4.64,0,0,0-3.94,5.25l27.46,193.14a4.65,4.65,0,0,0,5.25,3.94l116.88-16.62A4.62,4.62,0,0,0,339.5,384L312.05,190.86A4.66,4.66,0,0,0,307.45,186.87Zm-69.82,22.55a4.4,4.4,0,0,1-.61-8.75l23.74-3.37a4.36,4.36,0,0,1,3.26.83,4.39,4.39,0,0,1,.88,6.16A4.36,4.36,0,0,1,262,206l-23.75,3.38A4.3,4.3,0,0,1,237.63,209.42Zm23.76-11.17a2.77,2.77,0,0,0-.49,0l-23.74,3.37a3.4,3.4,0,1,0,1,6.73L261.86,205a3.34,3.34,0,0,0,2.24-1.32,3.44,3.44,0,0,0,.65-2.52,3.41,3.41,0,0,0-3.36-2.92Z" style="fill:#263238"></path><rect x="205.96" y="215.82" width="115.65" height="175.98" transform="translate(-40.14 40.15) rotate(-8.09)" style="fill:#BA68C8"></rect><path d="M218.92,399.56a.5.5,0,0,1-.49-.43L193.66,224.91a.51.51,0,0,1,.1-.38.48.48,0,0,1,.32-.19l114.51-16.28a.5.5,0,0,1,.37.1.44.44,0,0,1,.19.33l24.77,174.22a.5.5,0,0,1-.42.57L219,399.56Zm-24.2-174.3L219.35,398.5l113.51-16.14L308.23,209.12Z" style="fill:#263238"></path><path d="M232,157.15l6.49,45.66a1.76,1.76,0,0,0,2,1.5l17.87-2.54a1.76,1.76,0,0,0,1.5-2l-6.49-45.66Zm12.36,10.26a3.8,3.8,0,1,1,3.23-4.3A3.81,3.81,0,0,1,244.4,167.41Z" style="fill:#fff"></path><path d="M240.28,204.83a2.27,2.27,0,0,1-2.24-2l-6.5-45.66a.52.52,0,0,1,.43-.57l21.37-3a.53.53,0,0,1,.37.1.5.5,0,0,1,.2.33l6.49,45.66a2.27,2.27,0,0,1-1.93,2.57l-17.87,2.54Zm-7.68-47.26L239,202.74a1.27,1.27,0,0,0,1.43,1.08l17.87-2.54a1.29,1.29,0,0,0,.84-.5,1.26,1.26,0,0,0,.24-.94L253,154.68Zm11.26,10.37a4.28,4.28,0,1,1,.61,0h0A4.17,4.17,0,0,1,243.86,167.94Zm.54-.53h0Zm-.53-7.06-.47,0a3.27,3.27,0,0,0-2.17,1.28,3.31,3.31,0,0,0-.63,2.45,3.27,3.27,0,0,0,1.28,2.17,3.31,3.31,0,0,0,2.45.63h0a3.3,3.3,0,0,0,1.52-5.9A3.25,3.25,0,0,0,243.87,160.35Z" style="fill:#263238"></path><path d="M236.69,175h21.59a0,0,0,0,1,0,0v26.26a1.92,1.92,0,0,1-1.92,1.92H238.61a1.92,1.92,0,0,1-1.92-1.92V175A0,0,0,0,1,236.69,175Z" transform="translate(-24.15 36.72) rotate(-8.09)" style="fill:#fff"></path><path d="M240.41,204.81a2.44,2.44,0,0,1-2.4-2.08l-3.69-26a.48.48,0,0,1,.09-.37.5.5,0,0,1,.33-.2l21.38-3a.51.51,0,0,1,.56.43l3.7,26a2.43,2.43,0,0,1-2.06,2.74l-17.57,2.5Zm-5-27.73L239,202.59a1.42,1.42,0,0,0,1.61,1.2l17.57-2.49a1.42,1.42,0,0,0,1.21-1.61l-3.63-25.51Z" style="fill:#263238"></path><path d="M250.5,182.6a3.9,3.9,0,1,0-3.31,4.41A3.91,3.91,0,0,0,250.5,182.6Z" style="fill:#fff"></path><path d="M246.63,187.55a4.34,4.34,0,0,1-2.63-.88,4.39,4.39,0,0,1,2-7.87,4.38,4.38,0,0,1,5,3.73,4.4,4.4,0,0,1-3.73,5A4.46,4.46,0,0,1,246.63,187.55Zm0-7.8a2.63,2.63,0,0,0-.49,0,3.39,3.39,0,0,0-1.56,6.08,3.4,3.4,0,0,0,5.4-3.2h0a3.39,3.39,0,0,0-3.35-2.92Z" style="fill:#263238"></path><path d="M248.07,183a1.45,1.45,0,0,0-2.87.4,1.45,1.45,0,1,0,2.87-.4Z" style="fill:#fff"></path><path d="M246.64,185.1a2,2,0,1,1,1.93-2.22h0a2,2,0,0,1-.37,1.44,1.93,1.93,0,0,1-1.29.76Zm0-2.9h-.14a1,1,0,0,0-.8,1.07,1,1,0,0,0,1.07.81,1,1,0,0,0,.63-.37,1,1,0,0,0,.18-.7A1,1,0,0,0,246.64,182.2Z" style="fill:#263238"></path><path d="M243.14,158.55a5.15,5.15,0,1,0,5.82,4.37A5.14,5.14,0,0,0,243.14,158.55Zm1.26,8.86a3.8,3.8,0,1,1,3.23-4.3A3.81,3.81,0,0,1,244.4,167.41Z" style="fill:#fff"></path><path d="M243.86,169.3a5.65,5.65,0,0,1-4.51-9.05,5.58,5.58,0,0,1,3.72-2.2h0a5.62,5.62,0,0,1,4.19,1.08,5.56,5.56,0,0,1,2.2,3.72,5.66,5.66,0,0,1-4.8,6.39A5.39,5.39,0,0,1,243.86,169.3ZM243.21,159a4.66,4.66,0,1,0,3.45.89,4.6,4.6,0,0,0-3.45-.89Zm-.07-.49h0Zm.72,9.39a4.3,4.3,0,0,1-.6-8.55,4.3,4.3,0,0,1,1.21,8.51h0A4.17,4.17,0,0,1,243.86,167.94Zm.54-.53h0Zm-.53-7.06a3.71,3.71,0,0,0-.47,0,3.27,3.27,0,0,0-2.17,1.28,3.31,3.31,0,0,0-.63,2.45,3.27,3.27,0,0,0,1.28,2.17,3.3,3.3,0,1,0,2-5.93Z" style="fill:#263238"></path><rect x="221.43" y="223.43" width="78.15" height="114.51" transform="translate(-36.91 39.46) rotate(-8.09)" style="fill:#fff"></rect><path d="M229.88,343.37a.5.5,0,0,1-.31-.1.53.53,0,0,1-.19-.33L213.26,229.57a.51.51,0,0,1,.43-.57l77.37-11a.51.51,0,0,1,.57.43L307.75,331.8a.53.53,0,0,1-.1.37.5.5,0,0,1-.33.2l-77.37,11ZM214.32,229.92l16,112.39,76.39-10.86-16-112.38Z" style="fill:#263238"></path><path d="M229.88,342.87c14.76-2,61.35-9,77.37-11-1.32-9.26-3.06-21.3-3.27-27.07-2.09-1.5-5.74-2.79-11-5.57-8.25-4.35-21.64-13.49-21.64-13.49l-5.44.58-.05-.32-4.35.78-4.41.46,0,.32-5.39,1s-10.31,12.51-17,19c-4.42,4.27-7.18,6.22-8.71,8.3C226.11,316.21,228.38,332.17,229.88,342.87Z" style="fill:#fff"></path><path d="M229.87,343.25a.38.38,0,0,1-.37-.33c-1.51-10.79-3.75-26.6-3.84-27a.35.35,0,0,1,.07-.3,28.54,28.54,0,0,1,4.14-4.11c1.25-1.11,2.81-2.49,4.61-4.24,6.62-6.38,16.89-18.82,17-18.95a.36.36,0,0,1,.23-.13l5-.9a.33.33,0,0,1,.08-.25.35.35,0,0,1,.25-.14l4.41-.46,4.33-.78a.35.35,0,0,1,.28.06.37.37,0,0,1,.15.22l5.08-.54a.42.42,0,0,1,.25.06c.14.1,13.47,9.18,21.6,13.47,2.29,1.21,4.24,2.12,6,2.92a33,33,0,0,1,5.08,2.68.36.36,0,0,1,.16.29c.19,5.47,1.79,16.67,3.07,25.67l.19,1.36a.35.35,0,0,1-.07.28.41.41,0,0,1-.25.15c-10.1,1.23-31.88,4.41-51.1,7.21-11.17,1.63-20.81,3-26.27,3.78Zm-3.45-27.34c.29,1.83,2.45,17.09,3.77,26.54,5.52-.76,15-2.14,25.9-3.73,19-2.77,40.47-5.9,50.74-7.17l-.14-1c-1.27-8.92-2.85-20-3.07-25.57a36.23,36.23,0,0,0-4.82-2.5c-1.72-.8-3.68-1.72-6-2.94-7.76-4.09-20.23-12.53-21.56-13.43l-5.3.56a.4.4,0,0,1-.4-.26l-4,.72-4.05.43a.36.36,0,0,1-.31.35l-5.25.94c-1,1.24-10.64,12.81-17,18.91-1.81,1.76-3.38,3.15-4.64,4.26A30.94,30.94,0,0,0,226.42,315.91Z" style="fill:#263238"></path><path d="M304,304.8a46.26,46.26,0,0,0-6.39-3.28l-.55-.26-.73-.35-1-.49-.59-.3c-.56-.28-1.13-.57-1.73-.89-8.25-4.35-21.64-13.49-21.64-13.49l-5.44.58-.05-.32-4.35.78-4.41.46,0,.32-5.39,1s-10.31,12.51-17,19c-.45.44-.88.85-1.31,1.25-3.66,3.41-6,5.18-7.4,7.05,0,.14.3,2.05.72,4.93l77.6-11C304.16,307.82,304,306.14,304,304.8Z" style="fill:#263238"></path><path d="M305.33,318l-77.41,11c.4,2.85.83,5.87,1.24,8.76l77.36-11C306.11,323.86,305.7,320.86,305.33,318Z" style="fill:#263238"></path><path d="M264.08,306.76l2.9,18.52,4.64-.66-4.48-18.56S264.45,305.66,264.08,306.76Z" style="fill:#fff"></path><path d="M267,325.65a.38.38,0,0,1-.37-.31l-2.9-18.52a.37.37,0,0,1,0-.18c.45-1.36,3.16-1,3.47-.95a.36.36,0,0,1,.3.28L272,324.53a.36.36,0,0,1-.05.3.38.38,0,0,1-.26.16l-4.64.66Zm-2.51-18.84,2.82,18,3.87-.55-4.32-17.9C265.93,306.31,264.73,306.37,264.47,306.81Z" style="fill:#263238"></path><path d="M267.21,311.81a.74.74,0,0,0-.84-.63.74.74,0,1,0,.84.63Z" style="fill:#fff"></path><path d="M266.48,313a1.09,1.09,0,0,1-.67-.23,1.14,1.14,0,0,1-.44-.73,1.12,1.12,0,0,1,.22-.83,1.11,1.11,0,0,1,2,.51,1.07,1.07,0,0,1-.21.83,1.09,1.09,0,0,1-.73.43Zm0-1.49h-.05a.33.33,0,0,0-.24.14.33.33,0,0,0-.07.27.33.33,0,0,0,.14.24.38.38,0,0,0,.27.07.33.33,0,0,0,.24-.14.37.37,0,0,0,.07-.27A.37.37,0,0,0,266.48,311.54Z" style="fill:#263238"></path><path d="M269.21,320.62a.74.74,0,1,0-1.46.21.73.73,0,0,0,.83.63A.74.74,0,0,0,269.21,320.62Z" style="fill:#fff"></path><path d="M268.48,321.84a1.1,1.1,0,0,1-1.1-1,1,1,0,0,1,.21-.82,1.11,1.11,0,0,1,2,.51,1.07,1.07,0,0,1-.21.83,1.13,1.13,0,0,1-.73.43Zm0-1.48h-.05a.37.37,0,1,0,.34.59.34.34,0,0,0,.07-.27h0A.36.36,0,0,0,268.48,320.36Z" style="fill:#263238"></path><path d="M252.54,282.9s-3,1.21-3.83,6.33-.09,17.89-.46,20.83.48,3.35,2.43,2.29,3.76-5,6.85-5.45a41.34,41.34,0,0,1,8.17.15s4.5-3.53,7.59-4,7.76,4.68,9,4.5-1.83-11-4.66-18-7.69-9.69-13.1-8.92S252.54,282.9,252.54,282.9Z" style="fill:#fff"></path><path d="M249.14,313.26a1.22,1.22,0,0,1-.7-.2c-.6-.41-.77-1.35-.56-3.05.14-1.15.11-3.9.07-7.08-.06-4.75-.13-10.66.39-13.77.87-5.26,3.93-6.56,4.06-6.61l.06,0c.07,0,6.7-1.48,12.07-2.24,6-.85,10.75,2.4,13.5,9.15,2.23,5.48,5.76,16.56,4.82,18.19a.61.61,0,0,1-.45.32c-.63.09-1.48-.5-3.06-1.64-1.8-1.31-4.28-3.1-6-2.85-2.95.42-7.36,3.85-7.41,3.89a.38.38,0,0,1-.27.08,41.33,41.33,0,0,0-8.08-.16c-1.78.26-3.16,1.83-4.38,3.22a9.74,9.74,0,0,1-2.34,2.18A3.81,3.81,0,0,1,249.14,313.26Zm3.52-30c-.28.14-2.82,1.46-3.58,6-.51,3-.43,8.91-.38,13.63,0,3.21.08,6-.08,7.19-.21,1.74.06,2.2.24,2.33s.61.14,1.64-.42a9.87,9.87,0,0,0,2.14-2c1.3-1.48,2.78-3.17,4.84-3.46a39.86,39.86,0,0,1,8.11.14c.76-.59,4.74-3.54,7.65-4,2-.28,4.53,1.53,6.54,3a9.86,9.86,0,0,0,2.44,1.51c.49-1.11-1.9-10.15-4.89-17.49-2.6-6.4-7.1-9.49-12.7-8.69C259.5,281.76,253.2,283.13,252.66,283.25Z" style="fill:#263238"></path><path d="M231.39,319c-2.13-3.74-4-3.24-5.18-2,.57,3.94,2.39,16.77,3.66,25.84l.29,0c2.38-.32,5.53-.77,9.21-1.3l.17-.09C237.19,333.78,233.74,323.18,231.39,319Z" style="fill:#fff"></path><path d="M229.87,343.23a.38.38,0,0,1-.37-.33c-1.2-8.57-3.06-21.73-3.66-25.84a.37.37,0,0,1,.1-.32,2.87,2.87,0,0,1,2.42-1c1.15.16,2.28,1.2,3.35,3.09,2.34,4.12,5.75,14.5,8.19,22.48a.38.38,0,0,1-.23.47l-.15.07-.09,0c-3.69.53-6.84,1-9.22,1.3l-.31,0Zm-3.26-26.09c.61,4.26,2.4,16.86,3.58,25.31l8.88-1.26c-2.42-7.89-5.74-18-8-22-.95-1.68-1.89-2.59-2.8-2.72A2.05,2.05,0,0,0,226.61,317.14Z" style="fill:#263238"></path><path d="M298.48,333a83.05,83.05,0,0,1,8.74-1.3c-1.15-8.11-2.62-18.26-3.1-24.49C297.73,309.85,297.7,323.57,298.48,333Z" style="fill:#fff"></path><path d="M298.48,333.33a.37.37,0,0,1-.22-.08.35.35,0,0,1-.15-.26c-.87-10.45-.56-23.47,5.87-26.17a.37.37,0,0,1,.34,0,.42.42,0,0,1,.18.3c.45,5.91,1.82,15.53,2.92,23.25l.17,1.2a.37.37,0,0,1-.08.29.35.35,0,0,1-.25.14,82.17,82.17,0,0,0-8.7,1.3Zm5.31-25.59c-5.74,3.12-5.62,16.58-5,24.76,2.49-.5,5.11-.89,8-1.19l-.11-.81C305.61,323,304.29,313.71,303.79,307.74Z" style="fill:#263238"></path><path d="M272.77,256.77s.4-8.34,4.37-2.59-3.05,14.64-4,13.2S272.77,256.77,272.77,256.77Z" style="fill:#fff"></path><path d="M273.41,267.91a.72.72,0,0,1-.62-.32c-1-1.5-.46-9.87-.39-10.84,0-.48.26-4.43,2-4.92.9-.25,1.91.44,3.08,2.13,2.3,3.33,1,7.31,0,9.38-1.15,2.43-2.93,4.48-4,4.57Zm1.33-15.38-.16,0c-.94.27-1.37,3-1.43,4.24h0c-.26,3.49-.41,9.4.26,10.37.17,0,1.09-.51,2.22-2.15,2-2.85,3.47-7.35,1.2-10.63C276,253.18,275.26,252.53,274.74,252.53Zm-2,4.24h0Z" style="fill:#263238"></path><path d="M273.25,261.58h-.07a.37.37,0,0,1-.3-.44c.16-.86,1.05-5.19,2.21-5.89a1.17,1.17,0,0,1,1.08-.14,2.07,2.07,0,0,1,1,1.33.38.38,0,0,1-.28.45.36.36,0,0,1-.45-.27c-.06-.22-.25-.71-.52-.81,0,0-.16-.07-.4.08-.64.39-1.48,3.39-1.86,5.39A.39.39,0,0,1,273.25,261.58Z" style="fill:#263238"></path><path d="M275.75,261.55a.37.37,0,0,1-.31-.16.38.38,0,0,1,.1-.52,1.24,1.24,0,0,0,.44-1.34.3.3,0,0,0-.17-.21,3.05,3.05,0,0,0-1.85.3.37.37,0,0,1-.49-.19.36.36,0,0,1,.19-.49,3.69,3.69,0,0,1,2.46-.3,1,1,0,0,1,.58.68,2,2,0,0,1-.73,2.17A.43.43,0,0,1,275.75,261.55Z" style="fill:#263238"></path><path d="M242,261.15s-2.71-7.91-4.92-1.28,7,13.21,7.56,11.56S242,261.15,242,261.15Z" style="fill:#fff"></path><path d="M244.21,272.06a2.16,2.16,0,0,1-.67-.13c-2.44-.81-8.73-6.43-6.81-12.18.65-1.95,1.43-2.9,2.36-2.9h0c1.78,0,3.11,3.72,3.26,4.17.34.92,3.22,8.79,2.65,10.52A.77.77,0,0,1,244.21,272.06ZM239.1,257.6h0c-.56,0-1.14.85-1.66,2.39-1.26,3.79,1.43,7.69,4.12,9.88,1.54,1.26,2.58,1.53,2.75,1.42.36-1.1-1.44-6.73-2.66-10h0C241.13,259.74,240,257.6,239.1,257.6Z" style="fill:#263238"></path><path d="M242.79,265.91a.39.39,0,0,1-.34-.21c-.93-1.82-2.57-4.46-3.3-4.66-.27-.07-.37,0-.4,0-.23.17-.28.69-.27.92a.38.38,0,0,1-.36.39.37.37,0,0,1-.39-.36,2,2,0,0,1,.55-1.54,1.12,1.12,0,0,1,1.07-.17c1.31.35,3.37,4.26,3.77,5a.38.38,0,0,1-.16.5A.41.41,0,0,1,242.79,265.91Z" style="fill:#263238"></path><path d="M240.37,266.58a.25.25,0,0,1-.12,0,2,2,0,0,1-1.31-1.88,1.05,1.05,0,0,1,.37-.81,3.74,3.74,0,0,1,2.45-.4.37.37,0,0,1,.32.42.36.36,0,0,1-.42.32,3.06,3.06,0,0,0-1.86.23.32.32,0,0,0-.11.24,1.24,1.24,0,0,0,.8,1.17.38.38,0,0,1,.24.48A.39.39,0,0,1,240.37,266.58Z" style="fill:#263238"></path><path d="M250.23,277.7s4.33,15.14,5.17,17.94c1,3.27,6.84,11.12,9.83,9.91s3.54-10.24,3.94-12.92-.39-17.56-.39-17.56Z" style="fill:#fff"></path><path d="M264.55,306.05a3.41,3.41,0,0,1-1.51-.4c-3.17-1.51-7.16-7.16-8-9.91s-5.13-17.78-5.18-17.93a.37.37,0,0,1,0-.31.39.39,0,0,1,.26-.17l18.56-2.63a.34.34,0,0,1,.29.08.34.34,0,0,1,.13.27c0,.61.8,14.94.39,17.63-.06.41-.12.95-.2,1.6-.6,5.08-1.45,10.59-4,11.61A2.07,2.07,0,0,1,264.55,306.05ZM250.7,278c.71,2.45,4.31,15,5.06,17.51s4.65,8,7.6,9.45a2.16,2.16,0,0,0,1.72.22c2.33-.95,3.13-7.74,3.52-11,.08-.65.14-1.21.2-1.62.36-2.37-.25-14.67-.37-17.07Z" style="fill:#263238"></path><path d="M239.76,242.92s.87,14.47,3.9,24.7,12.09,18.41,16.79,18.14,13.6-12.59,13.06-19.23.62-23.37-2.64-29.62-7.78-7.57-17.12-6.64S238.05,236.45,239.76,242.92Z" style="fill:#fff"></path><path d="M260.22,286.14c-5.12,0-14-8.49-16.91-18.41s-3.87-23.93-3.92-24.75a8,8,0,0,1,1.22-6.8c2.36-3.4,7.13-5.69,13.1-6.28,9.9-1,14.31.74,17.5,6.84,2.37,4.55,2.43,14.31,2.48,22.16,0,3.08,0,5.73.19,7.6.36,4.32-3.14,10.83-6.78,15-1.44,1.66-4.22,4.47-6.63,4.61Zm-1.76-55.76c-1.4,0-2.95.09-4.68.26-5.66.57-10.36,2.8-12.55,6a7.28,7.28,0,0,0-1.11,6.21.17.17,0,0,1,0,.07c0,.15.91,14.56,3.89,24.62,3,10.22,12.13,18.14,16.41,17.87,1.55-.09,3.78-1.68,6.1-4.35,3.54-4.07,6.94-10.35,6.6-14.46-.16-1.9-.17-4.57-.19-7.66-.05-7.77-.11-17.43-2.4-21.82C268,232.29,264.85,230.38,258.46,230.38Z" style="fill:#263238"></path><path d="M241.13,260.08s1.59-.56,1.22-3.19-.93-4.22,0-4.85,2.34-1.17,2.28-4-3.66-4.5-2.9-7.45a7.15,7.15,0,0,1,7.5-4.92c3.39.36,4.3,5.58,9.71,8.33s11.78,1.67,11.78,1.67a2.48,2.48,0,0,0,.26,3,5.33,5.33,0,0,1,1.24,2.84s.46,5.62,1.45,5.48.5-12.95.22-14.92.08-10-6-12.7-14.83-1.91-20.1-.16-8,4.66-9.19,9.51S241.13,260.08,241.13,260.08Z" style="fill:#263238"></path><path d="M241.13,260.45a.39.39,0,0,1-.18,0,.47.47,0,0,1-.19-.25c-.15-.68-3.69-16.68-2.53-21.56s4.09-8,9.43-9.77c5.64-1.88,14.45-2.42,20.37.16,5.45,2.39,5.9,8.82,6.12,11.92,0,.45.05.82.09,1.08.15,1,.33,4.75.37,8.19.06,7-.5,7.09-.91,7.15a.62.62,0,0,1-.51-.15c-.89-.71-1.27-4.52-1.36-5.67a5.23,5.23,0,0,0-1.17-2.64,3.07,3.07,0,0,1-.59-2.74,21.33,21.33,0,0,1-11.32-1.8,17.05,17.05,0,0,1-5.78-5.22c-1.27-1.62-2.28-2.91-3.8-3.06a6.78,6.78,0,0,0-7.1,4.63c-.37,1.44.45,2.58,1.31,3.78A6.45,6.45,0,0,1,245,248c.07,2.72-1.19,3.52-2.11,4.11l-.33.21c-.49.34-.36,1.23-.07,2.91.08.48.17,1,.25,1.58.41,2.89-1.39,3.56-1.46,3.59A.32.32,0,0,1,241.13,260.45ZM258.21,228a33.84,33.84,0,0,0-10.31,1.56c-5.14,1.71-7.81,4.47-8.94,9.23-1,4.23,1.81,17.84,2.42,20.7A2.71,2.71,0,0,0,242,257c-.08-.57-.17-1.09-.25-1.57-.32-1.81-.52-3,.39-3.65l.34-.22c.86-.55,1.83-1.16,1.77-3.46a5.81,5.81,0,0,0-1.46-3.15c-.92-1.29-1.88-2.62-1.43-4.41.81-3.17,4.43-5.55,7.9-5.19,1.84.19,3,1.66,4.32,3.35a16.22,16.22,0,0,0,5.53,5c5.24,2.66,11.49,1.65,11.55,1.64a.35.35,0,0,1,.38.17.36.36,0,0,1,0,.42,2.12,2.12,0,0,0,.26,2.53,5.59,5.59,0,0,1,1.31,3.06,16.39,16.39,0,0,0,1,5c.56-1.71.24-12.3-.05-14.39,0-.27-.07-.66-.1-1.13-.21-3-.63-9.08-5.67-11.28A24.28,24.28,0,0,0,258.21,228Z" style="fill:#263238"></path><path d="M249.67,266.08a7.34,7.34,0,1,1,1-.07A7.38,7.38,0,0,1,249.67,266.08Zm0-14a7.57,7.57,0,0,0-.95.06,6.62,6.62,0,1,0,4.9,1.26A6.52,6.52,0,0,0,249.69,252.11Z" style="fill:#263238"></path><path d="M265.58,263.82a7.36,7.36,0,0,1-1-14.65,7.36,7.36,0,0,1,8.33,6.25h0a7.34,7.34,0,0,1-7.29,8.4Zm0-14a7.38,7.38,0,0,0-.93.06,6.66,6.66,0,1,0,.93-.06Z" style="fill:#263238"></path><path d="M251.33,258.88c.16,1.13-.18,2.12-.77,2.2s-1.2-.77-1.36-1.9.19-2.12.78-2.2S251.17,257.75,251.33,258.88Z" style="fill:#263238"></path><path d="M264.78,257c.16,1.13-.18,2.11-.77,2.2s-1.2-.77-1.36-1.9.18-2.12.77-2.2S264.62,255.83,264.78,257Z" style="fill:#263238"></path><path d="M258.05,253.15a83.34,83.34,0,0,0,.65,10.45c.6,3.1,1.21,5-.76,5.3s-1.94-3.07-1.94-3.07" style="fill:#fff"></path><path d="M257.72,269.29a1.58,1.58,0,0,1-1.08-.41c-1-.88-1-3-1-3.06a.38.38,0,0,1,.37-.37h0a.38.38,0,0,1,.38.38,3.85,3.85,0,0,0,.75,2.49.92.92,0,0,0,.76.21,1.15,1.15,0,0,0,.82-.41c.41-.58.13-1.9-.21-3.58l-.17-.87a83.75,83.75,0,0,1-.66-10.51.38.38,0,0,1,.38-.38.36.36,0,0,1,.37.37,83,83,0,0,0,.65,10.38l.17.86c.39,1.93.68,3.32.08,4.17a1.85,1.85,0,0,1-1.32.71Z" style="fill:#263238"></path><path d="M252.25,271.21s5.71,3.71,12.79-1.82" style="fill:#fff"></path><path d="M257.07,272.79a10,10,0,0,1-5-1.26.37.37,0,0,1-.11-.52.36.36,0,0,1,.51-.11c.23.14,5.59,3.48,12.36-1.8a.37.37,0,1,1,.46.59A13.21,13.21,0,0,1,257.07,272.79Z" style="fill:#263238"></path><path d="M256.76,257.39a.36.36,0,0,1-.37-.32.37.37,0,0,1,.32-.42l2-.28a.36.36,0,0,1,.43.32.38.38,0,0,1-.32.42l-2,.28Z" style="fill:#263238"></path><path d="M240.87,259.82a.38.38,0,0,1-.05-.75l1.48-.21a.38.38,0,0,1,.1.75l-1.47.21Z" style="fill:#263238"></path><path d="M272.52,255.32a.38.38,0,0,1-.37-.32.38.38,0,0,1,.32-.43l1.48-.21a.38.38,0,0,1,.1.75l-1.47.21Z" style="fill:#263238"></path><path d="M244.88,253.35a1.07,1.07,0,0,1-.48-.12,1,1,0,0,1-.39-1.36c1-1.8,4.08-4.59,8.74-2.31a1,1,0,1,1-.88,1.8c-4.13-2-6,1.33-6.11,1.47A1,1,0,0,1,244.88,253.35Z" style="fill:#263238"></path><path d="M260.63,251.11a1,1,0,0,1-.88-1.48c1-1.8,4.09-4.59,8.74-2.31a1,1,0,0,1-.87,1.8c-4.13-2-6,1.33-6.12,1.47A1,1,0,0,1,260.63,251.11Z" style="fill:#263238"></path><line x1="249.14" y1="262.28" x2="252.42" y2="261.82" style="fill:#fff"></line><path d="M249.14,262.66a.38.38,0,0,1,0-.75l3.28-.46a.36.36,0,0,1,.42.32.37.37,0,0,1-.32.42l-3.28.47Z" style="fill:#263238"></path><line x1="262.59" y1="260.37" x2="265.87" y2="259.91" style="fill:#fff"></line><path d="M262.59,260.75a.37.37,0,0,1-.37-.32.38.38,0,0,1,.32-.43l3.28-.46a.37.37,0,0,1,.42.31.38.38,0,0,1-.32.43l-3.28.46Z" style="fill:#263238"></path><rect x="215.56" y="351.48" width="115.65" height="39.64" transform="translate(-49.54 42.18) rotate(-8.09)" style="fill:#263238"></rect><rect x="253.99" y="357.49" width="34.81" height="2" transform="matrix(0.99, -0.14, 0.14, 0.99, -47.71, 41.72)" style="fill:#fff"></rect><rect x="230.76" y="378.94" width="87.38" height="2" transform="matrix(0.99, -0.14, 0.14, 0.99, -50.69, 42.36)" style="fill:#fff"></rect><rect x="249.77" y="362.76" width="44.76" height="2" transform="matrix(0.99, -0.14, 0.14, 0.99, -48.44, 41.88)" style="fill:#fff"></rect><rect x="243.49" y="370.22" width="0.46" height="7.93" transform="matrix(0.99, -0.14, 0.14, 0.99, -50.24, 38.03)" style="fill:#263238"></rect><rect x="248.16" y="369.56" width="0.46" height="7.93" transform="matrix(0.99, -0.14, 0.14, 0.99, -50.1, 38.68)" style="fill:#263238"></rect><rect x="249.1" y="369.43" width="0.46" height="7.93" transform="translate(-50.06 38.8) rotate(-8.09)" style="fill:#263238"></rect><rect x="250.22" y="369.27" width="0.46" height="7.93" transform="translate(-50.03 38.96) rotate(-8.09)" style="fill:#263238"></rect><rect x="252.67" y="368.92" width="0.46" height="7.93" transform="translate(-49.96 39.3) rotate(-8.09)" style="fill:#263238"></rect><rect x="253.61" y="368.79" width="0.46" height="7.93" transform="translate(-49.93 39.43) rotate(-8.09)" style="fill:#263238"></rect><rect x="244.76" y="370.01" width="0.92" height="7.93" transform="matrix(0.99, -0.14, 0.14, 0.99, -50.19, 38.23)" style="fill:#263238"></rect><rect x="258.07" y="368.15" width="0.46" height="7.93" transform="translate(-49.79 40.05) rotate(-8.09)" style="fill:#263238"></rect><rect x="259.34" y="367.94" width="0.92" height="7.93" transform="translate(-49.75 40.26) rotate(-8.09)" style="fill:#263238"></rect><rect x="247" y="369.69" width="0.92" height="7.93" transform="translate(-50.12 38.54) rotate(-8.09)" style="fill:#263238"></rect><rect x="251.51" y="369.05" width="0.92" height="7.93" transform="matrix(0.99, -0.14, 0.14, 0.99, -49.99, 39.17)" style="fill:#263238"></rect><rect x="255.66" y="368.49" width="0.46" height="7.93" transform="translate(-49.88 39.73) rotate(-8.09)" style="fill:#263238"></rect><rect x="256.6" y="368.36" width="0.46" height="7.93" transform="translate(-49.84 39.85) rotate(-8.09)" style="fill:#263238"></rect><rect x="254.5" y="368.63" width="0.92" height="7.93" transform="translate(-49.9 39.59) rotate(-8.09)" style="fill:#263238"></rect><rect x="261.62" y="367.65" width="0.46" height="7.93" transform="translate(-49.7 40.56) rotate(-8.09)" style="fill:#263238"></rect><rect x="266.3" y="366.98" width="0.46" height="7.93" transform="translate(-49.56 41.21) rotate(-8.09)" style="fill:#263238"></rect><rect x="267.23" y="366.85" width="0.46" height="7.93" transform="translate(-49.52 41.33) rotate(-8.09)" style="fill:#263238"></rect><rect x="268.35" y="366.69" width="0.46" height="7.93" transform="translate(-49.5 41.49) rotate(-8.09)" style="fill:#263238"></rect><rect x="270.81" y="366.34" width="0.46" height="7.93" transform="translate(-49.41 41.82) rotate(-8.09)" style="fill:#263238"></rect><rect x="271.74" y="366.21" width="0.46" height="7.93" transform="translate(-49.47 42.03) rotate(-8.1)" style="fill:#263238"></rect><rect x="262.89" y="367.43" width="0.92" height="7.93" transform="translate(-49.68 40.79) rotate(-8.1)" style="fill:#263238"></rect><rect x="276.2" y="365.57" width="0.46" height="7.93" transform="translate(-49.32 42.65) rotate(-8.1)" style="fill:#263238"></rect><rect x="277.47" y="365.36" width="0.92" height="7.93" transform="translate(-49.21 42.79) rotate(-8.09)" style="fill:#263238"></rect><rect x="265.13" y="367.11" width="0.92" height="7.93" transform="matrix(0.99, -0.14, 0.14, 0.99, -49.58, 41.07)" style="fill:#263238"></rect><rect x="269.64" y="366.47" width="0.92" height="7.93" transform="matrix(0.99, -0.14, 0.14, 0.99, -49.45, 41.7)" style="fill:#263238"></rect><rect x="273.8" y="365.92" width="0.46" height="7.93" transform="translate(-49.33 42.25) rotate(-8.09)" style="fill:#263238"></rect><rect x="274.73" y="365.78" width="0.46" height="7.93" transform="translate(-49.3 42.37) rotate(-8.09)" style="fill:#263238"></rect><rect x="272.63" y="366.05" width="0.92" height="7.93" transform="translate(-49.36 42.12) rotate(-8.09)" style="fill:#263238"></rect><rect x="279.22" y="365.14" width="0.46" height="7.93" transform="translate(-49.17 43.01) rotate(-8.09)" style="fill:#263238"></rect><rect x="280.15" y="365.01" width="0.46" height="7.93" transform="translate(-49.13 43.13) rotate(-8.09)" style="fill:#263238"></rect><rect x="284.62" y="364.38" width="0.46" height="7.93" transform="translate(-49 43.75) rotate(-8.09)" style="fill:#263238"></rect><rect x="285.88" y="364.17" width="0.92" height="7.93" transform="translate(-48.96 43.96) rotate(-8.09)" style="fill:#263238"></rect><rect x="282.21" y="364.72" width="0.46" height="7.93" transform="translate(-49.07 43.41) rotate(-8.09)" style="fill:#263238"></rect><rect x="283.14" y="364.59" width="0.46" height="7.93" transform="translate(-49.05 43.55) rotate(-8.09)" style="fill:#263238"></rect><rect x="281.05" y="364.85" width="0.92" height="7.93" transform="matrix(0.99, -0.14, 0.14, 0.99, -49.1, 43.29)" style="fill:#263238"></rect><rect x="288.17" y="363.87" width="0.46" height="7.93" transform="matrix(0.99, -0.14, 0.14, 0.99, -48.9, 44.25)" style="fill:#263238"></rect><rect x="292.84" y="363.21" width="0.46" height="7.93" transform="matrix(0.99, -0.14, 0.14, 0.99, -48.76, 44.91)" style="fill:#263238"></rect><rect x="293.77" y="363.08" width="0.46" height="7.93" transform="translate(-48.73 45.04) rotate(-8.09)" style="fill:#263238"></rect><rect x="294.9" y="362.92" width="0.46" height="7.93" transform="translate(-48.7 45.19) rotate(-8.09)" style="fill:#263238"></rect><rect x="297.35" y="362.57" width="0.46" height="7.93" transform="translate(-48.63 45.53) rotate(-8.09)" style="fill:#263238"></rect><rect x="298.29" y="362.43" width="0.46" height="7.93" transform="matrix(0.99, -0.14, 0.14, 0.99, -48.6, 45.66)" style="fill:#263238"></rect><rect x="289.43" y="363.66" width="0.92" height="7.93" transform="translate(-48.89 44.49) rotate(-8.1)" style="fill:#263238"></rect><rect x="302.75" y="361.8" width="0.46" height="7.93" transform="translate(-48.46 46.27) rotate(-8.09)" style="fill:#263238"></rect><rect x="304.01" y="361.59" width="0.92" height="7.93" transform="translate(-48.42 46.49) rotate(-8.09)" style="fill:#263238"></rect><rect x="291.68" y="363.34" width="0.92" height="7.93" transform="translate(-48.79 44.77) rotate(-8.09)" style="fill:#263238"></rect><rect x="296.19" y="362.7" width="0.92" height="7.93" transform="matrix(0.99, -0.14, 0.14, 0.99, -48.65, 45.4)" style="fill:#263238"></rect><rect x="300.34" y="362.14" width="0.46" height="7.93" transform="translate(-48.54 45.95) rotate(-8.09)" style="fill:#263238"></rect><rect x="301.28" y="362.01" width="0.46" height="7.93" transform="translate(-48.58 46.16) rotate(-8.1)" style="fill:#263238"></rect><rect x="299.18" y="362.27" width="0.92" height="7.93" transform="translate(-48.56 45.82) rotate(-8.09)" style="fill:#263238"></rect><path d="M243.87,165.64a2.08,2.08,0,0,1-.55-.07,2,2,0,0,1-1.38-2.47c.11-.39,2.83-9.8,13.89-25.15a2,2,0,0,1,3.25,2.34c-10.59,14.7-13.26,23.81-13.29,23.9A2,2,0,0,1,243.87,165.64Z" style="fill:#263238"></path></g></svg>