<svg id="Capa_1" enable-background="new 0 0 512 512" height="512" viewBox="0 0 512 512" width="512" xmlns="http://www.w3.org/2000/svg"><g><circle cx="256" cy="256" fill="#b6c4cf" r="256"/><path d="m373.355 28.429c27.443 40.848 43.429 90.032 43.353 142.945-.201 141.385-114.979 255.837-256.364 255.636-42.17-.06-81.94-10.318-116.99-28.429 45.886 68.3 123.809 113.293 212.282 113.419 141.385.201 256.163-114.251 256.364-255.636.141-99.215-56.181-185.323-138.645-227.935z" fill="#8d9ca8"/><circle cx="256" cy="256" fill="#f5f8f9" r="222.915"/><path d="m403.128 88.547c8.838 25.987 13.621 53.847 13.58 82.827-.201 141.385-114.979 255.837-256.364 255.636-18.529-.026-36.589-2.039-53.996-5.803 39.483 35.788 91.85 57.626 149.335 57.708 123.113.175 223.057-99.485 223.232-222.598.095-66.842-29.248-126.846-75.787-167.77z" fill="#e8edf2"/><path d="m325.464 350.031-91.639-.13 18.07-66.23 41.758-12.904c8.142-2.516 12.7-11.145 10.179-19.274-2.521-8.128-11.164-12.676-19.307-10.162l-23.019 7.113 26.657-97.706c2.24-8.21-2.611-16.678-10.835-18.914-8.223-2.234-16.707 2.607-18.947 10.817l-31.812 116.6-44.77 13.835c-8.142 2.516-12.7 11.145-10.179 19.274 2.048 6.604 8.137 10.846 14.717 10.855 1.518.002 3.063-.221 4.59-.693l26.031-8.044-18.215 66.763c-1.263 4.629-.294 9.58 2.621 13.394s7.443 6.055 12.248 6.062l111.809.159c8.524.012 15.443-6.876 15.456-15.385.01-8.51-6.89-15.418-15.413-15.43z" fill="#b6c4cf"/></g></svg>