<svg xmlns="http://www.w3.org/2000/svg" xmlns:xlink="http://www.w3.org/1999/xlink" viewBox="0 0 500 500"><defs><clipPath id="freepik--clip-path--inject-127"><path d="M331.87,397.05H185.19V139.83H220l3.91,3.24a7.56,7.56,0,0,0,4.86,1.76h61.34a7.64,7.64,0,0,0,5-1.9l3.53-3.1h33.24Z" style="fill:#fff;stroke:#263238;stroke-linecap:round;stroke-linejoin:round;stroke-width:0.938618px"></path></clipPath><clipPath id="freepik--clip-path-2--inject-127"><circle cx="258.69" cy="230.23" r="56.94" transform="translate(-87.03 250.35) rotate(-45)" style="fill:#BA68C8"></circle></clipPath></defs><g id="freepik--background-simple--inject-127"><path d="M400.86,199.5a372.7,372.7,0,0,0-9.36-38.24c-11.4-36.39-34.09-73.21-73.06-85.59-28.77-9.13-59.82-2.83-84.13,15.78-38.13,29.18-65.88,69-107.6,94.27-34.83,21.11-53.06,55.21-41.35,103.41S136.19,365.41,179,362c35.58-2.87,72.78.2,103.54,17.47,27.49,15.43,76.06,2,116.24-40.15,23.41-24.57,21.14-55.81,13.51-85C407.57,236.24,404.51,217.8,400.86,199.5Z" style="fill:#BA68C8"></path><path d="M400.86,199.5a372.7,372.7,0,0,0-9.36-38.24c-11.4-36.39-34.09-73.21-73.06-85.59-28.77-9.13-59.82-2.83-84.13,15.78-38.13,29.18-65.88,69-107.6,94.27-34.83,21.11-53.06,55.21-41.35,103.41S136.19,365.41,179,362c35.58-2.87,72.78.2,103.54,17.47,27.49,15.43,76.06,2,116.24-40.15,23.41-24.57,21.14-55.81,13.51-85C407.57,236.24,404.51,217.8,400.86,199.5Z" style="fill:#fff;opacity:0.7000000000000001"></path></g><g id="freepik--Shadow--inject-127"><path d="M441.41,423.48c0,3.12-85,5.66-189.82,5.66S61.76,426.6,61.76,423.48s85-5.66,189.83-5.66S441.41,420.36,441.41,423.48Z" style="fill:#BA68C8"></path><path d="M441.41,423.48c0,3.12-85,5.66-189.82,5.66S61.76,426.6,61.76,423.48s85-5.66,189.83-5.66S441.41,420.36,441.41,423.48Z" style="fill:#fff;opacity:0.30000000000000004"></path></g><g id="freepik--Device--inject-127"><rect x="174.58" y="121.5" width="167.9" height="302.59" rx="6.75" style="fill:#263238;stroke:#263238;stroke-miterlimit:10"></rect><path d="M270.14,139.58h-20.9a2.15,2.15,0,0,1-2.15-2.15h0a2.14,2.14,0,0,1,2.15-2.14h20.9a2.14,2.14,0,0,1,2.14,2.14h0A2.14,2.14,0,0,1,270.14,139.58Z" style="fill:#BA68C8"></path><path d="M331.87,397.05H185.19V139.83H220l3.91,3.24a7.56,7.56,0,0,0,4.86,1.76h61.34a7.64,7.64,0,0,0,5-1.9l3.53-3.1h33.24Z" style="fill:#fff"></path><g style="clip-path:url(#freepik--clip-path--inject-127)"><path d="M295.1,142.93a7.64,7.64,0,0,1-5,1.9H228.73a7.56,7.56,0,0,1-4.86-1.76L220,139.83H185.19V168H331.87v-28.2H298.63Z" style="fill:#BA68C8"></path></g><path d="M331.87,397.05H185.19V139.83H220l3.91,3.24a7.56,7.56,0,0,0,4.86,1.76h61.34a7.64,7.64,0,0,0,5-1.9l3.53-3.1h33.24Z" style="fill:none;stroke:#263238;stroke-linecap:round;stroke-linejoin:round;stroke-width:0.938618px"></path><rect x="196.55" y="170.9" width="124.4" height="211.82" style="fill:#fff"></rect><path d="M263.22,405a3.34,3.34,0,1,0-3.34,3.33A3.35,3.35,0,0,0,263.22,405Z" style="fill:#BA68C8"></path><circle cx="258.69" cy="230.23" r="56.94" transform="translate(-87.03 250.35) rotate(-45)" style="fill:#BA68C8"></circle><g style="clip-path:url(#freepik--clip-path-2--inject-127)"><path d="M244.9,239.28s3.47,8.83,2.52,15.14-4.42,9.79-12,13.57-19.56,9.15-20.83,12.94,0,21.51,0,21.51h92.77s-2.21-18.35-6.94-24.67-23.66-11.35-29-14.83-3.15-23.35-3.15-23.35S254.05,244,244.9,239.28Z" style="fill:#fff;stroke:#263238;stroke-linecap:round;stroke-linejoin:round"></path><path d="M234,268.73c-1.72.84-3.61,1.76-5.5,2.7,3.29,10,.25,22.71-2.56,31h65.7a24.53,24.53,0,0,1-2.09-6.94c-1.07-7.51-.36-18.85.14-24.7-2.22-1-4.55-1.95-6.81-2.85-3.29,7.79-11.52,22.92-25.33,21.05C243.86,287.16,236.75,275,234,268.73Z" style="fill:#263238;stroke:#263238;stroke-linecap:round;stroke-linejoin:round"></path><path d="M229.12,244.33S231,249.06,238,250s3.54-9.22,24.22-9.93c14.56-.5.08,11.5,3.24,12.14s11-.32,15.46-10.73,5.36-36.92-3.79-45.44-36-8.21-40.07-.63-1.27,20.82-5,28.08S226.59,240.54,229.12,244.33Z" style="fill:#263238;stroke:#263238;stroke-linecap:round;stroke-linejoin:round"></path><path d="M238,220s-2.52-6.63-3.47-1.89,0,9.46,2.21,11.36,3.47,1.57,3.47,1.57Z" style="fill:#fff;stroke:#263238;stroke-linecap:round;stroke-linejoin:round"></path><path d="M247.93,186.23s-5.33,1.33-8.89,11.11-.78,35.48,1.44,38.15,9.61,13.76,16.72,14.2c4.53.28,15.89-10.13,17.67-15.46s2.4-29.33,1.06-35.11S263.49,180,247.93,186.23Z" style="fill:#fff;stroke:#263238;stroke-linecap:round;stroke-linejoin:round"></path><path d="M251.18,217.82a1.46,1.46,0,1,1-1.45-1.46A1.45,1.45,0,0,1,251.18,217.82Z" style="fill:#263238"></path><path d="M265.69,217.82a1.46,1.46,0,1,1-1.46-1.46A1.45,1.45,0,0,1,265.69,217.82Z" style="fill:#263238"></path><path d="M251.54,232.81s4.73,2.66,11.51,0" style="fill:none;stroke:#263238;stroke-linecap:round;stroke-linejoin:round"></path><path d="M260.1,223.08s2.07,2.65,0,4.13a5.91,5.91,0,0,1-6.2.29c-1.77-.88.3-4.72.3-4.72" style="fill:none;stroke:#263238;stroke-linecap:round;stroke-linejoin:round"></path><path d="M252.27,211.13a6.69,6.69,0,0,0-7.19-1.75c-4.49,1.5-4.71,5.23-4.71,5.23s2.73-3.48,5.17-3.52S251.45,213.79,252.27,211.13Z" style="fill:#263238"></path><path d="M260.4,211.46a6.66,6.66,0,0,1,7.07-2.13c4.57,1.25,5,5,5,5s-2.93-3.32-5.36-3.23S261.36,214.08,260.4,211.46Z" style="fill:#263238"></path><path d="M252.47,194.16S244.58,192,241.42,197s-1.57,14.83-6.31,23.66-1.89,22.4-1.26,24.3-4.1,4.42-6.62-5.05,4.73-18.62,5.36-28.4S231,191,240.79,185.32s11.68-2.21,11.68-2.21Z" style="fill:#263238;stroke:#263238;stroke-linecap:round;stroke-linejoin:round"></path><path d="M291.28,209c-1.89-5.68-1.58-16.1-9.15-24.62-4.75-5.34-13.83-8.44-21.28-8.62a12.52,12.52,0,0,0-3.65-.21c-12,1-19.56,7.26-17.35,12s12.62,6.63,12.62,6.63l1.58.63a12.91,12.91,0,0,1-.06-1.61c1.7-.79,4.6-1.31,7.63,1.92a32.25,32.25,0,0,1,8.2,21.46c-.31,12,5.68,16.41,5.68,21.46s-8.83,11.36-10.73,12.94c-2.1,1.75,8,2.61,8.63,2.57,10.17-.63,16.93-7.27,21.17-16.13C299.56,227,294.54,218.77,291.28,209Z" style="fill:#263238;stroke:#263238;stroke-linecap:round;stroke-linejoin:round"></path><path d="M279.82,246.72a7.4,7.4,0,0,1-1.79,2" style="fill:none;stroke:#fff;stroke-linecap:round;stroke-linejoin:round"></path><path d="M252.47,192.89s-7.57-4.1-1.26-7.25,18,6.62,20.82,15.77.63,19.57,4.74,26.82c1.94,3.45,4.46,9.17,4.27,14" style="fill:none;stroke:#fff;stroke-linecap:round;stroke-linejoin:round"></path><path d="M246.84,187.28c-.24-.87.24-2.12,2.47-3.85,5.68-4.42,16.1-2.21,21.46,3.47s7.26,12.62,7.89,20.82S280.55,221,285,226s6.94,10.41,2.52,16.72" style="fill:none;stroke:#fff;stroke-linecap:round;stroke-linejoin:round"></path><path d="M246.47,192.89s-8.83-3.78-3.78-8.52" style="fill:none;stroke:#fff;stroke-linecap:round;stroke-linejoin:round"></path><path d="M235.41,243.65a10,10,0,0,0,2.54,2.57" style="fill:none;stroke:#fff;stroke-linecap:round;stroke-linejoin:round"></path><path d="M233.54,224.45s-2.22,9.43.42,16.4" style="fill:none;stroke:#fff;stroke-linecap:round;stroke-linejoin:round"></path><path d="M279.36,190A34.53,34.53,0,0,1,284,203.62c1.26,11.36-2.21,15.15,3.16,21.14a13.88,13.88,0,0,1,3.78,9.16" style="fill:none;stroke:#fff;stroke-linecap:round;stroke-linejoin:round"></path><path d="M275.5,184.69s.46.47,1.16,1.36" style="fill:none;stroke:#fff;stroke-linecap:round;stroke-linejoin:round"></path></g><circle cx="303.8" cy="272.91" r="13.2" style="fill:#263238"></circle><path d="M310.48,269.12H310a1.69,1.69,0,0,1-1.69-1.68,1.69,1.69,0,0,0-1.68-1.69H301a1.69,1.69,0,0,0-1.69,1.69,1.68,1.68,0,0,1-1.68,1.68h-.48a1.69,1.69,0,0,0-1.69,1.69v7.58a1.69,1.69,0,0,0,1.69,1.69h13.36a1.69,1.69,0,0,0,1.68-1.69v-7.58A1.69,1.69,0,0,0,310.48,269.12Zm-6.68,10.3a5.37,5.37,0,1,1,5.36-5.36A5.38,5.38,0,0,1,303.8,279.42Z" style="fill:#fff"></path><circle cx="303.8" cy="274.06" r="4.26" style="fill:#fff"></circle><line x1="211.5" y1="304.11" x2="230" y2="304.11" style="fill:none;stroke:#263238;stroke-linecap:round;stroke-linejoin:round"></line><line x1="211.5" y1="351.11" x2="230" y2="351.11" style="fill:none;stroke:#263238;stroke-linecap:round;stroke-linejoin:round"></line><line x1="211.5" y1="311.11" x2="279.5" y2="311.11" style="fill:none;stroke:#263238;stroke-linecap:round;stroke-linejoin:round;stroke-width:2px"></line><line x1="211.5" y1="358.11" x2="279.5" y2="358.11" style="fill:none;stroke:#263238;stroke-linecap:round;stroke-linejoin:round;stroke-width:2px"></line><line x1="211.5" y1="377.61" x2="230" y2="377.61" style="fill:none;stroke:#263238;stroke-linecap:round;stroke-linejoin:round"></line><line x1="211.5" y1="384.61" x2="279.5" y2="384.61" style="fill:none;stroke:#263238;stroke-linecap:round;stroke-linejoin:round;stroke-width:2px"></line><line x1="211.5" y1="321.11" x2="317" y2="321.11" style="fill:none;stroke:#263238;stroke-linecap:round;stroke-linejoin:round"></line><line x1="211.5" y1="326.11" x2="317" y2="326.11" style="fill:none;stroke:#263238;stroke-linecap:round;stroke-linejoin:round"></line><line x1="211.5" y1="331.11" x2="317" y2="331.11" style="fill:none;stroke:#263238;stroke-linecap:round;stroke-linejoin:round"></line><circle cx="199.13" cy="301.61" r="4" style="fill:#263238"></circle><path d="M199.13,306.61c-3.43,0-6.26,2.18-6.69,5h13.37C205.38,308.79,202.55,306.61,199.13,306.61Z" style="fill:#263238"></path><path d="M198.72,374.61a6.25,6.25,0,1,0,6.25,6.25A6.25,6.25,0,0,0,198.72,374.61Zm-2.2,1.66.84-.56a.21.21,0,0,1,.28.06l1.47,2.4a.2.2,0,0,1-.07.28l-.94.55a.2.2,0,0,1-.27-.08l-1.37-2.39A.2.2,0,0,1,196.52,376.27Zm4.57,9.2a2.24,2.24,0,0,1-1.1.31c-.63,0-1.23-.61-1.86-1.24a20.51,20.51,0,0,1-2.3-3.39,6.47,6.47,0,0,1-.75-3.5,2.07,2.07,0,0,1,.89-1,.2.2,0,0,1,.29.07l1.25,2.13a.19.19,0,0,1,0,.24,1.35,1.35,0,0,0-.31.55A3.86,3.86,0,0,0,198,382c.57.68,1.07,1,1.35,1a1.4,1.4,0,0,0,.38,0,.21.21,0,0,1,.23.1l1.22,2.11A.2.2,0,0,1,201.09,385.47Zm1.55-.77-.94.55a.2.2,0,0,1-.27-.08l-1.37-2.39a.2.2,0,0,1,.06-.26L201,382a.21.21,0,0,1,.28.06l1.47,2.4A.2.2,0,0,1,202.64,384.7Z" style="fill:#263238"></path><path d="M199,349.38a5.37,5.37,0,1,0,5.37,5.37A5.38,5.38,0,0,0,199,349.38Zm.51,8.61a.78.78,0,0,1-.19.56.66.66,0,0,1-.49.2.69.69,0,0,1-.5-.2.81.81,0,0,1-.19-.56V354a.81.81,0,0,1,.19-.56.66.66,0,0,1,.5-.21.64.64,0,0,1,.49.21.76.76,0,0,1,.19.56Zm-.11-6a.89.89,0,0,1-1.15,0,.71.71,0,0,1-.22-.55.7.7,0,0,1,.22-.54.81.81,0,0,1,.58-.21.77.77,0,0,1,.57.21.7.7,0,0,1,.22.54A.71.71,0,0,1,199.44,352Z" style="fill:#263238"></path></g><g id="freepik--Character--inject-127"><path d="M155.16,354.52s-11.34,7.77-14.45,12.66-11.56,17.56-17.33,21.12-14.67.44-15.78,3.77,1.11,9.11.66,12-1.55,10.67,1.12,13.78,5.33,3.11,5.55,1.78,0-8.22,2.67-12.89,7.11-11.33,22.67-22.44,23.11-18.67,26.44-22.23.89-8.67.89-8.67" style="fill:#fff;stroke:#263238;stroke-linecap:round;stroke-linejoin:round"></path><path d="M155.16,354.52s-11.34,7.77-14.45,12.66-11.56,17.56-17.33,21.12a11.29,11.29,0,0,1-2.94,1.22,18.82,18.82,0,0,0,2.41,9.8c3.38-3.88,8.62-8.74,17.42-15,15.55-11.12,23.11-18.67,26.44-22.23s.89-8.67.89-8.67Z" style="fill:#263238;stroke:#263238;stroke-linecap:round;stroke-linejoin:round"></path><path d="M112.93,406.52c.57-4,3.09-13.67,3.81-16.39-4.34.34-8.41-.24-9.14,1.94-1.11,3.34,1.11,9.11.66,12s-1.55,10.67,1.12,13.78,5.33,3.11,5.55,1.78c.13-.75.11-3.28.55-6.17A7.7,7.7,0,0,1,112.93,406.52Z" style="fill:#BA68C8;stroke:#263238;stroke-linecap:round;stroke-linejoin:round"></path><path d="M109.38,410.74c0-4,1.11-6.89.22-12.44a15,15,0,0,1,.73-7.83c-1.4.2-2.4.62-2.73,1.6-1.11,3.34,1.11,9.11.66,12s-1.55,10.67,1.12,13.78a8,8,0,0,0,3.14,2.39C109.88,417.89,109.38,414.23,109.38,410.74Z" style="fill:#fff;stroke:#263238;stroke-linecap:round;stroke-linejoin:round"></path><path d="M126.71,254.22c.19-.35.36-.68.52-1C127.07,253.54,126.9,253.87,126.71,254.22Z" style="fill:#263238;stroke:#263238;stroke-linecap:round;stroke-linejoin:round"></path><path d="M125.92,255.65c.24-.41.46-.82.67-1.21C126.38,254.83,126.16,255.23,125.92,255.65Z" style="fill:#263238;stroke:#263238;stroke-linecap:round;stroke-linejoin:round"></path><path d="M127.33,253c.18-.35.33-.67.48-1C127.66,252.37,127.51,252.69,127.33,253Z" style="fill:#263238;stroke:#263238;stroke-linecap:round;stroke-linejoin:round"></path><path d="M125.07,257.16l.67-1.19Z" style="fill:#263238;stroke:#263238;stroke-linecap:round;stroke-linejoin:round"></path><path d="M127.9,251.85c.14-.32.27-.62.37-.89C128.17,251.23,128,251.53,127.9,251.85Z" style="fill:#263238;stroke:#263238;stroke-linecap:round;stroke-linejoin:round"></path><path d="M160.3,256.57q0-.4,0-.72Q160.27,256.17,160.3,256.57Z" style="fill:#263238;stroke:#263238;stroke-linecap:round;stroke-linejoin:round"></path><path d="M160.53,258.57c-.05-.31-.09-.61-.12-.89C160.44,258,160.48,258.26,160.53,258.57Z" style="fill:#263238;stroke:#263238;stroke-linecap:round;stroke-linejoin:round"></path><path d="M165.82,302.07c-1-6.36-4.66-17.78-3.55-23.78.81-4.39-.64-12.47-1.47-17.88h0c-19.58,2.06-30.66-.89-35.83-3.07-3.27,5.72-7.84,13.56-9.82,21.62-2.88,11.78-4.66,21.11-1.11,29.11s6.9,27.53,6.23,35.53-4.67,12.45-3.78,18.67,5.1,19.5,6.88,23.72,3.34,20,3.34,20a51.61,51.61,0,0,0-2.67,9.83c-.44,4,2.78,5.55,7.35,8s14.42,7.56,16,4.08-5.73-11.78-9.43-17.84-3.55-14.83-4-24.15c-.55-10.68-.09-33.05-.09-39.72s7.33-41.53,7.33-41.53,4.44,18,8,26.67,3.68,24.37,7.68,27.93,12,4.44,12-4S169.3,323.05,165.82,302.07Z" style="fill:#263238;stroke:#263238;stroke-linecap:round;stroke-linejoin:round"></path><path d="M160.39,257.48c0-.29-.06-.58-.08-.83C160.33,256.9,160.35,257.18,160.39,257.48Z" style="fill:#263238;stroke:#263238;stroke-linecap:round;stroke-linejoin:round"></path><path d="M160.7,259.8c0-.31-.08-.6-.13-.89C160.62,259.2,160.66,259.49,160.7,259.8Z" style="fill:#263238;stroke:#263238;stroke-linecap:round;stroke-linejoin:round"></path><path d="M114.8,226.1l.15-.21Z" style="fill:#263238;stroke:#263238;stroke-linecap:round;stroke-linejoin:round"></path><path d="M114.14,227l.29-.39Z" style="fill:#263238;stroke:#263238;stroke-linecap:round;stroke-linejoin:round"></path><path d="M114.51,226.48c.09-.13.17-.23.25-.33Z" style="fill:#263238;stroke:#263238;stroke-linecap:round;stroke-linejoin:round"></path><path d="M140.87,306.15s3-11.85,1.77-15.89-6.31-12.11-6.31-12.11" style="fill:none;stroke:#fff;stroke-linecap:round;stroke-linejoin:round;stroke-width:0.75px"></path><path d="M145.16,291.77s8.32-4.54,10.34-9.33" style="fill:none;stroke:#fff;stroke-linecap:round;stroke-linejoin:round;stroke-width:0.75px"></path><path d="M148.69,290.76s6.31-3.28,9.34-9.08" style="fill:none;stroke:#fff;stroke-linecap:round;stroke-linejoin:round;stroke-width:0.75px"></path><path d="M171.82,210.29c-3.33-6.22-6.22-8.22-10.22-8.89s-11.56.45-15.11-1.78-3.56-12-3.11-12.66-10.89-.23-10.89-.23,1.55,10.89.66,13.12S128,203,122.71,203a14.78,14.78,0,0,0-13.11,8.44c-2.67,5.33-24.36,37.2-24.36,37.2s-1.26,1.43-1.18,2l7.9,1.34c7.78-5.75,23.19-26.3,23.19-26.3l1.56-.88s2.67,9.55,7.33,13.55,6,7.78,4.23,12.67a51.83,51.83,0,0,1-3.3,6.38c5.17,2.18,16.25,5.13,35.83,3.07a36.09,36.09,0,0,1-.53-4.56c0-3.56-.22-10.45-.22-14.89s4.44-8.45,3.11-12.89a53.26,53.26,0,0,1-1.78-8.22l2.22-2.67s7.09,12.33,9.56,15.06c5.05,5.58,11.11,11.39,12.22,10.72s3.78-1.56,2.89-7.56S175.16,216.51,171.82,210.29Z" style="fill:#fff;stroke:#263238;stroke-linecap:round;stroke-linejoin:round"></path><path d="M160.27,256c-5.12.74-19.32,2.11-33.1-2.6-.71,1.37-1.62,3-2.65,4.77,3.47,1.45,14.28,5.53,24.19,4.62,6.45-.6,10.07-1.71,12-2.61A36.19,36.19,0,0,1,160.27,256Z" style="fill:#BA68C8;stroke:#263238;stroke-linecap:round;stroke-linejoin:round"></path><path d="M160.4,257.63a17.44,17.44,0,0,1-.13-1.78c0-3.56-.22-10.45-.22-14.89s4.44-8.45,3.11-12.89a53.26,53.26,0,0,1-1.78-8.22l.19-.23c-2.75-5.72-4.8-15.09-5.49-18.49-1.25,0-2.53,0-3.76-.11-.07,3.73-1.14,12-9.16,13.49-8.39,1.61-15.92-7.82-18.56-11.59-.61,0-1.24,0-1.89,0l-.76,0a36.07,36.07,0,0,1,3.2,16.87c-.49,7.81-3.85,11.14-5.51,12.33a20.21,20.21,0,0,0,4.4,6.11c4.67,4,6,7.78,4.23,12.67a31.86,31.86,0,0,1-2,4A45.33,45.33,0,0,0,160.4,257.63Z" style="fill:#BA68C8;stroke:#263238;stroke-linecap:round;stroke-linejoin:round"></path><path d="M138.5,240s4.5-1,13.5-4" style="fill:none;stroke:#263238;stroke-linecap:round;stroke-linejoin:round"></path><path d="M92.79,246.62s3.25,5.45,12.81,9,15.33,3.11,15.33,3.11S126,251,127.15,251s10.53,3.51,10.35,4,.88,1-.79.7-5.92-1.85-6.53-1.94,6.08,4.5,6.7,4.86.53,1.5-.09,1.59-7.23-3.18-7.23-3.18l6.44,4s.35.71-.79.88-7.15-3.09-7.15-3.09l4.85,4.06s.53.8-1,.62-5.47-3-5.47-3a14.55,14.55,0,0,1-5.12,3.27c-2.91,1-10.85-1.33-16.94-2S87,258,84.29,255.09s1.41-7.33,1.41-7.33" style="fill:#fff;stroke:#263238;stroke-linecap:round;stroke-linejoin:round"></path><path d="M179.82,236.61s-2.94,6.85-5,10.64-7.61,11.63-8.13,12.29a3.12,3.12,0,0,1-1.71.95s-.94-2.65-2.08-5.49a4.24,4.24,0,0,0-5.49-2.71s-1.6.81-1,1.28,2.53.35,3.24.35a3,3,0,0,1,1.57.86s-4.56.2-4.72.9.4.91,1.73.91a11.79,11.79,0,0,1,3.44.32c.39.23-4.54.42-5.09,1.44s3.08.42,4,.59a1.56,1.56,0,0,1,1.42,1.55s-3.69-.84-4.4.26c-.57.87,1.77.93,2.2,1.05,1.55.44,1.14,2.07,2.08,3.35.8,1.09,1,1.67,2.63,1.67,2.75,0,10.44-10.08,14.44-13.84s9.66-9.35,10.6-12.25-1.81-7.38-2.44-7.54" style="fill:#fff;stroke:#263238;stroke-linecap:round;stroke-linejoin:round"></path><path d="M165,260.49a22.28,22.28,0,0,1,.71,4.7" style="fill:#fff;stroke:#263238;stroke-linecap:round;stroke-linejoin:round"></path><line x1="163.6" y1="217.18" x2="167.61" y2="213.57" style="fill:none;stroke:#263238;stroke-linecap:round;stroke-linejoin:round"></line><line x1="116.71" y1="224.74" x2="121.95" y2="222.9" style="fill:#fff;stroke:#263238;stroke-linecap:round;stroke-linejoin:round"></line><path d="M121.5,194.15s1.48,2.69,5.69,2.76,1.45-5.77,13.76-7.69c8.66-1.35.87,6.87,2.81,7s6.57-1,8.46-7.53.53-22.45-5.55-26.88-22.09-2.29-24,2.53.75,12.53-1,17.14S119.72,192.07,121.5,194.15Z" style="fill:#263238;stroke:#263238;stroke-linecap:round;stroke-linejoin:round"></path><path d="M125,179s-2-3.77-2.21-.88.69,5.66,2.14,6.63,2.19.69,2.19.69Z" style="fill:#fff;stroke:#263238;stroke-linecap:round;stroke-linejoin:round"></path><path d="M128.54,158.08s-3.09,1.18-4.51,7.28,2.1,21.26,3.62,22.69,6.74,7.52,11,7.27c2.72-.15,8.76-7.2,9.44-10.51s-.69-17.7-1.91-21.06S137.38,153.23,128.54,158.08Z" style="fill:#fff;stroke:#263238;stroke-linecap:round;stroke-linejoin:round"></path><path d="M133.27,176.66c0,.48-1.38-.21-1.87-.24s-1.91.49-1.88,0,1.44-.79,1.93-.76S133.3,176.17,133.27,176.66Z" style="fill:#263238"></path><path d="M141.41,175.32a.88.88,0,0,1-.76,1,.89.89,0,0,1-1-.77.88.88,0,0,1,1.74-.21Z" style="fill:#263238"></path><path d="M135.68,185.36a8.49,8.49,0,0,0,6.51-2.37" style="fill:none;stroke:#263238;stroke-linecap:round;stroke-linejoin:round"></path><path d="M138.48,179.21s1.42,1.44.3,2.47a3.53,3.53,0,0,1-3.68.62c-1.13-.4-.17-2.84-.17-2.84" style="fill:none;stroke:#263238;stroke-linecap:round;stroke-linejoin:round"></path><path d="M133.88,174.33a4,4,0,0,0-3.82-2.28,3.83,3.83,0,0,0-3.64,2.17s2.19-1.51,3.6-1.11S132.94,175.71,133.88,174.33Z" style="fill:#263238"></path><path d="M137.19,170.76a4,4,0,0,1,4.07-1.78,3.82,3.82,0,0,1,3.34,2.6s-2-1.78-3.43-1.54S138,172.26,137.19,170.76Z" style="fill:#263238"></path><path d="M131.82,162.48s-4.87-.74-6.39,2.5.13,9-2.06,14.6.49,13.52,1,14.61-2.13,2.93-4.33-2.54,1.48-11.47,1.15-17.36-2.43-12.14,3-16.24,6.81-2.16,6.81-2.16Z" style="fill:#263238;stroke:#263238;stroke-linecap:round;stroke-linejoin:round"></path><path d="M156.09,168.54c-1.55-3.26-2.11-9.5-7.25-14-3.22-2.84-8.88-4-13.34-3.61a7.4,7.4,0,0,0-2.2.14c-7.09,1.43-11.16,5.75-9.5,8.42s8,3,8,3l1,.27a7.28,7.28,0,0,1-.15-1c1-.59,2.66-1.11,4.7.6a19.35,19.35,0,0,1,6.45,12.22c.68,7.19,4.59,9.4,4.95,12.41s-4.46,7.43-5.47,8.51,4.93,1,5.34.92c6-1.12,9.59-5.57,11.48-11.17C162.34,178.68,158.74,174.14,156.09,168.54Z" style="fill:#263238;stroke:#263238;stroke-linecap:round;stroke-linejoin:round"></path><path d="M152,191.91a4.72,4.72,0,0,1-.92,1.34" style="fill:none;stroke:#fff;stroke-linecap:round;stroke-linejoin:round;stroke-width:0.5px"></path><path d="M131.73,161.73s-4.82-1.9-1.28-4.24,11.23,2.65,13.59,7.91,1.79,11.65,4.77,15.69c1.41,1.92,3.33,5.15,3.56,8.07" style="fill:none;stroke:#fff;stroke-linecap:round;stroke-linejoin:round;stroke-width:0.5px"></path><path d="M128,158.79c-.21-.51,0-1.29,1.19-2.49,3.08-3.05,9.46-2.48,13.07.52s5.25,7,6.22,11.88,2.09,7.78,5.1,10.47,4.9,5.72,2.72,9.81" style="fill:none;stroke:#fff;stroke-linecap:round;stroke-linejoin:round;stroke-width:0.5px"></path><path d="M128.15,162.16s-5.55-1.62-2.88-4.81" style="fill:none;stroke:#fff;stroke-linecap:round;stroke-linejoin:round;stroke-width:0.5px"></path><path d="M125.21,193.29a6,6,0,0,0,1.71,1.35" style="fill:none;stroke:#fff;stroke-linecap:round;stroke-linejoin:round;stroke-width:0.5px"></path><path d="M122.7,182s-.64,5.8,1.44,9.78" style="fill:none;stroke:#fff;stroke-linecap:round;stroke-linejoin:round;stroke-width:0.5px"></path><path d="M147.59,158.06a20.79,20.79,0,0,1,3.77,7.8c1.58,6.69-.22,9.21,3.42,12.4a8.37,8.37,0,0,1,2.92,5.2" style="fill:none;stroke:#fff;stroke-linecap:round;stroke-linejoin:round;stroke-width:0.5px"></path><path d="M144.9,155.16s.31.25.79.73" style="fill:none;stroke:#fff;stroke-linecap:round;stroke-linejoin:round;stroke-width:0.5px"></path><path d="M136.35,406.74a15.9,15.9,0,0,1-9.71-1.37c0,.42.07.66.07.66a51.61,51.61,0,0,0-2.67,9.83c-.44,4,2.78,5.55,7.35,8s14.42,7.56,16,4.08-5.73-11.78-9.43-17.84A18.94,18.94,0,0,1,136.35,406.74Z" style="fill:#fff;stroke:#263238;stroke-linecap:round;stroke-linejoin:round"></path><path d="M137.25,420.7c-4.8-1.38-10.12-7-12.24-9.43a30.41,30.41,0,0,0-1,4.59c-.44,4,2.78,5.55,7.35,8s14.42,7.56,16,4.08c.84-1.86-.85-5.09-3.17-8.61C143.22,420.88,141.16,421.81,137.25,420.7Z" style="fill:#BA68C8;stroke:#263238;stroke-linecap:round;stroke-linejoin:round"></path><path d="M132.67,422.46A70.33,70.33,0,0,1,124,416.6c0,3.46,3.12,5,7.39,7.3,4.58,2.49,14.42,7.56,16,4.08a3,3,0,0,0,.2-1.51C142.88,428.62,138.78,425.93,132.67,422.46Z" style="fill:#fff;stroke:#263238;stroke-linecap:round;stroke-linejoin:round"></path></g></svg>