<svg xmlns="http://www.w3.org/2000/svg" xmlns:xlink="http://www.w3.org/1999/xlink" viewBox="0 0 500 500"><defs><clipPath id="freepik--clip-path--inject-38"><path d="M421.16,136.38a84.8,84.8,0,0,0-59.07-23.74h0A84.83,84.83,0,0,0,303,136.38l-1.23,1.18V240.25h120.6V137.56Zm-6.77,34h-49.3V120.71A76.81,76.81,0,0,1,414.39,141Zm-104.6,60.81V176.42h49.3v54.81Zm55.3,0V176.42h49.3v54.81Zm-6-110.52v49.71h-49.3V141A76.81,76.81,0,0,1,359.09,120.71Z" style="fill:#BA68C8;stroke:#263238;stroke-linecap:round;stroke-linejoin:round;stroke-width:0.75px"></path></clipPath><clipPath id="freepik--clip-path-2--inject-38"><path d="M426.39,244.25H297.79V135.92l1.17-1.17a89.38,89.38,0,0,1,126.26,0l1.17,1.17Zm-120.6-8h112.6v-97a81.37,81.37,0,0,0-112.6,0Z" style="fill:#BA68C8;stroke:#263238;stroke-linecap:round;stroke-linejoin:round;stroke-width:0.75px"></path></clipPath><clipPath id="freepik--clip-path-3--inject-38"><path d="M197,136.38a84.83,84.83,0,0,0-59.07-23.74h0a84.8,84.8,0,0,0-59.07,23.74l-1.23,1.18V240.25h120.6V137.56Zm-6.77,34h-49.3V120.71A76.81,76.81,0,0,1,190.21,141ZM85.61,231.23V176.42h49.3v54.81Zm55.3,0V176.42h49.3v54.81Zm-6-110.52v49.71H85.61V141A76.81,76.81,0,0,1,134.91,120.71Z" style="fill:#BA68C8;stroke:#263238;stroke-linecap:round;stroke-linejoin:round;stroke-width:0.75px"></path></clipPath><clipPath id="freepik--clip-path-4--inject-38"><path d="M202.21,244.25H73.61V135.92l1.17-1.17a89.38,89.38,0,0,1,126.26,0l1.17,1.17Zm-120.6-8h112.6v-97a81.37,81.37,0,0,0-112.6,0Z" style="fill:#BA68C8;stroke:#263238;stroke-linecap:round;stroke-linejoin:round;stroke-width:0.75px"></path></clipPath><clipPath id="freepik--clip-path-5--inject-38"><path d="M309.59,353.6c4.53,3.6,11.16,3.6,16.33,0L410.24,295l-9.56,109.34H226L235.52,295Z" style="fill:#BA68C8;stroke:#263238;stroke-linecap:round;stroke-linejoin:round"></path></clipPath><clipPath id="freepik--clip-path-6--inject-38"><path d="M226,404.32H400.68l-74.07-58.63c-4.54-3.59-11.16-3.59-16.33,0Z" style="fill:#BA68C8;stroke:#263238;stroke-linecap:round;stroke-linejoin:round"></path></clipPath><clipPath id="freepik--clip-path-7--inject-38"><path d="M137.64,382.33h17.94l-9.43-76.79a6.85,6.85,0,0,0-6.61-5.88H61.28l11.48,82.67Z" style="fill:#BA68C8;stroke:#263238;stroke-linecap:round;stroke-linejoin:round;stroke-width:0.75px"></path></clipPath><clipPath id="freepik--clip-path-8--inject-38"><path d="M80.76,382.33H62.83L53.4,305.54a5.09,5.09,0,0,1,5.16-5.88h6.16a6.84,6.84,0,0,1,6.61,5.88Z" style="fill:#BA68C8;stroke:#263238;stroke-linecap:round;stroke-linejoin:round;stroke-width:0.75px"></path></clipPath><clipPath id="freepik--clip-path-9--inject-38"><path d="M91.34,387l-3.25-37.14A3.55,3.55,0,0,0,85,346.62l-1.34-.17a4.75,4.75,0,0,1-4.13-4.3L79,335.38a4.75,4.75,0,0,1,4.73-5.16h-30A4.74,4.74,0,0,0,49,335.38l.59,6.77a4.74,4.74,0,0,0,4.13,4.3l1.33.17a3.53,3.53,0,0,1,3.08,3.21L61.36,387a5.25,5.25,0,0,0,5.22,4.78h30A5.24,5.24,0,0,1,91.34,387Z" style="fill:#BA68C8;stroke:#263238;stroke-linecap:round;stroke-linejoin:round;stroke-width:0.75px"></path></clipPath><clipPath id="freepik--clip-path-10--inject-38"><path d="M173.82,340.53a11.29,11.29,0,0,1,11.25-10.31H159a11.29,11.29,0,0,0-11.25,10.31L145.15,370h26.09Z" style="fill:#BA68C8;stroke:#263238;stroke-linecap:round;stroke-linejoin:round;stroke-width:0.75px"></path></clipPath><clipPath id="freepik--clip-path-11--inject-38"><rect x="98.47" y="352.31" width="71.9" height="17.66" rx="5.42" style="fill:#BA68C8;stroke:#263238;stroke-linecap:round;stroke-linejoin:round;stroke-width:0.75px"></rect></clipPath><clipPath id="freepik--clip-path-12--inject-38"><path d="M196.66,330.22H185.07a11.29,11.29,0,0,0-11.25,10.31L171.24,370H109.1l-2.58-29.44a11.29,11.29,0,0,0-11.25-10.31H83.68A4.75,4.75,0,0,0,79,335.38l.59,6.77a4.75,4.75,0,0,0,4.13,4.3l1.34.17a3.55,3.55,0,0,1,3.08,3.21L91.33,387a5.25,5.25,0,0,0,5.23,4.78h87.22A5.24,5.24,0,0,0,189,387l3.25-37.14a3.55,3.55,0,0,1,3.08-3.21l1.34-.17a4.76,4.76,0,0,0,4.13-4.3l.59-6.77A4.75,4.75,0,0,0,196.66,330.22Z" style="fill:#BA68C8;stroke:#263238;stroke-linecap:round;stroke-linejoin:round;stroke-width:0.75px"></path></clipPath><clipPath id="freepik--clip-path-13--inject-38"><path d="M217.39,281.14a18.6,18.6,0,0,0,13.1,2.57c7.6-1.35,10.81-2.11,10.81-2.11s8.43,23.22.5,34.94-22,37.71-22,37.71,5,2.68,3,3.42c0,0,4.64,3.9,9,15.25,0,0,1.83,4.39,3.42,4.76,0,0-2.68,10.55-9,10.37,0,0-7.57-10-14.28-16.35-2.54-2.4-6.28-6.36-8.48-8.7a6.73,6.73,0,0,1-1.81-4.69c.05-2.94,12.36-60.45,14.68-60.08,0,0-2.07-3.66.12-5.62A33,33,0,0,1,217.39,281.14Z" style="fill:#BA68C8;stroke:#263238;stroke-linecap:round;stroke-linejoin:round"></path></clipPath><clipPath id="freepik--clip-path-14--inject-38"><path d="M219.7,219.54s-1.26,7.5,6.34,8.34,10.58-7.52,10.58-7.52-2.15.9-1.79-1.43a53.37,53.37,0,0,1,1.79-6.61l-11.68-3.44S224.64,222,219.7,219.54Z" style="fill:#fff;stroke:#263238;stroke-linecap:round;stroke-linejoin:round"></path></clipPath><clipPath id="freepik--clip-path-15--inject-38"><rect x="174.7" y="59.51" width="149.23" height="94.17" rx="7.54" transform="translate(17.19 -33.54) rotate(7.97)" style="fill:#BA68C8;stroke:#263238;stroke-linecap:round;stroke-linejoin:round;stroke-width:0.75px"></rect></clipPath></defs><g id="freepik--background-simple--inject-38"><path d="M73.32,166.46c27.33-48.69,65.53-34.61,85.47-20,30,22.08,59.19,54.07,102.36,54.07,42.77,0,55.42-54.19,95.84-52.28,41.1,1.94,68.23,34.38,68.23,73.34,0,58.31-21.9,98.64-61.38,116.35-57.29,25.71-131.66,2.08-180.26-20.5-28.78-13.38-84.12-54.86-103.51-84.7C73,221.93,55.67,197.92,73.32,166.46Z" style="fill:#BA68C8"></path><path d="M73.32,166.46c27.33-48.69,65.53-34.61,85.47-20,30,22.08,59.19,54.07,102.36,54.07,42.77,0,55.42-54.19,95.84-52.28,41.1,1.94,68.23,34.38,68.23,73.34,0,58.31-21.9,98.64-61.38,116.35-57.29,25.71-131.66,2.08-180.26-20.5-28.78-13.38-84.12-54.86-103.51-84.7C73,221.93,55.67,197.92,73.32,166.46Z" style="fill:#fff;opacity:0.7000000000000001"></path></g><g id="freepik--Character--inject-38"><path d="M225.68,384.35l8.65,12.52s2.32,5.11,3.71,8.2.15,9,2.79,9c3.58,0,4.79-7.57,4.94-13.45s2.6-15.92-2.56-15.3l-5.17,0-6.33-9Z" style="fill:#fff;stroke:#263238;stroke-linecap:round;stroke-linejoin:round"></path><path d="M240.54,388.93l-1.46,4.39s-3.52-1.08-4.88,0,.13,3.55.13,3.55,2.32,5.11,3.71,8.2.15,9,2.79,9c3.58,0,4.79-7.57,4.94-13.45s2.6-15.92-2.56-15.3l-5.17,0c-.17,1.42.9,1.32,1.83,1.8A1.46,1.46,0,0,1,240.54,388.93Z" style="fill:#BA68C8;stroke:#263238;stroke-linecap:round;stroke-linejoin:round"></path><path d="M236.05,396.6s4.58-2.68,4.84.5S236.05,396.6,236.05,396.6Z" style="fill:none;stroke:#263238;stroke-linecap:round;stroke-linejoin:round"></path><path d="M236.08,400.72s-.43-2,3-2" style="fill:none;stroke:#263238;stroke-linecap:round;stroke-linejoin:round"></path><path d="M237.24,402.45s-.42-2,3-2" style="fill:none;stroke:#263238;stroke-linecap:round;stroke-linejoin:round"></path><path d="M235.75,396.72s-4.84,2.17-2.41,4.23S235.75,396.72,235.75,396.72Z" style="fill:none;stroke:#263238;stroke-linecap:round;stroke-linejoin:round"></path><path d="M244.74,390.38c0,4.91-.67,7.87-1.3,15.77-.49,6.25-2.54,6.55-4.36,5.46.23,1.41.65,2.43,1.75,2.42,3.58,0,4.79-7.57,4.94-13.45s2.6-15.92-2.56-15.3C243.21,385.28,244.71,385.48,244.74,390.38Z" style="fill:#263238;stroke:#263238;stroke-linecap:round;stroke-linejoin:round"></path><path d="M217.39,281.14a18.6,18.6,0,0,0,13.1,2.57c7.6-1.35,10.81-2.11,10.81-2.11s8.43,23.22.5,34.94-22,37.71-22,37.71,5,2.68,3,3.42c0,0,4.64,3.9,9,15.25,0,0,1.83,4.39,3.42,4.76,0,0-2.68,10.55-9,10.37,0,0-7.57-10-14.28-16.35-2.54-2.4-6.28-6.36-8.48-8.7a6.73,6.73,0,0,1-1.81-4.69c.05-2.94,12.36-60.45,14.68-60.08,0,0-2.07-3.66.12-5.62A33,33,0,0,1,217.39,281.14Z" style="fill:#BA68C8"></path><g style="clip-path:url(#freepik--clip-path-13--inject-38)"><path d="M225.92,361.79s-2.16-3.39-8.83-5.18,2.23-17,8.13-26.2c5.67-8.83,13.1-16,10.06-25.59s12.63,9,12.63,9l-9.51,18.88-8.2,12.53-4.65,10.58Z" style="opacity:0.30000000000000004"></path></g><path d="M217.39,281.14a18.6,18.6,0,0,0,13.1,2.57c7.6-1.35,10.81-2.11,10.81-2.11s8.43,23.22.5,34.94-22,37.71-22,37.71,5,2.68,3,3.42c0,0,4.64,3.9,9,15.25,0,0,1.83,4.39,3.42,4.76,0,0-2.68,10.55-9,10.37,0,0-7.57-10-14.28-16.35-2.54-2.4-6.28-6.36-8.48-8.7a6.73,6.73,0,0,1-1.81-4.69c.05-2.94,12.36-60.45,14.68-60.08,0,0-2.07-3.66.12-5.62A33,33,0,0,1,217.39,281.14Z" style="fill:none;stroke:#263238;stroke-linecap:round;stroke-linejoin:round"></path><path d="M224.38,301.19c1.1.45,2.28,1,3.42,1.51,2.45,1.2,4.73,2.61,5.7,4.05,2.56,3.81-3.66,0-7.93,0" style="fill:none;stroke:#263238;stroke-linecap:round;stroke-linejoin:round"></path><path d="M219.22,299.33s1.13.35,2.77.94" style="fill:none;stroke:#263238;stroke-linecap:round;stroke-linejoin:round"></path><path d="M221.29,358.76s-2.31,1.47-9.52,0" style="fill:none;stroke:#263238;stroke-linecap:round;stroke-linejoin:round"></path><path d="M216.53,353.52s-9.15-3.91-6.46-7.82" style="fill:none;stroke:#263238;stroke-linecap:round;stroke-linejoin:round"></path><path d="M289.72,329.27c-1.74,1.27-7.32,4.56-7.32,4.56l3.58,8.62s7.18-6.24,9.6-8.3l4.75-4-6.3-4.55S290.86,328.44,289.72,329.27Z" style="fill:#fff;stroke:#263238;stroke-linecap:round;stroke-linejoin:round"></path><path d="M230.49,283.71s1.32,11.6,7.51,28.39a35.72,35.72,0,0,1,2.23,12.06c.12,14.08,4.43,44,14.67,43.49,13-.65,28.31-24.71,32.87-24.06,0,0,.65-9.76-5.21-10.74,0,0-14,7.48-19.2,14,0,0-1.33-25.06-.35-31.89s6.62-20-8.11-40.68C254.9,274.27,253.27,280.45,230.49,283.71Z" style="fill:#BA68C8"></path><path d="M264,353.15c.39,3.48.74,7.93.74,7.93" style="fill:none;stroke:#263238;stroke-linecap:round;stroke-linejoin:round"></path><path d="M261.53,360a34.11,34.11,0,0,0,1.5-9" style="fill:none;stroke:#263238;stroke-linecap:round;stroke-linejoin:round"></path><path d="M260.11,363.52a15.31,15.31,0,0,0,.77-1.67" style="fill:none;stroke:#263238;stroke-linecap:round;stroke-linejoin:round"></path><path d="M250.45,303.09a8.77,8.77,0,0,1,1.84.39" style="fill:none;stroke:#263238;stroke-linecap:round;stroke-linejoin:round"></path><path d="M252.29,297.62s-14.64,6.83-13.91,8.79c.61,1.61,5.06-3,10.46-3.34" style="fill:none;stroke:#263238;stroke-linecap:round;stroke-linejoin:round"></path><path d="M239.27,316.32q.38,1.56.6,3.15a36.74,36.74,0,0,1,.36,4.69c.12,14.08,6.26,44.84,14.67,43.49,12.87-2.07,28.31-24.71,32.87-24.06,0,0,.65-9.76-5.21-10.74,0,0-14,7.48-19.2,14,0,0-1.33-25.06-.35-31.89s6.62-20-8.11-40.68" style="fill:none;stroke:#263238;stroke-linecap:round;stroke-linejoin:round"></path><path d="M233.81,298.85c1.09,3.59,2.71,8.77,4.54,14.06" style="fill:none;stroke:#263238;stroke-linecap:round;stroke-linejoin:round"></path><path d="M232.38,294s.26.9.71,2.43" style="fill:none;stroke:#263238;stroke-linecap:round;stroke-linejoin:round"></path><path d="M317.75,330.12a1.42,1.42,0,0,1-.7,2.31,9.67,9.67,0,0,1-3.73.09c-5.37-.65-17.74,1.63-17.74,1.63a2.73,2.73,0,0,1,1.51-3.17c2.13-1.14-3.85-2.67-3.85-2.67s-1.79,1.73-3.52,1a15.15,15.15,0,0,1,4.88-9.76c1.51-1.3,3-2,7.87,1.13C307.09,323.68,312.05,323.51,317.75,330.12Z" style="fill:#BA68C8;stroke:#263238;stroke-linecap:round;stroke-linejoin:round"></path><path d="M299.25,333.54s-3.91,2.65-1.72,4.11,2.46-4.22,2.46-4.22.55,5.11,3.08,4.46-2.26-4.58-2.26-4.58Z" style="fill:none;stroke:#263238;stroke-linecap:round;stroke-linejoin:round"></path><path d="M302.27,333.12a3.17,3.17,0,0,1,.55-3" style="fill:none;stroke:#263238;stroke-linecap:round;stroke-linejoin:round"></path><path d="M304.12,332.89a2.27,2.27,0,0,1,.49-1.91" style="fill:none;stroke:#263238;stroke-linecap:round;stroke-linejoin:round"></path><path d="M317.42,332.27a1.43,1.43,0,0,0,.33-2.15c-5.7-6.61-10.66-6.44-15.28-9.48-4.83-3.17-6.36-2.43-7.87-1.13l-.3.28a18.6,18.6,0,0,1,7.47,2.95c5.59,3.53,6.81,1.71,13.15,7.16A29,29,0,0,1,317.42,332.27Z" style="fill:#263238;stroke:#263238;stroke-linecap:round;stroke-linejoin:round"></path><path d="M257.3,274.27c-10-5.39-5-44.47-5-44.47l4.07-7.62c-5.91,3.08-5.73-12.2-5.73-12.2L238.75,220c-20.21,3.32-21.82-3-21.82-3L213.6,210s-6.17,17-8.31,11.72l2,8.1s-3.39,18,3,22.3c0,0,8.78,27.79,5.7,30.16,0,0,4.93,6.18,22.77,2.38S257.3,274.27,257.3,274.27Z" style="fill:#263238;stroke:#263238;stroke-linecap:round;stroke-linejoin:round"></path><path d="M246.12,245.53a13.31,13.31,0,0,0,.73-1.5" style="fill:none;stroke:#7f7f7f;stroke-linecap:round;stroke-linejoin:round"></path><path d="M242.76,249.57a12,12,0,0,0,2.53-2.69" style="fill:none;stroke:#7f7f7f;stroke-linecap:round;stroke-linejoin:round"></path><path d="M220.23,250c4.2-.93,9.81-1.51,14.38.42" style="fill:none;stroke:#7f7f7f;stroke-linecap:round;stroke-linejoin:round"></path><path d="M214.13,251.86s1.13-.47,2.94-1" style="fill:none;stroke:#7f7f7f;stroke-linecap:round;stroke-linejoin:round"></path><path d="M191.83,150a330.1,330.1,0,0,1,12.51,31.58c2.68,7.87,9.79,32.07,9.79,32.07-1.36,8.31-7.53,10.92-7.53,10.92s-9.15-30.16-10.81-36.57c-.55-2.12-2.88-6.76-4.54-12-3.39-10.73-6.86-25-6.86-25s-3-1.75-2.26-5c0,0-1.18-1.9,1.07-3.92s5.12-5.28,7-4.28a10.2,10.2,0,0,1,5.22,5.47C196.67,146,191.83,150,191.83,150Z" style="fill:#fff;stroke:#263238;stroke-linecap:round;stroke-linejoin:round"></path><path d="M196.38,184.65a4.6,4.6,0,0,0,1.07,4" style="fill:none;stroke:#263238;stroke-linecap:round;stroke-linejoin:round"></path><path d="M292.39,163.85c-12.5,13.48-15.59,17-21,24-1.81,2.34-4.23,4.37-7.8,8.43C257.3,203.43,250.35,212,250.35,212c-1.83,8.22,2.92,12.95,2.92,12.95s21-25.09,24.92-30.41c1.65-2.23,3.91-4,8.19-9.68,5.95-7.91,8.47-12.64,12.14-16.11,1.24-1.17,3.17-2.12,4.9-4.73,0,0,1.81-1.32.48-4s-5.63-6.8-7.76-6.58c-1.57.17-1.15.32-4,3.12C289.92,158.62,292.39,163.85,292.39,163.85Z" style="fill:#fff;stroke:#263238;stroke-linecap:round;stroke-linejoin:round"></path><path d="M278.88,191.22a4.6,4.6,0,0,1-2.5,3.35" style="fill:none;stroke:#263238;stroke-linecap:round;stroke-linejoin:round"></path><path d="M215.46,206.92s8.56,15.68,26.85,8.62l4.89-12.25.3-8.28L240,183.7l-6.23-1-4.92,1.14-6,4.82-3.15,2.5-3.15,8.2Z" style="fill:#263238;stroke:#263238;stroke-linecap:round;stroke-linejoin:round"></path><path d="M219.7,219.54s-1.26,7.5,6.34,8.34,10.58-7.52,10.58-7.52-2.15.9-1.79-1.43a53.37,53.37,0,0,1,1.79-6.61l-11.68-3.44S224.64,222,219.7,219.54Z" style="fill:#fff"></path><g style="clip-path:url(#freepik--clip-path-14--inject-38)"><path d="M224.11,192.27s-3.44,10-3.15,13.49a21.46,21.46,0,0,0,3.87,9.26,9.71,9.71,0,0,0,3,2.15,9.61,9.61,0,0,0,3.74,0,21.38,21.38,0,0,0,8.53-5.28c2.24-2.64,5.28-12.8,5.28-12.8L242.69,188,235.5,184l-6.69,1.14Z" style="fill:#263238;stroke:#263238;stroke-linecap:round;stroke-linejoin:round"></path></g><path d="M219.7,219.54s-1.26,7.5,6.34,8.34,10.58-7.52,10.58-7.52-2.15.9-1.79-1.43a53.37,53.37,0,0,1,1.79-6.61l-11.68-3.44S224.64,222,219.7,219.54Z" style="fill:none;stroke:#263238;stroke-linecap:round;stroke-linejoin:round"></path><path d="M224.11,191s-3.44,10-3.15,13.49a21.38,21.38,0,0,0,3.87,9.25,6.21,6.21,0,0,0,6.78,2.18,21.35,21.35,0,0,0,8.54-5.28c2.24-2.64,5.28-12.8,5.28-12.8l-2.74-11.13-7.19-3.94-6.69,1.14Z" style="fill:#fff;stroke:#263238;stroke-linecap:round;stroke-linejoin:round"></path><path d="M231.56,198a5.74,5.74,0,0,1-1.51,4.7l1.27,2.46" style="fill:none;stroke:#263238;stroke-linecap:round;stroke-linejoin:round"></path><path d="M228.35,207.51s3,1.75,5.24.31c0,0-.82,3.55-2.81,3.31S228.35,207.51,228.35,207.51Z" style="fill:none;stroke:#263238;stroke-linecap:round;stroke-linejoin:round"></path><path d="M229.54,198.17c-.21.65-.69,1.07-1.07,1s-.52-.75-.32-1.39.69-1.08,1.07-.95S229.74,197.52,229.54,198.17Z" style="fill:#263238"></path><path d="M239,201.22a4.62,4.62,0,0,0-3.54-1.14s1-1.91,3.6-.88" style="fill:none;stroke:#263238;stroke-linecap:round;stroke-linejoin:round"></path><path d="M231,195.13s.11-1.24-2.2-2a4,4,0,0,0-3.86.72" style="fill:none;stroke:#263238;stroke-linecap:round;stroke-linejoin:round"></path><path d="M235.29,197.25c.22.78.37-1.19,2.79-1a4,4,0,0,1,3.3,2.12" style="fill:none;stroke:#263238;stroke-linecap:round;stroke-linejoin:round"></path><path d="M222.3,191.55s3.69,2.07,9.67-5.71c0,0,9,11.4,13,13.56,0,0-5.18,4.88-5.68,9.86s-.31,8.78-3.11,9.25c0,0,14.37,3.77,15.24-11.31s.85-16.4-6.7-24.48c-4-4.27-9.63-4.45-14.63-3.12-4.46,1.18-8.4,3.39-10.16,8-3.74,9.82-14.73,18.42-4.91,25.61s5.24-6,5.24-6-1.95,3.12-2.43-.21C217.1,202.16,222.8,199,222.3,191.55Z" style="fill:#263238;stroke:#263238;stroke-linecap:round;stroke-linejoin:round"></path><path d="M228.84,180.57s-.3-4.54,4.83-4.09S230.18,177.9,228.84,180.57Z" style="fill:#263238;stroke:#263238;stroke-linecap:round;stroke-linejoin:round"></path><path d="M223.19,193.48a13.16,13.16,0,0,0,0-2.09" style="fill:none;stroke:#7f7f7f;stroke-linecap:round;stroke-linejoin:round;stroke-width:0.75px"></path><path d="M218.7,206.83c-.55-3.8,2.88-6.6,4.11-11.24" style="fill:none;stroke:#7f7f7f;stroke-linecap:round;stroke-linejoin:round;stroke-width:0.75px"></path><path d="M221.13,207s-.76,1.22-1.45,1.32" style="fill:none;stroke:#7f7f7f;stroke-linecap:round;stroke-linejoin:round;stroke-width:0.75px"></path><path d="M221.36,209.32a12.47,12.47,0,0,1,.35,3.43" style="fill:none;stroke:#7f7f7f;stroke-linecap:round;stroke-linejoin:round;stroke-width:0.75px"></path><path d="M239,212.75s-.12,3-.77,4.05" style="fill:none;stroke:#7f7f7f;stroke-linecap:round;stroke-linejoin:round;stroke-width:0.75px"></path><path d="M248,199.9c-.14,4.95,2.41,12-6.65,16.9" style="fill:none;stroke:#7f7f7f;stroke-linecap:round;stroke-linejoin:round;stroke-width:0.75px"></path><path d="M236.32,182.43a9.66,9.66,0,0,1,6.53,2.77c3.92,4.16,6.34,8.24,5.34,13.16" style="fill:none;stroke:#7f7f7f;stroke-linecap:round;stroke-linejoin:round;stroke-width:0.75px"></path><path d="M232.06,182.73a13.51,13.51,0,0,1,2.36-.31" style="fill:none;stroke:#7f7f7f;stroke-linecap:round;stroke-linejoin:round;stroke-width:0.75px"></path><rect x="174.49" y="60.17" width="149.23" height="94.17" rx="7.54" transform="translate(17.28 -33.51) rotate(7.97)" style="fill:#263238;stroke:#263238;stroke-linecap:round;stroke-linejoin:round"></rect><rect x="174.7" y="59.51" width="149.23" height="94.17" rx="7.54" transform="translate(17.19 -33.54) rotate(7.97)" style="fill:#BA68C8"></rect><g style="clip-path:url(#freepik--clip-path-15--inject-38)"><polygon points="186.5 152.97 167.85 150.35 237.3 48.01 255.95 50.62 186.5 152.97" style="fill:#fff;opacity:0.6000000000000001"></polygon><polygon points="267.78 164.35 242.95 160.87 312.4 58.52 337.24 62 267.78 164.35" style="fill:#fff;opacity:0.6000000000000001"></polygon><polygon points="199.09 154.73 192.84 153.85 262.3 51.51 268.55 52.38 199.09 154.73" style="fill:#fff;opacity:0.6000000000000001"></polygon></g><rect x="174.7" y="59.51" width="149.23" height="94.17" rx="7.54" transform="translate(17.19 -33.54) rotate(7.97)" style="fill:none;stroke:#263238;stroke-linecap:round;stroke-linejoin:round;stroke-width:0.75px"></rect><path d="M245.32,104.91c1.23,0,2.3-.92,3.14-2.35l75.11,11.79,2-14.51L250.22,91.2a6.58,6.58,0,0,0-1.82-3.87c-3.16-2.77-14.63.1-19.36,1.44l-1.34-.15a2.31,2.31,0,0,0-.45-.54l6.21-31.25-13.8-1.93-3.19,31.43a2.62,2.62,0,0,0-.81.38l-2.4-.49c-4.54-2.76-13.91-8-17.51-6.27a5.76,5.76,0,0,0-2.26,2.24l-15.66-3.11-2.05,14.63,16,1.61a3.44,3.44,0,0,0,2.15,2.38c2,.54,5.19.23,8.65-.25-12.43,7.32-15.76,23.79-15.76,23.79l7.8-4,6,8c.79-14.37,9.52-23.24,14.39-27.1l-7.88,50.14L219.63,150l5.85-51h0l.31,0c3.53,4.69,10.23,16,6.89,30.69l8-6,6.39,6s1.27-16.07-8-26.55A19.54,19.54,0,0,0,245.32,104.91Z" style="fill:#263238"></path><polygon points="178.09 77.23 176.08 91.58 218.52 95.74 323.86 112.28 325.87 97.92 219.91 85.77 178.09 77.23" style="fill:#fff;stroke:#263238;stroke-linecap:round;stroke-linejoin:round"></polygon><polygon points="205.08 148.63 217.46 150.37 224.33 91.65 231.5 56.55 217.85 54.64 214.36 90.26 205.08 148.63" style="fill:#fff;stroke:#263238;stroke-linecap:round;stroke-linejoin:round"></polygon><path d="M216.67,93.52s-16.17,9.12-17.24,28.72l-5.9-7.81-7.62,3.94s4.45-22.05,22.41-26Z" style="fill:#fff;stroke:#263238;stroke-linecap:round;stroke-linejoin:round"></path><path d="M222.14,94.28s13,13.22,8.68,32.36l7.81-5.9,6.25,5.89s1.78-22.43-14.4-31.18Z" style="fill:#fff;stroke:#263238;stroke-linecap:round;stroke-linejoin:round"></path><path d="M214.3,85.68s-14.89-9.92-19.61-7.7-6.36,16.12-1.83,17.37,16.1-2.15,21-1.46Z" style="fill:#fff;stroke:#263238;stroke-linecap:round;stroke-linejoin:round"></path><path d="M192.3,93.45c.17,1.75,5.27,1.83,9.17,1.63,2.9-.41,5.94-.93,8.51-1.16C203.75,92.93,192.09,91.35,192.3,93.45Z" style="fill:#999;stroke:#263238;stroke-linecap:round;stroke-linejoin:round"></path><path d="M225.22,87.21s17.05-5.45,21-2,1.69,17.24-3,17.19-14.89-6.49-19.81-7.18Z" style="fill:#fff;stroke:#263238;stroke-linecap:round;stroke-linejoin:round"></path><path d="M244.25,100.72c-.65,1.64-5.58.31-9.27-1-2.68-1.18-5.46-2.52-7.87-3.45C233.37,97.08,245,98.77,244.25,100.72Z" style="fill:#999;stroke:#263238;stroke-linecap:round;stroke-linejoin:round"></path><path d="M222,97l-7.15-1a2.56,2.56,0,0,1-2.2-2.69l.43-6.77A2.56,2.56,0,0,1,216,84.15l8.16,1.15a2.55,2.55,0,0,1,2.15,3.08L224.84,95A2.55,2.55,0,0,1,222,97Z" style="fill:#fff;stroke:#263238;stroke-linecap:round;stroke-linejoin:round"></path><path d="M188.19,148.41s-1.91-2.79,2.49-4.87c3.32-1.57,2.38-3.56,4.52-3.33s-2.82,5.46-2.14,7.36" style="fill:#fff;stroke:#263238;stroke-linecap:round;stroke-linejoin:round"></path><path d="M296.81,164.39s2.89-1.93-.49-5.45c-2.38-2.47.82-4.11-.87-5.14-2.26-1.37-1.51,6.49-2.84,8" style="fill:#fff;stroke:#263238;stroke-linecap:round;stroke-linejoin:round"></path><path d="M285.65,146.54c-1.82-.64-2.57-2.22-2.27-4.31l.15-1.09,2.46.35-.18,1.26a1.26,1.26,0,0,0,1.15,1.63c.83.12,1.41-.24,1.56-1.3s-.19-2.11-1.75-3.73c-1.89-2-2.44-3.41-2.19-5.21.29-2,1.41-3.3,3.29-3.45l.2-1.44,2.14.3L290,131c1.8.64,2.54,2.2,2.25,4.28l-.07.47-2.46-.34.09-.64c.14-1-.27-1.54-1.1-1.65s-1.36.26-1.5,1.23.21,2,1.76,3.63c1.9,2,2.44,3.41,2.18,5.31-.3,2.13-1.47,3.44-3.37,3.56l-.24,1.65-2.13-.3Z" style="fill:#263238"></path><path d="M292.85,143.9l.19-1.3,2.46.35-.21,1.49c-.17,1.18.29,1.68,1.12,1.8s1.41-.24,1.58-1.42l.52-3.72c.17-1.18-.29-1.71-1.12-1.82s-1.41.26-1.58,1.44l0,.14-2.46-.34,1.77-9.2,6.87,1-.33,2.37-4.55-.64-.77,3.92h.05a2.47,2.47,0,0,1,2.42-.89c1.92.27,2.7,1.75,2.36,4.19l-.53,3.75c-.37,2.65-1.91,4-4.47,3.62S292.48,146.56,292.85,143.9Z" style="fill:#263238"></path><path d="M302.21,145.22l1.23-8.72c.37-2.65,2-4,4.54-3.61s3.74,2.07,3.37,4.73l-1.23,8.71c-.37,2.65-2,4-4.54,3.61S301.84,147.87,302.21,145.22Zm5.28.91,1.27-9c.17-1.18-.29-1.7-1.12-1.82s-1.41.26-1.58,1.44l-1.27,9.05c-.16,1.18.29,1.71,1.12,1.82S307.33,147.31,307.49,146.13Z" style="fill:#263238"></path><path d="M279.37,207.41l1.62-1.47" style="fill:none;stroke:#263238;stroke-linecap:round;stroke-linejoin:round"></path><path d="M261.33,229.94c2.64-5.57,7.61-12.73,16.8-21.38" style="fill:none;stroke:#263238;stroke-linecap:round;stroke-linejoin:round"></path><path d="M259.59,234.34c.24-.76.53-1.57.87-2.42" style="fill:none;stroke:#263238;stroke-linecap:round;stroke-linejoin:round"></path><path d="M259,243.94a10.34,10.34,0,0,1-.44-4.22" style="fill:none;stroke:#263238;stroke-linecap:round;stroke-linejoin:round"></path><line x1="207" y1="386.06" x2="207" y2="392.98" style="fill:none;stroke:#263238;stroke-linecap:round;stroke-linejoin:round"></line><line x1="207" y1="376.44" x2="207" y2="383.62" style="fill:none;stroke:#263238;stroke-linecap:round;stroke-linejoin:round"></line><line x1="207" y1="371.28" x2="207" y2="374.28" style="fill:none;stroke:#263238;stroke-linecap:round;stroke-linejoin:round"></line><line x1="215.6" y1="400.94" x2="215.6" y2="404.1" style="fill:none;stroke:#263238;stroke-linecap:round;stroke-linejoin:round"></line><line x1="215.6" y1="386.25" x2="215.6" y2="398.72" style="fill:none;stroke:#263238;stroke-linecap:round;stroke-linejoin:round"></line><line x1="215.6" y1="380.4" x2="215.6" y2="383.62" style="fill:none;stroke:#263238;stroke-linecap:round;stroke-linejoin:round"></line><path d="M287.51,367.35c.51-.24,1-.5,1.54-.76" style="fill:none;stroke:#263238;stroke-linecap:round;stroke-linejoin:round"></path><path d="M270.67,373.68a81.59,81.59,0,0,0,15.25-5.57" style="fill:none;stroke:#263238;stroke-linecap:round;stroke-linejoin:round"></path><path d="M244.36,369.67c3.78,3.45,10.79,6.92,23.08,4.7" style="fill:none;stroke:#263238;stroke-linecap:round;stroke-linejoin:round"></path><path d="M240.44,364.32a13.16,13.16,0,0,0,1.94,3.21" style="fill:none;stroke:#263238;stroke-linecap:round;stroke-linejoin:round"></path><line x1="259" y1="161.23" x2="262.65" y2="161.7" style="fill:none;stroke:#263238;stroke-linecap:round;stroke-linejoin:round"></line><line x1="231.61" y1="157.67" x2="255.13" y2="160.73" style="fill:none;stroke:#263238;stroke-linecap:round;stroke-linejoin:round"></line><line x1="221.3" y1="156.33" x2="226.51" y2="157.01" style="fill:none;stroke:#263238;stroke-linecap:round;stroke-linejoin:round"></line><line x1="253.81" y1="55.12" x2="250.17" y2="54.64" style="fill:none;stroke:#263238;stroke-linecap:round;stroke-linejoin:round"></line><line x1="281.21" y1="58.68" x2="257.69" y2="55.62" style="fill:none;stroke:#263238;stroke-linecap:round;stroke-linejoin:round"></line><line x1="291.51" y1="60.02" x2="286.3" y2="59.34" style="fill:none;stroke:#263238;stroke-linecap:round;stroke-linejoin:round"></line></g></svg>