<svg xmlns="http://www.w3.org/2000/svg" viewBox="0 0 500 500"><g id="freepik--Device--inject-5"><path d="M154.84,282.15H348.15a4.29,4.29,0,0,1,4.29,4.29v124.1a0,0,0,0,1,0,0H150.54a0,0,0,0,1,0,0V286.44A4.29,4.29,0,0,1,154.84,282.15Z" style="fill:#BA68C8;stroke:#263238;stroke-linecap:round;stroke-linejoin:round"></path><path d="M165.21,291.89H337.78a4.29,4.29,0,0,1,4.29,4.29V412.27a0,0,0,0,1,0,0H160.91a0,0,0,0,1,0,0V296.19A4.29,4.29,0,0,1,165.21,291.89Z" style="fill:#263238;stroke:#263238;stroke-linecap:round;stroke-linejoin:round"></path><path d="M350.71,420.91H143.29c-9.55,0-17.29-5.78-17.29-12.91H368C368,415.13,360.26,420.91,350.71,420.91Z" style="fill:#BA68C8;stroke:#263238;stroke-linecap:round;stroke-linejoin:round"></path></g><g id="freepik--Shield--inject-5"><path d="M250.63,163.93c-13.32,12.67-47.39,25.47-87.12,52.62,0,0,2.48,91.74,87.12,141.89Z" style="fill:#BA68C8;stroke:#263238;stroke-linecap:round;stroke-linejoin:round"></path><path d="M250.63,163.93c13.31,12.67,47.39,25.47,87.12,52.62,0,0-2.48,91.74-87.12,141.89Z" style="fill:#263238;stroke:#263238;stroke-linecap:round;stroke-linejoin:round"></path><path d="M250.63,171.74c-16.07,11.39-43.92,22.25-80.73,47.4,0,0,2.3,85,80.73,131.49,78.43-46.47,80.73-131.49,80.73-131.49C294.54,194,266.82,183.13,250.63,171.74Z" style="fill:#263238;stroke:#263238;stroke-linecap:round;stroke-linejoin:round"></path><path d="M317.6,210.11c-56.16,17-99,66.35-118.48,92.38a160.89,160.89,0,0,0,51.51,48.14c78.43-46.47,80.73-131.49,80.73-131.49Q324.25,214.3,317.6,210.11Z" style="fill:#BA68C8;stroke:#263238;stroke-linecap:round;stroke-linejoin:round"></path><path d="M281.21,257.45H221a5,5,0,0,1-5-5V224.11a35.09,35.09,0,0,1,70.17,0v28.34A5,5,0,0,1,281.21,257.45Zm-55.17-10h50.17V224.11a25.09,25.09,0,0,0-50.17,0Z" style="fill:#fff;stroke:#263238;stroke-linecap:round;stroke-linejoin:round"></path><rect x="212.33" y="243.79" width="76.6" height="64.73" style="fill:#fff;stroke:#263238;stroke-linecap:round;stroke-linejoin:round"></rect><path d="M258.59,270.67a8.34,8.34,0,1,0-12.3,7.34l-1.4,14.7h10.72l-1.4-14.7A8.32,8.32,0,0,0,258.59,270.67Z" style="fill:#263238;stroke:#263238;stroke-linecap:round;stroke-linejoin:round"></path></g></svg>