<svg xmlns="http://www.w3.org/2000/svg" xmlns:xlink="http://www.w3.org/1999/xlink" viewBox="0 0 500 500"><defs><clipPath id="freepik--clip-path--inject-1--inject-2"><polygon points="122.68 213.83 89.75 203.08 86.82 195.34 80.13 195.13 67.99 192.83 69.45 195.34 84.73 206.43 88.5 208.31 122.94 226.3 122.68 213.83" style="fill:#fff;stroke:#263238;stroke-miterlimit:10;stroke-width:1.0039600000000002px"></polygon></clipPath><clipPath id="freepik--clip-path-2--inject-1--inject-2"><polygon points="86.82 195.34 83.68 193.46 77.41 195.76 78.45 197.01 86.82 195.34" style="fill:#fff;stroke:#263238;stroke-linejoin:round;stroke-width:1.0039600000000002px"></polygon></clipPath><clipPath id="freepik--clip-path-3--inject-1--inject-2"><path d="M129.67,144.06s-.51,4.5.76,7.39,8.32,12.68,8.32,12.68l-13.16,10.55s-5.46-11-6.5-12.78-2.29-9.44,1.1-14.93S128.46,140,129.67,144.06Z" style="fill:#fff;stroke:#263238;stroke-miterlimit:10;stroke-width:1.0039600000000002px"></path></clipPath><clipPath id="freepik--clip-path-4--inject-1--inject-2"><path d="M133.75,135.82c-.81-5-6.54-15.17-15.63-14.78-5.9.26-8.66,1.45-11.22,2.9a33,33,0,0,0-5.8,4.34c-4.44,5.33-6,6.79-5.14,10.87a12.24,12.24,0,0,0,.75,4.78c1.36,3.63,2.29,6,3.47,7.73-.36,1.69-1.3,6.15-1.35,7.17s3,.31,4.54-.08c2.86,6.4,8.1,10.84,9.73,11.35,2.84.89,7.33-3.78,9.71-7.4s.58-7.69.59-9.31,5.35-5.18,7.33-6.31S134.55,140.81,133.75,135.82Z" style="fill:#fff;stroke:#263238;stroke-miterlimit:10"></path></clipPath><clipPath id="freepik--clip-path-5--inject-1--inject-2"><path d="M144.65,171.54s7.09,4.83,7.25,16.24c.07,5-.45,9.67-1.6,17.86s-8.29,34.86-13.85,38.1-14.19-2.88-14.19-2.88L80.52,213.15,70.43,205l-5-9.44L67,192.56,79.31,202l-6.63-6.13,1.3-1.65,2.4,1.67,7,2.62,1.53,10,2.16,1.48L127,224.58s-.5-21.49-.13-25.6.88-14.44,5.28-21.93" style="fill:#fff;stroke:#263238;stroke-miterlimit:10;stroke-width:1.0039600000000002px"></path></clipPath></defs><!--Mobile login--><g id="freepik--Shadow--inject-1--inject-2"><ellipse cx="219.81" cy="428.05" rx="154.58" ry="9.63" style="fill:#BA68C8"></ellipse><ellipse cx="219.81" cy="428.05" rx="154.58" ry="9.63" style="fill:#fff;opacity:0.8"></ellipse></g><g id="freepik--Device--inject-1--inject-2"><rect x="161.11" y="61.86" width="194.29" height="367" rx="19.43" style="fill:#263238"></rect><rect x="169.74" y="102.16" width="177.02" height="286.4" style="fill:#fff;stroke:#263238;stroke-miterlimit:10;stroke-width:1.33739px"></rect><circle cx="258.26" cy="191" r="38.37" transform="translate(-59.42 238.56) rotate(-45)" style="fill:#BA68C8"></circle><path d="M308.63,370.55H207.89a1.72,1.72,0,0,1-1.73-1.72h0a1.72,1.72,0,0,1,1.73-1.73H308.63a1.72,1.72,0,0,1,1.72,1.73h0A1.72,1.72,0,0,1,308.63,370.55Z" style="fill:#BA68C8"></path><rect x="200.59" y="250.94" width="115.33" height="20.67" rx="4.01" style="fill:#BA68C8"></rect><rect x="200.59" y="289.6" width="115.33" height="20.67" rx="4.01" style="fill:#BA68C8"></rect><path d="M277.36,210.14l-11.29-6.5v-5.37a17.66,17.66,0,0,0,3.47-6.77,3.64,3.64,0,0,0,1.21.21c1.4,0,2.29-4.34,2.44-7.44,1.63-3.45-.59-5.47-.59-5.47s.92-.92,1.53-4.61-2.15-2.15-4.3-5.53-3.69-7.06-10.75-7.06a9.7,9.7,0,0,0-9.22,5.84,23.36,23.36,0,0,0-5.22.61c-2.16.61-2.77,7.68-.93,10.45a10.53,10.53,0,0,1,1.28,4.93c-.49-.6-1-.76-1.28.6-.61,3.07,1.85,7.37,1.85,7.37l1.27-.36a18,18,0,0,0,3.61,7.23v5.37l-11.29,6.5a8.68,8.68,0,0,0-4.34,7.51v3.72a38.35,38.35,0,0,0,46.89,0v-3.72A8.66,8.66,0,0,0,277.36,210.14Z" style="fill:#263238"></path><path d="M215.2,305.13a1,1,0,0,1-.69-.29.93.93,0,0,1-.31-.7,1,1,0,0,1,.15-.51l1.8-2.88-3.51.11a.94.94,0,0,1-.72-.27,1,1,0,0,1,0-1.33.91.91,0,0,1,.72-.28l3.46.13-1.78-2.87a1,1,0,0,1-.15-.52.93.93,0,0,1,.31-.7,1,1,0,0,1,.69-.29.9.9,0,0,1,.81.52l1.71,3.09,1.69-3.07a1,1,0,0,1,.87-.56.91.91,0,0,1,.67.3,1,1,0,0,1,.28.71,1,1,0,0,1-.13.49l-1.81,2.9,3.51-.13a.91.91,0,0,1,.72.28.93.93,0,0,1,.26.66,1,1,0,0,1-.26.67.94.94,0,0,1-.72.27l-3.53-.11L221,303.6a1,1,0,0,1,.15.53,1,1,0,0,1-1,1,.88.88,0,0,1-.8-.54l-1.67-3-1.66,3A.94.94,0,0,1,215.2,305.13Z" style="fill:#263238"></path><path d="M231.42,305.13a1,1,0,0,1-.69-.29.93.93,0,0,1-.31-.7,1,1,0,0,1,.15-.51l1.8-2.88-3.5.11a1,1,0,0,1-.73-.27.95.95,0,0,1,.73-1.61l3.45.13-1.78-2.87a1,1,0,0,1-.15-.52.93.93,0,0,1,.31-.7,1,1,0,0,1,.69-.29.9.9,0,0,1,.81.52l1.71,3.09,1.69-3.07a1,1,0,0,1,.87-.56.89.89,0,0,1,.67.3,1,1,0,0,1,.29.71,1,1,0,0,1-.14.49l-1.81,2.9L239,299a.89.89,0,0,1,.71.28.93.93,0,0,1,.26.66,1,1,0,0,1-.26.67.92.92,0,0,1-.71.27l-3.54-.11,1.76,2.85a1,1,0,0,1,.15.53,1,1,0,0,1-1,1,.88.88,0,0,1-.8-.54l-1.67-3-1.66,3A.94.94,0,0,1,231.42,305.13Z" style="fill:#263238"></path><path d="M247.65,305.13a1,1,0,0,1-.7-.29.93.93,0,0,1-.31-.7,1,1,0,0,1,.15-.51l1.8-2.88-3.5.11a.95.95,0,0,1-.73-1.6.94.94,0,0,1,.73-.28l3.45.13-1.78-2.87a1,1,0,0,1-.15-.52,1,1,0,0,1,.31-.7,1,1,0,0,1,.7-.29.9.9,0,0,1,.8.52l1.71,3.09,1.69-3.07a1,1,0,0,1,.87-.56.89.89,0,0,1,.67.3,1,1,0,0,1,.29.71,1,1,0,0,1-.14.49l-1.81,2.9,3.52-.13a.91.91,0,0,1,1,.94,1,1,0,0,1-.25.67.94.94,0,0,1-.72.27l-3.53-.11,1.75,2.85a1,1,0,0,1,.15.53,1,1,0,0,1-.31.7.94.94,0,0,1-.68.3.87.87,0,0,1-.79-.54l-1.68-3-1.66,3A.93.93,0,0,1,247.65,305.13Z" style="fill:#263238"></path><path d="M263.87,305.13a1,1,0,0,1-.7-.29,1,1,0,0,1-.3-.7.94.94,0,0,1,.14-.51l1.8-2.88-3.5.11a1,1,0,0,1-.73-.27,1,1,0,0,1,0-1.33,1,1,0,0,1,.73-.28l3.46.13L263,296.24a1,1,0,0,1-.15-.52,1,1,0,0,1,.31-.7,1,1,0,0,1,.7-.29.9.9,0,0,1,.81.52l1.7,3.09,1.69-3.07a1,1,0,0,1,.87-.56.89.89,0,0,1,.67.3,1,1,0,0,1,.29.71,1,1,0,0,1-.14.49l-1.81,2.9,3.52-.13a.91.91,0,0,1,1,.94,1,1,0,0,1-.25.67.94.94,0,0,1-.72.27l-3.53-.11,1.75,2.85a1,1,0,0,1,.15.53.93.93,0,0,1-.31.7.94.94,0,0,1-.68.3.87.87,0,0,1-.79-.54l-1.68-3-1.66,3A.93.93,0,0,1,263.87,305.13Z" style="fill:#263238"></path><path d="M280.09,305.13a1,1,0,0,1-.7-.29,1,1,0,0,1-.15-1.21l1.79-2.88-3.5.11a1,1,0,0,1-.73-.27,1,1,0,0,1,0-1.33,1,1,0,0,1,.73-.28l3.46.13-1.78-2.87a1,1,0,0,1-.15-.52,1,1,0,0,1,.3-.7,1,1,0,0,1,.7-.29.9.9,0,0,1,.81.52l1.7,3.09,1.69-3.07a1,1,0,0,1,.87-.56.91.91,0,0,1,.68.3,1,1,0,0,1,.28.71,1,1,0,0,1-.14.49l-1.81,2.9,3.52-.13a.91.91,0,0,1,1,.94,1,1,0,0,1-.25.67.94.94,0,0,1-.72.27l-3.53-.11,1.75,2.85a1,1,0,0,1,.15.53.93.93,0,0,1-.31.7.94.94,0,0,1-.68.3.87.87,0,0,1-.79-.54l-1.68-3-1.66,3A.93.93,0,0,1,280.09,305.13Z" style="fill:#263238"></path><path d="M296.31,305.13a1,1,0,0,1-.69-.29.93.93,0,0,1-.31-.7,1,1,0,0,1,.15-.51l1.79-2.88-3.5.11a.93.93,0,0,1-1-.94.93.93,0,0,1,.27-.66.91.91,0,0,1,.72-.28l3.46.13-1.78-2.87a1,1,0,0,1-.15-.52,1,1,0,0,1,.3-.7,1,1,0,0,1,.7-.29.9.9,0,0,1,.81.52l1.7,3.09,1.7-3.07a1,1,0,0,1,.86-.56.91.91,0,0,1,.68.3,1,1,0,0,1,.28.71,1,1,0,0,1-.13.49l-1.81,2.9,3.51-.13a.91.91,0,0,1,.72.28.93.93,0,0,1,.26.66,1,1,0,0,1-.26.67.94.94,0,0,1-.72.27l-3.53-.11,1.75,2.85a1,1,0,0,1,.15.53,1,1,0,0,1-.3.7,1,1,0,0,1-.69.3.87.87,0,0,1-.79-.54l-1.68-3-1.66,3A.93.93,0,0,1,296.31,305.13Z" style="fill:#263238"></path><rect x="169.74" y="102.54" width="177.02" height="11.09" style="fill:#BA68C8;mix-blend-mode:multiply"></rect><path d="M277.5,82.11H239a2.62,2.62,0,0,1-2.62-2.62h0A2.62,2.62,0,0,1,239,76.87H277.5a2.62,2.62,0,0,1,2.62,2.62h0A2.62,2.62,0,0,1,277.5,82.11Z" style="fill:#BA68C8;stroke:#263238;stroke-linecap:round;stroke-linejoin:round;stroke-width:1.33739px"></path><path d="M268.75,404.74a10.5,10.5,0,1,0-10.49,10.49A10.5,10.5,0,0,0,268.75,404.74Z" style="fill:#BA68C8"></path><rect x="252.94" y="399.42" width="10.64" height="10.64" style="fill:#BA68C8;stroke:#263238;stroke-linecap:round;stroke-linejoin:round;stroke-width:1.33739px"></rect></g><g id="freepik--Character--inject-1--inject-2"><polygon points="122.68 213.83 89.75 203.08 86.82 195.34 80.13 195.13 67.99 192.83 69.45 195.34 84.73 206.43 88.5 208.31 122.94 226.3 122.68 213.83" style="fill:#fff;stroke:#263238;stroke-miterlimit:10;stroke-width:1.0039600000000002px"></polygon><polygon points="86.82 195.34 83.68 193.46 77.41 195.76 78.45 197.01 86.82 195.34" style="fill:#fff;stroke:#263238;stroke-linejoin:round;stroke-width:1.0039600000000002px"></polygon><polygon points="122.68 213.83 89.75 203.08 86.82 195.34 80.13 195.13 67.99 192.83 69.45 195.34 84.73 206.43 88.5 208.31 122.94 226.3 122.68 213.83" style="fill:#fff"></polygon><g style="clip-path:url(#freepik--clip-path--inject-1--inject-2)"><polygon points="122.68 213.83 89.75 203.08 86.82 195.34 80.13 195.13 67.99 192.83 69.45 195.34 84.73 206.43 88.5 208.31 122.94 226.3 122.68 213.83" style="fill:#BA68C8;stroke:#263238;stroke-miterlimit:10;stroke-width:1.0039600000000002px;opacity:0.5"></polygon></g><polygon points="122.68 213.83 89.75 203.08 86.82 195.34 80.13 195.13 67.99 192.83 69.45 195.34 84.73 206.43 88.5 208.31 122.94 226.3 122.68 213.83" style="fill:none;stroke:#263238;stroke-miterlimit:10;stroke-width:1.0039600000000002px"></polygon><polygon points="86.82 195.34 83.68 193.46 77.41 195.76 78.45 197.01 86.82 195.34" style="fill:#fff"></polygon><g style="clip-path:url(#freepik--clip-path-2--inject-1--inject-2)"><polygon points="86.82 195.34 83.68 193.46 77.41 195.76 78.45 197.01 86.82 195.34" style="fill:#BA68C8;stroke:#263238;stroke-linejoin:round;stroke-width:1.0039600000000002px;opacity:0.5"></polygon></g><polygon points="86.82 195.34 83.68 193.46 77.41 195.76 78.45 197.01 86.82 195.34" style="fill:none;stroke:#263238;stroke-linejoin:round;stroke-width:1.0039600000000002px"></polygon><path d="M129.67,144.06s-.51,4.5.76,7.39,8.32,12.68,8.32,12.68l-13.16,10.55s-5.46-11-6.5-12.78-2.29-9.44,1.1-14.93S128.46,140,129.67,144.06Z" style="fill:#fff"></path><g style="clip-path:url(#freepik--clip-path-3--inject-1--inject-2)"><polygon points="122.91 158.52 128.62 170.36 125.58 174.69 119.84 164.44 122.91 158.52" style="fill:#BA68C8;opacity:0.5;mix-blend-mode:multiply"></polygon></g><path d="M129.67,144.06s-.51,4.5.76,7.39,8.32,12.68,8.32,12.68l-13.16,10.55s-5.46-11-6.5-12.78-2.29-9.44,1.1-14.93S128.46,140,129.67,144.06Z" style="fill:none;stroke:#263238;stroke-miterlimit:10;stroke-width:1.0039600000000002px"></path><path d="M133.75,135.82c-.81-5-6.54-15.17-15.63-14.78-5.9.26-8.66,1.45-11.22,2.9a33,33,0,0,0-5.8,4.34c-4.44,5.33-6,6.79-5.14,10.87a12.24,12.24,0,0,0,.75,4.78c1.36,3.63,2.29,6,3.47,7.73-.36,1.69-1.3,6.15-1.35,7.17s3,.31,4.54-.08c2.86,6.4,8.1,10.84,9.73,11.35,2.84.89,7.33-3.78,9.71-7.4s.58-7.69.59-9.31,5.35-5.18,7.33-6.31S134.55,140.81,133.75,135.82Z" style="fill:#fff"></path><g style="clip-path:url(#freepik--clip-path-4--inject-1--inject-2)"><path d="M96,139.15a12.24,12.24,0,0,0,.75,4.78c1.36,3.63,2.29,6,3.47,7.73-.36,1.69-1.3,6.15-1.35,7.17s3,.31,4.54-.08c2.86,6.4,8.1,10.84,9.73,11.35,2.84.89,7.33-3.78,9.71-7.4a7.29,7.29,0,0,0,1.13-3c-.13-.47-.22-.76-.22-.76s-1.34,5.15-4,4.48-6.73-6-9-7.84-1.34-4.26-1.79-7-7.17-5.15-7.62-6.72,1.12-8.07,1.12-8.07,2.55-3.4,2-2a9.52,9.52,0,0,0,.67,7.39,5.1,5.1,0,0,0,4.71,2.91L112.29,130l-5.15-4.26-6,2.5C96.66,133.61,95.13,135.07,96,139.15Z" style="fill:#BA68C8;opacity:0.5;mix-blend-mode:multiply"></path></g><path d="M133.75,135.82c-.81-5-6.54-15.17-15.63-14.78-5.9.26-8.66,1.45-11.22,2.9a33,33,0,0,0-5.8,4.34c-4.44,5.33-6,6.79-5.14,10.87a12.24,12.24,0,0,0,.75,4.78c1.36,3.63,2.29,6,3.47,7.73-.36,1.69-1.3,6.15-1.35,7.17s3,.31,4.54-.08c2.86,6.4,8.1,10.84,9.73,11.35,2.84.89,7.33-3.78,9.71-7.4s.58-7.69.59-9.31,5.35-5.18,7.33-6.31S134.55,140.81,133.75,135.82Z" style="fill:none;stroke:#263238;stroke-miterlimit:10"></path><path d="M101.42,148.64l1,2.86s2.15.71,4.77-2.15" style="fill:none;stroke:#263238;stroke-linecap:round;stroke-miterlimit:10"></path><path d="M108.81,162s2.38-.24,3.34-3.58" style="fill:none;stroke:#263238;stroke-linecap:round;stroke-miterlimit:10"></path><path d="M99.75,146.25s.71-2.15,5-2.15" style="fill:none;stroke:#263238;stroke-linecap:round;stroke-miterlimit:10"></path><path d="M121.74,117.06a71.06,71.06,0,0,0-9.41-.72s-9.42-5.43-18.47.36-4.7,15.93-4.7,18.46-2.9,2.54-1.09,5.8S96,142.42,96,142.42a8.7,8.7,0,0,1,3.27-6.35c3.26-2.53,5.86-3.08,6.94-2.35,0,0-.72,5.43.36,7.6,0,0,3.62,1.81,4.71,1.81s-.71,1.53,2.9,2.89a4.52,4.52,0,0,0,4-.47c.53-2.2,1.69-5.51,3.85-4.74,3.17,1.13,6.06,8.93,1.77,11.59,5.16.94,11.41-8.19,11.78-16.51S127.1,118,121.74,117.06Z" style="fill:#263238"></path><path d="M106.37,130.15s2.66-1.43,5.92,1.63,9.6,7.15,18,4.9" style="fill:none;stroke:#fff;stroke-linecap:round;stroke-linejoin:round;stroke-width:0.5px"></path><path d="M106,127.7s1.83-2.86,4.89-2.86,10.21,4.29,15.92,4.29" style="fill:none;stroke:#fff;stroke-linecap:round;stroke-linejoin:round;stroke-width:0.5px"></path><path d="M103.92,133.21s-3.47-4.28-6.73-.81S96,139.15,96,139.15" style="fill:none;stroke:#fff;stroke-linecap:round;stroke-linejoin:round;stroke-width:0.5px"></path><path d="M90.05,136.07a10.6,10.6,0,0,0,3.46-6.94c.41-4.49,6.54-8.37,10.41-4.69" style="fill:none;stroke:#fff;stroke-linecap:round;stroke-linejoin:round;stroke-width:0.5px"></path><path d="M96.37,119.74s6.13-5.92,11.23,1.63" style="fill:none;stroke:#fff;stroke-linecap:round;stroke-linejoin:round;stroke-width:0.5px"></path><path d="M146.26,410.81s3.77,5.86,3.35,9.63l-.41,3.77S135.37,428,132.44,428,114,426.53,114,426.53l-.67-2.66a.88.88,0,0,1,.48-1l13.83-6.45,4.36-4.77Z" style="fill:#fff;stroke:#263238;stroke-miterlimit:10;stroke-width:1.0039600000000002px"></path><path d="M134.54,425.05c3.75.29,10.87-2,15-3.46l-.29,2.62S135.37,428,132.44,428,114,426.53,114,426.53l-.48-1.9C116,424.64,129.58,424.67,134.54,425.05Z" style="fill:#BA68C8;stroke:#263238;stroke-miterlimit:10;stroke-width:1.0039600000000002px"></path><path d="M127.66,416.42l-20.13,8.76s-1.72,4.31,0,5.17,39.22,0,39.22,0,2.59-6.81-1.5-11.38S127.66,416.42,127.66,416.42Z" style="fill:#fff;stroke:#263238;stroke-miterlimit:10;stroke-width:1.0039600000000002px"></path><path d="M146.75,430.35s-37.5.86-39.22,0c-.83-.42-.86-1.63-.67-2.78h40.55A15.25,15.25,0,0,1,146.75,430.35Z" style="fill:#BA68C8;stroke:#263238;stroke-miterlimit:10;stroke-width:1.0039600000000002px"></path><path d="M118.14,264.21s-5.26,23.31-7.25,37.89-3.16,43.79-2.74,47.14,21.36,59.48,21.36,59.48l2.09,5,14.66-2.93s-6.7-21.36-9.21-33.09-8-31-8-34.35,13-67.33,13.93-71.53,5.15-10.65,5.15-10.65l-28.07-.57Z" style="fill:#BA68C8;stroke:#263238;stroke-miterlimit:10;stroke-width:1.0039600000000002px"></path><path d="M118.14,264.21s-3.08,21.29-1.81,36.09,4,46.31,4,51,7.57,32.7,8,41.5c.67,12.71-.27,19-.27,19l-.45,4.61s8.83,1.26,10.76,1.81a23.9,23.9,0,0,0,6.83.74s3.21-14.13,3.21-26.17-2.67-36.82-4-46.86,2.86-48.77,5.24-56,7.58-22.54,4.08-30.36S118.14,264.21,118.14,264.21Z" style="fill:#BA68C8;stroke:#263238;stroke-miterlimit:10;stroke-width:1.0039600000000002px"></path><path d="M157.62,255.65l-.32,9.52s-5.7,1.13-13.38,2.46c-6.34,1.1-22.26-.29-27.62-.81a1.86,1.86,0,0,1-1.69-2l.52-8.6Z" style="fill:#263238"></path><path d="M135.34,160.75s-9,9.73-12.39,15.78-4.73,15.32-6,22.62,2.17,24.44,1.2,32.31l-3.07,24.79s-.66,1.68,1.55,3.52,13,2.51,22.75,3c3.56.18,14.19-2.11,15.93-2.22,2.1-.13,2.17-2.8,2.26-4.9.42-9.87,2.2-36.18,3.37-47.64C163.35,184.64,150.16,162.08,135.34,160.75Z" style="fill:#fff;stroke:#263238;stroke-miterlimit:10;stroke-width:1.0039600000000002px"></path><path d="M159.84,221.3c.4-5.19.8-9.9,1.15-13.29.1-1,.16-2,.21-3l-23.91,4-20.54-7a113.78,113.78,0,0,0,.72,12.72l20.15,5.64Z" style="fill:#BA68C8;mix-blend-mode:multiply"></path><path d="M134.45,161.73c-1.36,1.51-4.06,4.58-6.63,7.84L143,185l5-2Z" style="fill:#BA68C8;mix-blend-mode:multiply"></path><path d="M135.34,160.75s-9,9.73-12.39,15.78a30.69,30.69,0,0,0-2.43,5.78l18.1-20.91A17,17,0,0,0,135.34,160.75Z" style="fill:#263238"></path><path d="M117.65,195.21l19.64,6.46,23.85-2.74a55.93,55.93,0,0,0-3.91-17.31L138,189.33l-17.19-7.79A90.47,90.47,0,0,0,117.65,195.21Z" style="fill:#BA68C8;mix-blend-mode:multiply"></path><path d="M151.46,245.78a60.81,60.81,0,0,1-29.74-2.43l-4.79-1.64-1.49,12,5.46,1.53a82.33,82.33,0,0,0,31.93,2.46l4.41-.53a4,4,0,0,0,.38-1.55c.12-2.67.33-6.55.6-11Z" style="fill:#BA68C8;mix-blend-mode:multiply"></path><path d="M154.13,229.44A60.58,60.58,0,0,1,124.39,227l-6.1-2.09a39.4,39.4,0,0,1-.09,6.54l-.71,5.77,6.08,1.7a82.29,82.29,0,0,0,31.92,2.47l3-.36c.25-4,.54-8.26.85-12.47Z" style="fill:#BA68C8;mix-blend-mode:multiply"></path><rect x="58" y="193.74" width="24.81" height="1.33" transform="translate(3.45 390.03) rotate(-141.2)" style="fill:#263238"></rect><path d="M144.65,171.54s7.09,4.83,7.25,16.24c.07,5-.45,9.67-1.6,17.86s-8.29,34.86-13.85,38.1-14.19-2.88-14.19-2.88L80.52,213.15,70.43,205l-5-9.44L67,192.56,79.31,202l-6.63-6.13,1.3-1.65,2.4,1.67,7,2.62,1.53,10,2.16,1.48L127,224.58s-.5-21.49-.13-25.6.88-14.44,5.28-21.93" style="fill:#fff"></path><g style="clip-path:url(#freepik--clip-path-5--inject-1--inject-2)"><path d="M126.72,208.34c0,7.42.25,16.24.25,16.24L87.08,210.05l-2.16-1.48-1.53-10-7-2.62L74,194.25l-1.3,1.65L79.31,202,67,192.56l-1.49,2.95,5,9.44,10.09,8.2,2.54,1.69,55.15,17.77Z" style="fill:#BA68C8;opacity:0.5;mix-blend-mode:multiply"></path></g><path d="M144.65,171.54s7.09,4.83,7.25,16.24c.07,5-.45,9.67-1.6,17.86s-8.29,34.86-13.85,38.1-14.19-2.88-14.19-2.88L80.52,213.15,70.43,205l-5-9.44L67,192.56,79.31,202l-6.63-6.13,1.3-1.65,2.4,1.67,7,2.62,1.53,10,2.16,1.48L127,224.58s-.5-21.49-.13-25.6.88-14.44,5.28-21.93" style="fill:none;stroke:#263238;stroke-miterlimit:10;stroke-width:1.0039600000000002px"></path><path d="M127,224.58l15.24,11,3.95-7s2.73-2.15,3.13-3.77-.11-4.25.3-5.87,2.45-3.14,2.64-7.06,0-7.19,0-7.19,3.3-13.57,2.94-19.47-6.05-16.33-10.61-16.56-10.49.46-15.09,7.42-3.66,27.28-4.38,28.55.28,7.54.28,7.54A3.51,3.51,0,0,0,124,214.7c-.08,1.63,1.68,5.64,1.68,5.64Z" style="fill:#fff;stroke:#263238;stroke-miterlimit:10;stroke-width:1.0039600000000002px"></path><path d="M125.52,199.41a28.22,28.22,0,0,1-.39,5.21c-.64,1.14.09,6.29.25,7.34a59.36,59.36,0,0,0,26.51,2,9.89,9.89,0,0,0,.34-2.13c.2-3.91,0-7.19,0-7.19s.29-1.21.69-3.05A96.52,96.52,0,0,1,125.52,199.41Z" style="fill:#BA68C8;mix-blend-mode:multiply"></path><path d="M128.88,177.19c-1.43,2.87-2.23,7.18-2.69,11.55a59.57,59.57,0,0,0,28.51,3.47,38.14,38.14,0,0,0,.51-7,19.48,19.48,0,0,0-1.3-5.4A98.86,98.86,0,0,1,128.88,177.19Z" style="fill:#BA68C8;mix-blend-mode:multiply"></path><path d="M125.68,220.45l1.29,4.13,15.24,11,3.95-7s2.73-2.15,3.13-3.77a4.44,4.44,0,0,0,.13-.86A93.19,93.19,0,0,1,125.68,220.45Z" style="fill:#263238"></path><path d="M136.71,418.09s.34-8.66,2-21.32-2.33-30.64-3-33.64.34-9.66-.33-12-3.91-12.32-2-23.9,3.46-42.19,3.46-42.19-4.81-3.91-6.22-9-.33-6.69-.33-6.69" style="fill:none;stroke:#263238;stroke-miterlimit:10;stroke-width:1.0039600000000002px"></path><line x1="138.94" y1="269.82" x2="137.09" y2="280.06" style="fill:none;stroke:#263238;stroke-miterlimit:10;stroke-width:1.0039600000000002px"></line></g></svg>