<svg id="Capa_1" enable-background="new 0 0 512 512" height="512" viewBox="0 0 512 512" width="512" xmlns="http://www.w3.org/2000/svg"><g><circle cx="256" cy="256" fill="#5de1c4" r="256"/><path d="m377.548 30.646c26.066 40.098 41.22 87.943 41.22 139.334 0 141.385-114.615 256-256 256-43.99 0-85.386-11.101-121.548-30.646 45.648 70.22 124.785 116.666 214.78 116.666 141.385 0 256-114.615 256-256 0-97.394-54.391-182.081-134.452-225.354z" fill="#0ed2b3"/><circle cx="256" cy="256" fill="#d8f6ef" r="222.915"/><path d="m406.525 91.592c7.939 24.707 12.243 51.043 12.243 78.388 0 141.385-114.615 256-256 256-20.143 0-39.739-2.334-58.541-6.733 39.797 37.016 93.135 59.668 151.773 59.668 123.113 0 222.915-99.803 222.915-222.915 0-65.088-27.902-123.655-72.39-164.408z" fill="#c6f2e7"/><g><path d="m331.52 133.972h-74.866c-.038 0-.074-.006-.112-.006s-.074.005-.112.006h-74.866c-10.648 0-19.28 8.687-19.28 19.403s8.632 19.403 19.28 19.403h55.698v185.853c0 10.716 8.632 19.403 19.28 19.403s19.28-8.687 19.28-19.403v-185.853h55.698c10.648 0 19.28-8.687 19.28-19.403s-8.633-19.403-19.28-19.403z" fill="#5de1c4"/><g><path d="m256 280.462c-28.595 0-55.574-3.228-75.972-9.089-24.005-6.898-36.177-16.535-36.177-28.644 0-12.968 14.61-23.433 42.251-30.263 4.14-1.022 8.33 1.505 9.354 5.648 1.023 4.142-1.505 8.33-5.648 9.354-25.327 6.258-30.504 13.629-30.504 15.261 0 2.157 6.109 8.366 24.992 13.792 19.048 5.473 44.513 8.488 71.704 8.488s52.656-3.015 71.704-8.488c18.883-5.427 24.992-11.635 24.992-13.792 0-1.573-4.945-8.717-29.138-14.917-4.133-1.059-6.626-5.269-5.566-9.402 1.06-4.134 5.27-6.624 9.403-5.566 26.661 6.833 40.754 17.167 40.754 29.886 0 12.109-12.172 21.745-36.177 28.644-20.398 5.86-47.377 9.088-75.972 9.088z" fill="#5de1c4"/></g></g></g></svg>