<svg xmlns="http://www.w3.org/2000/svg" xmlns:xlink="http://www.w3.org/1999/xlink" viewBox="0 0 500 500"><defs><clipPath id="freepik--clip-path--inject-1--inject-31"><polygon points="191.2 232.25 182.65 239.73 174.28 232.25 174.28 212.31 191.2 212.31 191.2 232.25" style="fill:#fff;stroke:#2e353a;stroke-linecap:round;stroke-linejoin:round"></polygon></clipPath></defs><!--Vault--><g id="freepik--background-simple--inject-1--inject-31"><path d="M386.72,127.41c-21.44-18.8-43-38.74-66.9-53.88C281.4,49.19,227.53,40.09,192.45,75.3c-10.8,10.85-13,25.82-17.3,39.85-4.7,15.48-13.46,26.92-27.46,35.3-13,7.78-27.68,12.14-41.67,17.93-17.93,7.42-34.48,18.26-43,36.33-10.11,21.53-5.45,40.56,8.28,58.92C84.64,281.41,105,298,101.76,322.41c-1.36,10.43-5.57,20.23-8.9,30.2S87,373.27,89.24,383.55c7.19,33.6,59.15,42.32,86.3,31.17,47-19.3,93.3,7,140.66,8.07,33.29.76,76.49-8.74,86.61-45.52,8.71-31.63-22.53-66.55,1.9-94.15,19.07-21.54,37.52-49.16,35.4-79.27-2.07-29.23-24.37-51.41-45.34-69.44Q390.75,131,386.72,127.41Z" style="fill:#BA68C8"></path><path d="M386.72,127.41c-21.44-18.8-43-38.74-66.9-53.88C281.4,49.19,227.53,40.09,192.45,75.3c-10.8,10.85-13,25.82-17.3,39.85-4.7,15.48-13.46,26.92-27.46,35.3-13,7.78-27.68,12.14-41.67,17.93-17.93,7.42-34.48,18.26-43,36.33-10.11,21.53-5.45,40.56,8.28,58.92C84.64,281.41,105,298,101.76,322.41c-1.36,10.43-5.57,20.23-8.9,30.2S87,373.27,89.24,383.55c7.19,33.6,59.15,42.32,86.3,31.17,47-19.3,93.3,7,140.66,8.07,33.29.76,76.49-8.74,86.61-45.52,8.71-31.63-22.53-66.55,1.9-94.15,19.07-21.54,37.52-49.16,35.4-79.27-2.07-29.23-24.37-51.41-45.34-69.44Q390.75,131,386.72,127.41Z" style="fill:#fff;opacity:0.7000000000000001"></path></g><g id="freepik--Shadow--inject-1--inject-31"><ellipse cx="178.26" cy="436.87" rx="46.11" ry="9.22" style="fill:#BA68C8"></ellipse><ellipse cx="178.26" cy="436.87" rx="46.11" ry="9.22" style="fill:#fff;opacity:0.5"></ellipse></g><g id="freepik--Vault--inject-1--inject-31"><circle cx="256.37" cy="249.32" r="139.85" transform="translate(-101.21 254.31) rotate(-45)" style="fill:#BA68C8;stroke:#2e353a;stroke-linecap:round;stroke-miterlimit:10"></circle><circle cx="256.37" cy="249.32" r="127.7" style="fill:#2e353a;stroke:#2e353a;stroke-linecap:round;stroke-miterlimit:10"></circle><circle cx="256.37" cy="249.32" r="118.16" style="fill:#fff;stroke:#2e353a;stroke-linecap:round;stroke-miterlimit:10"></circle><path d="M256.37,142.49A106.84,106.84,0,1,0,363.21,249.32,106.83,106.83,0,0,0,256.37,142.49Zm0,205a98.21,98.21,0,1,1,98.21-98.21A98.21,98.21,0,0,1,256.37,347.53Z" style="fill:#BA68C8;stroke:#2e353a;stroke-linecap:round;stroke-miterlimit:10"></path><path d="M256.37,190.51a58.82,58.82,0,1,0,58.82,58.81A58.81,58.81,0,0,0,256.37,190.51Zm0,112.87a54.06,54.06,0,1,1,54.06-54.06A54.06,54.06,0,0,1,256.37,303.38Z" style="fill:#BA68C8;stroke:#2e353a;stroke-linecap:round;stroke-miterlimit:10"></path><path d="M256.37,215.32a34,34,0,1,0,34,34A34,34,0,0,0,256.37,215.32Zm2.61,5.33a28.66,28.66,0,0,1,16.21,6.88L259,243.74Zm-5.21,23.09-16.21-16.21a28.63,28.63,0,0,1,16.21-6.88Zm-3.68,3.68H227.64a28.65,28.65,0,0,1,6.3-16.15Zm0,5.2-15.51,15.52a28.63,28.63,0,0,1-6.81-15.52Zm3.68,3.69V278a28.62,28.62,0,0,1-15.45-6.24Zm5.21,0,15.45,15.45A28.65,28.65,0,0,1,259,278Zm3.68-3.69H285a28.7,28.7,0,0,1-6.81,15.52Zm0-5.2,16.14-16.15a28.65,28.65,0,0,1,6.3,16.15Z" style="fill:#BA68C8;stroke:#2e353a;stroke-linecap:round;stroke-miterlimit:10"></path><circle cx="256.37" cy="249.32" r="19.26" style="fill:#fff;stroke:#2e353a;stroke-linecap:round;stroke-miterlimit:10"></circle><path d="M395.53,263.22c-142-44.15-239.41,23.76-265.8,45.48a139.87,139.87,0,0,0,265.8-45.48Z" style="fill:#BA68C8;mix-blend-mode:multiply"></path><rect x="374.06" y="132.9" width="17.35" height="29.5" rx="7.4" style="fill:#2e353a;stroke:#2e353a;stroke-linecap:round;stroke-miterlimit:10"></rect><rect x="374.06" y="340.25" width="17.35" height="29.5" rx="7.4" style="fill:#2e353a;stroke:#2e353a;stroke-linecap:round;stroke-miterlimit:10"></rect><rect x="247.7" y="132.9" width="17.35" height="29.5" rx="7.4" style="fill:#2e353a;stroke:#2e353a;stroke-linecap:round;stroke-miterlimit:10"></rect><rect x="247.7" y="340.25" width="17.35" height="29.5" rx="7.4" style="fill:#2e353a;stroke:#2e353a;stroke-linecap:round;stroke-miterlimit:10"></rect><circle cx="256.37" cy="99.63" r="2.82" style="fill:#fff;stroke:#2e353a;stroke-linecap:round;stroke-miterlimit:10"></circle><path d="M207.83,107.69a2.82,2.82,0,1,0-1.69,3.62A2.82,2.82,0,0,0,207.83,107.69Z" style="fill:#fff;stroke:#2e353a;stroke-linecap:round;stroke-miterlimit:10"></path><path d="M162.31,132.84a2.82,2.82,0,1,0-.34,4A2.81,2.81,0,0,0,162.31,132.84Z" style="fill:#fff;stroke:#2e353a;stroke-linecap:round;stroke-miterlimit:10"></path><path d="M128.15,172a2.82,2.82,0,1,0,1,3.86A2.83,2.83,0,0,0,128.15,172Z" style="fill:#fff;stroke:#2e353a;stroke-linecap:round;stroke-miterlimit:10"></path><path d="M109.44,220.55a2.82,2.82,0,1,0,2.29,3.27A2.82,2.82,0,0,0,109.44,220.55Z" style="fill:#fff;stroke:#2e353a;stroke-linecap:round;stroke-miterlimit:10"></path><path d="M108.46,272.54a2.82,2.82,0,1,0,3.27,2.29A2.82,2.82,0,0,0,108.46,272.54Z" style="fill:#fff;stroke:#2e353a;stroke-linecap:round;stroke-miterlimit:10"></path><path d="M125.32,321.73a2.82,2.82,0,1,0,3.86,1A2.81,2.81,0,0,0,125.32,321.73Z" style="fill:#fff;stroke:#2e353a;stroke-linecap:round;stroke-miterlimit:10"></path><path d="M158,362.18a2.82,2.82,0,1,0,4-.35A2.82,2.82,0,0,0,158,362.18Z" style="fill:#fff;stroke:#2e353a;stroke-linecap:round;stroke-miterlimit:10"></path><path d="M202.52,389a2.82,2.82,0,1,0,3.62-1.69A2.81,2.81,0,0,0,202.52,389Z" style="fill:#fff;stroke:#2e353a;stroke-linecap:round;stroke-miterlimit:10"></path><path d="M253.55,399a2.83,2.83,0,1,0,2.82-2.82A2.82,2.82,0,0,0,253.55,399Z" style="fill:#fff;stroke:#2e353a;stroke-linecap:round;stroke-miterlimit:10"></path><path d="M304.92,391a2.82,2.82,0,1,0,1.69-3.62A2.82,2.82,0,0,0,304.92,391Z" style="fill:#fff;stroke:#2e353a;stroke-linecap:round;stroke-miterlimit:10"></path><path d="M350.43,365.81a2.83,2.83,0,1,0,.35-4A2.82,2.82,0,0,0,350.43,365.81Z" style="fill:#fff;stroke:#2e353a;stroke-linecap:round;stroke-miterlimit:10"></path><path d="M384.6,326.62a2.82,2.82,0,1,0-1-3.86A2.83,2.83,0,0,0,384.6,326.62Z" style="fill:#fff;stroke:#2e353a;stroke-linecap:round;stroke-miterlimit:10"></path><path d="M403.3,278.1a2.82,2.82,0,1,0-2.29-3.27A2.82,2.82,0,0,0,403.3,278.1Z" style="fill:#fff;stroke:#2e353a;stroke-linecap:round;stroke-miterlimit:10"></path><path d="M404.28,226.11a2.82,2.82,0,1,0-3.27-2.29A2.82,2.82,0,0,0,404.28,226.11Z" style="fill:#fff;stroke:#2e353a;stroke-linecap:round;stroke-miterlimit:10"></path><path d="M387.42,176.92a2.82,2.82,0,1,0-3.85-1A2.82,2.82,0,0,0,387.42,176.92Z" style="fill:#fff;stroke:#2e353a;stroke-linecap:round;stroke-miterlimit:10"></path><path d="M354.76,136.47a2.83,2.83,0,1,0-4,.34A2.83,2.83,0,0,0,354.76,136.47Z" style="fill:#fff;stroke:#2e353a;stroke-linecap:round;stroke-miterlimit:10"></path><path d="M310.22,109.62a2.82,2.82,0,1,0-3.61,1.69A2.81,2.81,0,0,0,310.22,109.62Z" style="fill:#fff;stroke:#2e353a;stroke-linecap:round;stroke-miterlimit:10"></path><path d="M393.15,175.41V151.12H238.59v38.5h45a15.18,15.18,0,0,1,15.18,15.18v89.71a15.18,15.18,0,0,1-15.18,15.17h-45v41H393.15V326.37h-38.8a12.54,12.54,0,0,1-12.53-12.54V188a12.54,12.54,0,0,1,12.53-12.54Z" style="fill:#fff;stroke:#2e353a;stroke-linecap:round;stroke-miterlimit:10"></path><path d="M306.33,254.68v39.83a22.8,22.8,0,0,1-22.77,22.77H246.18v25.78H385.56V334H354.35a20.15,20.15,0,0,1-20.13-20.13V256.59A216.63,216.63,0,0,0,306.33,254.68Z" style="fill:#BA68C8"></path><path d="M246.18,173.47c18.61-5.2,44.26-10.67,78.53-14.75H246.18Z" style="fill:#BA68C8"></path><path d="M337.67,176.69c-15.42,3-29.6,6.19-41.53,9.14a22.79,22.79,0,0,1,10.19,19v10.85c9.64-4.49,19-8.5,27.89-12.06V188A20.08,20.08,0,0,1,337.67,176.69Z" style="fill:#BA68C8"></path><line x1="255.51" y1="72.82" x2="255.51" y2="66.62" style="fill:none;stroke:#2e353a;stroke-linecap:round;stroke-miterlimit:10"></line><line x1="255.51" y1="91.69" x2="255.51" y2="76.5" style="fill:none;stroke:#2e353a;stroke-linecap:round;stroke-miterlimit:10"></line><line x1="255.51" y1="422.58" x2="255.51" y2="406.31" style="fill:none;stroke:#2e353a;stroke-linecap:round;stroke-miterlimit:10"></line><line x1="400.89" y1="250.08" x2="425.84" y2="250.08" style="fill:none;stroke:#2e353a;stroke-linecap:round;stroke-miterlimit:10"></line><line x1="79.64" y1="250.08" x2="111.51" y2="250.08" style="fill:none;stroke:#2e353a;stroke-linecap:round;stroke-miterlimit:10"></line><line x1="72.17" y1="250.08" x2="75.02" y2="250.08" style="fill:none;stroke:#2e353a;stroke-linecap:round;stroke-miterlimit:10"></line><line x1="431.27" y1="250.08" x2="437.09" y2="250.08" style="fill:none;stroke:#2e353a;stroke-linecap:round;stroke-miterlimit:10"></line></g><g id="freepik--Character--inject-1--inject-31"><path d="M197.3,432a44.62,44.62,0,0,1-5.85-2.93s10.82-53.78,11.22-71.44,2.81-54.21,2.81-54.21H157s2.41,36.54,2.81,54.21,9,71.44,9,71.44a45.05,45.05,0,0,1-5.86,2.93c-2.6,1-5.85,2.27-4.23,2.92a15.78,15.78,0,0,0,6.83.66,43.54,43.54,0,0,0,9.76-3.91c1.3-1,3-105.76,3-105.76h3.47s1.82,104.79,3.12,105.76a43.73,43.73,0,0,0,9.76,3.91,15.78,15.78,0,0,0,6.83-.66C203.15,434.3,199.9,433,197.3,432Z" style="fill:#2e353a;stroke:#2e353a;stroke-linecap:round;stroke-linejoin:round"></path><path d="M154,236.74a10.23,10.23,0,0,0-8.08,5.31c-2.71,5.09-4.07,29.16-3.05,31.88s3.39,5.42,8.13,1.69,5.09-7.46,5.09-7.46Z" style="fill:#fff;stroke:#2e353a;stroke-linecap:round;stroke-linejoin:round"></path><path d="M209.11,236.18s7-1.25,8.38,4.18,7.12,21.36,5.09,27.8-9.84,6.11-15.26,2.71S209.11,236.18,209.11,236.18Z" style="fill:#fff;stroke:#2e353a;stroke-linecap:round;stroke-linejoin:round"></path><polygon points="177.15 227.54 154.02 236.74 157.04 303.45 205.48 303.45 209.11 236.18 188.68 227.85 177.15 227.54" style="fill:#fff;stroke:#2e353a;stroke-linecap:round;stroke-linejoin:round"></polygon><rect x="158.31" y="247.46" width="16.04" height="2.58" style="fill:#2e353a;stroke:#2e353a;stroke-linecap:round;stroke-linejoin:round"></rect><rect x="189.53" y="247.46" width="16.04" height="2.58" style="fill:#2e353a;stroke:#2e353a;stroke-linecap:round;stroke-linejoin:round"></rect><rect x="157.04" y="295.29" width="48.58" height="8.16" style="fill:#2e353a;stroke:#2e353a;stroke-linecap:round;stroke-linejoin:round"></rect><rect x="177.81" y="294.95" width="7.8" height="4.41" style="fill:#fff;stroke:#2e353a;stroke-linecap:round;stroke-miterlimit:10"></rect><polygon points="186.38 236.6 181.93 234.56 178.55 236.15 181.35 245.28 176.58 293.81 181.1 298.68 186.38 293.61 183.16 245.28 186.38 236.6" style="fill:#BA68C8"></polygon><polygon points="192.65 229.88 209.97 236.25 207.6 240 191.83 234.48 192.65 229.88" style="fill:#2e353a;stroke:#2e353a;stroke-linecap:round;stroke-linejoin:round"></polygon><path d="M179.51,237l-6.44,6.11s-3.73-10.51-3.73-12.21,4.4-6.78,4.4-6.78l16.62-.34,6.1,7.46-5.08,11.53-7.12-5.43Z" style="fill:#fff;stroke:#2e353a;stroke-linecap:round;stroke-linejoin:round"></path><polygon points="169.34 230.86 152.01 237.24 154.38 240.99 170.15 235.47 169.34 230.86" style="fill:#2e353a;stroke:#2e353a;stroke-linecap:round;stroke-linejoin:round"></polygon><polygon points="191.2 232.25 182.65 239.73 174.28 232.25 174.28 212.31 191.2 212.31 191.2 232.25" style="fill:#fff"></polygon><g style="clip-path:url(#freepik--clip-path--inject-1--inject-31)"><polygon points="174.02 225.17 180.08 232.2 185.6 232.2 191.2 226.02 190.66 220.16 174.28 219.38 174.02 225.17" style="fill:#BA68C8;mix-blend-mode:multiply"></polygon></g><polygon points="191.2 232.25 182.65 239.73 174.28 232.25 174.28 212.31 191.2 212.31 191.2 232.25" style="fill:none;stroke:#2e353a;stroke-linecap:round;stroke-linejoin:round"></polygon><path d="M172.45,207s-3.13-.82-2.82,1.37,1.26,6.28,2.82,7.22l1.57.94Z" style="fill:#fff;stroke:#2e353a;stroke-linecap:round;stroke-linejoin:round"></path><path d="M193.45,207s3.14-.82,2.82,1.37-1.25,6.28-2.82,7.22l-1.57.94Z" style="fill:#fff;stroke:#2e353a;stroke-linecap:round;stroke-linejoin:round"></path><path d="M194.93,203.37A11.92,11.92,0,1,0,171.66,207l3,14.27,5.54,7.78h5.35l5.38-6.78,3.29-14.94A11.88,11.88,0,0,0,194.93,203.37Z" style="fill:#fff;stroke:#2e353a;stroke-linecap:round;stroke-linejoin:round"></path><path d="M174,205.74s1.91-2.07,3.64-1.38,1.05,2.77,6.06,3.29a18.77,18.77,0,0,0,8.37-.88l.27-4.34L174,199.86Z" style="fill:#BA68C8"></path><path d="M192.36,202.43a15.24,15.24,0,0,0-1.25,4.71c0,1.88,1.57,5.64,1.57,5.64s3.76-7.84,3.45-10.66S192.05,201.49,192.36,202.43Z" style="fill:#2e353a;stroke:#2e353a;stroke-linecap:round;stroke-linejoin:round"></path><path d="M172.6,212.16s0-.49.08-1.22c.18-2,.65-5.93,1.8-6.63,1.57-.94,1.41-5.88,1.41-5.88s-2.19,2.47,5.34,5,13.64,1.53,17.72-3.8.31-9.1-.31-7.22-1.89,4.4-4.08,2.51-5.65-5.64-11.92-5.64-9.1,5.64-9.1,5.64a6.17,6.17,0,0,0-3.45,5.34C170.09,204,172.6,212.16,172.6,212.16Z" style="fill:#2e353a;stroke:#2e353a;stroke-linecap:round;stroke-linejoin:round"></path><path d="M194.67,202.23c-4.44.18-8.22-2.81-12.08-5.45s-6.47,0-6.47,0a6.66,6.66,0,0,1,6.14-5.29c5.24-.34,7,6.86,11.83,7.49" style="fill:none;stroke:#fff;stroke-linecap:round;stroke-linejoin:round;stroke-width:0.5px"></path><path d="M182.15,211.9H171.66l1.11,3.46a1.63,1.63,0,0,0,1.55,1.13h5.42a1.62,1.62,0,0,0,1.57-1.23Z" style="fill:#2e353a;stroke:#2e353a;stroke-linecap:round;stroke-linejoin:round"></path><path d="M193.8,211.9H183.3l1.11,3.46a1.63,1.63,0,0,0,1.55,1.13h5.42a1.63,1.63,0,0,0,1.58-1.23Z" style="fill:#2e353a;stroke:#2e353a;stroke-linecap:round;stroke-linejoin:round"></path><line x1="171.66" y1="211.9" x2="171.13" y2="206.77" style="fill:#fff;stroke:#2e353a;stroke-linecap:round;stroke-linejoin:round"></line><line x1="193.8" y1="211.9" x2="194.99" y2="207.03" style="fill:#fff;stroke:#2e353a;stroke-linecap:round;stroke-linejoin:round"></line><line x1="182.15" y1="211.9" x2="183.3" y2="211.9" style="fill:#fff;stroke:#2e353a;stroke-linecap:round;stroke-linejoin:round"></line><line x1="181.86" y1="213.53" x2="183.72" y2="213.53" style="fill:#fff;stroke:#2e353a;stroke-linecap:round;stroke-linejoin:round"></line><path d="M184.91,220.16s-.79,1.19-1.72,1.19-1.72-1.19-1.72-1.19" style="fill:none;stroke:#2e353a;stroke-linecap:round;stroke-linejoin:round"></path><path d="M156.79,298.34s-8.48,3.73-8.48,6.11,2.71,17.63,4.41,21,3.05,4.75,6.1,2.71S156.79,298.34,156.79,298.34Z" style="fill:#2e353a;stroke:#2e353a;stroke-linecap:round;stroke-linejoin:round"></path><rect x="204.94" y="290.54" width="4.75" height="29.5" style="fill:#2e353a;stroke:#2e353a;stroke-linecap:round;stroke-linejoin:round"></rect><rect x="202.57" y="284.44" width="9.49" height="8.82" style="fill:#2e353a;stroke:#2e353a;stroke-linecap:round;stroke-linejoin:round"></rect><path d="M222.24,262.74s2,7.46-3.06,10.17c-1.91,1-10.85-.68-21.36-3.39s-16.28-4.75-16.28-4.75l-29.5-.68s-2.71-5.42,1.36-8.48,19,1.36,19,1.36l30.52.68s6.44-3,15.26-.34" style="fill:#fff;stroke:#2e353a;stroke-linecap:round;stroke-linejoin:round"></path><path d="M148,264.77s7.12-5.76,12.55-7.8,35.61-2.71,35.61-2.71,8.47,2.71,6.78,3.39-8.48,1.36-11.53,2.71-20.69,13.57-42,16.62c-4.68.67-5.77.34-6.78-4.41" style="fill:#fff;stroke:#2e353a;stroke-linecap:round;stroke-linejoin:round"></path><polygon points="191.25 254.62 191.82 259.49 193.83 259.49 194.11 254.34 191.25 254.62" style="fill:#2e353a;stroke:#2e353a;stroke-linecap:round;stroke-linejoin:round"></polygon></g></svg>