<svg xmlns="http://www.w3.org/2000/svg" viewBox="0 0 750 500"><g id="freepik--background-simple--inject-2"><path d="M700,136S661,46,538,27s-177.89,15-213,61S265,78,162,74c-36.5-1.42-77.72,5.12-102.79,34.33-19.3,22.49-26.82,57.33-8.5,82.7,16.23,22.48,53.37,56.32,35.29,87-23,39-53,99-21,144s66,64,165,45,134-58,182-34,147,61,206,47,40-86,36-111,61-51,63-118S711,161,700,136Z" style="fill:#BA68C8"></path><path d="M700,136S661,46,538,27s-177.89,15-213,61S265,78,162,74c-36.5-1.42-77.72,5.12-102.79,34.33-19.3,22.49-26.82,57.33-8.5,82.7,16.23,22.48,53.37,56.32,35.29,87-23,39-53,99-21,144s66,64,165,45,134-58,182-34,147,61,206,47,40-86,36-111,61-51,63-118S711,161,700,136Z" style="fill:#fff;opacity:0.7000000000000001"></path></g><g id="freepik--Lines--inject-2"><line x1="708" y1="302" x2="46" y2="302" style="fill:none;stroke:#263238;stroke-linecap:round;stroke-linejoin:round"></line><line x1="708" y1="311" x2="46" y2="311" style="fill:none;stroke:#263238;stroke-linecap:round;stroke-linejoin:round"></line></g><g id="freepik--Window--inject-2"><path d="M426.68,56.87v186h68.05v-186ZM491.3,61V88.45H463V61Zm-32.55,0V88.45H430.11V61ZM430.11,92.81h28.64v27.24H430.11ZM491.3,238.73H430.11v-114H491.3ZM463,120.05V92.81H491.3v27.24Z" style="fill:none;stroke:#263238;stroke-linecap:round;stroke-linejoin:round"></path><path d="M494.46,56.87v186h68.05v-186ZM559.08,61V88.45H530.76V61Zm-32.55,0V88.45H497.89V61ZM497.89,92.81h28.64v27.24H497.89Zm61.19,145.92H497.89v-114h61.19ZM530.76,120.05V92.81h28.32v27.24Z" style="fill:none;stroke:#263238;stroke-linecap:round;stroke-linejoin:round"></path><line x1="476.07" y1="155.64" x2="458.99" y2="174.52" style="fill:none;stroke:#263238;stroke-linecap:round;stroke-linejoin:round"></line><line x1="480.31" y1="150.96" x2="477.59" y2="153.96" style="fill:none;stroke:#263238;stroke-linecap:round;stroke-linejoin:round"></line><line x1="440.41" y1="188.29" x2="436.91" y2="191.94" style="fill:none;stroke:#263238;stroke-linecap:round;stroke-linejoin:round"></line><line x1="463.1" y1="164.62" x2="443.03" y2="185.56" style="fill:none;stroke:#263238;stroke-linecap:round;stroke-linejoin:round"></line><line x1="544.9" y1="161.41" x2="527.82" y2="180.29" style="fill:none;stroke:#263238;stroke-linecap:round;stroke-linejoin:round"></line><line x1="549.14" y1="156.72" x2="546.42" y2="159.72" style="fill:none;stroke:#263238;stroke-linecap:round;stroke-linejoin:round"></line><line x1="509.25" y1="194.05" x2="505.75" y2="197.7" style="fill:none;stroke:#263238;stroke-linecap:round;stroke-linejoin:round"></line><line x1="531.93" y1="170.38" x2="511.86" y2="191.32" style="fill:none;stroke:#263238;stroke-linecap:round;stroke-linejoin:round"></line><path d="M571.6,56.87v186h68v-186ZM636.22,61V88.45H607.9V61Zm-32.55,0V88.45H575V61ZM575,92.81h28.64v27.24H575Zm61.19,145.92H575v-114h61.19ZM607.9,120.05V92.81h28.32v27.24Z" style="fill:none;stroke:#263238;stroke-linecap:round;stroke-linejoin:round"></path><path d="M639.38,56.87v186h68v-186ZM704,61V88.45H675.68V61Zm-32.55,0V88.45H642.81V61ZM642.81,92.81h28.64v27.24H642.81ZM704,238.73H642.81v-114H704ZM675.68,120.05V92.81H704v27.24Z" style="fill:none;stroke:#263238;stroke-linecap:round;stroke-linejoin:round"></path><line x1="620.99" y1="155.64" x2="603.91" y2="174.52" style="fill:none;stroke:#263238;stroke-linecap:round;stroke-linejoin:round"></line><line x1="625.23" y1="150.96" x2="622.51" y2="153.96" style="fill:none;stroke:#263238;stroke-linecap:round;stroke-linejoin:round"></line><line x1="585.33" y1="188.29" x2="581.83" y2="191.94" style="fill:none;stroke:#263238;stroke-linecap:round;stroke-linejoin:round"></line><line x1="608.02" y1="164.62" x2="587.95" y2="185.56" style="fill:none;stroke:#263238;stroke-linecap:round;stroke-linejoin:round"></line><line x1="689.82" y1="161.41" x2="672.74" y2="180.29" style="fill:none;stroke:#263238;stroke-linecap:round;stroke-linejoin:round"></line><line x1="694.06" y1="156.72" x2="691.34" y2="159.72" style="fill:none;stroke:#263238;stroke-linecap:round;stroke-linejoin:round"></line><line x1="654.17" y1="194.05" x2="650.67" y2="197.7" style="fill:none;stroke:#263238;stroke-linecap:round;stroke-linejoin:round"></line><line x1="676.85" y1="170.38" x2="656.78" y2="191.32" style="fill:none;stroke:#263238;stroke-linecap:round;stroke-linejoin:round"></line></g><g id="freepik--Clock--inject-2"><circle cx="352.7" cy="127.3" r="34.3" transform="translate(13.29 286.69) rotate(-45)" style="fill:#263238;stroke:#263238;stroke-linejoin:round"></circle><circle cx="352.7" cy="127.3" r="31.38" transform="translate(28.86 316.32) rotate(-50.12)" style="fill:#fff;stroke:#263238;stroke-linejoin:round"></circle><path d="M355.62,127.3a2.92,2.92,0,1,0-2.92,2.92A2.92,2.92,0,0,0,355.62,127.3Z" style="fill:#263238;stroke:#263238;stroke-linejoin:round"></path><line x1="355.09" y1="129.47" x2="359.66" y2="135.24" style="fill:#fff;stroke:#263238;stroke-linejoin:round"></line><line x1="355.09" y1="125.15" x2="368.07" y2="106.63" style="fill:#fff;stroke:#263238;stroke-linejoin:round"></line></g><g id="freepik--Character--inject-2"><polygon points="426.9 436.69 422.5 436.69 421.98 354.5 427.42 354.5 426.9 436.69" style="fill:#fff;stroke:#263238;stroke-linejoin:round"></polygon><polygon points="422 357.98 427.4 357.98 427.42 354.5 421.98 354.5 422 357.98" style="fill:#263238;stroke:#263238;stroke-miterlimit:10"></polygon><polygon points="433.49 436.69 429.08 436.69 428.56 354.5 434 354.5 433.49 436.69" style="fill:#263238;stroke:#263238;stroke-miterlimit:10"></polygon><polygon points="510.8 436.69 506.4 436.69 505.88 354.5 511.32 354.5 510.8 436.69" style="fill:#fff;stroke:#263238;stroke-linejoin:round"></polygon><polygon points="505.9 357.98 511.3 357.98 511.32 354.5 505.88 354.5 505.9 357.98" style="fill:#263238;stroke:#263238;stroke-miterlimit:10"></polygon><polygon points="503.64 436.69 499.24 436.69 498.72 354.5 504.16 354.5 503.64 436.69" style="fill:#263238;stroke:#263238;stroke-miterlimit:10"></polygon><polygon points="513.47 348.77 421.12 348.77 432.85 330.74 501.74 330.74 513.47 348.77" style="fill:#fff;stroke:#263238;stroke-linejoin:round"></polygon><rect x="421.12" y="348.77" width="92.47" height="6.1" style="fill:#fff;stroke:#263238;stroke-linejoin:round"></rect><path d="M439.1,263.73h56.1a6.25,6.25,0,0,1,6.25,6.25v60.76a0,0,0,0,1,0,0h-68.6a0,0,0,0,1,0,0V270A6.25,6.25,0,0,1,439.1,263.73Z" style="fill:#fff;stroke:#263238;stroke-linejoin:round"></path><path d="M444.35,420.71a78.9,78.9,0,0,0-4.36,7.72c-.88,2.18-7,7.86-8.45,10.63s.43,5.1,7.28,5.83,9.32-3.94,10.92-6,1.61-5,3.5-6.26,5.53-4.8,5.82-8.3a17.78,17.78,0,0,0-.43-6Z" style="fill:#fff;stroke:#263238;stroke-miterlimit:10"></path><path d="M459.06,424.35a19.31,19.31,0,0,0-.16-4.67,31.18,31.18,0,0,0-.56,3.36c-.59,5.1-6.7,7-8,9.9s-3.21,8.74-8.6,9.91c-4,.86-8.5-1.37-10.6-2.6-.38,2.23,1.85,4,7.69,4.64,6.85.72,9.32-3.94,10.92-6s1.61-5,3.5-6.26S458.77,427.85,459.06,424.35Z" style="fill:#fff;stroke:#263238;stroke-miterlimit:10"></path><path d="M492.9,420.71a78.43,78.43,0,0,1,4.37,7.72c.87,2.18,7,7.86,8.45,10.63s-.44,5.1-7.29,5.83-9.32-3.94-10.92-6-1.6-5-3.49-6.26-5.54-4.8-5.83-8.3a17.93,17.93,0,0,1,.44-6Z" style="fill:#fff;stroke:#263238;stroke-miterlimit:10"></path><path d="M478.19,424.35a19.84,19.84,0,0,1,.16-4.67,28.67,28.67,0,0,1,.57,3.36c.58,5.1,6.7,7,8,9.9s3.2,8.74,8.59,9.91c4,.86,8.51-1.37,10.61-2.6.37,2.23-1.86,4-7.7,4.64-6.84.72-9.32-3.94-10.92-6s-1.6-5-3.49-6.26S478.48,427.85,478.19,424.35Z" style="fill:#fff;stroke:#263238;stroke-miterlimit:10"></path><path d="M515.09,347.74c0-4.95-13.65-23.8-13.65-23.8l-4.95-11.67-25.2,2.37H465.5l-25.2-2.37-4.95,11.67s-13.65,18.85-13.65,23.8.59,6.53.59,6.53l22,60-1.78,4.15.79,3.17s2.77,2.37,8.11,2.37a12.74,12.74,0,0,0,8.51-3.16s.59-6.53.59-8.91-4.35-13.85-4.35-16.22S452,349.91,452,349.91L467.43,339h1.93l15.46,10.93s-4.16,43.34-4.16,45.71-4.35,13.85-4.35,16.22.59,8.91.59,8.91a12.74,12.74,0,0,0,8.51,3.16c5.34,0,8.11-2.37,8.11-2.37l.8-3.17-1.79-4.15,22-60S515.09,352.68,515.09,347.74Z" style="fill:#263238;stroke:#263238;stroke-miterlimit:10"></path><path d="M471,336.41s7.91-11.87,17.61-15.24" style="fill:none;stroke:#7d7d7d;stroke-miterlimit:10"></path><path d="M479.48,328.89s7.32-5.74,14.44-6.53" style="fill:none;stroke:#7d7d7d;stroke-miterlimit:10"></path><path d="M454.55,325.13s6.53,4.75,9.49,9.69" style="fill:none;stroke:#7d7d7d;stroke-miterlimit:10"></path><path d="M454,237.28l-24.14,9.1L435,290.5s1.78,22.16,3.56,23,24.93,4.55,29.28,4.35,27.5-.79,30.08-4.95,9.69-64.7,9.49-66.28-30.27-12.07-30.27-12.07Z" style="fill:#BA68C8;stroke:#263238;stroke-linejoin:round"></path><path d="M459.1,253.7l7.32,8.71,8.11-8.51s5.34-14.25,5.14-15.83-3.95-4.35-3.95-4.35l-13.66-.4-9.49,4.36Z" style="fill:#fff;stroke:#263238;stroke-linejoin:round"></path><path d="M457.12,231,452,236.69l7.13,17,6.92-6.92,8.51,7.12s4.15-9.69,5.14-12.27a20.38,20.38,0,0,0,1-6.13L475.32,230Z" style="fill:#fff;stroke:#263238;stroke-linejoin:round"></path><polygon points="455.14 228.38 456.13 234.91 466.02 246.78 477.1 234.51 477.69 227.19 465.43 233.13 455.14 228.38" style="fill:#fff;stroke:#263238;stroke-linejoin:round"></polygon><path d="M449.4,208.79s-2,.39-1.78,3.76,5.14,7.32,5.14,7.32l-1.58-12.07Z" style="fill:#fff;stroke:#263238;stroke-linejoin:round"></path><path d="M450.79,206.22s1.78,19.78,3,21.76,8.31,9.7,11.48,10.09c1.68.21,12.66-7.32,13.45-10.48s1.79-9.3,1.79-9.3,2.37.19,3.75-5.35-.79-6.53-1.78-6.53h-1.58s-.39-8.11-1-9.69-26.91,2.18-29.28,4.15S450.79,206.22,450.79,206.22Z" style="fill:#fff;stroke:#263238;stroke-linejoin:round"></path><path d="M472.85,217.89c0,.93-.4,1.68-.89,1.68s-.89-.75-.89-1.68.4-1.68.89-1.68S472.85,217,472.85,217.89Z" style="fill:#263238"></path><path d="M459.39,217.4c0,.92-.4,1.68-.89,1.68s-.89-.76-.89-1.68.4-1.69.89-1.69S459.39,216.47,459.39,217.4Z" style="fill:#263238"></path><path d="M463.25,223.23s-.2,1.78,1,2.38a2.72,2.72,0,0,0,3.76-2.38" style="fill:none;stroke:#263238;stroke-linejoin:round"></path><line x1="463.84" y1="229.37" x2="466.61" y2="229.37" style="fill:none;stroke:#263238;stroke-linejoin:round"></line><line x1="454.35" y1="213.34" x2="461.08" y2="213.34" style="fill:none;stroke:#263238;stroke-linecap:round;stroke-linejoin:round;stroke-width:2px"></line><path d="M468,212.75s4.35-2.58,6.73,0" style="fill:none;stroke:#263238;stroke-linecap:round;stroke-linejoin:round;stroke-width:2px"></path><line x1="455.53" y1="219.28" x2="458.9" y2="220.07" style="fill:none;stroke:#263238;stroke-linejoin:round"></line><line x1="475.12" y1="218.88" x2="471.36" y2="220.66" style="fill:none;stroke:#263238;stroke-linejoin:round"></line><path d="M481.06,189.2c-1.33-2.5-14.25-7.91-22-3.56,0,0-10.09,3.56-13.46,11.67-2.63,6.35-1.61,9.42,2.84,10.17l3.3,9.42-.4-2.77-.48-6.46c.64,0,1.32,0,2.06-.07,8.12-.59,15.24-2.37,18.8-4a16.8,16.8,0,0,0,5.34-3.56,52.61,52.61,0,0,0,0,5.74c.2,1.58,2.38,3.36,2.38,3.36l.19,6.14,1.19-.2.79-6.92,1-2.77C483.34,206.4,485.09,196.77,481.06,189.2Z" style="fill:#263238;stroke:#263238;stroke-linejoin:round"></path><line x1="489.57" y1="263.6" x2="497.68" y2="273.69" style="fill:none;stroke:#263238;stroke-linejoin:round"></line><path d="M495.5,260.83l3.17,23.34-30.47,4.55.2,12.27,4.94.4a14.45,14.45,0,0,0,7.92,2.77c4.35,0,26.71-2.77,30.66-3.76s6.34-2,6.73-5.74-8.11-43.33-8.7-45.9-10.29-5.54-10.29-5.54" style="fill:#BA68C8;stroke:#263238;stroke-linejoin:round"></path><path d="M507.77,286.35c-3.36-2.38-9.1-2.18-9.1-2.18s4.94-2.17,8.9-.79" style="fill:none;stroke:#263238;stroke-linejoin:round"></path><line x1="473.34" y1="288.92" x2="473.74" y2="300.4" style="fill:none;stroke:#263238;stroke-linejoin:round"></line><path d="M468.2,288.72l-9.89-.59-12.07-5.94-2.18,1.19s-4.55,8.51-3.56,9.1,2.37,2.38,3.16,2.38,2.58-1.39,2.58-1.39,4.74,4.75,7.71,4.75a13.17,13.17,0,0,0,5.34-1.19l9.3,1.19Z" style="fill:#fff;stroke:#263238;stroke-linejoin:round"></path><polyline points="446.24 293.47 443.66 291.3 443.07 292.29" style="fill:none;stroke:#263238;stroke-linejoin:round"></polyline><rect x="460.48" y="287.73" width="2.77" height="10.09" style="fill:#263238;stroke:#263238;stroke-miterlimit:10"></rect><ellipse cx="461.87" cy="288.53" rx="2.77" ry="1.58" style="fill:#fff;stroke:#263238;stroke-linejoin:round"></ellipse><path d="M429.81,246.38s-9.89,55.4-9.89,58.77S434.36,323,434.36,323l6.53-6.33-4.35-19Z" style="fill:#BA68C8;stroke:#263238;stroke-linejoin:round"></path><path d="M425.86,299.8s5.73-3.16,9.89-2.57" style="fill:none;stroke:#263238;stroke-linejoin:round"></path><path d="M423.09,299.41s4.94-4,8.7-4" style="fill:none;stroke:#263238;stroke-linejoin:round"></path><path d="M431.4,320s-.2-5.94,8.7-6.14" style="fill:none;stroke:#263238;stroke-linejoin:round"></path><path d="M440.89,316.62l8.65,2.86a32.49,32.49,0,0,1,2,4.46c.71,2.15,1.79,4.29,1.79,4.83s-.18,1.25-.9,1.25-3.75-2.68-3.75-2.68l-1.78-.9s2.32,3.22,2.85,3.4a26.11,26.11,0,0,1,2.68,1.6s4.65-2.14,4.65-.35-6.79,5.71-6.79,5.71-5.72-1.07-6.79-1.78S434.36,323,434.36,323Z" style="fill:#fff;stroke:#263238;stroke-linejoin:round"></path></g><g id="freepik--Door--inject-2"><rect x="104.9" y="64" width="162.66" height="367.5" style="fill:#fff;stroke:#263238;stroke-linejoin:round"></rect><rect x="111.92" y="75.05" width="71.29" height="77.98" style="fill:#fff;stroke:#263238;stroke-linejoin:round"></rect><rect x="120.43" y="84.35" width="54.29" height="59.38" style="fill:#fff;stroke:#263238;stroke-linejoin:round"></rect><line x1="120.43" y1="84.35" x2="111.92" y2="75.05" style="fill:#fff;stroke:#263238;stroke-linejoin:round"></line><line x1="120.43" y1="143.73" x2="111.92" y2="153.03" style="fill:#fff;stroke:#263238;stroke-linejoin:round"></line><line x1="174.71" y1="84.35" x2="183.22" y2="75.05" style="fill:#fff;stroke:#263238;stroke-linejoin:round"></line><line x1="174.71" y1="143.73" x2="183.22" y2="153.03" style="fill:#fff;stroke:#263238;stroke-linejoin:round"></line><rect x="188.94" y="75.05" width="71.29" height="77.98" style="fill:#fff;stroke:#263238;stroke-linejoin:round"></rect><rect x="197.44" y="84.35" width="54.29" height="59.38" style="fill:#fff;stroke:#263238;stroke-linejoin:round"></rect><line x1="197.44" y1="84.35" x2="188.94" y2="75.05" style="fill:#fff;stroke:#263238;stroke-linejoin:round"></line><line x1="197.44" y1="143.73" x2="188.94" y2="153.03" style="fill:#fff;stroke:#263238;stroke-linejoin:round"></line><line x1="251.73" y1="84.35" x2="260.23" y2="75.05" style="fill:#fff;stroke:#263238;stroke-linejoin:round"></line><line x1="251.73" y1="143.73" x2="260.23" y2="153.03" style="fill:#fff;stroke:#263238;stroke-linejoin:round"></line><rect x="111.92" y="161.06" width="71.29" height="77.98" style="fill:#fff;stroke:#263238;stroke-linejoin:round"></rect><rect x="120.43" y="170.36" width="54.29" height="59.38" style="fill:#fff;stroke:#263238;stroke-linejoin:round"></rect><line x1="120.43" y1="170.36" x2="111.92" y2="161.06" style="fill:#fff;stroke:#263238;stroke-linejoin:round"></line><line x1="120.43" y1="229.75" x2="111.92" y2="239.05" style="fill:#fff;stroke:#263238;stroke-linejoin:round"></line><line x1="174.71" y1="170.36" x2="183.22" y2="161.06" style="fill:#fff;stroke:#263238;stroke-linejoin:round"></line><line x1="174.71" y1="229.75" x2="183.22" y2="239.05" style="fill:#fff;stroke:#263238;stroke-linejoin:round"></line><rect x="188.94" y="161.06" width="71.29" height="77.98" style="fill:#fff;stroke:#263238;stroke-linejoin:round"></rect><rect x="197.44" y="170.36" width="54.29" height="59.38" style="fill:#fff;stroke:#263238;stroke-linejoin:round"></rect><line x1="197.44" y1="170.36" x2="188.94" y2="161.06" style="fill:#fff;stroke:#263238;stroke-linejoin:round"></line><line x1="197.44" y1="229.75" x2="188.94" y2="239.05" style="fill:#fff;stroke:#263238;stroke-linejoin:round"></line><line x1="251.73" y1="170.36" x2="260.23" y2="161.06" style="fill:#fff;stroke:#263238;stroke-linejoin:round"></line><line x1="251.73" y1="229.75" x2="260.23" y2="239.05" style="fill:#fff;stroke:#263238;stroke-linejoin:round"></line><rect x="111.92" y="256.12" width="71.29" height="77.98" style="fill:#fff;stroke:#263238;stroke-linejoin:round"></rect><rect x="120.43" y="265.42" width="54.29" height="59.38" style="fill:#fff;stroke:#263238;stroke-linejoin:round"></rect><line x1="120.43" y1="265.42" x2="111.92" y2="256.12" style="fill:#fff;stroke:#263238;stroke-linejoin:round"></line><line x1="120.43" y1="324.8" x2="111.92" y2="334.1" style="fill:#fff;stroke:#263238;stroke-linejoin:round"></line><line x1="174.71" y1="265.42" x2="183.22" y2="256.12" style="fill:#fff;stroke:#263238;stroke-linejoin:round"></line><line x1="174.71" y1="324.8" x2="183.22" y2="334.1" style="fill:#fff;stroke:#263238;stroke-linejoin:round"></line><rect x="188.94" y="256.12" width="71.29" height="77.98" style="fill:#fff;stroke:#263238;stroke-linejoin:round"></rect><rect x="197.44" y="265.42" width="54.29" height="59.38" style="fill:#fff;stroke:#263238;stroke-linejoin:round"></rect><line x1="197.44" y1="265.42" x2="188.94" y2="256.12" style="fill:#fff;stroke:#263238;stroke-linejoin:round"></line><line x1="197.44" y1="324.8" x2="188.94" y2="334.1" style="fill:#fff;stroke:#263238;stroke-linejoin:round"></line><line x1="251.73" y1="265.42" x2="260.23" y2="256.12" style="fill:#fff;stroke:#263238;stroke-linejoin:round"></line><line x1="251.73" y1="324.8" x2="260.23" y2="334.1" style="fill:#fff;stroke:#263238;stroke-linejoin:round"></line><rect x="111.92" y="342.14" width="71.29" height="77.98" style="fill:#fff;stroke:#263238;stroke-linejoin:round"></rect><rect x="120.43" y="351.44" width="54.29" height="59.38" style="fill:#fff;stroke:#263238;stroke-linejoin:round"></rect><line x1="120.43" y1="351.44" x2="111.92" y2="342.14" style="fill:#fff;stroke:#263238;stroke-linejoin:round"></line><line x1="120.43" y1="410.82" x2="111.92" y2="420.12" style="fill:#fff;stroke:#263238;stroke-linejoin:round"></line><line x1="174.71" y1="351.44" x2="183.22" y2="342.14" style="fill:#fff;stroke:#263238;stroke-linejoin:round"></line><line x1="174.71" y1="410.82" x2="183.22" y2="420.12" style="fill:#fff;stroke:#263238;stroke-linejoin:round"></line><rect x="188.94" y="342.14" width="71.29" height="77.98" style="fill:#fff;stroke:#263238;stroke-linejoin:round"></rect><rect x="197.44" y="351.44" width="54.29" height="59.38" style="fill:#fff;stroke:#263238;stroke-linejoin:round"></rect><line x1="197.44" y1="351.44" x2="188.94" y2="342.14" style="fill:#fff;stroke:#263238;stroke-linejoin:round"></line><line x1="197.44" y1="410.82" x2="188.94" y2="420.12" style="fill:#fff;stroke:#263238;stroke-linejoin:round"></line><line x1="251.73" y1="351.44" x2="260.23" y2="342.14" style="fill:#fff;stroke:#263238;stroke-linejoin:round"></line><line x1="251.73" y1="410.82" x2="260.23" y2="420.12" style="fill:#fff;stroke:#263238;stroke-linejoin:round"></line><circle cx="255.18" cy="247.41" r="7.36" transform="translate(-36.41 44.18) rotate(-9.24)" style="fill:#fff;stroke:#263238;stroke-linejoin:round"></circle><path d="M257.85,247.41a2.68,2.68,0,1,0-2.67,2.68A2.68,2.68,0,0,0,257.85,247.41Z" style="fill:#fff;stroke:#263238;stroke-linejoin:round"></path></g></svg>